<svg xmlns="http://www.w3.org/2000/svg" width="61.589" height="50.835" viewBox="0 0 61.589 50.835">
  <g id="Group_517" data-name="Group 517" transform="translate(-7.5 -16.667)">
    <circle id="Ellipse_99" data-name="Ellipse 99" cx="19.608" cy="19.608" r="19.608" transform="translate(7.5 21.695)" fill="#e5e5e5"/>
    <g id="Group_513" data-name="Group 513" transform="translate(13.533 29.292)">
      <path id="Path_734" data-name="Path 734" d="M22.5,48.81H76.045v36.2H22.5Z" transform="translate(-21.494 -47.804)" fill="#fff"/>
      <path id="Path_735" data-name="Path 735" d="M74.938,84.877H21.332a.991.991,0,0,1-.975-1.006v-36.2a.991.991,0,0,1,.975-1.006H74.938a.99.99,0,0,1,.975,1.006v36.2A.99.99,0,0,1,74.938,84.877ZM22.306,82.867H73.964V48.678H22.306Z" transform="translate(-20.357 -46.667)" fill="#3b1a16"/>
    </g>
    <g id="Group_514" data-name="Group 514" transform="translate(9.511 16.667)">
      <path id="Path_736" data-name="Path 736" d="M95.836,63.678H87.792a1.005,1.005,0,1,1,0-2.011h8.044a1.005,1.005,0,1,1,0,2.011Z" transform="translate(-53.024 -41.229)" fill="#3b1a16"/>
      <path id="Path_737" data-name="Path 737" d="M103.88,74.392H87.792a1.006,1.006,0,0,1,0-2.011H103.88a1.006,1.006,0,0,1,0,2.011Z" transform="translate(-53.352 -47.077)" fill="#3b1a16"/>
      <path id="Path_738" data-name="Path 738" d="M103.88,85.106H87.792a1.006,1.006,0,0,1,0-2.011H103.88a1.006,1.006,0,0,1,0,2.011Z" transform="translate(-53.352 -52.925)" fill="#3b1a16"/>
      <path id="Path_739" data-name="Path 739" d="M103.88,95.821H87.792a1.005,1.005,0,1,1,0-2.011H103.88a1.005,1.005,0,1,1,0,2.011Z" transform="translate(-53.352 -58.773)" fill="#3b1a16"/>
      <path id="Path_740" data-name="Path 740" d="M88.4,111.415a1.006,1.006,0,0,1-.711-1.717l3.2-3.2a1.005,1.005,0,1,1,1.422,1.422l-3.2,3.2A1,1,0,0,1,88.4,111.415Z" transform="translate(-53.214 -65.641)" fill="#3b1a16"/>
      <path id="Path_741" data-name="Path 741" d="M110.479,111.415a1,1,0,0,1-.669-.255l-1.794-1.6a1.006,1.006,0,0,1,1.338-1.5l1.085.968,2.528-2.528a1.005,1.005,0,1,1,1.422,1.422l-3.2,3.2A1,1,0,0,1,110.479,111.415Z" transform="translate(-64.441 -65.641)" fill="#3b1a16"/>
      <path id="Path_742" data-name="Path 742" d="M91.6,111.415a1,1,0,0,1-.711-.295l-3.2-3.2a1.005,1.005,0,1,1,1.422-1.422l3.2,3.2a1.006,1.006,0,0,1-.711,1.717Z" transform="translate(-53.213 -65.641)" fill="#3b1a16"/>
      <path id="Path_743" data-name="Path 743" d="M21.363,20.689a1.006,1.006,0,0,1-1.006-1.006V17.673a1.006,1.006,0,0,1,2.011,0v2.011A1.006,1.006,0,0,1,21.363,20.689Z" transform="translate(-16.335 -16.667)" fill="#3b1a16"/>
      <path id="Path_744" data-name="Path 744" d="M21.363,33.546a1.006,1.006,0,0,1-1.006-1.006V30.53a1.006,1.006,0,1,1,2.011,0V32.54A1.006,1.006,0,0,1,21.363,33.546Z" transform="translate(-16.335 -23.491)" fill="#3b1a16"/>
      <path id="Path_745" data-name="Path 745" d="M14.8,27.249H12.792a1.006,1.006,0,1,1,0-2.011H14.8a1.006,1.006,0,0,1,0,2.011Z" transform="translate(-11.786 -21.216)" fill="#3b1a16"/>
      <path id="Path_746" data-name="Path 746" d="M27.659,27.249H25.649a1.006,1.006,0,1,1,0-2.011h2.011a1.006,1.006,0,1,1,0,2.011Z" transform="translate(-18.61 -21.216)" fill="#3b1a16"/>
      <circle id="Ellipse_100" data-name="Ellipse 100" cx="1.075" cy="1.075" r="1.075" transform="translate(21 6.138)" fill="#3b1a16"/>
    </g>
    <g id="Group_515" data-name="Group 515" transform="translate(20.626 36.766)">
      <circle id="Ellipse_101" data-name="Ellipse 101" cx="6.131" cy="6.131" r="6.131" transform="translate(1.533 1.533)" fill="#fce0d3"/>
      <path id="Path_747" data-name="Path 747" d="M44.2,76.578a7.664,7.664,0,1,1,7.664-7.664A7.673,7.673,0,0,1,44.2,76.578Zm0-12.262a4.6,4.6,0,1,0,4.6,4.6A4.6,4.6,0,0,0,44.2,64.316Z" transform="translate(-36.537 -61.25)" fill="#3b1a16"/>
    </g>
    <g id="Group_516" data-name="Group 516" transform="translate(17.616 48.397)">
      <path id="Path_748" data-name="Path 748" d="M51.663,99.844H33.27a9.2,9.2,0,1,1,18.393,0Z" transform="translate(-31.737 -89.114)" fill="#9da645"/>
      <path id="Path_749" data-name="Path 749" d="M49.93,99.643H31.537A1.532,1.532,0,0,1,30,98.11a10.729,10.729,0,1,1,21.458,0A1.532,1.532,0,0,1,49.93,99.643ZM33.224,96.577H48.242a7.664,7.664,0,0,0-15.019,0Z" transform="translate(-30.004 -87.381)" fill="#3b1a16"/>
    </g>
    <circle id="Ellipse_102" data-name="Ellipse 102" cx="0.796" cy="0.796" r="0.796" transform="translate(29.73 42.626)" fill="#3b1a16"/>
    <path id="Path_750" data-name="Path 750" d="M52.7,79.63c0,.379-.57,1.593-1.274,1.593s-1.274-1.214-1.274-1.593.571-.685,1.274-.685S52.7,79.252,52.7,79.63Z" transform="translate(-23.217 -33.903)" fill="#3b1a16"/>
    <circle id="Ellipse_103" data-name="Ellipse 103" cx="0.796" cy="0.796" r="0.796" transform="translate(25.088 42.626)" fill="#3b1a16"/>
    <path id="Path_751" data-name="Path 751" d="M65.438,78.6H63.845a.8.8,0,1,1,0-1.592h1.593a.8.8,0,1,1,0,1.592Z" transform="translate(-30.245 -32.839)" fill="#e79897"/>
    <path id="Path_752" data-name="Path 752" d="M38.288,78.6H36.7a.8.8,0,1,1,0-1.592h1.592a.8.8,0,1,1,0,1.592Z" transform="translate(-15.463 -32.839)" fill="#e79897"/>
  </g>
</svg>
