<svg xmlns="http://www.w3.org/2000/svg" width="52" height="50.561" viewBox="0 0 52 50.561">
  <g id="Group_797" data-name="Group 797" transform="translate(-9.138 -14.827)">
    <g id="Group_792" data-name="Group 792" transform="translate(9.138 14.827)">
      <circle id="Ellipse_215" data-name="Ellipse 215" cx="15.961" cy="15.961" r="15.961" transform="translate(0 31.074) rotate(-76.755)" fill="#fce0d3"/>
      <g id="Group_785" data-name="Group 785" transform="translate(12.546 4.969)">
        <g id="Group_781" data-name="Group 781" transform="translate(8.768 0.001)">
          <path id="Path_1315" data-name="Path 1315" d="M69.57,31.286a.917.917,0,0,1-.125-.009.876.876,0,0,1-.744-.991l.248-1.736a.876.876,0,0,1,1.735.247l-.248,1.736a.876.876,0,0,1-.866.753Z" transform="translate(-67.186 -27.796)" fill="#fbbb42"/>
          <path id="Path_1316" data-name="Path 1316" d="M67.382,44.672a.932.932,0,0,1-.125-.009.877.877,0,0,1-.744-.992l.419-2.934a.877.877,0,1,1,1.735.248l-.419,2.934a.876.876,0,0,1-.867.753Z" transform="translate(-65.836 -35.314)" fill="#fbbb42"/>
          <path id="Path_1317" data-name="Path 1317" d="M65.64,58.789a.856.856,0,0,1-.125-.009.876.876,0,0,1-.745-.991l.248-1.736a.877.877,0,1,1,1.736.247l-.248,1.736a.876.876,0,0,1-.866.753Z" transform="translate(-64.762 -44.761)" fill="#fbbb42"/>
        </g>
        <g id="Group_782" data-name="Group 782" transform="translate(14.028 0.001)">
          <path id="Path_1318" data-name="Path 1318" d="M79.614,31.287a.876.876,0,0,1-.867-.753L78.5,28.8a.877.877,0,0,1,1.736-.247l.248,1.736a.876.876,0,0,1-.744.991.923.923,0,0,1-.125.009Z" transform="translate(-78.491 -27.798)" fill="#fbbb42"/>
          <path id="Path_1319" data-name="Path 1319" d="M81.526,44.673a.876.876,0,0,1-.866-.753l-.419-2.934a.877.877,0,0,1,1.735-.248l.419,2.934a.876.876,0,0,1-.744.992.865.865,0,0,1-.125.009Z" transform="translate(-79.565 -35.316)" fill="#fbbb42"/>
          <path id="Path_1320" data-name="Path 1320" d="M83.544,58.791a.876.876,0,0,1-.866-.753L82.43,56.3a.876.876,0,1,1,1.735-.247l.248,1.736a.876.876,0,0,1-.744.991.86.86,0,0,1-.125.009Z" transform="translate(-80.915 -44.763)" fill="#fbbb42"/>
        </g>
        <g id="Group_783" data-name="Group 783" transform="translate(17.535 0.001)">
          <path id="Path_1321" data-name="Path 1321" d="M89.346,31.1a.877.877,0,0,1-.774-.464l-.825-1.547a.877.877,0,1,1,1.547-.825l.825,1.547a.877.877,0,0,1-.772,1.289Z" transform="translate(-87.643 -27.796)" fill="#fbbb42"/>
          <path id="Path_1322" data-name="Path 1322" d="M97.128,45.689a.877.877,0,0,1-.774-.464l-1.787-3.352a.877.877,0,1,1,1.547-.826L97.9,44.4a.877.877,0,0,1-.773,1.289Z" transform="translate(-91.85 -35.683)" fill="#fbbb42"/>
          <path id="Path_1323" data-name="Path 1323" d="M105.5,61.382a.877.877,0,0,1-.774-.464L103.9,59.37a.877.877,0,1,1,1.547-.825l.825,1.547a.877.877,0,0,1-.772,1.289Z" transform="translate(-97.605 -46.477)" fill="#fbbb42"/>
        </g>
        <g id="Group_784" data-name="Group 784">
          <path id="Path_1324" data-name="Path 1324" d="M58.907,31.1a.877.877,0,0,1-.772-1.289l.825-1.547a.877.877,0,1,1,1.547.825l-.826,1.547a.876.876,0,0,1-.774.464Z" transform="translate(-51.843 -27.794)" fill="#fbbb42"/>
          <path id="Path_1325" data-name="Path 1325" d="M49.576,45.688A.877.877,0,0,1,48.8,44.4l1.787-3.353a.877.877,0,0,1,1.547.826L50.35,45.224a.876.876,0,0,1-.774.464Z" transform="translate(-46.087 -35.682)" fill="#fbbb42"/>
          <path id="Path_1326" data-name="Path 1326" d="M42.756,61.38a.877.877,0,0,1-.773-1.289l.825-1.547a.877.877,0,1,1,1.547.825l-.825,1.547a.876.876,0,0,1-.774.464Z" transform="translate(-41.88 -46.475)" fill="#fbbb42"/>
        </g>
      </g>
      <path id="Path_1327" data-name="Path 1327" d="M38.258,27.464a.993.993,0,1,1,1.12.846A.993.993,0,0,1,38.258,27.464Z" transform="translate(-27.094 -21.925)" fill="#3b1a16"/>
      <path id="Path_1328" data-name="Path 1328" d="M131.9,29.357a3.069,3.069,0,1,1,3.069-3.068A3.072,3.072,0,0,1,131.9,29.357Zm0-4.383a1.315,1.315,0,1,0,1.315,1.315A1.316,1.316,0,0,0,131.9,24.974Z" transform="translate(-82.967 -20.004)" fill="#3b1a16"/>
      <g id="Group_786" data-name="Group 786" transform="translate(7.286 31.272)">
        <path id="Path_1329" data-name="Path 1329" d="M30.44,98.729H67.264v17.535H30.44Z" transform="translate(-29.563 -97.852)" fill="#fff"/>
        <path id="Path_1330" data-name="Path 1330" d="M65.852,115.73H29.029a.877.877,0,0,1-.877-.877V97.318a.877.877,0,0,1,.877-.877H65.852a.877.877,0,0,1,.877.877v17.535A.877.877,0,0,1,65.852,115.73Zm-35.947-1.754h35.07V98.194H29.905Z" transform="translate(-28.152 -96.441)" fill="#3b1a16"/>
      </g>
      <g id="Group_787" data-name="Group 787" transform="translate(4.798 21.628)">
        <path id="Path_1331" data-name="Path 1331" d="M63.549,73.559H26.026s-2.077,8.195-2.077,8.353a3.416,3.416,0,0,0,6.349,1.76,3.4,3.4,0,0,0,5.848,0,3.076,3.076,0,0,0,2.924,1.665A3.412,3.412,0,0,0,42,83.671c1.1,1.286,1.679,1.665,2.924,1.665a3.411,3.411,0,0,0,2.924-1.665,3.4,3.4,0,0,0,5.849,0,3.4,3.4,0,0,0,5.848,0,3.416,3.416,0,0,0,6.349-1.76c0-.158-2.341-8.353-2.341-8.353Z" transform="translate(-23.072 -72.682)" fill="#df291f"/>
        <path id="Path_1332" data-name="Path 1332" d="M61.053,84.8a4.245,4.245,0,0,1-2.924-1.157,4.274,4.274,0,0,1-5.848,0,4.274,4.274,0,0,1-5.849,0A4.245,4.245,0,0,1,43.507,84.8a3.659,3.659,0,0,1-2.881-1.2,4.245,4.245,0,0,1-2.968,1.2,3.828,3.828,0,0,1-2.942-1.14,4.274,4.274,0,0,1-5.831-.017A4.246,4.246,0,0,1,25.96,84.8a4.307,4.307,0,0,1-4.3-4.3c0-.138,0-.268,2.1-8.568a.877.877,0,0,1,.849-.661H62.137a.877.877,0,0,1,.843.636c2.375,8.313,2.375,8.437,2.375,8.594a4.307,4.307,0,0,1-4.3,4.3Zm-2.924-3.419a.878.878,0,0,1,.751.424,2.525,2.525,0,0,0,2.173,1.241A2.552,2.552,0,0,0,63.6,80.587c-.162-.651-1.305-4.689-2.124-7.562H25.3c-.751,2.97-1.748,6.938-1.881,7.551a2.539,2.539,0,0,0,4.72,1.231.877.877,0,0,1,1.5,0,2.523,2.523,0,0,0,4.347,0,.877.877,0,0,1,.742-.424h.009a.876.876,0,0,1,.741.409,2.225,2.225,0,0,0,2.183,1.256,2.526,2.526,0,0,0,2.173-1.241.876.876,0,0,1,1.417-.117c1.025,1.2,1.382,1.359,2.258,1.359a2.525,2.525,0,0,0,2.173-1.241.912.912,0,0,1,1.5,0,2.523,2.523,0,0,0,4.347,0,.912.912,0,0,1,1.5,0,2.523,2.523,0,0,0,4.346,0,.877.877,0,0,1,.751-.424Z" transform="translate(-21.659 -71.271)" fill="#3b1a16"/>
      </g>
      <g id="Group_788" data-name="Group 788" transform="translate(22.844 21.628)">
        <path id="Path_1333" data-name="Path 1333" d="M71.046,83.671c1.1,1.286,1.679,1.665,2.924,1.665a3.411,3.411,0,0,0,2.924-1.665l-.366-10.112H71.268Z" transform="translate(-70.169 -72.682)" fill="#fff"/>
        <path id="Path_1334" data-name="Path 1334" d="M72.558,84.8c-1.629,0-2.425-.609-3.591-1.973a.878.878,0,0,1-.21-.589l.223-10.112a.877.877,0,0,1,.877-.858h5.261a.877.877,0,0,1,.876.845l.366,10.112a.878.878,0,0,1-.125.484,4.265,4.265,0,0,1-3.675,2.09Zm-2.04-2.862c.863.972,1.229,1.109,2.04,1.109A2.517,2.517,0,0,0,74.6,82.01l-.325-8.986H70.714Z" transform="translate(-68.756 -71.271)" fill="#3b1a16"/>
      </g>
      <g id="Group_789" data-name="Group 789" transform="translate(33.588 21.628)">
        <path id="Path_1335" data-name="Path 1335" d="M100.038,83.671a3.4,3.4,0,0,0,5.849,0l-1.542-10.112H99.084Z" transform="translate(-98.207 -72.682)" fill="#fff"/>
        <path id="Path_1336" data-name="Path 1336" d="M101.55,84.8a4.266,4.266,0,0,1-3.675-2.09.872.872,0,0,1-.122-.371L96.8,72.23a.877.877,0,0,1,.873-.959h5.261a.877.877,0,0,1,.867.744l1.542,10.112a.879.879,0,0,1-.116.585A4.266,4.266,0,0,1,101.55,84.8Zm-2.071-2.839a2.519,2.519,0,0,0,4.077.09l-1.376-9.029H98.635Z" transform="translate(-96.795 -71.271)" fill="#3b1a16"/>
      </g>
      <g id="Group_790" data-name="Group 790" transform="translate(11.147 21.628)">
        <path id="Path_1337" data-name="Path 1337" d="M46.367,83.887a3.674,3.674,0,0,1-5.848,0l1.4-10.328h5.261Z" transform="translate(-39.642 -72.682)" fill="#fff"/>
        <path id="Path_1338" data-name="Path 1338" d="M42.032,84.8a4.4,4.4,0,0,1-3.645-1.827.875.875,0,0,1-.148-.617l1.4-10.328a.877.877,0,0,1,.869-.759h5.261a.877.877,0,0,1,.874.945l-.81,10.328a.885.885,0,0,1-.153.431A4.4,4.4,0,0,1,42.032,84.8Zm-2.005-2.58a2.839,2.839,0,0,0,4.075-.073l.717-9.125H41.272Zm4.93.253h0Z" transform="translate(-38.231 -71.271)" fill="#3b1a16"/>
      </g>
      <path id="Path_1339" data-name="Path 1339" d="M61.233,143.957H13.012a.877.877,0,0,1,0-1.754H61.233a.877.877,0,1,1,0,1.754Z" transform="translate(-10.987 -93.396)" fill="#3b1a16"/>
      <g id="Group_791" data-name="Group 791" transform="translate(0.272 6.723)">
        <path id="Path_1340" data-name="Path 1340" d="M18.062,37.521,20.9,39.045,18.08,40.588l-1.561,2.841-1.562-2.859-2.822-1.524,2.822-1.524,1.562-2.86Z" transform="translate(-11.258 -33.784)" fill="#30acab"/>
        <path id="Path_1341" data-name="Path 1341" d="M15.108,42.894h0a.878.878,0,0,1-.768-.457L12.9,39.806l-2.594-1.4a.877.877,0,0,1,0-1.543l2.594-1.4,1.437-2.632a.877.877,0,0,1,.77-.456h0a.877.877,0,0,1,.769.461L17.3,35.461l2.609,1.4a.877.877,0,0,1,.006,1.542l-2.6,1.42L15.876,42.44a.877.877,0,0,1-.768.454Zm-2.539-5.261,1.394.753a.876.876,0,0,1,.353.352l.794,1.455.79-1.438a.874.874,0,0,1,.348-.347l1.4-.766-1.414-.759a.873.873,0,0,1-.357-.356L15.1,35.088l-.787,1.441a.881.881,0,0,1-.353.352Z" transform="translate(-9.847 -32.373)" fill="#3b1a16"/>
      </g>
    </g>
    <g id="Group_796" data-name="Group 796" transform="translate(28.587 51.741)">
      <g id="Group_793" data-name="Group 793">
        <path id="Path_1342" data-name="Path 1342" d="M60.545,111.983a.284.284,0,0,1,.3-.17c.423,0,.846,0,1.269,0a.272.272,0,0,1,.314.26c.071.376.144.751.219,1.14h8.764a.744.744,0,0,1,.163.012.215.215,0,0,1,.166.274q-.462,1.849-.924,3.7a.211.211,0,0,1-.2.174l-1.873.257-2.47.338-2.317.318c-.042.006-.084.014-.141.023a1.06,1.06,0,0,0,.829.5,2.079,2.079,0,0,0,.219.006h5.088a.957.957,0,0,1,.152.009.216.216,0,0,1,.2.221.219.219,0,0,1-.2.23,1.013,1.013,0,0,1-.153.008c-1.707,0-3.414-.012-5.121.006a1.728,1.728,0,0,1-1.748-1.442c-.338-1.83-.712-3.654-1.069-5.48-.015-.077-.05-.089-.118-.089-.35,0-.7,0-1.05,0a.284.284,0,0,1-.3-.17Zm10.643,1.663H62.742l.837,4.187c.043,0,.079,0,.114-.008l2.255-.3,2.429-.316q.96-.124,1.92-.247a.127.127,0,0,0,.127-.115c.184-.78.372-1.559.559-2.338C71.051,114.228,71.118,113.941,71.188,113.646Z" transform="translate(-60.296 -111.564)" fill="#4ea1b5"/>
        <path id="Path_1343" data-name="Path 1343" d="M64.407,119.142a1.981,1.981,0,0,1-1.972-1.646c-.228-1.229-.471-2.455-.714-3.682q-.167-.841-.332-1.683h-.945a.522.522,0,0,1-.529-.322l-.02-.046v-.233l.02-.047a.522.522,0,0,1,.525-.322h1.273a.516.516,0,0,1,.558.463l.18.938h8.558a.953.953,0,0,1,.218.018.463.463,0,0,1,.352.577l-.923,3.7a.457.457,0,0,1-.405.36l-6.287.863a.934.934,0,0,0,.308.082c.051,0,.1,0,.155,0h5.125a1.156,1.156,0,0,1,.193.013.463.463,0,0,1,.407.462.467.467,0,0,1-.412.481,1.3,1.3,0,0,1-.192.012l-1.532,0c-1.2,0-2.39,0-3.586.008ZM63.052,117.8a1.467,1.467,0,0,0,.247.369,1.461,1.461,0,0,1-.092-.128Zm-.1-.267a1.54,1.54,0,0,0,.062.186l.319-.052-.012,0c-.03,0-.062.006-.1.008l-.214.01Zm-.309-4.041.733,3.667,4.792-.625q.813-.106,1.625-.209c.131-.559.266-1.114.4-1.67l.278-1.163Zm7.554,3.164a.349.349,0,0,1-.067.073l.051-.007Zm.887-3.594-.059.251.063-.251Zm-9.43-1.4a.311.311,0,0,1,.135.107l-.01-.05a.3.3,0,0,0-.015-.055.316.316,0,0,0-.055,0Z" transform="translate(-59.895 -111.163)" fill="#4ea1b5"/>
      </g>
      <g id="Group_794" data-name="Group 794" transform="translate(2.802 7.941)">
        <path id="Path_1344" data-name="Path 1344" d="M67.858,133.7a1.167,1.167,0,1,1,1.163,1.172A1.16,1.16,0,0,1,67.858,133.7Zm1.864.01a.7.7,0,1,0-.7.692A.719.719,0,0,0,69.722,133.71Z" transform="translate(-67.609 -132.288)" fill="#4ea1b5"/>
        <path id="Path_1345" data-name="Path 1345" d="M68.626,134.72h-.008a1.417,1.417,0,1,1,.006-2.833h0a1.417,1.417,0,0,1,0,2.833Zm-.007-1.868a.478.478,0,0,0-.446.451.431.431,0,0,0,.13.3.457.457,0,0,0,.318.144h0a.465.465,0,0,0,.448-.445.472.472,0,0,0-.447-.454Z" transform="translate(-67.208 -131.887)" fill="#4ea1b5"/>
      </g>
      <g id="Group_795" data-name="Group 795" transform="translate(7.471 7.941)">
        <path id="Path_1346" data-name="Path 1346" d="M81.211,132.537a1.168,1.168,0,1,1-1.169,1.166A1.161,1.161,0,0,1,81.211,132.537Zm0,1.865a.7.7,0,1,0-.7-.7A.719.719,0,0,0,81.208,134.4Z" transform="translate(-79.793 -132.288)" fill="#4ea1b5"/>
        <path id="Path_1347" data-name="Path 1347" d="M80.81,134.72h0a1.417,1.417,0,0,1,0-2.833h0a1.417,1.417,0,1,1,0,2.833Zm0-.969h0a.469.469,0,0,0,.451-.448.476.476,0,0,0-.451-.451h0a.444.444,0,0,0-.305.134.455.455,0,0,0-.14.316.464.464,0,0,0,.447.449Z" transform="translate(-79.392 -131.887)" fill="#4ea1b5"/>
      </g>
    </g>
  </g>
</svg>
