<svg id="Group_175" data-name="Group 175" xmlns="http://www.w3.org/2000/svg" width="20" height="20.313" viewBox="0 0 20 20.313">
  <g id="Group_163" data-name="Group 163">
    <g id="Group_162" data-name="Group 162">
      <path id="Path_77" data-name="Path 77" d="M-142.029,17.752a.676.676,0,0,1-.276-.055l-.057-.024a.958.958,0,0,1-.6-.527,1.069,1.069,0,0,1,.252-1.029c.431-.443.9-.919,1.417-1.359a2.267,2.267,0,0,0,.838-1.911c-.026-1.209-.044-2.805.048-4.4A7.789,7.789,0,0,1-135.375,1.7a.452.452,0,0,0,.056-.023s0-.013.008-.024A2.277,2.277,0,0,1-132.964,0a2.33,2.33,0,0,1,2.244,1.731,7.617,7.617,0,0,1,5.076,6.523,11.273,11.273,0,0,1,.073,1.671c0,.2,0,.392,0,.587.006.433.008.867.01,1.3,0,.543.006,1.088.016,1.632a1.6,1.6,0,0,0,.631,1.2c.325.294.644.589.963.885l.522.482a1.014,1.014,0,0,1,.362,1.132.922.922,0,0,1-.978.6h-17.842A1.232,1.232,0,0,1-142.029,17.752Zm.058-.837,0,0Zm.281-.287h17.323l-.285-.263c-.316-.293-.632-.586-.95-.873a2.723,2.723,0,0,1-1-2.023c-.01-.551-.013-1.1-.016-1.648,0-.432,0-.863-.01-1.292,0-.2,0-.407,0-.611a10.27,10.27,0,0,0-.062-1.5A6.5,6.5,0,0,0-131.1,2.772a.95.95,0,0,1-.624-.685,1.264,1.264,0,0,0-1.252-.973,1.222,1.222,0,0,0-1.329.892,1.1,1.1,0,0,1-.738.756,6.648,6.648,0,0,0-4.3,5.749c-.09,1.556-.072,3.122-.046,4.312a3.4,3.4,0,0,1-1.228,2.8C-141,15.94-141.352,16.287-141.69,16.629Z" transform="translate(143.008 0)" fill="#a4a5a2"/>
    </g>
    <path id="Path_78" data-name="Path 78" d="M-105.972,122.115h-13.292c-.335,0-.607-.177-.607-.4s.272-.4.607-.4h13.292c.335,0,.607.177.607.4S-105.637,122.115-105.972,122.115Z" transform="translate(122.617 -101.802)" fill="#a4a5a2"/>
  </g>
</svg>
