<svg xmlns="http://www.w3.org/2000/svg" width="40" height="40" viewBox="0 0 40 40">
  <g id="Group_658" data-name="Group 658" transform="translate(-641.63 -1138.969)">
    <circle id="Ellipse_150" data-name="Ellipse 150" cx="20" cy="20" r="20" transform="translate(641.63 1138.969)" fill="#fff"/>
    <g id="Group_657" data-name="Group 657">
      <g id="Group_656" data-name="Group 656">
        <g id="Group_655" data-name="Group 655">
          <path id="Path_1140" data-name="Path 1140" d="M671.9,1153.006a2.366,2.366,0,0,0-1.736-.732h-3.473v-.042a1.878,1.878,0,0,0-.565-1.36,1.918,1.918,0,0,0-1.36-.565h-6.277a1.927,1.927,0,0,0-1.945,1.925v.042h-3.453a2.366,2.366,0,0,0-1.736.732,2.49,2.49,0,0,0-.732,1.737v10.419a2.366,2.366,0,0,0,.732,1.736,2.484,2.484,0,0,0,1.736.733h17.073a2.363,2.363,0,0,0,1.736-.733,2.484,2.484,0,0,0,.733-1.736v-10.419A2.366,2.366,0,0,0,671.9,1153.006Zm-.355,12.156h-.021a1.359,1.359,0,0,1-1.36,1.36H653.093a1.359,1.359,0,0,1-1.36-1.36v-10.419a1.357,1.357,0,0,1,1.36-1.36h4.038a.563.563,0,0,0,.565-.565v-.607a.787.787,0,0,1,.816-.816h6.256a.787.787,0,0,1,.816.816v.607a.563.563,0,0,0,.565.565h4.038a1.357,1.357,0,0,1,1.36,1.36Z" fill="#a6a7a7"/>
          <path id="Path_1141" data-name="Path 1141" d="M661.63,1154.806a5.142,5.142,0,1,0,3.64,1.506A5.155,5.155,0,0,0,661.63,1154.806Zm2.845,8.013a4.043,4.043,0,0,1-5.691,0,4,4,0,0,1-1.171-2.846,4.088,4.088,0,0,1,1.171-2.845,4,4,0,0,1,2.846-1.172,4.09,4.09,0,0,1,2.845,1.172,4,4,0,0,1,1.172,2.845A3.918,3.918,0,0,1,664.475,1162.819Z" fill="#a6a7a7"/>
          <circle id="Ellipse_151" data-name="Ellipse 151" cx="1.025" cy="1.025" r="1.025" transform="translate(668.053 1154.785)" fill="#a6a7a7"/>
        </g>
      </g>
    </g>
  </g>
</svg>
