<svg xmlns="http://www.w3.org/2000/svg" width="104" height="104" viewBox="0 0 104 104">
  <g id="Group_625" data-name="Group 625" transform="translate(-156 -412.667)">
    <g id="Group_620" data-name="Group 620">
      <rect id="Rectangle_80" data-name="Rectangle 80" width="103" height="103" rx="30" transform="translate(156.5 413.167)" fill="none" stroke="#f6f5f4" stroke-miterlimit="10" stroke-width="1"/>
      <text id="我的名片" transform="translate(208 497.175)" fill="#767676" font-size="16" font-family="MicrosoftJhengHeiRegular, Microsoft JhengHei"><tspan x="-32" y="0">我的名片</tspan></text>
      <g id="Group_517" data-name="Group 517" transform="translate(183.5 421.333)">
        <circle id="Ellipse_99" data-name="Ellipse 99" cx="11.143" cy="11.143" r="11.143" transform="translate(7.5 19.524)" fill="#e5e5e5"/>
        <g id="Group_513" data-name="Group 513" transform="translate(10.929 23.842)">
          <path id="Path_734" data-name="Path 734" d="M22.5,48.81H52.929V69.381H22.5Z" transform="translate(-21.929 -48.239)" fill="#fff"/>
          <path id="Path_735" data-name="Path 735" d="M51.375,68.381H20.911a.563.563,0,0,1-.554-.571V47.238a.563.563,0,0,1,.554-.571H51.375a.563.563,0,0,1,.554.571V67.81A.563.563,0,0,1,51.375,68.381Zm-29.91-1.143H50.821V47.81H21.465Z" transform="translate(-20.357 -46.667)" fill="#3b1a16"/>
        </g>
        <g id="Group_514" data-name="Group 514" transform="translate(8.643 16.667)">
          <path id="Path_736" data-name="Path 736" d="M91.929,62.81H87.357a.571.571,0,1,1,0-1.143h4.571a.571.571,0,1,1,0,1.143Z" transform="translate(-67.6 -50.052)" fill="#3b1a16"/>
          <path id="Path_737" data-name="Path 737" d="M96.5,73.524H87.357a.571.571,0,0,1,0-1.143H96.5a.571.571,0,0,1,0,1.143Z" transform="translate(-67.786 -58.001)" fill="#3b1a16"/>
          <path id="Path_738" data-name="Path 738" d="M96.5,84.238H87.357a.571.571,0,0,1,0-1.143H96.5a.571.571,0,0,1,0,1.143Z" transform="translate(-67.786 -65.95)" fill="#3b1a16"/>
          <path id="Path_739" data-name="Path 739" d="M96.5,94.953H87.357a.571.571,0,1,1,0-1.143H96.5a.571.571,0,1,1,0,1.143Z" transform="translate(-67.786 -73.899)" fill="#3b1a16"/>
          <path id="Path_740" data-name="Path 740" d="M87.967,109.165a.571.571,0,0,1-.4-.975l1.818-1.818a.571.571,0,1,1,.808.808L88.371,109A.569.569,0,0,1,87.967,109.165Z" transform="translate(-67.971 -83.153)" fill="#3b1a16"/>
          <path id="Path_741" data-name="Path 741" d="M109.27,109.165a.569.569,0,0,1-.38-.145l-1.02-.909a.572.572,0,0,1,.761-.853l.617.55,1.437-1.437a.571.571,0,1,1,.808.808L109.674,109A.569.569,0,0,1,109.27,109.165Z" transform="translate(-83.108 -83.153)" fill="#3b1a16"/>
          <path id="Path_742" data-name="Path 742" d="M89.784,109.165a.57.57,0,0,1-.4-.167l-1.818-1.818a.571.571,0,0,1,.808-.808l1.818,1.818a.571.571,0,0,1-.4.975Z" transform="translate(-67.97 -83.153)" fill="#3b1a16"/>
          <path id="Path_743" data-name="Path 743" d="M20.928,18.953a.571.571,0,0,1-.571-.571V17.238a.571.571,0,1,1,1.143,0v1.143A.571.571,0,0,1,20.928,18.953Z" transform="translate(-18.071 -16.667)" fill="#3b1a16"/>
          <path id="Path_744" data-name="Path 744" d="M20.928,31.81a.571.571,0,0,1-.571-.571V30.1a.571.571,0,0,1,1.143,0v1.143A.571.571,0,0,1,20.928,31.81Z" transform="translate(-18.071 -26.095)" fill="#3b1a16"/>
          <path id="Path_745" data-name="Path 745" d="M13.5,26.381H12.357a.571.571,0,1,1,0-1.143H13.5a.571.571,0,0,1,0,1.143Z" transform="translate(-11.786 -22.952)" fill="#3b1a16"/>
          <path id="Path_746" data-name="Path 746" d="M26.357,26.381H25.214a.571.571,0,0,1,0-1.143h1.143a.571.571,0,1,1,0,1.143Z" transform="translate(-21.214 -22.952)" fill="#3b1a16"/>
          <circle id="Ellipse_100" data-name="Ellipse 100" cx="0.611" cy="0.611" r="0.611" transform="translate(11.934 3.488)" fill="#3b1a16"/>
        </g>
        <g id="Group_515" data-name="Group 515" transform="translate(14.959 28.089)">
          <circle id="Ellipse_101" data-name="Ellipse 101" cx="3.484" cy="3.484" r="3.484" transform="translate(0.871 0.871)" fill="#fce0d3"/>
          <path id="Path_747" data-name="Path 747" d="M40.892,69.96a4.355,4.355,0,1,1,4.355-4.355A4.36,4.36,0,0,1,40.892,69.96Zm0-6.968a2.613,2.613,0,1,0,2.613,2.613A2.616,2.616,0,0,0,40.892,62.992Z" transform="translate(-36.537 -61.25)" fill="#3b1a16"/>
        </g>
        <g id="Group_516" data-name="Group 516" transform="translate(13.249 34.699)">
          <path id="Path_748" data-name="Path 748" d="M43.723,95.873H33.27a5.226,5.226,0,1,1,10.453,0Z" transform="translate(-32.399 -89.776)" fill="#9da645"/>
          <path id="Path_749" data-name="Path 749" d="M41.327,94.349H30.875A.871.871,0,0,1,30,93.478a6.1,6.1,0,1,1,12.194,0A.871.871,0,0,1,41.327,94.349Zm-9.494-1.742h8.535a4.356,4.356,0,0,0-8.535,0Z" transform="translate(-30.004 -87.381)" fill="#3b1a16"/>
        </g>
        <circle id="Ellipse_102" data-name="Ellipse 102" cx="0.452" cy="0.452" r="0.452" transform="translate(20.133 31.419)" fill="#3b1a16"/>
        <path id="Path_750" data-name="Path 750" d="M51.6,79.334c0,.215-.324.905-.724.905s-.724-.69-.724-.905.324-.389.724-.389S51.6,79.119,51.6,79.334Z" transform="translate(-31.608 -46.153)" fill="#3b1a16"/>
        <circle id="Ellipse_103" data-name="Ellipse 103" cx="0.452" cy="0.452" r="0.452" transform="translate(17.495 31.419)" fill="#3b1a16"/>
        <path id="Path_751" data-name="Path 751" d="M64.407,77.917H63.5a.452.452,0,1,1,0-.9h.905a.452.452,0,1,1,0,.9Z" transform="translate(-41.169 -44.714)" fill="#e79897"/>
        <path id="Path_752" data-name="Path 752" d="M37.257,77.917h-.9a.452.452,0,1,1,0-.9h.9a.452.452,0,1,1,0,.9Z" transform="translate(-21.048 -44.714)" fill="#e79897"/>
      </g>
    </g>
  </g>
</svg>
