<?xml version="1.0" encoding="utf-8"?>
<!-- Generator: Adobe Illustrator 23.1.0, SVG Export Plug-In . SVG Version: 6.00 Build 0)  -->
<svg version="1.1" id="圖層_1" xmlns="http://www.w3.org/2000/svg" xmlns:xlink="http://www.w3.org/1999/xlink" x="0px" y="0px"
	 viewBox="0 0 25 25" style="enable-background:new 0 0 25 25;" xml:space="preserve">
<style type="text/css">
	.st0{clip-path:url(#SVGID_2_);}
	.st1{fill:#D4D5D5;}
</style>
<g>
	<defs>
		<rect id="SVGID_1_" width="25" height="25"/>
	</defs>
	<clipPath id="SVGID_2_">
		<use xlink:href="#SVGID_1_"  style="overflow:visible;"/>
	</clipPath>
	<g id="clock_gray" class="st0">
		<g id="组_177" transform="translate(-327.985 -4371.831)">
			<g id="组_583" transform="translate(331.985 4374.831)">
				<g id="组_578" transform="translate(3.571 4.801)">
					<g id="组_577">
						<path id="路径_933" class="st1" d="M9.7,1.4C7.2-0.7,3.5-0.4,1.4,2.1s-1.8,6.2,0.7,8.3c2.5,2.1,6.2,1.8,8.3-0.7
							c1-1.2,1.5-2.7,1.4-4.3C11.6,3.8,10.8,2.4,9.7,1.4z M9.5,9c-1.7,2-4.7,2.3-6.8,0.6c-2-1.7-2.3-4.7-0.6-6.8
							c1.7-2,4.7-2.3,6.8-0.6c1,0.8,1.6,2,1.7,3.3C10.8,6.7,10.4,8,9.5,9L9.5,9z"/>
					</g>
				</g>
				<g id="组_580">
					<g id="组_579">
						<path id="路径_934" class="st1" d="M16.8,4.7l0.3-0.4c0.8-1.3,0.5-3-0.8-3.8c-1.2-0.8-2.9-0.5-3.8,0.7l-0.3,0.4l1.8,1.2
							l-0.6,0.9C12.2,3,10.8,2.6,9.3,2.7L9.2,1.5l1.2-0.1l-0.1-1.1L6.8,0.6l0.1,1.1l1.2-0.1l0.1,1.2C6.8,3,5.4,3.6,4.3,4.6L3.5,3.8
							l1.6-1.5L4.7,1.9c-1-1.1-2.8-1.1-3.9-0.1c-1.1,1-1.1,2.8-0.1,3.9c0,0,0,0,0,0l0.4,0.4l1.6-1.5l0.8,0.8
							C3.4,5.4,3.4,5.5,3.3,5.5c-2.7,3.2-2.5,8,0.6,10.9l-1.6,2.1l0.8,0.7l1.6-2c3.2,2.4,7.7,2,10.5-0.9l1.9,1.7l0.7-0.8l-1.9-1.8
							c2.5-3.4,1.9-8.1-1.3-10.9c-0.1-0.1-0.1-0.1-0.2-0.2L15,3.5L16.8,4.7z M1.2,4.5C0.8,3.7,1.2,2.7,2,2.3
							c0.2-0.1,0.4-0.1,0.6-0.2c0.1,0,0.1,0,0.2,0c0.3,0,0.5,0.1,0.7,0.2L1.2,4.5z M16.3,10.1c0.3,3.8-2.5,7.2-6.3,7.5
							s-7.2-2.5-7.5-6.3C2.2,7.4,5,4.1,8.8,3.8c1.8-0.2,3.7,0.4,5.1,1.6C15.3,6.5,16.2,8.2,16.3,10.1L16.3,10.1z M13.8,1.4
							c0.7-0.6,1.8-0.4,2.4,0.3c0.3,0.4,0.4,1,0.3,1.5L13.8,1.4z"/>
					</g>
				</g>
				<g id="组_582" transform="translate(6.629 6.995)">
					<g id="组_581">
						<path id="路径_935" class="st1" d="M2.1,0.1l0.3,3.1L0,3.4l0.1,1.1l3.4-0.3L3.2,0L2.1,0.1z"/>
					</g>
				</g>
			</g>
		</g>
	</g>
</g>
</svg>
