<?xml version="1.0" encoding="utf-8"?>
<!-- Generator: Adobe Illustrator 23.1.0, SVG Export Plug-In . SVG Version: 6.00 Build 0)  -->
<svg version="1.1" id="圖層_1" xmlns="http://www.w3.org/2000/svg" xmlns:xlink="http://www.w3.org/1999/xlink" x="0px" y="0px"
	 viewBox="0 0 25 18" style="enable-background:new 0 0 25 18;" xml:space="preserve">
<style type="text/css">
	.st0{clip-path:url(#SVGID_2_);}
	.st1{fill:#E37E84;}
</style>
<g>
	<defs>
		<rect id="SVGID_1_" width="25" height="18"/>
	</defs>
	<clipPath id="SVGID_2_">
		<use xlink:href="#SVGID_1_"  style="overflow:visible;"/>
	</clipPath>
	<g id="coin" class="st0">
		<g id="组_587" transform="translate(-446.89 -26.115)">
			<g id="组_644" transform="translate(449.89 28.115)">
				<g id="组_643" transform="translate(0 0)">
					<path id="路径_1114" class="st1" d="M20,7.8c0-0.6-0.6-1-1.6-1.3c-1-0.3-2-0.4-3-0.4V1.8c0-0.1,0-0.1-0.1-0.2
						c-0.1-0.5-0.6-0.9-1.6-1.2C12.7,0.1,11.6,0,10.5,0C9.4,0,8.3,0.1,7.2,0.4C6.5,0.6,5.6,1.1,5.6,1.8c0,0,0,0.1,0,0.1l0,1.8
						C3.1,3.2,0.6,4.9,0.1,7.5c-0.5,2.6,1.2,5.1,3.8,5.6c1.4,0.3,2.8-0.1,3.9-1c0.8,0.2,1.7,0.3,2.5,0.3c0.2,1.1,2.6,1.6,4.8,1.6
						c1.1,0,2.2-0.1,3.3-0.4c0.7-0.2,1.6-0.6,1.6-1.4L20,7.8C20,7.8,20,7.8,20,7.8z M14.6,4c0,0.1-0.2,0.3-1.1,0.6
						c-1,0.3-2,0.4-3.1,0.4C9.6,5,8.6,4.9,7.8,4.7c0,0,0,0,0,0C7.3,4.4,6.9,4.1,6.5,3.9l0-1.1C6.7,3,7,3.1,7.3,3.2
						c2.1,0.5,4.3,0.5,6.5,0c0.3-0.1,0.6-0.2,0.9-0.3v1C14.6,3.9,14.6,3.9,14.6,4z M7.4,1.2c1-0.3,2-0.4,3-0.4c1,0,2.1,0.1,3.1,0.4
						c0.9,0.3,1.1,0.5,1.1,0.6s-0.2,0.3-1.1,0.6c-1,0.3-2,0.4-3.1,0.4c-1,0-2-0.1-2.9-0.4C6.7,2.1,6.4,1.9,6.4,1.8c0,0,0,0,0,0
						C6.4,1.7,6.6,1.4,7.4,1.2z M7.4,11.3c-1.6,1.5-4.1,1.4-5.6-0.3C0.4,9.5,0.5,6.9,2.1,5.5c0.7-0.7,1.7-1,2.7-1
						c0.4,0,0.8,0.1,1.2,0.2c1.4,0.4,2.4,1.6,2.7,3c0.1,0.3,0.1,0.5,0.1,0.8C8.7,9.5,8.3,10.6,7.4,11.3L7.4,11.3z M8.5,11.4
						C8.8,11,9,10.6,9.2,10.1c0.3,0,0.7,0,1.1,0.1v0.1l0,1.4C9.7,11.6,9.1,11.5,8.5,11.4L8.5,11.4z M9.5,7.9c0.2,0,0.5,0,0.7,0
						l0,1.4c-0.3,0-0.6,0-0.8,0C9.5,9,9.5,8.7,9.5,8.4C9.5,8.2,9.5,8.1,9.5,7.9L9.5,7.9z M10.5,7.2L10.5,7.2c-0.4,0-0.8,0-1.1,0
						C9.2,6.6,9,6.1,8.6,5.6c0.6,0.1,1.2,0.1,1.8,0.1c1.1,0,2.2-0.1,3.3-0.4C14,5.2,14.3,5.1,14.6,5v1C12.9,6.1,11.2,6.4,10.5,7.2
						L10.5,7.2z M11,7.8C11,7.8,11,7.8,11,7.8c0-0.1,0.3-0.4,1.1-0.6c0.9-0.2,1.9-0.4,2.8-0.3h0.1c1,0,2.1,0.1,3.1,0.4
						c0.8,0.3,1,0.5,1.1,0.6l0,0c0,0.1-0.2,0.3-1.1,0.6c-2,0.5-4,0.5-6,0C11.3,8.2,11.1,7.9,11,7.8L11,7.8z M18.2,12.8
						c-1,0.3-2,0.4-3,0.4c-1,0-2-0.1-3-0.4c-0.8-0.3-1-0.5-1-0.6v0l0-1.2c0.3,0.2,0.6,0.3,1,0.4c1,0.2,2,0.4,3,0.3
						c1.1,0,2.2-0.1,3.3-0.4c0.3-0.1,0.6-0.2,0.8-0.3v1.2l0,0C19.2,12.3,19,12.5,18.2,12.8L18.2,12.8z M19.2,9.9L19.2,9.9
						c0,0,0,0.1,0,0.1s-0.2,0.3-1,0.6c-1,0.3-2,0.4-3.1,0.4c-2.2,0-3.7-0.5-4-0.9V9.8l0-0.9c0.3,0.1,0.6,0.3,0.9,0.3
						c1,0.3,2.1,0.4,3.2,0.4c1.1,0,2.2-0.1,3.3-0.4c0.3-0.1,0.6-0.2,0.9-0.3L19.2,9.9z"/>
				</g>
			</g>
			<g id="组_646" transform="translate(453.187 33.47)">
				<g id="组_645" transform="translate(0 0)">
					<path id="路径_1115" class="st1" d="M2.8,3.6c-0.2-0.6-0.7-1-1.4-1c-0.4,0-0.7-0.3-0.7-0.7s0.3-0.7,0.7-0.7s0.7,0.3,0.7,0.7
						c0,0.2,0.1,0.4,0.4,0.4S2.8,2.2,2.9,2c0,0,0,0,0,0c0-0.6-0.4-1.2-1-1.4V0.4C1.8,0.2,1.6,0,1.4,0C1.2,0,1.1,0.2,1.1,0.4v0.2
						c-0.8,0.2-1.2,1-1,1.8c0.2,0.6,0.7,1.1,1.4,1.1c0.4,0,0.7,0.3,0.7,0.7S1.8,4.7,1.4,4.7S0.8,4.4,0.8,4c0-0.2-0.1-0.4-0.4-0.4
						S0,3.8,0,4c0,0,0,0,0,0c0,0.6,0.4,1.2,1.1,1.4v0.3c0,0.2,0.1,0.4,0.4,0.4S1.8,6,1.8,5.8c0,0,0,0,0,0V5.4C2.6,5.2,3,4.4,2.8,3.6
						C2.8,3.6,2.8,3.6,2.8,3.6z"/>
				</g>
			</g>
		</g>
	</g>
</g>
</svg>
