<?xml version="1.0" encoding="utf-8"?>
<!-- Generator: Adobe Illustrator 23.1.0, SVG Export Plug-In . SVG Version: 6.00 Build 0)  -->
<svg version="1.1" id="圖層_1" xmlns="http://www.w3.org/2000/svg" xmlns:xlink="http://www.w3.org/1999/xlink" x="0px" y="0px"
	 viewBox="0 0 40 40" style="enable-background:new 0 0 40 40;" xml:space="preserve">
<style type="text/css">
	.st0{fill:#FFFFFF;}
	.st1{fill:#333333;}
</style>
<g id="组_576" transform="translate(-10.687 -11.837)">
	<path id="路径_944" class="st0" d="M27,32.1h18.6V44c0,1.8-4.2,3.2-9.3,3.2S27,45.7,27,44V32.1z"/>
	<path id="路径_945" class="st1" d="M36.2,47.7c-4.8,0-9.9-1.3-9.9-3.8V32.1c0-0.3,0.3-0.6,0.6-0.6h18.6c0.3,0,0.6,0.3,0.6,0.6V44
		C46.1,46.4,41,47.7,36.2,47.7z M27.6,32.7V44c0,1.1,3.3,2.6,8.7,2.6S45,45.1,45,44V32.7H27.6z"/>
	<ellipse id="椭圆_141" class="st0" cx="36.3" cy="32.1" rx="9.2" ry="3.2"/>
	<path id="路径_946" class="st1" d="M36.3,35.9c-4.7,0-9.8-1.3-9.8-3.8s5-3.8,9.8-3.8s9.8,1.3,9.8,3.8S41.1,35.9,36.3,35.9z
		 M36.3,29.6c-5.3,0-8.6,1.5-8.6,2.6c0,1.1,3.3,2.6,8.6,2.6s8.6-1.5,8.6-2.6S41.7,29.6,36.3,29.6z"/>
	<path id="路径_947" class="st1" d="M36.3,39.8c-4.7,0-9.8-1.3-9.8-3.8c0-0.3,0.3-0.6,0.6-0.6c0.3,0,0.6,0.3,0.6,0.6
		c0,1.1,3.3,2.6,8.6,2.6s8.6-1.5,8.6-2.6c0-0.3,0.3-0.6,0.6-0.6s0.6,0.3,0.6,0.6C46.1,38.4,41.1,39.8,36.3,39.8z"/>
	<path id="路径_948" class="st1" d="M36.3,44c-4.7,0-9.8-1.3-9.8-3.8c0-0.3,0.3-0.6,0.6-0.6c0.3,0,0.6,0.3,0.6,0.6
		c0,1.1,3.3,2.6,8.6,2.6s8.6-1.5,8.6-2.6c0-0.3,0.3-0.6,0.6-0.6s0.6,0.3,0.6,0.6C46.1,42.6,41.1,44,36.3,44z"/>
	<circle id="椭圆_142" class="st0" cx="26.7" cy="27.4" r="10.9"/>
	<path id="路径_949" class="st1" d="M26.7,38.9c-6.3,0-11.5-5.1-11.5-11.5c0-6.3,5.1-11.5,11.5-11.5c6.3,0,11.5,5.1,11.5,11.5l0,0
		C38.2,33.7,33,38.9,26.7,38.9z M26.7,17.1c-5.7,0-10.3,4.6-10.3,10.3S21,37.7,26.7,37.7S37,33.1,37,27.4S32.4,17.1,26.7,17.1
		L26.7,17.1z"/>
	<path id="路径_950" class="st1" d="M26.7,36.1c-4.8,0-8.7-3.9-8.7-8.7s3.9-8.7,8.7-8.7s8.7,3.9,8.7,8.7S31.5,36.1,26.7,36.1z
		 M26.7,19.9c-4.2,0-7.5,3.4-7.5,7.5s3.4,7.5,7.5,7.5s7.5-3.4,7.5-7.5l0,0C34.2,23.3,30.9,19.9,26.7,19.9L26.7,19.9z"/>
	<path id="路径_951" class="st1" d="M27,31.4c-1.2,0-2.2-1-2.2-2.2v-0.3c0-0.3,0.3-0.6,0.6-0.6c0.3,0,0.6,0.3,0.6,0.6v0.3
		c0,0.6,0.5,1,1,1c0.6,0,1-0.5,1-1c0-0.4-0.2-0.8-0.6-1l-1.6-0.8c-0.6-0.3-1.1-1-1.1-1.7c0-1,0.8-1.8,1.8-1.8h0.9
		c1,0,1.8,0.8,1.8,1.8c0,0.3-0.3,0.6-0.6,0.6c-0.3,0-0.6-0.3-0.6-0.6s-0.3-0.6-0.6-0.6h-0.9c-0.3,0-0.6,0.3-0.6,0.6
		c0,0.3,0.1,0.5,0.4,0.6l1.6,0.8c0.8,0.4,1.3,1.2,1.3,2.1C29.2,30.4,28.2,31.4,27,31.4L27,31.4z"/>
	<path id="路径_952" class="st1" d="M27,32.5c-0.3,0-0.6-0.3-0.6-0.6v-8.5c0-0.3,0.3-0.6,0.6-0.6c0.3,0,0.6,0.3,0.6,0.6l0,0v8.5
		C27.6,32.2,27.3,32.5,27,32.5z"/>
</g>
</svg>
