<?xml version="1.0" encoding="utf-8"?>
<!-- Generator: Adobe Illustrator 23.1.0, SVG Export Plug-In . SVG Version: 6.00 Build 0)  -->
<svg version="1.1" id="圖層_1" xmlns="http://www.w3.org/2000/svg" xmlns:xlink="http://www.w3.org/1999/xlink" x="0px" y="0px"
	 viewBox="0 0 24 24" style="enable-background:new 0 0 24 24;" xml:space="preserve">
<style type="text/css">
	.st0{clip-path:url(#SVGID_2_);}
	.st1{fill:#ADB8AB;}
	.st2{enable-background:new    ;}
	.st3{fill:#FFFFFF;}
</style>
<g>
	<g>
		<defs>
			<rect id="SVGID_1_" width="24" height="24"/>
		</defs>
		<clipPath id="SVGID_2_">
			<use xlink:href="#SVGID_1_"  style="overflow:visible;"/>
		</clipPath>
		<g id="coupon" class="st0">
			<g id="组_705" transform="translate(-7 -7)">
				<rect id="矩形_29" x="7" y="7" class="st1" width="24" height="24"/>
				<g class="st2">
					<path class="st3" d="M13.2,18.8l-0.6-0.8c2.1-0.9,3.6-2.3,4.4-4.2l0.9,0.4c-0.5,1.2-1.1,2.2-2,3h6.5c-1-0.9-1.7-1.9-2.3-3.1
						l0.8-0.5c1,2,2.4,3.5,4.4,4.4l-0.6,0.8c-0.7-0.3-1.3-0.7-1.8-1.1v4h-1.9v3.1c0,0.3,0.2,0.5,0.5,0.5h1.8c0.2,0,0.4-0.1,0.5-0.2
						c0.1-0.2,0.2-0.7,0.3-1.6l0.9,0.3c-0.1,1.2-0.3,1.9-0.5,2.1c-0.2,0.2-0.6,0.3-1,0.3h-2.4c-0.8,0-1.2-0.4-1.2-1.3v-3.3h-2.2
						c-0.3,2.2-1.8,3.8-4.5,4.8l-0.5-0.9c2.5-0.8,3.8-2.1,4.1-3.9h-1.9v-3.9C14.5,18.1,13.9,18.5,13.2,18.8z M22,18.1h-6v2.6h6V18.1
						z"/>
				</g>
			</g>
		</g>
	</g>
</g>
</svg>
