<svg xmlns="http://www.w3.org/2000/svg" width="12.823" height="12.823" viewBox="0 0 12.823 12.823">
  <g id="Group_1267" data-name="Group 1267" transform="translate(-23.86 107.132)">
    <path id="Path_1835" data-name="Path 1835" d="M89.959-107.132a.251.251,0,0,1,.177.082l1.924,1.924a.252.252,0,0,1,.082.177.252.252,0,0,1-.082.177l-.022.023-1.015,1.135-2.339-2.339,1.1-1.1a.252.252,0,0,1,.177-.082" transform="translate(-55.459 0)" fill="#fff"/>
    <path id="Path_1836" data-name="Path 1836" d="M32.488-95l2.362,2.362-8.489,8.566a.479.479,0,0,1-.34.142H24.339a.479.479,0,0,1-.479-.479V-86.1A.479.479,0,0,1,24-86.435L32.488-95" transform="translate(0 -10.378)" fill="#fff"/>
  </g>
</svg>
