<svg xmlns="http://www.w3.org/2000/svg" width="20" height="20.004" viewBox="0 0 20 20.004">
  <g id="Group_776" data-name="Group 776" transform="translate(-316.303 -24.646)">
    <path id="Path_1314" data-name="Path 1314" d="M319.495,44.636c-.7,0-1.395.008-2.092,0-.762-.011-1.081-.313-1.087-1.059-.011-1.411-.028-2.823.015-4.232a1.514,1.514,0,0,1,.4-.934q6.651-6.7,13.336-13.359a.962.962,0,0,1,1.556-.013q2.158,2.142,4.3,4.3a.954.954,0,0,1-.005,1.523q-6.69,6.692-13.394,13.37a1.614,1.614,0,0,1-.941.389C320.893,44.677,320.192,44.637,319.495,44.636Zm11.826-11.73-3.24-3.261a.433.433,0,0,0-.089.062q-4.831,4.828-9.657,9.661a.558.558,0,0,0-.189.317c-.014,1.031-.008,2.061-.008,3.13.968,0,1.873-.014,2.777.007a1,1,0,0,0,.807-.329q2.822-2.85,5.667-5.677C328.707,35.5,330.03,34.19,331.321,32.907Zm2.705-2.766-3.194-3.219-1.3,1.311,3.2,3.207Z" fill="#6f5b62"/>
  </g>
</svg>
