<svg xmlns="http://www.w3.org/2000/svg" width="20.458" height="22.843" viewBox="0 0 20.458 22.843">
  <g id="Group_341" data-name="Group 341" transform="translate(-7.832 0)">
    <g id="Group_340" data-name="Group 340" transform="translate(7.832 0)">
      <path id="Path_485" data-name="Path 485" d="M26.02,61.615H10.1a2.273,2.273,0,0,1-2.27-2.27V48.007a2.273,2.273,0,0,1,2.27-2.27H26.02a2.273,2.273,0,0,1,2.27,2.27V59.345A2.273,2.273,0,0,1,26.02,61.615ZM10.1,46.866a1.142,1.142,0,0,0-1.141,1.141V59.345A1.142,1.142,0,0,0,10.1,60.486H26.02a1.142,1.142,0,0,0,1.141-1.141V48.007a1.142,1.142,0,0,0-1.141-1.141Z" transform="translate(-7.832 -38.772)" fill="#8e8e8f"/>
      <path id="Path_486" data-name="Path 486" d="M40.111,7.5l-.563-.029c-.375-.019-3.705-.226-5.105-1.469A3.538,3.538,0,0,1,33.9,1.05,3.538,3.538,0,0,1,38.89,1c1.454,1.291,1.276,5.469,1.251,5.941ZM36.321,1.127a2.068,2.068,0,0,0-1.571.673,2.413,2.413,0,0,0,.444,3.362c.783.7,2.7,1.023,3.838,1.14.019-1.6-.19-3.834-.891-4.457A2.766,2.766,0,0,0,36.321,1.127Z" transform="translate(-29.271 0)" fill="#8e8e8f"/>
      <path id="Path_487" data-name="Path 487" d="M72.688,12.226l-.03-.563c-.037-.7-.155-4.225,1.142-5.377a3.233,3.233,0,0,1,4.555.049,2.909,2.909,0,0,1,.7,2.308,3.54,3.54,0,0,1-1.185,2.222C76.6,11.993,73.59,12.179,73.251,12.2ZM76.145,6.5a2.424,2.424,0,0,0-1.594.63c-.58.515-.792,2.417-.781,3.892a7.243,7.243,0,0,0,3.349-1,2.413,2.413,0,0,0,.813-1.51A1.744,1.744,0,0,0,76.145,6.5Z" transform="translate(-62.769 -4.555)" fill="#8e8e8f"/>
    </g>
    <rect id="Rectangle_40" data-name="Rectangle 40" width="1.218" height="14.421" transform="translate(17.497 7.475)" fill="#8e8e8f"/>
    <rect id="Rectangle_41" data-name="Rectangle 41" width="19.021" height="1.218" transform="translate(8.752 14.558)" fill="#8e8e8f"/>
  </g>
</svg>
