<?xml version="1.0" encoding="utf-8"?>
<!-- Generator: Adobe Illustrator 23.1.0, SVG Export Plug-In . SVG Version: 6.00 Build 0)  -->
<svg version="1.1" id="圖層_1" xmlns="http://www.w3.org/2000/svg" xmlns:xlink="http://www.w3.org/1999/xlink" x="0px" y="0px"
	 viewBox="0 0 30 30" style="enable-background:new 0 0 30 30;" xml:space="preserve">
<style type="text/css">
	.st0{clip-path:url(#SVGID_2_);}
	.st1{fill:#939491;}
</style>
<g>
	<defs>
		<rect id="SVGID_1_" width="30" height="30"/>
	</defs>
	<clipPath id="SVGID_2_">
		<use xlink:href="#SVGID_1_"  style="overflow:visible;"/>
	</clipPath>
	<g id="heart" class="st0">
		<g id="组_647" transform="translate(4 -7.837)">
			<path id="路径_262" class="st1" d="M10.9,31.1c-0.4,0-0.8-0.1-1.2-0.4C7.1,29.1,1.1,24.6,1,19.5l0,0c0,0,0,0,0-0.1s0-0.1,0-0.1
				l0,0c0.1-3.1,2.7-5.6,5.8-5.5c1.3,0,2.5,0.5,3.5,1.3c0.4,0.3,0.9,0.3,1.2,0c2.4-2,5.9-1.7,7.9,0.7c0.8,1,1.3,2.2,1.3,3.5l0,0v0.2
				c-0.1,5.1-6.1,9.6-8.7,11.3C11.7,31,11.3,31.1,10.9,31.1z M2,19.4C2,24.2,8.3,28.7,10.2,30c0.4,0.3,0.9,0.3,1.3,0
				c1.9-1.3,8.1-5.8,8.2-10.6c0-2.6-2.2-4.6-4.7-4.6c-1.1,0-2.1,0.4-2.9,1.1c-0.7,0.6-1.8,0.6-2.5,0c-2-1.7-4.9-1.4-6.6,0.6
				C2.4,17.3,2,18.3,2,19.4z"/>
		</g>
	</g>
</g>
</svg>
