<svg xmlns="http://www.w3.org/2000/svg" width="104" height="104" viewBox="0 0 104 104">
  <g id="Group_627" data-name="Group 627" transform="translate(-32 -289)">
    <rect id="Rectangle_80" data-name="Rectangle 80" width="103" height="103" rx="30" transform="translate(32.5 289.5)" fill="none" stroke="#f6f5f4" stroke-miterlimit="10" stroke-width="1"/>
    <text id="記錄類" transform="translate(84 373.175)" fill="#767676" font-size="16" font-family="MicrosoftJhengHeiRegular, Microsoft JhengHei"><tspan x="-24" y="0">記錄類</tspan></text>
    <g id="Group_492" data-name="Group 492" transform="translate(59.5 304.688)">
      <path id="Path_650" data-name="Path 650" d="M51.392,32.7A11.62,11.62,0,1,1,39.771,21.075,11.62,11.62,0,0,1,51.392,32.7Z" transform="translate(-15.576 -10.826)" fill="#e9e4d2"/>
      <g id="Group_491" data-name="Group 491" transform="translate(7.5 6.312)">
        <path id="Path_651" data-name="Path 651" d="M17.987,64.713a1.984,1.984,0,1,1,1.983-1.984A1.985,1.985,0,0,1,17.987,64.713Zm0-2.711a.727.727,0,1,0,.727.727A.728.728,0,0,0,17.987,62Z" transform="translate(-13.736 -46.23)" fill="#3b1a16"/>
        <path id="Path_652" data-name="Path 652" d="M69.806,10.539a1.983,1.983,0,1,1,1.983-1.983A1.985,1.985,0,0,1,69.806,10.539Zm0-2.711a.727.727,0,1,0,.727.727A.728.728,0,0,0,69.806,7.828Z" transform="translate(-52.239 -6.503)" fill="#3b1a16"/>
        <path id="Path_653" data-name="Path 653" d="M120.668,91.422a.972.972,0,1,1-.972-.971A.972.972,0,0,1,120.668,91.422Z" transform="translate(-90.065 -68.014)" fill="#3b1a16"/>
        <path id="Path_654" data-name="Path 654" d="M137.157,34.892a.971.971,0,1,1-.971-.971A.971.971,0,0,1,137.157,34.892Z" transform="translate(-102.157 -26.559)" fill="#3b1a16"/>
        <path id="Path_655" data-name="Path 655" d="M40.584,25.47a.971.971,0,1,1-.971-.971A.971.971,0,0,1,40.584,25.47Z" transform="translate(-30.581 -19.649)" fill="#3b1a16"/>
        <path id="Path_656" data-name="Path 656" d="M8.129,9.789a.628.628,0,0,1-.444-1.072L9.905,6.5a.628.628,0,1,1,.889.888L8.573,9.6A.625.625,0,0,1,8.129,9.789Z" transform="translate(-7.501 -6.312)" fill="#3b1a16"/>
        <path id="Path_657" data-name="Path 657" d="M10.349,9.79A.625.625,0,0,1,9.9,9.606L7.684,7.386A.628.628,0,0,1,8.572,6.5l2.22,2.221a.628.628,0,0,1-.444,1.072Z" transform="translate(-7.5 -6.313)" fill="#3b1a16"/>
      </g>
      <path id="Path_658" data-name="Path 658" d="M112.178,19.186l2.4,1.5-1.5,2.4-2.4-1.5Z" transform="translate(-76.66 -9.441)" fill="#ac6754"/>
      <path id="Path_659" data-name="Path 659" d="M111.345,22a.624.624,0,0,1-.333-.1l-2.4-1.5a.628.628,0,0,1-.2-.866l1.5-2.4a.63.63,0,0,1,.866-.2l2.4,1.5a.628.628,0,0,1,.2.866l-1.5,2.4A.628.628,0,0,1,111.345,22Zm-1.533-2.331,1.335.838.838-1.336-1.335-.837Z" transform="translate(-74.933 -7.719)" fill="#3b1a16"/>
      <path id="Path_660" data-name="Path 660" d="M54.34,33.231l3.432-5.474-3.091-1.938-3.432,5.474a5.663,5.663,0,0,0-6.1,2.5L34.437,50.876a3.018,3.018,0,0,0,2.216-.3l.767-.432a3.019,3.019,0,0,1,3.165.122,3.019,3.019,0,0,0,3.1.156l.747-.4a3.019,3.019,0,0,1,2.941.055l.683.4,6.688-10.666A5.662,5.662,0,0,0,54.34,33.231Z" transform="translate(-20.321 -14.305)" fill="#b2cfd1"/>
      <path id="Path_661" data-name="Path 661" d="M33.449,49.87a3.689,3.689,0,0,1-.892-.11.629.629,0,0,1-.379-.943L42.889,31.733a6.288,6.288,0,0,1,6.33-2.866l3.2-5.108a.629.629,0,0,1,.866-.2L56.379,25.5a.628.628,0,0,1,.2.866l-3.2,5.107a6.29,6.29,0,0,1,.177,6.947L46.864,49.085a.627.627,0,0,1-.849.209l-.682-.4A2.406,2.406,0,0,0,43,48.853l-.747.4a3.643,3.643,0,0,1-3.749-.189,2.378,2.378,0,0,0-2.506-.1l-.767.433A3.632,3.632,0,0,1,33.449,49.87ZM48.216,30.042A5.03,5.03,0,0,0,43.954,32.4L33.8,48.586a2.375,2.375,0,0,0,.813-.281l.767-.433a3.631,3.631,0,0,1,3.823.148,2.387,2.387,0,0,0,2.457.123l.748-.4a3.626,3.626,0,0,1,3.553.066l.157.091,6.365-10.151a5.033,5.033,0,0,0-.362-5.85.629.629,0,0,1-.045-.73l3.1-4.942-2.027-1.271-3.1,4.942a.629.629,0,0,1-.677.277A5.069,5.069,0,0,0,48.216,30.042Z" transform="translate(-19.026 -12.579)" fill="#3b1a16"/>
      <path id="Path_662" data-name="Path 662" d="M87.951,73.159l.94-1.5c.311-.5-.51-1.573-1.835-2.4l-1.5,2.4Z" transform="translate(-57.876 -46.68)" fill="#fff"/>
      <path id="Path_663" data-name="Path 663" d="M86.224,72.06a.631.631,0,0,1-.334-.1l-2.4-1.505a.628.628,0,0,1-.2-.866l1.5-2.4a.628.628,0,0,1,.866-.2c1.459.915,2.653,2.281,2.034,3.27l-.94,1.5a.631.631,0,0,1-.392.278A.647.647,0,0,1,86.224,72.06ZM84.69,69.729l1.335.837.573-.913a2.992,2.992,0,0,0-1.086-1.235Z" transform="translate(-56.154 -44.953)" fill="#3b1a16"/>
      <path id="Path_664" data-name="Path 664" d="M21.327,114.255a3.443,3.443,0,0,1-1.27-.244l-3.871-1.535a.635.635,0,0,1-.35-.812.6.6,0,0,1,.787-.361l3.871,1.535a2.25,2.25,0,0,0,1.971-.149l.743-.433a3.432,3.432,0,0,1,3.707.148,2.255,2.255,0,0,0,2.383.123l.725-.4a3.422,3.422,0,0,1,3.445.066l.718.431a2.264,2.264,0,0,0,2.084.13l1.875-.833a3.453,3.453,0,0,1,3.206.214l.684.42a2.253,2.253,0,0,0,2.214.087l2.576-1.316a.6.6,0,0,1,.817.284.638.638,0,0,1-.276.842L44.79,113.77a3.431,3.431,0,0,1-3.377-.133l-.684-.42a2.266,2.266,0,0,0-2.1-.141l-1.875.833a3.455,3.455,0,0,1-3.179-.2l-.718-.431a2.241,2.241,0,0,0-2.259-.043l-.725.4a3.44,3.44,0,0,1-3.635-.188,2.246,2.246,0,0,0-2.43-.1l-.743.433A3.448,3.448,0,0,1,21.327,114.255Z" transform="translate(-6.083 -77.81)" fill="#3b1a16"/>
      <path id="Path_665" data-name="Path 665" d="M21.327,135.454a3.443,3.443,0,0,1-1.27-.244l-3.871-1.535a.635.635,0,0,1-.35-.811.6.6,0,0,1,.787-.361l3.871,1.535a2.25,2.25,0,0,0,1.971-.149l.743-.433a3.431,3.431,0,0,1,3.707.148,2.253,2.253,0,0,0,2.383.123l.725-.4a3.421,3.421,0,0,1,3.445.066l.718.431a2.262,2.262,0,0,0,2.084.13l1.875-.833a3.454,3.454,0,0,1,3.206.214l.684.42a2.254,2.254,0,0,0,2.214.087l2.576-1.316a.6.6,0,0,1,.817.284.637.637,0,0,1-.276.841l-2.577,1.317a3.433,3.433,0,0,1-3.377-.133l-.684-.42a2.267,2.267,0,0,0-2.1-.141l-1.875.834a3.455,3.455,0,0,1-3.179-.2l-.718-.431a2.243,2.243,0,0,0-2.259-.043l-.725.4a3.439,3.439,0,0,1-3.635-.188,2.247,2.247,0,0,0-2.43-.1l-.743.433A3.449,3.449,0,0,1,21.327,135.454Z" transform="translate(-6.083 -93.526)" fill="#3b1a16"/>
      <path id="Path_666" data-name="Path 666" d="M56.347,74.86l-6.835,10.9a3.013,3.013,0,0,1,2.128.472,3.019,3.019,0,0,0,3.1.156l.747-.4a3,3,0,0,1,.737-.276l4.918-7.843Z" transform="translate(-31.269 -51.02)" fill="#fff"/>
      <path id="Path_667" data-name="Path 667" d="M51.592,85.646a3.644,3.644,0,0,1-2.031-.619,2.379,2.379,0,0,0-1.685-.373.628.628,0,0,1-.625-.954l6.835-10.9a.629.629,0,0,1,.866-.2l4.8,3.009a.629.629,0,0,1,.2.866L55.032,84.32a.631.631,0,0,1-.39.278,2.392,2.392,0,0,0-.585.219l-.747.4A3.645,3.645,0,0,1,51.592,85.646ZM48.9,83.431a3.607,3.607,0,0,1,1.359.552,2.387,2.387,0,0,0,2.458.123l.747-.4a3.632,3.632,0,0,1,.631-.263l4.454-7.1L54.818,74Z" transform="translate(-29.538 -49.306)" fill="#3b1a16"/>
      <path id="Path_668" data-name="Path 668" d="M78.623,73.655c-1.325-.831-2.652-1.1-2.964-.6s.51,1.573,1.835,2.4,2.653,1.1,2.964.6S79.948,74.486,78.623,73.655Z" transform="translate(-50.52 -49.303)" fill="#fff"/>
      <path id="Path_669" data-name="Path 669" d="M78.1,75.2a5.545,5.545,0,0,1-2.673-.954c-1.459-.915-2.654-2.282-2.034-3.27s2.37-.509,3.83.406,2.654,2.281,2.034,3.27A1.274,1.274,0,0,1,78.1,75.2Zm.625-.882h0Zm-4.2-2.634a4.254,4.254,0,0,0,1.57,1.5,4.4,4.4,0,0,0,2.031.762,5.421,5.421,0,0,0-3.6-2.259Z" transform="translate(-48.784 -47.566)" fill="#3b1a16"/>
    </g>
  </g>
</svg>
