<svg xmlns="http://www.w3.org/2000/svg" width="22.793" height="22.781" viewBox="0 0 22.793 22.781">
  <path id="Path_54" data-name="Path 54" d="M449.388,2120.623a1.742,1.742,0,0,1-1.864-1.891c-.007-2.468,0-5.506,0-7.974a.67.67,0,0,0-.316-.635,3.183,3.183,0,0,1-1.226-3.293c.355-1.615.686-6.584,1.017-8.2.149-.728.2-.78.953-.78H466.7c.677,0,.793.106.92.774.353,1.845.749,7.031,1.049,8.885a2.561,2.561,0,0,1-1.03,2.361,1.075,1.075,0,0,0-.408.924c.015,2.416.01,5.4.007,7.819,0,1.382-.643,2.013-2.034,2.016C463.865,2120.628,452.875,2120.629,449.388,2120.623Zm-1.217-21.61a.748.748,0,0,0-.063.134c-.308,1.52-.742,6.355-.922,7.909a2.189,2.189,0,0,0,.956,2.221,2.081,2.081,0,0,0,2.377-.142,2.308,2.308,0,0,0,.847-1.705.736.736,0,0,1,.411-.522c.329-.1.539.149.611.475.026.117.013.242.034.361a2.079,2.079,0,0,0,1.4,1.714,2.017,2.017,0,0,0,2.119-.435,2.115,2.115,0,0,0,.693-1.564.532.532,0,0,1,.537-.574.559.559,0,0,1,.656.51c.022.119.034.239.051.359a2.1,2.1,0,0,0,4.175-.153c.073-.6.394-.9.815-.672a1.113,1.113,0,0,1,.415.737,2.142,2.142,0,0,0,2.306,1.905,2.064,2.064,0,0,0,1.928-2.329c-.158-1.636-.56-6.6-.858-8.229Zm14.585,10.4a3.369,3.369,0,0,1-5.446-.009,3.282,3.282,0,0,1-2.7,1.391,3.336,3.336,0,0,1-2.736-1.371,3.391,3.391,0,0,1-3.181,1.329c-.009.171-.022.307-.022.443,0,2.262,0,5.093,0,7.355,0,.7.143.84.854.84,3.126,0,15.092,0,15.394-.024.98.059,1.185-.13,1.185-1.034,0-2.158,0-4.886,0-7.044,0-.169-.015-.337-.024-.53A3.422,3.422,0,0,1,462.756,2109.415Z" transform="translate(-445.907 -2097.846)" fill="#8e8e8f"/>
</svg>
