<?xml version="1.0" encoding="utf-8"?>
<!-- Generator: Adobe Illustrator 23.1.0, SVG Export Plug-In . SVG Version: 6.00 Build 0)  -->
<svg version="1.1" id="圖層_1" xmlns="http://www.w3.org/2000/svg" xmlns:xlink="http://www.w3.org/1999/xlink" x="0px" y="0px"
	 viewBox="0 0 30 30" style="enable-background:new 0 0 30 30;" xml:space="preserve">
<style type="text/css">
	.st0{clip-path:url(#SVGID_2_);}
	.st1{fill:#008FED;}
	.st2{fill:#FFFFFF;}
</style>
<g>
	<defs>
		<rect id="SVGID_1_" width="30" height="30"/>
	</defs>
	<clipPath id="SVGID_2_">
		<use xlink:href="#SVGID_1_"  style="overflow:visible;"/>
	</clipPath>
	<g id="icon_email" class="st0">
		<circle id="椭圆_193" class="st1" cx="15.5" cy="15.5" r="12.5"/>
		<path id="envelope-regular" class="st2" d="M21.2,10H9.4C8.6,10,8,10.6,8,11.4v8.2c0,0.8,0.6,1.4,1.4,1.4c0,0,0,0,0,0h11.9
			c0.8,0,1.4-0.6,1.4-1.4v-8.2C22.6,10.6,22,10,21.2,10z M21.2,11.4v1.2c-0.6,0.5-1.7,1.3-3.8,3c-0.5,0.4-1.4,1.3-2.1,1.3
			c-0.7,0-1.6-0.9-2.1-1.3c-2.2-1.7-3.2-2.5-3.8-3v-1.2H21.2z M9.4,19.6v-5.3c0.7,0.5,1.6,1.2,3,2.4c0.6,0.5,1.7,1.6,2.9,1.6
			s2.3-1.1,2.9-1.6c1.4-1.1,2.3-1.8,3-2.4v5.3L9.4,19.6z"/>
	</g>
</g>
</svg>
