<?xml version="1.0" encoding="utf-8"?>
<!-- Generator: Adobe Illustrator 23.1.0, SVG Export Plug-In . SVG Version: 6.00 Build 0)  -->
<svg version="1.1" id="圖層_1" xmlns="http://www.w3.org/2000/svg" xmlns:xlink="http://www.w3.org/1999/xlink" x="0px" y="0px"
	 viewBox="0 0 30 30" style="enable-background:new 0 0 30 30;" xml:space="preserve">
<style type="text/css">
	.st0{clip-path:url(#SVGID_2_);}
	.st1{fill:#D33187;}
	.st2{fill:#FFFFFF;}
</style>
<g>
	<defs>
		<rect id="SVGID_1_" width="30" height="30"/>
	</defs>
	<clipPath id="SVGID_2_">
		<use xlink:href="#SVGID_1_"  style="overflow:visible;"/>
	</clipPath>
	<g id="icon_IG" class="st0">
		<circle id="椭圆_192" class="st1" cx="15.5" cy="15.5" r="12.5"/>
		<path id="instagram-brands" class="st2" d="M15.5,11.6c-2.1,0-3.8,1.7-3.8,3.8c0,2.1,1.7,3.8,3.8,3.8s3.8-1.7,3.8-3.8c0,0,0,0,0,0
			C19.3,13.3,17.6,11.6,15.5,11.6C15.5,11.6,15.5,11.6,15.5,11.6z M15.5,17.9c-1.4,0-2.5-1.1-2.5-2.5s1.1-2.5,2.5-2.5
			s2.5,1.1,2.5,2.5C17.9,16.8,16.8,17.9,15.5,17.9z M20.3,11.5c0,0.5-0.4,0.9-0.9,0.9s-0.9-0.4-0.9-0.9c0-0.5,0.4-0.9,0.9-0.9
			c0,0,0,0,0,0C19.9,10.6,20.3,11,20.3,11.5C20.3,11.5,20.3,11.5,20.3,11.5z M22.9,12.4c0-1.2-0.4-2.3-1.2-3.1
			c-0.8-0.8-2-1.2-3.1-1.2c-1.2-0.1-4.9-0.1-6.2,0c-1.2,0-2.3,0.4-3.1,1.2c-0.8,0.8-1.2,2-1.2,3.1c-0.1,1.2-0.1,4.9,0,6.2
			c0,1.2,0.4,2.3,1.2,3.1c0.8,0.8,2,1.2,3.1,1.2c1.2,0.1,4.9,0.1,6.2,0c1.2,0,2.3-0.4,3.1-1.2c0.8-0.8,1.2-2,1.2-3.1
			C22.9,17.3,22.9,13.6,22.9,12.4L22.9,12.4z M21.3,19.8c-0.3,0.6-0.8,1.2-1.4,1.4c-1.4,0.3-2.9,0.4-4.4,0.3c-1.5,0.1-2.9,0-4.4-0.3
			c-0.6-0.3-1.2-0.8-1.4-1.4c-0.3-1.4-0.4-2.9-0.3-4.4c-0.1-1.5,0-2.9,0.3-4.4c0.3-0.6,0.8-1.2,1.4-1.4c1.4-0.3,2.9-0.4,4.4-0.3
			c1.5-0.1,2.9,0,4.4,0.3c0.6,0.3,1.2,0.8,1.4,1.4c0.3,1.4,0.4,2.9,0.3,4.4C21.7,16.9,21.6,18.4,21.3,19.8z"/>
	</g>
</g>
</svg>
