<?xml version="1.0" encoding="utf-8"?>
<!-- Generator: Adobe Illustrator 23.1.0, SVG Export Plug-In . SVG Version: 6.00 Build 0)  -->
<svg version="1.1" id="圖層_1" xmlns="http://www.w3.org/2000/svg" xmlns:xlink="http://www.w3.org/1999/xlink" x="0px" y="0px"
	 viewBox="0 0 30 30" style="enable-background:new 0 0 30 30;" xml:space="preserve">
<style type="text/css">
	.st0{clip-path:url(#SVGID_2_);}
	.st1{clip-path:url(#SVGID_4_);}
	.st2{fill:url(#椭圆_187_1_);}
	.st3{fill:#FFFFFF;}
</style>
<g>
	<defs>
		<rect id="SVGID_1_" width="30" height="30"/>
	</defs>
	<clipPath id="SVGID_2_">
		<use xlink:href="#SVGID_1_"  style="overflow:visible;"/>
	</clipPath>
	<g id="icon_FB" class="st0">
		<g id="组_695" transform="translate(3 3.007)">
			<g>
				<defs>
					<circle id="SVGID_3_" cx="12.5" cy="12.5" r="12.5"/>
				</defs>
				<clipPath id="SVGID_4_">
					<use xlink:href="#SVGID_3_"  style="overflow:visible;"/>
				</clipPath>
				<g id="组_696" transform="translate(0 0)" class="st1">
					<g id="组_695-2" transform="translate(0 -0.486)">
						
							<linearGradient id="椭圆_187_1_" gradientUnits="userSpaceOnUse" x1="-11.1442" y1="37.1232" x2="-11.1442" y2="38.1232" gradientTransform="matrix(25.298 0 0 -25.298 294.576 964.4418)">
							<stop  offset="0" style="stop-color:#00559A"/>
							<stop  offset="1" style="stop-color:#1E8BC6"/>
						</linearGradient>
						<circle id="椭圆_187" class="st2" cx="12.6" cy="12.6" r="12.6"/>
						<path id="路径_1257" class="st3" d="M16.7,16h-2.6v9.5h-3.9V16H8.3v-3.3h1.9v-2.2c-0.2-2,1.3-3.8,3.4-4c0.2,0,0.4,0,0.6,0
							l2.9,0v3.2h-2.1c-0.4,0-0.8,0.3-0.8,0.8c0,0,0,0.1,0,0.1v2H17L16.7,16z"/>
					</g>
				</g>
			</g>
		</g>
	</g>
</g>
</svg>
