<?xml version="1.0" encoding="utf-8"?>
<!-- Generator: Adobe Illustrator 23.1.0, SVG Export Plug-In . SVG Version: 6.00 Build 0)  -->
<svg version="1.1" id="圖層_1" xmlns="http://www.w3.org/2000/svg" xmlns:xlink="http://www.w3.org/1999/xlink" x="0px" y="0px"
	 viewBox="0 0 30 30" style="enable-background:new 0 0 30 30;" xml:space="preserve">
<style type="text/css">
	.st0{clip-path:url(#SVGID_2_);}
	.st1{fill:#FFFFFF;}
	.st2{fill:#008FED;}
</style>
<g>
	<defs>
		<rect id="SVGID_1_" width="30" height="30"/>
	</defs>
	<clipPath id="SVGID_2_">
		<use xlink:href="#SVGID_1_"  style="overflow:visible;"/>
	</clipPath>
	<g id="icon_AirDrop" class="st0">
		<circle id="椭圆_195" class="st1" cx="15.5" cy="15.5" r="12.5"/>
		<g id="组_698" transform="translate(176.231 10.612)">
			<g id="airdrop">
				<path id="路径_1260" class="st2" d="M-160.6-4.6c-5.3,0-9.6,4.3-9.6,9.6c0,0,0,0,0,0c0,3.6,2,6.8,5.1,8.5
					c0.3,0.1,0.6,0,0.8-0.2c0,0,0,0,0,0c0.1-0.3,0-0.6-0.2-0.8c0,0,0,0,0,0c-4.1-2.2-5.7-7.3-3.6-11.4c0,0,0,0,0,0
					c2.2-4.1,7.3-5.7,11.4-3.6c4.1,2.2,5.7,7.3,3.6,11.4c0,0,0,0,0,0c-0.8,1.6-2.1,2.8-3.7,3.6c-0.3,0.1-0.4,0.5-0.3,0.7
					c0,0,0,0,0,0c0.1,0.3,0.5,0.4,0.7,0.3c0,0,0,0,0,0c0,0,0,0,0.1,0c4.7-2.4,6.6-8.2,4.2-12.9C-153.7-2.6-157-4.6-160.6-4.6z"/>
				<path id="路径_1261" class="st2" d="M-155,8.5c2-3.1,1-7.2-2.1-9.2c0,0,0,0,0,0c-3.1-2-7.2-1-9.2,2.1c0,0,0,0,0,0
					c-2,3.1-1,7.2,2.1,9.2c0,0,0,0,0,0c0.2,0.1,0.4,0.2,0.6,0.3c0.3,0.1,0.6,0,0.7-0.3c0,0,0,0,0,0c0.1-0.3,0-0.6-0.2-0.7
					c-2.7-1.4-3.9-4.7-2.5-7.4c0,0,0,0,0,0c1.4-2.7,4.7-3.9,7.4-2.5c0,0,0,0,0,0c2.7,1.4,3.9,4.7,2.5,7.4c0,0,0,0,0,0
					c-0.5,1.1-1.4,1.9-2.5,2.5c-0.3,0.1-0.4,0.4-0.3,0.7c0.1,0.3,0.4,0.4,0.7,0.3c0,0,0,0,0,0c0,0,0.1,0,0.1,0
					C-156.6,10.4-155.6,9.6-155,8.5z"/>
				<path id="路径_1262" class="st2" d="M-156.9,5c0-2.1-1.7-3.7-3.7-3.7c0,0,0,0,0,0c-2.1,0-3.7,1.7-3.7,3.7c0,0,0,0,0,0
					c0,1.4,0.8,2.7,2.1,3.3c0.3,0.1,0.6,0,0.7-0.3c0,0,0,0,0,0c0.1-0.3,0-0.6-0.2-0.7c-1.3-0.6-1.8-2.2-1.2-3.5
					c0.6-1.3,2.2-1.8,3.5-1.2c1.3,0.6,1.8,2.2,1.2,3.5c-0.3,0.5-0.7,0.9-1.2,1.2c-0.3,0.1-0.4,0.4-0.3,0.7c0.1,0.3,0.4,0.4,0.7,0.3
					c0,0,0,0,0,0c0,0,0.1,0,0.1,0C-157.7,7.7-156.9,6.4-156.9,5z"/>
			</g>
			<circle id="椭圆_196" class="st2" cx="-160.6" cy="5.1" r="1"/>
		</g>
	</g>
</g>
</svg>
