<?xml version="1.0" encoding="utf-8"?>
<!-- Generator: Adobe Illustrator 23.1.0, SVG Export Plug-In . SVG Version: 6.00 Build 0)  -->
<svg version="1.1" id="圖層_1" xmlns="http://www.w3.org/2000/svg" xmlns:xlink="http://www.w3.org/1999/xlink" x="0px" y="0px"
	 viewBox="0 0 30 30" style="enable-background:new 0 0 30 30;" xml:space="preserve">
<style type="text/css">
	.st0{clip-path:url(#SVGID_2_);}
	.st1{fill:#009A3B;}
	.st2{fill:#FFFFFF;}
</style>
<g>
	<defs>
		<rect id="SVGID_1_" width="30" height="30"/>
	</defs>
	<clipPath id="SVGID_2_">
		<use xlink:href="#SVGID_1_"  style="overflow:visible;"/>
	</clipPath>
	<g id="icon_newsletter" class="st0">
		<circle id="椭圆_194" class="st1" cx="15.5" cy="15.5" r="12.5"/>
		<path id="comment-solid" class="st2" d="M15.7,8c-4.4,0-7.9,2.9-7.9,6.4c0,1.5,0.7,3,1.8,4c-0.3,1.1-0.9,2.1-1.7,3
			c-0.1,0.1-0.1,0.2,0,0.3c0,0.1,0.1,0.1,0.2,0.1c1.6,0,3.1-0.6,4.3-1.6c1.1,0.4,2.2,0.6,3.3,0.6c4.4,0,7.9-2.9,7.9-6.4
			S20.1,8,15.7,8z"/>
	</g>
</g>
</svg>
