<?xml version="1.0" encoding="utf-8"?>
<!-- Generator: Adobe Illustrator 23.1.0, SVG Export Plug-In . SVG Version: 6.00 Build 0)  -->
<svg version="1.1" id="圖層_1" xmlns="http://www.w3.org/2000/svg" xmlns:xlink="http://www.w3.org/1999/xlink" x="0px" y="0px"
	 viewBox="0 0 30 30" style="enable-background:new 0 0 30 30;" xml:space="preserve">
<style type="text/css">
	.st0{clip-path:url(#SVGID_2_);}
	.st1{fill:#FFFFFF;}
	.st2{fill:#3F9F26;}
</style>
<g>
	<defs>
		<rect id="SVGID_1_" width="30" height="30"/>
	</defs>
	<clipPath id="SVGID_2_">
		<use xlink:href="#SVGID_1_"  style="overflow:visible;"/>
	</clipPath>
	<g id="icon_Line" class="st0">
		<g id="组_694" transform="translate(-7.996 -10.08)">
			<rect id="矩形_204" x="13.6" y="20.6" class="st1" width="19.7" height="6.7"/>
			<path id="路径_1256" class="st2" d="M23.2,13.1c3.8-0.1,7.5,1.4,10.2,4.1c3.5,3.3,3.8,8.8,0.6,12.4c-2.9,3.5-6.7,6-10.7,8.2
				c-0.3,0.2-0.7,0.4-1.1,0.2c-0.4-0.3-0.2-0.7-0.1-1c0.3-2.4,0.3-2.4-2-2.8c-2.5-0.4-4.8-1.6-6.7-3.2c-3.9-3.2-4.5-9-1.3-12.9
				c0.4-0.5,0.8-0.9,1.3-1.3C16.1,14.3,19.6,13,23.2,13.1z M25.4,24.2c-0.3-0.3-0.4-0.4-0.4-0.5c-0.6-0.8-1.2-1.6-1.7-2.4
				c-0.3-0.4-0.8-0.6-1.3-0.4c-0.5,0.1-0.3,0.6-0.3,0.9c0,1.5,0,3,0,4.4c0,0.5,0.2,0.7,0.7,0.7s0.8-0.1,0.8-0.7c0-0.8,0-1.6,0-2.7
				c0.8,1.1,1.5,2,2.2,3c0.3,0.4,0.8,0.5,1.2,0.4c0.5-0.1,0.4-0.5,0.4-0.9c0-1.5,0-3,0-4.4c0-0.5-0.2-0.7-0.7-0.7s-0.7,0.2-0.7,0.7
				C25.4,22.4,25.4,23.2,25.4,24.2z M29.6,26.9c0.5,0,0.9,0,1.4,0c0.5,0,0.6-0.3,0.6-0.7s0-0.7-0.6-0.7c-0.5,0-0.9,0-1.4,0
				c-0.3,0-0.6,0-0.6-0.5c0-0.5,0.3-0.4,0.6-0.4c0.4,0,0.9,0,1.3,0c0.5,0,0.7-0.1,0.7-0.7c0-0.6-0.2-0.8-0.8-0.7c-0.5,0-0.9,0-1.4,0
				c-0.3,0-0.5-0.1-0.5-0.4s0.2-0.4,0.5-0.4c0.5,0,1,0,1.5,0s0.7-0.2,0.7-0.7c0-0.5-0.1-0.8-0.6-0.8c-0.9,0-1.7,0-2.6,0
				c-0.6,0-0.8,0.2-0.8,0.8c0,1.1,0,2.1,0,3.2C27.6,26.9,27.6,26.9,29.6,26.9z M14.7,23.9c0,0.8,0,1.6,0,2.3c0,0.5,0.2,0.7,0.7,0.7
				c0.9,0,1.7,0,2.6,0c0.5,0,0.8-0.1,0.8-0.7c0-0.6-0.3-0.7-0.8-0.7c-0.4,0-0.8,0-1.1,0c-0.6,0.1-0.7-0.2-0.7-0.8c0-1.1,0-2.1,0-3.2
				c0-0.5-0.2-0.7-0.7-0.6s-0.8,0.1-0.8,0.7C14.7,22.3,14.7,23.1,14.7,23.9z M19.4,23.9c0,0.8,0,1.6,0,2.3c0,0.6,0.3,0.7,0.8,0.7
				s0.7-0.2,0.7-0.7c0-1.6,0-3.1,0-4.7c0-0.5-0.2-0.7-0.7-0.7c-0.5,0-0.8,0.1-0.8,0.7C19.4,22.3,19.4,23.1,19.4,23.9L19.4,23.9z"/>
		</g>
	</g>
</g>
</svg>
