<?xml version="1.0" encoding="utf-8"?>
<!-- Generator: Adobe Illustrator 23.1.0, SVG Export Plug-In . SVG Version: 6.00 Build 0)  -->
<svg version="1.1" id="圖層_1" xmlns="http://www.w3.org/2000/svg" xmlns:xlink="http://www.w3.org/1999/xlink" x="0px" y="0px"
	 viewBox="0 0 18 18" style="enable-background:new 0 0 18 18;" xml:space="preserve">
<style type="text/css">
	.st0{clip-path:url(#SVGID_2_);}
	.st1{fill:#E37E84;}
</style>
<g>
	<defs>
		<rect id="SVGID_1_" width="18" height="18"/>
	</defs>
	<clipPath id="SVGID_2_">
		<use xlink:href="#SVGID_1_"  style="overflow:visible;"/>
	</clipPath>
	<g id="location_red" class="st0">
		<g id="组_9" transform="translate(-132.362 -1045.854)">
			<g id="组_8">
				<path id="路径_10" class="st1" d="M141.9,1047.9c-3,0-5.5,2.5-5.5,5.5c0,0.8,0.2,1.5,0.5,2.2c1.3,2.6,2.9,4.9,4.8,7.1
					c0.1,0.1,0.3,0.1,0.4,0c0,0,0,0,0,0c1.9-2.2,3.5-4.5,4.8-7.1c0.3-0.7,0.5-1.5,0.5-2.2C147.4,1050.3,144.9,1047.9,141.9,1047.9z
					 M141.9,1056.2c-1.6,0-2.9-1.3-2.9-2.9c0-1.6,1.3-2.9,2.9-2.9c1.6,0,2.9,1.3,2.9,2.9C144.7,1054.9,143.4,1056.2,141.9,1056.2z"
					/>
			</g>
		</g>
	</g>
</g>
</svg>
