<svg xmlns="http://www.w3.org/2000/svg" width="168" height="55.455" viewBox="0 0 168 55.455">
  <g id="Group_805" data-name="Group 805" transform="translate(-217.812 -587.05)">
    <g id="Group_798" data-name="Group 798" transform="translate(246.445 632.419)">
      <path id="Path_1348" data-name="Path 1348" d="M236.042,759.9h-.415l-2.76-7.554h.6l2.185,6.081a3.52,3.52,0,0,1,.186.712h.024a5.061,5.061,0,0,1,.215-.727l2.312-6.067h.58Z" transform="translate(-232.867 -752.343)" fill="#898989"/>
      <path id="Path_1349" data-name="Path 1349" d="M257.477,762.6a2.635,2.635,0,0,0,.507,1.717,1.716,1.716,0,0,0,1.4.619,2.868,2.868,0,0,0,1.77-.663v.531a3.179,3.179,0,0,1-1.873.59,2.082,2.082,0,0,1-1.709-.773,3.2,3.2,0,0,1-.627-2.08,3.258,3.258,0,0,1,.31-1.417,2.464,2.464,0,0,1,.863-1.019,2.208,2.208,0,0,1,1.251-.368,1.853,1.853,0,0,1,1.536.693,3.045,3.045,0,0,1,.551,1.941v.229Zm3.463-.458a2.333,2.333,0,0,0-.446-1.434,1.39,1.39,0,0,0-1.139-.512,1.655,1.655,0,0,0-1.251.512,2.432,2.432,0,0,0-.6,1.434Z" transform="translate(-250.34 -757.705)" fill="#898989"/>
      <path id="Path_1350" data-name="Path 1350" d="M282.632,760.457a.959.959,0,0,0-.576-.176,1.224,1.224,0,0,0-1.078.683,3.506,3.506,0,0,0-.41,1.815v2.545h-.5V759.93h.5v1.19h.02a1.961,1.961,0,0,1,.58-.951,1.373,1.373,0,0,1,.927-.346,1.4,1.4,0,0,1,.536.1Z" transform="translate(-267.115 -757.77)" fill="#898989"/>
      <path id="Path_1351" data-name="Path 1351" d="M294.231,768.139a1.121,1.121,0,0,1-.424-.073v-.5a1.334,1.334,0,0,0,.444.073q.644,0,1.019-.887l.5-1.19-2.043-5.35h.561L295.9,764.6l.122.395h.02l.127-.371,1.726-4.409h.542l-2.614,6.486a2.958,2.958,0,0,1-.678,1.1A1.319,1.319,0,0,1,294.231,768.139Z" transform="translate(-277.02 -758.054)" fill="#898989"/>
      <path id="Path_1352" data-name="Path 1352" d="M329.691,759.9h-.541v-7.554h.541Z" transform="translate(-302.722 -752.343)" fill="#898989"/>
      <path id="Path_1353" data-name="Path 1353" d="M346.386,765.26v-3.238a2.454,2.454,0,0,0-.307-1.4,1.162,1.162,0,0,0-1.01-.424,1.334,1.334,0,0,0-.775.251,1.733,1.733,0,0,0-.57.688,2.16,2.16,0,0,0-.21.948v3.18h-.5v-3.277q0-1.79-1.361-1.79a1.332,1.332,0,0,0-1.087.551,2.21,2.21,0,0,0-.434,1.409v3.107h-.507v-5.394h.507v.9h.019a1.782,1.782,0,0,1,1.648-1.029,1.571,1.571,0,0,1,1,.334,1.652,1.652,0,0,1,.576.9,2.1,2.1,0,0,1,.712-.9,1.75,1.75,0,0,1,1.039-.329q1.77,0,1.77,2.19v3.336Z" transform="translate(-310.32 -757.705)" fill="#898989"/>
      <path id="Path_1354" data-name="Path 1354" d="M374.322,764.313v3.428h-.508v-7.876h.508v1.1h.019a2.162,2.162,0,0,1,.815-.909,2.232,2.232,0,0,1,1.195-.324,1.962,1.962,0,0,1,1.6.709,2.943,2.943,0,0,1,.583,1.924,3.925,3.925,0,0,1-.3,1.575,2.426,2.426,0,0,1-.854,1.073,2.181,2.181,0,0,1-1.258.375,1.891,1.891,0,0,1-1.78-1.078Zm0-1.336a2.127,2.127,0,0,0,.234.99,1.744,1.744,0,0,0,.658.709,1.794,1.794,0,0,0,.946.256,1.548,1.548,0,0,0,.961-.322,2.052,2.052,0,0,0,.656-.912,3.6,3.6,0,0,0,.231-1.322,2.49,2.49,0,0,0-.47-1.592,1.523,1.523,0,0,0-1.256-.593,1.935,1.935,0,0,0-1.029.271,1.823,1.823,0,0,0-.688.756,2.365,2.365,0,0,0-.243,1.075Z" transform="translate(-335.127 -757.705)" fill="#898989"/>
      <path id="Path_1355" data-name="Path 1355" d="M398.84,765.391a2.562,2.562,0,0,1-1.346-.351,2.327,2.327,0,0,1-.9-.985,3.243,3.243,0,0,1-.314-1.458,3.408,3.408,0,0,1,.319-1.519,2.282,2.282,0,0,1,.917-1,2.716,2.716,0,0,1,1.387-.346,2.306,2.306,0,0,1,1.824.758,3.039,3.039,0,0,1,.668,2.08,3.329,3.329,0,0,1-.315,1.475,2.3,2.3,0,0,1-.9.995A2.561,2.561,0,0,1,398.84,765.391Zm.039-5.2a1.882,1.882,0,0,0-1.519.656,2.638,2.638,0,0,0-.553,1.758,2.488,2.488,0,0,0,.551,1.692,1.88,1.88,0,0,0,1.5.634,1.844,1.844,0,0,0,1.492-.624,3.205,3.205,0,0,0,.01-3.506A1.831,1.831,0,0,0,398.879,760.192Z" transform="translate(-351.427 -757.705)" fill="#898989"/>
      <path id="Path_1356" data-name="Path 1356" d="M424.184,760.457a.959.959,0,0,0-.576-.176,1.225,1.225,0,0,0-1.078.683,3.509,3.509,0,0,0-.409,1.815v2.545h-.5V759.93h.5v1.19h.019a1.964,1.964,0,0,1,.581-.951,1.372,1.372,0,0,1,.927-.346,1.4,1.4,0,0,1,.536.1Z" transform="translate(-369.814 -757.77)" fill="#898989"/>
      <path id="Path_1357" data-name="Path 1357" d="M437.795,761.4a1.657,1.657,0,0,1-.717.18q-1.2,0-1.2-1.439v-3.6H434.9v-.459h.971v-1.395l.5-.171v1.565h1.424v.459h-1.424v3.536a1.425,1.425,0,0,0,.175.8.689.689,0,0,0,.6.249,1.325,1.325,0,0,0,.644-.2Z" transform="translate(-379.449 -753.916)" fill="#898989"/>
      <path id="Path_1358" data-name="Path 1358" d="M453.538,765.26v-1.068h-.019a2.154,2.154,0,0,1-.761.88,1.919,1.919,0,0,1-1.073.319,1.71,1.71,0,0,1-1.214-.427,1.429,1.429,0,0,1-.458-1.095q0-1.434,1.868-1.712l1.658-.249q0-1.717-1.3-1.717a2.676,2.676,0,0,0-1.736.712v-.6a2.646,2.646,0,0,1,.826-.417,3.168,3.168,0,0,1,.958-.154,1.643,1.643,0,0,1,1.3.515,2.209,2.209,0,0,1,.454,1.5v3.506Zm-2.994-1.419a1.023,1.023,0,0,0,.327.792,1.24,1.24,0,0,0,.873.3,1.676,1.676,0,0,0,.914-.261,1.784,1.784,0,0,0,.646-.731,2.316,2.316,0,0,0,.234-1.046v-.527l-1.473.21a2.356,2.356,0,0,0-1.178.41A1.058,1.058,0,0,0,450.544,763.84Z" transform="translate(-390.411 -757.705)" fill="#898989"/>
      <path id="Path_1359" data-name="Path 1359" d="M476.074,765.26v-3.136q0-1.931-1.395-1.931a1.626,1.626,0,0,0-1.266.559,2.038,2.038,0,0,0-.5,1.412v3.1h-.507v-5.394h.507v.975h.019a1.955,1.955,0,0,1,1.838-1.107,1.607,1.607,0,0,1,1.336.583,2.613,2.613,0,0,1,.463,1.661v3.282Z" transform="translate(-406.659 -757.705)" fill="#898989"/>
      <path id="Path_1360" data-name="Path 1360" d="M495.525,761.4a1.657,1.657,0,0,1-.717.18q-1.2,0-1.2-1.439v-3.6h-.971v-.459h.971v-1.395l.5-.171v1.565h1.424v.459H494.1v3.536a1.425,1.425,0,0,0,.176.8.689.689,0,0,0,.6.249,1.324,1.324,0,0,0,.643-.2Z" transform="translate(-421.333 -753.916)" fill="#898989"/>
      <path id="Path_1361" data-name="Path 1361" d="M522.418,756.878V759.9h-.541v-7.554h1.838a2.629,2.629,0,0,1,1.785.539,2,2,0,0,1,.614,1.587,2.47,2.47,0,0,1-.319,1.265,2.132,2.132,0,0,1-.917.846,3.063,3.063,0,0,1-1.383.3Zm0-4.038v3.545h1.063a2.219,2.219,0,0,0,1.546-.485,1.765,1.765,0,0,0,.532-1.373q0-1.687-1.946-1.687Z" transform="translate(-442.55 -752.343)" fill="#898989"/>
      <path id="Path_1362" data-name="Path 1362" d="M542.363,762.6a2.635,2.635,0,0,0,.507,1.717,1.715,1.715,0,0,0,1.4.619,2.867,2.867,0,0,0,1.77-.663v.531a3.178,3.178,0,0,1-1.872.59,2.081,2.081,0,0,1-1.709-.773,3.2,3.2,0,0,1-.627-2.08,3.259,3.259,0,0,1,.31-1.417,2.465,2.465,0,0,1,.863-1.019,2.208,2.208,0,0,1,1.251-.368,1.852,1.852,0,0,1,1.536.693,3.043,3.043,0,0,1,.551,1.941v.229Zm3.463-.458a2.337,2.337,0,0,0-.446-1.434,1.39,1.39,0,0,0-1.139-.512,1.655,1.655,0,0,0-1.251.512,2.434,2.434,0,0,0-.6,1.434Z" transform="translate(-457.031 -757.705)" fill="#898989"/>
      <path id="Path_1363" data-name="Path 1363" d="M567.519,760.457a.959.959,0,0,0-.576-.176,1.224,1.224,0,0,0-1.078.683,3.508,3.508,0,0,0-.41,1.815v2.545h-.5V759.93h.5v1.19h.019a1.964,1.964,0,0,1,.581-.951,1.372,1.372,0,0,1,.927-.346,1.4,1.4,0,0,1,.536.1Z" transform="translate(-473.807 -757.77)" fill="#898989"/>
      <path id="Path_1364" data-name="Path 1364" d="M579.038,764.421a2.1,2.1,0,0,0,.661.37,2.064,2.064,0,0,0,.685.142q1.258,0,1.258-1.019a.8.8,0,0,0-.251-.588,3.3,3.3,0,0,0-.934-.544,3.126,3.126,0,0,1-1.078-.68,1.277,1.277,0,0,1-.327-.895,1.3,1.3,0,0,1,.507-1.061,1.929,1.929,0,0,1,1.258-.412,2.4,2.4,0,0,1,1.19.283v.566a2.274,2.274,0,0,0-1.248-.39,1.3,1.3,0,0,0-.849.271.877.877,0,0,0-.332.714.964.964,0,0,0,.1.478,1.033,1.033,0,0,0,.332.332,4.663,4.663,0,0,0,.68.356,5.322,5.322,0,0,1,.9.48,1.386,1.386,0,0,1,.444.468,1.307,1.307,0,0,1,.129.612,1.327,1.327,0,0,1-.5,1.078,2.025,2.025,0,0,1-1.324.409,2.214,2.214,0,0,1-1.307-.371Z" transform="translate(-484.022 -757.705)" fill="#898989"/>
      <path id="Path_1365" data-name="Path 1365" d="M598.342,765.391A2.561,2.561,0,0,1,597,765.04a2.327,2.327,0,0,1-.9-.985,3.243,3.243,0,0,1-.314-1.458,3.405,3.405,0,0,1,.32-1.519,2.282,2.282,0,0,1,.917-1,2.716,2.716,0,0,1,1.387-.346,2.306,2.306,0,0,1,1.824.758,3.039,3.039,0,0,1,.668,2.08,3.328,3.328,0,0,1-.314,1.475,2.3,2.3,0,0,1-.9.995A2.561,2.561,0,0,1,598.342,765.391Zm.039-5.2a1.882,1.882,0,0,0-1.519.656,2.638,2.638,0,0,0-.553,1.758,2.488,2.488,0,0,0,.551,1.692,1.88,1.88,0,0,0,1.5.634,1.844,1.844,0,0,0,1.492-.624,3.205,3.205,0,0,0,.01-3.506A1.831,1.831,0,0,0,598.381,760.192Z" transform="translate(-496.17 -757.705)" fill="#898989"/>
      <path id="Path_1366" data-name="Path 1366" d="M624.793,765.26v-3.136q0-1.931-1.395-1.931a1.626,1.626,0,0,0-1.266.559,2.039,2.039,0,0,0-.5,1.412v3.1h-.507v-5.394h.507v.975h.019a1.956,1.956,0,0,1,1.839-1.107,1.607,1.607,0,0,1,1.336.583,2.613,2.613,0,0,1,.463,1.661v3.282Z" transform="translate(-514.558 -757.705)" fill="#898989"/>
    </g>
    <g id="Group_804" data-name="Group 804" transform="translate(217.812 587.05)">
      <g id="Group_799" data-name="Group 799" transform="translate(85.207 2.744)">
        <path id="Path_1367" data-name="Path 1367" d="M609.529,698.2" transform="translate(-587.218 -670.437)" fill="none" stroke="#bf3e4f" stroke-linejoin="bevel" stroke-width="3"/>
        <path id="Path_1368" data-name="Path 1368" d="M587.135,598.547" transform="translate(-570.971 -598.135)" fill="none" stroke="#bf3e4f" stroke-linejoin="bevel" stroke-width="3"/>
        <path id="Path_1369" data-name="Path 1369" d="M578.741,650.833h-9.355l4.739-11.147Zm-8.111-.823h6.878l-3.394-8.2Z" transform="translate(-558.093 -627.983)" fill="#bf3e4f"/>
        <path id="Path_1370" data-name="Path 1370" d="M560.227,629.719h-7.712l-.377-.247-1.852-4.248H538.3l-1.894,4.251-.376.244h-7.414l-.369-.594,15.743-31.848.369-.229h.468l.371.233,15.4,31.848Zm-7.442-.823h6.786l-14.982-30.978L529.276,628.9h6.484l1.894-4.251.376-.244h12.526l.377.247Z" transform="translate(-528.244 -597.048)" fill="#bf3e4f"/>
      </g>
      <path id="Path_1371" data-name="Path 1371" d="M364.907,625.737v-33.7l8.638-4.987v33.7Zm.823-33.225v31.8l6.991-4.036v-31.8Z" transform="translate(-324.533 -587.05)" fill="#bf3e4f"/>
      <g id="Group_800" data-name="Group 800" transform="translate(53.697 1.496)">
        <path id="Path_1372" data-name="Path 1372" d="M491.967,663.613" transform="translate(-470.415 -644.094)" fill="none" stroke="#f38200" stroke-miterlimit="10" stroke-width="3"/>
        <path id="Path_1373" data-name="Path 1373" d="M518.216,688.164" transform="translate(-489.459 -661.906)" fill="none" stroke="#f38200" stroke-miterlimit="10" stroke-width="3"/>
        <path id="Path_1374" data-name="Path 1374" d="M442.615,628.375h-1.251L421.475,609.8v17.329h-8.029V592.5h1.319l19.821,18.569V593.56h8.028Zm-.927-.823h.1V594.384H435.41v18.584l-20.969-19.646h-.171V626.31h6.382v-18.4Z" transform="translate(-413.447 -592.499)" fill="#f38200"/>
      </g>
      <path id="Path_1375" data-name="Path 1375" d="M774.981,649.4" transform="translate(-622.051 -632.286)" fill="none" stroke="#3ea2a3" stroke-miterlimit="10" stroke-width="3"/>
      <path id="Path_1376" data-name="Path 1376" d="M774.981,671.37" transform="translate(-622.051 -648.226)" fill="none" stroke="#3ea2a3" stroke-miterlimit="10" stroke-width="3"/>
      <path id="Path_1377" data-name="Path 1377" d="M774.981,595.667" transform="translate(-622.051 -593.302)" fill="none" stroke="#3ea2a3" stroke-miterlimit="10" stroke-width="3"/>
      <path id="Path_1378" data-name="Path 1378" d="M774.981,617.555" transform="translate(-622.051 -609.182)" fill="none" stroke="#3ea2a3" stroke-miterlimit="10" stroke-width="3"/>
      <g id="Group_801" data-name="Group 801" transform="translate(144.704 1.953)">
        <path id="Path_1379" data-name="Path 1379" d="M775.316,625.619h-1.835v-9.564h1.473a9.237,9.237,0,0,1,5.132,1.11,4.075,4.075,0,0,1,1.717,3.616,4.23,4.23,0,0,1-1.727,3.619A8,8,0,0,1,775.316,625.619ZM774.3,624.8h1.011a7.227,7.227,0,0,0,4.274-1.061,3.406,3.406,0,0,0,1.389-2.954,3.26,3.26,0,0,0-1.355-2.934,8.63,8.63,0,0,0-4.67-.968H774.3Z" transform="translate(-765.666 -610.047)" fill="#3ea2a3"/>
        <path id="Path_1380" data-name="Path 1380" d="M753.647,627.739h-8.638V594.167h8.837a27.235,27.235,0,0,1,6.264.577,11.463,11.463,0,0,1,4.193,1.968,9.605,9.605,0,0,1,2.954,3.475,9.756,9.756,0,0,1,1.049,4.42,10.115,10.115,0,0,1-3.685,8.2c-2.421,2-5.735,3.008-9.849,3.008q-.643,0-.964-.012l-.16-.006Zm-7.815-.823h6.992V614.909l.447.038q.261.022.566.033c.209.008.52.011.935.011,3.918,0,7.055-.949,9.325-2.819a9.327,9.327,0,0,0,3.385-7.565,8.939,8.939,0,0,0-.961-4.05,8.8,8.8,0,0,0-2.709-3.183,10.647,10.647,0,0,0-3.9-1.83,26.46,26.46,0,0,0-6.066-.553h-8.013Z" transform="translate(-745.009 -594.167)" fill="#3ea2a3"/>
      </g>
      <g id="Group_802" data-name="Group 802" transform="translate(119.191 1.953)">
        <path id="Path_1381" data-name="Path 1381" d="M682.364,625.619h-1.835v-9.564H682a9.235,9.235,0,0,1,5.132,1.11,4.075,4.075,0,0,1,1.717,3.616,4.23,4.23,0,0,1-1.727,3.619A8,8,0,0,1,682.364,625.619Zm-1.011-.823h1.011a7.226,7.226,0,0,0,4.274-1.061,3.406,3.406,0,0,0,1.389-2.954,3.26,3.26,0,0,0-1.355-2.934,8.63,8.63,0,0,0-4.67-.968h-.65Z" transform="translate(-672.714 -610.047)" fill="#3ea2a3"/>
        <path id="Path_1382" data-name="Path 1382" d="M660.7,627.739h-8.638V594.167h8.837a27.237,27.237,0,0,1,6.264.577,11.463,11.463,0,0,1,4.192,1.968,9.6,9.6,0,0,1,2.954,3.475,9.752,9.752,0,0,1,1.049,4.42,10.114,10.114,0,0,1-3.685,8.2c-2.421,2-5.735,3.008-9.849,3.008q-.643,0-.964-.012l-.16-.006Zm-7.815-.823h6.991V614.909l.447.038q.261.022.567.033t.935.011c3.918,0,7.056-.949,9.325-2.819a9.327,9.327,0,0,0,3.385-7.565,8.94,8.94,0,0,0-.961-4.05,8.794,8.794,0,0,0-2.709-3.183,10.649,10.649,0,0,0-3.9-1.83,26.463,26.463,0,0,0-6.066-.553h-8.013Z" transform="translate(-652.058 -594.167)" fill="#3ea2a3"/>
      </g>
      <g id="Group_803" data-name="Group 803" transform="translate(0 0.301)">
        <path id="Path_1383" data-name="Path 1383" d="M262.42,618.836l-.582-.582a17.154,17.154,0,0,0-24.26-24.259l-.582-.582a17.977,17.977,0,0,1,25.424,25.424Z" transform="translate(-231.73 -588.147)" fill="#f38200"/>
        <path id="Path_1384" data-name="Path 1384" d="M328.562,698.9" transform="translate(-298.164 -668.499)" fill="none" stroke="#f38200" stroke-miterlimit="10" stroke-width="3"/>
        <path id="Path_1385" data-name="Path 1385" d="M308.234,678.569" transform="translate(-283.415 -653.75)" fill="none" stroke="#f38200" stroke-miterlimit="10" stroke-width="3"/>
        <path id="Path_1386" data-name="Path 1386" d="M271.588,634.1l-.582-.582a9.264,9.264,0,1,0-13.1-13.1l-.582-.582A10.087,10.087,0,1,1,271.588,634.1Z" transform="translate(-246.478 -608.992)" fill="#f38200"/>
        <path id="Path_1387" data-name="Path 1387" d="M258.384,628.718" transform="translate(-247.248 -617.582)" fill="none" stroke="#f38200" stroke-miterlimit="10" stroke-width="3"/>
        <path id="Path_1388" data-name="Path 1388" d="M238.056,608.391" transform="translate(-232.499 -602.834)" fill="none" stroke="#f38200" stroke-miterlimit="10" stroke-width="3"/>
        <path id="Path_1389" data-name="Path 1389" d="M256.634,644.882a10.087,10.087,0,0,1-7.133-17.224l.582.582a9.264,9.264,0,1,0,13.1,13.1l.582.582A10.022,10.022,0,0,1,256.634,644.882Z" transform="translate(-238.657 -616.813)" fill="#f38200"/>
        <path id="Path_1390" data-name="Path 1390" d="M308.234,678.569" transform="translate(-283.415 -653.75)" fill="none" stroke="#f38200" stroke-miterlimit="10" stroke-width="3"/>
        <path id="Path_1391" data-name="Path 1391" d="M328.562,698.9" transform="translate(-298.164 -668.499)" fill="none" stroke="#f38200" stroke-miterlimit="10" stroke-width="3"/>
        <path id="Path_1392" data-name="Path 1392" d="M235.789,638.02a17.977,17.977,0,0,1-12.712-30.689l.582.582a17.154,17.154,0,0,0,24.26,24.259l.582.582A17.861,17.861,0,0,1,235.789,638.02Z" transform="translate(-217.812 -602.065)" fill="#f38200"/>
        <path id="Path_1393" data-name="Path 1393" d="M238.056,608.391" transform="translate(-232.499 -602.834)" fill="none" stroke="#f38200" stroke-miterlimit="10" stroke-width="3"/>
        <path id="Path_1394" data-name="Path 1394" d="M258.384,628.718" transform="translate(-247.248 -617.582)" fill="none" stroke="#f38200" stroke-miterlimit="10" stroke-width="3"/>
      </g>
    </g>
  </g>
</svg>
