<?xml version="1.0" encoding="utf-8"?>
<!-- Generator: Adobe Illustrator 23.1.0, SVG Export Plug-In . SVG Version: 6.00 Build 0)  -->
<svg version="1.1" id="圖層_1" xmlns="http://www.w3.org/2000/svg" xmlns:xlink="http://www.w3.org/1999/xlink" x="0px" y="0px"
	 viewBox="0 0 452 90.9" style="enable-background:new 0 0 452 90.9;" xml:space="preserve">
<style type="text/css">
	.st0{fill:#FFFFFF;}
</style>
<title>logo</title>
<g id="组_1141" transform="translate(-787.638 -592.19)">
	<g id="组_1131" transform="translate(842.194 593.755)">
		<path id="路径_1592" class="st0" d="M203,57.9l9.9-23.2l0,0.1L213.2,5h-0.1l-37.8,76.5h17.8l4.8-10.8H228l-5.5-12.8L203,57.9z"
			/>
		<path id="路径_1593" class="st0" d="M251.2,81.5L214.2,5h-1l-0.3,29.8l9.6,23.1l5.5,12.8l4.7,10.8L251.2,81.5z"/>
	</g>
	<path id="路径_1594" class="st0" d="M909.9,682.4v-78.6l18.8-10.8v78.6L909.9,682.4z"/>
	<g id="组_1132" transform="translate(822.037 592.955)">
		<path id="路径_1595" class="st0" d="M170.6,48.7l-4.1-3.8L121.7,2.8h-1.8V84h17.3V41.1L186.3,87h1.6V64.9L170.6,48.7z"/>
		<path id="路径_1596" class="st0" d="M187.9,5.4h-17.3v43.3l17.3,16.2V5.4z"/>
	</g>
	<g id="组_1133" transform="translate(880.336 593.248)">
		<path id="路径_1597" class="st0" d="M298.9,18V3.6h-18.8v78.6h18.8V18z"/>
		<path id="路径_1598" class="st0" d="M302.6,53.6c8.3,0.5,16.4-2,23-7c5.6-4.6,8.8-11.6,8.5-18.9c0-3.5-0.8-7-2.4-10.2
			c-1.6-3.2-3.9-5.9-6.8-8c-2.9-2.2-6.2-3.7-9.7-4.6c-4.9-1-9.8-1.5-14.8-1.4h-1.5V18h2.5c4.1-0.3,8.2,0.6,11.8,2.5
			c2.5,1.8,3.9,4.8,3.7,7.9c0.2,3.1-1.2,6.1-3.7,7.9c-3.2,2-7,3-10.8,2.7h-3.4v14.5c0.4,0,0.9,0.1,1.4,0.1
			C300.8,53.6,301.5,53.6,302.6,53.6z"/>
	</g>
	<g id="组_1134" transform="translate(863.992 593.248)">
		<path id="路径_1599" class="st0" d="M254,18V3.6h-18.8v78.6H254V18z"/>
		<path id="路径_1600" class="st0" d="M257.6,53.6c8.3,0.5,16.4-2,23-7c5.6-4.6,8.8-11.6,8.5-18.9c0-3.5-0.8-7-2.4-10.2
			c-1.6-3.2-3.9-5.9-6.8-8c-2.9-2.2-6.2-3.7-9.7-4.6c-4.9-1-9.8-1.5-14.8-1.4h-1.5V18h2.5c4.1-0.3,8.2,0.6,11.8,2.5
			c2.5,1.8,3.9,4.8,3.7,7.9c0.2,3.1-1.2,6.1-3.7,7.9c-3.2,2-7,3-10.8,2.7h-3.4v14.5c0.4,0,0.9,0.1,1.4,0.1
			C255.8,53.6,256.6,53.6,257.6,53.6z"/>
	</g>
	<g id="组_1135" transform="translate(787.638 592.19)">
		<path id="路径_1601" class="st0" d="M109.7,42.9c0-23.3-18.9-42.2-42.2-42.2c-11.2,0-21.9,4.4-29.8,12.3l13.4,13.4
			c8.8-9.3,23.5-9.7,32.9-0.9c9.3,8.8,9.7,23.5,0.9,32.9c-0.3,0.3-0.6,0.6-0.9,0.9l13.4,13.4C105.3,64.8,109.7,54.1,109.7,42.9z"/>
		<path id="路径_1602" class="st0" d="M67.5,66.1c-12.8,0-23.2-10.4-23.2-23.2c0-6.2,2.4-12.1,6.8-16.4L37.7,13.1
			C21.2,29.5,21,56.2,37.5,72.7S80.6,89.4,97.1,73c0.1-0.1,0.2-0.2,0.3-0.3L84,59.3C79.6,63.7,73.7,66.1,67.5,66.1z"/>
	</g>
</g>
</svg>
