<svg xmlns="http://www.w3.org/2000/svg" width="68.658" height="70.71" viewBox="0 0 68.658 70.71">
  <g id="Group_821" data-name="Group 821" transform="translate(-14.94 -14.94)">
    <circle id="Ellipse_216" data-name="Ellipse 216" cx="24.681" cy="24.681" r="24.681" transform="translate(17.148 23.466)" fill="#e9e4d2"/>
    <g id="Group_818" data-name="Group 818" transform="translate(14.94 14.94)">
      <path id="Path_1403" data-name="Path 1403" d="M49.269,83.6A34.329,34.329,0,1,1,83.6,49.268,34.369,34.369,0,0,1,49.269,83.6Zm0-66.261A31.932,31.932,0,1,0,81.2,49.268,31.968,31.968,0,0,0,49.269,17.337Z" transform="translate(-14.94 -14.94)" fill="#b2cfd1"/>
      <path id="Path_1404" data-name="Path 1404" d="M56.239,81.269a25.029,25.029,0,1,1,25.029-25.03,25.059,25.059,0,0,1-25.029,25.03Zm0-47.662A22.633,22.633,0,1,0,78.872,56.239,22.658,22.658,0,0,0,56.239,33.607Z" transform="translate(-21.91 -21.91)" fill="#b2cfd1"/>
    </g>
    <g id="Group_819" data-name="Group 819" transform="translate(18.751 30.103)">
      <path id="Path_1405" data-name="Path 1405" d="M80.8,57.84a1.1,1.1,0,0,1-1.159-1.663L83,50.926a1.1,1.1,0,0,1,1.847,1.183L81.485,57.36A1.093,1.093,0,0,1,80.8,57.84Z" transform="translate(-46.395 -45.303)" fill="#3b1a16"/>
      <path id="Path_1406" data-name="Path 1406" d="M51.759,64.76a1.092,1.092,0,0,1-.827-.147l-5.251-3.362A1.1,1.1,0,1,1,46.865,59.4l5.251,3.362a1.1,1.1,0,0,1-.357,1.995Z" transform="translate(-31.705 -49.077)" fill="#3b1a16"/>
      <circle id="Ellipse_217" data-name="Ellipse 217" cx="11.241" cy="11.241" r="11.241" transform="translate(18.034 9.644)" fill="#b2cfd1"/>
      <path id="Path_1407" data-name="Path 1407" d="M66.22,80.808a12.337,12.337,0,1,1,9.408-14.694A12.352,12.352,0,0,1,66.22,80.808ZM61.4,58.849a10.143,10.143,0,1,0,12.08,7.735A10.155,10.155,0,0,0,61.4,58.849Z" transform="translate(-34.302 -47.873)" fill="#3b1a16"/>
      <path id="Path_1408" data-name="Path 1408" d="M74.916,67a1.1,1.1,0,0,1-.826-.147,5.933,5.933,0,0,0-4.5-.8,1.1,1.1,0,0,1-.47-2.143A8.114,8.114,0,0,1,75.272,65,1.1,1.1,0,0,1,74.916,67Z" transform="translate(-41.593 -50.996)" fill="#fff"/>
      <path id="Path_1409" data-name="Path 1409" d="M62.681,75.594a14.837,14.837,0,0,1-21.419,4.7c-11.03,3.6-18.416,8.226-17.68,11.581.953,4.347,15.158,4.925,31.727,1.291s29.229-10.1,28.275-14.448c-.736-3.356-9.377-4.463-20.9-3.121Z" transform="translate(-22.432 -55.85)" fill="#a48e89"/>
      <path id="Path_1410" data-name="Path 1410" d="M54.72,93.42c-20.4,4.474-32.059,2.316-33.033-2.127-1.3-5.925,13.762-11.341,18.411-12.859a1.085,1.085,0,0,1,.963.14,13.742,13.742,0,0,0,19.854-4.354,1.1,1.1,0,0,1,.816-.53c4.857-.565,20.8-1.95,22.1,3.975C84.807,82.108,75.12,88.946,54.72,93.42ZM40.274,80.685C28.969,84.449,23.364,88.7,23.83,90.822c.623,2.839,12.5,4.385,30.421.454s28.062-10.3,27.439-13.142c-.466-2.125-7.335-3.639-19.178-2.327a15.916,15.916,0,0,1-22.237,4.877Z" transform="translate(-21.608 -55.035)" fill="#3b1a16"/>
      <circle id="Ellipse_218" data-name="Ellipse 218" cx="1.645" cy="1.645" r="1.645" transform="translate(8.576 32.214)" fill="#fbbb42"/>
      <path id="Path_1411" data-name="Path 1411" d="M38.023,101.328a2.742,2.742,0,1,1,2.091-3.266A2.746,2.746,0,0,1,38.023,101.328Zm-.705-3.215a.549.549,0,1,0,.653.418A.549.549,0,0,0,37.317,98.114Z" transform="translate(-27.213 -64.79)" fill="#3b1a16"/>
      <circle id="Ellipse_219" data-name="Ellipse 219" cx="1.645" cy="1.645" r="1.645" transform="translate(49.292 23.285)" fill="#fbbb42"/>
      <path id="Path_1412" data-name="Path 1412" d="M109.257,85.707a2.742,2.742,0,1,1,2.091-3.266A2.746,2.746,0,0,1,109.257,85.707Zm-.705-3.215a.549.549,0,1,0,.653.418A.549.549,0,0,0,108.551,82.493Z" transform="translate(-57.731 -58.098)" fill="#3b1a16"/>
      <circle id="Ellipse_220" data-name="Ellipse 220" cx="1.645" cy="1.645" r="1.645" transform="translate(18.69 32.242)" fill="#fbbb42"/>
      <path id="Path_1413" data-name="Path 1413" d="M55.716,101.378a2.742,2.742,0,1,1,2.091-3.266A2.745,2.745,0,0,1,55.716,101.378Zm-.7-3.214a.548.548,0,1,0,.653.418A.549.549,0,0,0,55.011,98.164Z" transform="translate(-34.794 -64.812)" fill="#3b1a16"/>
      <circle id="Ellipse_221" data-name="Ellipse 221" cx="1.645" cy="1.645" r="1.645" transform="translate(40.119 27.543)" fill="#fbbb42"/>
      <path id="Path_1414" data-name="Path 1414" d="M93.208,93.156A2.742,2.742,0,1,1,95.3,89.89,2.745,2.745,0,0,1,93.208,93.156ZM92.5,89.942a.549.549,0,1,0,.653.418A.549.549,0,0,0,92.5,89.942Z" transform="translate(-50.856 -61.289)" fill="#3b1a16"/>
      <circle id="Ellipse_222" data-name="Ellipse 222" cx="1.645" cy="1.645" r="1.645" transform="translate(29.404 29.892)" fill="#fbbb42"/>
      <path id="Path_1415" data-name="Path 1415" d="M74.462,97.267A2.742,2.742,0,1,1,76.553,94,2.745,2.745,0,0,1,74.462,97.267Zm-.7-3.215a.548.548,0,1,0,.653.418A.548.548,0,0,0,73.757,94.053Z" transform="translate(-42.825 -63.051)" fill="#3b1a16"/>
      <circle id="Ellipse_223" data-name="Ellipse 223" cx="2.742" cy="2.742" r="2.742" transform="translate(36.832 1.097)" fill="#fbbb42"/>
      <path id="Path_1416" data-name="Path 1416" d="M88.79,49.057a3.839,3.839,0,1,1,2.928-4.573A3.844,3.844,0,0,1,88.79,49.057ZM87.614,43.7a1.646,1.646,0,1,0,1.96,1.255A1.648,1.648,0,0,0,87.614,43.7Z" transform="translate(-48.392 -41.467)" fill="#3b1a16"/>
      <circle id="Ellipse_224" data-name="Ellipse 224" cx="2.742" cy="2.742" r="2.742" transform="translate(10.046 6.971)" fill="#fbbb42"/>
      <path id="Path_1417" data-name="Path 1417" d="M40.966,59.424a3.839,3.839,0,1,1,3.839-3.839A3.844,3.844,0,0,1,40.966,59.424Zm0-5.485a1.645,1.645,0,1,0,1.646,1.646A1.647,1.647,0,0,0,40.966,53.939Z" transform="translate(-28.256 -45.871)" fill="#3b1a16"/>
    </g>
    <g id="Group_820" data-name="Group 820" transform="translate(18.346 27.059)">
      <path id="Path_1418" data-name="Path 1418" d="M114.114,65.592a1.1,1.1,0,0,1-.776-1.872l3.1-3.1a1.1,1.1,0,0,1,1.551,1.551l-3.1,3.1a1.09,1.09,0,0,1-.775.322Z" transform="translate(-60.364 -46.49)" fill="#3b1a16"/>
      <path id="Path_1419" data-name="Path 1419" d="M117.216,65.592a1.094,1.094,0,0,1-.776-.322l-3.1-3.1a1.1,1.1,0,1,1,1.551-1.551l3.1,3.1a1.1,1.1,0,0,1-.776,1.872Z" transform="translate(-60.364 -46.49)" fill="#3b1a16"/>
      <path id="Path_1420" data-name="Path 1420" d="M48.864,134.68a1.1,1.1,0,0,1-.776-1.872l3.1-3.1a1.1,1.1,0,0,1,1.551,1.551l-3.1,3.1a1.092,1.092,0,0,1-.775.321Z" transform="translate(-32.41 -76.089)" fill="#3b1a16"/>
      <path id="Path_1421" data-name="Path 1421" d="M51.966,134.68a1.093,1.093,0,0,1-.776-.321l-3.1-3.1a1.1,1.1,0,1,1,1.551-1.551l3.1,3.1a1.1,1.1,0,0,1-.776,1.872Z" transform="translate(-32.41 -76.089)" fill="#3b1a16"/>
      <path id="Path_1422" data-name="Path 1422" d="M22,42.563a1.1,1.1,0,0,1-.776-1.872l3.1-3.1a1.1,1.1,0,1,1,1.551,1.551l-3.1,3.1a1.093,1.093,0,0,1-.776.321Z" transform="translate(-20.899 -36.624)" fill="#3b1a16"/>
      <path id="Path_1423" data-name="Path 1423" d="M25.1,42.563a1.093,1.093,0,0,1-.776-.321l-3.1-3.1a1.1,1.1,0,0,1,1.551-1.551l3.1,3.1a1.1,1.1,0,0,1-.776,1.872Z" transform="translate(-20.899 -36.624)" fill="#3b1a16"/>
      <circle id="Ellipse_225" data-name="Ellipse 225" cx="1.097" cy="1.097" r="1.097" transform="translate(48.719)" fill="#3b1a16"/>
      <circle id="Ellipse_226" data-name="Ellipse 226" cx="1.097" cy="1.097" r="1.097" transform="translate(42.137 49.362)" fill="#3b1a16"/>
      <circle id="Ellipse_227" data-name="Ellipse 227" cx="1.097" cy="1.097" r="1.097" transform="translate(58.591 36.227)" fill="#3b1a16"/>
      <circle id="Ellipse_228" data-name="Ellipse 228" cx="1.097" cy="1.097" r="1.097" transform="translate(1.551 43.877)" fill="#3b1a16"/>
      <circle id="Ellipse_229" data-name="Ellipse 229" cx="1.097" cy="1.097" r="1.097" transform="translate(5.938 16.454)" fill="#3b1a16"/>
      <circle id="Ellipse_230" data-name="Ellipse 230" cx="1.097" cy="1.097" r="1.097" transform="translate(32.265 2.194)" fill="#3b1a16"/>
    </g>
  </g>
</svg>
