<svg xmlns="http://www.w3.org/2000/svg" xmlns:xlink="http://www.w3.org/1999/xlink" width="39.088" height="37.872" viewBox="0 0 39.088 37.872">
  <defs>
    <linearGradient id="linear-gradient" x1="1.066" y1="0.781" x2="0.314" y2="0.482" gradientUnits="objectBoundingBox">
      <stop offset="0" stop-color="#831c2d"/>
      <stop offset="0.38" stop-color="#cd3f52"/>
    </linearGradient>
    <linearGradient id="linear-gradient-2" x1="0.5" y1="1" x2="0.5" y2="0" xlink:href="#linear-gradient"/>
    <linearGradient id="linear-gradient-3" x1="0.5" y1="1" x2="0.5" gradientUnits="objectBoundingBox">
      <stop offset="0" stop-color="#b38a02"/>
      <stop offset="0.38" stop-color="#f4bb04"/>
    </linearGradient>
    <linearGradient id="linear-gradient-4" x1="-0.046" y1="0.979" x2="0.682" y2="0.091" gradientUnits="objectBoundingBox">
      <stop offset="0" stop-color="#006982"/>
      <stop offset="0.609" stop-color="#3eadae"/>
    </linearGradient>
    <linearGradient id="linear-gradient-5" x1="-0.046" y1="0.979" x2="0.682" y2="0.091" xlink:href="#linear-gradient-4"/>
    <linearGradient id="linear-gradient-6" x1="0.793" y1="1.036" x2="-0.036" y2="0.207" xlink:href="#linear-gradient-3"/>
  </defs>
  <g id="Group_336" data-name="Group 336" transform="translate(-16 -8.061)">
    <g id="Group_335" data-name="Group 335" transform="translate(16 8.061)">
      <g id="Group_329" data-name="Group 329" transform="translate(0 0)">
        <g id="Group_329-2" data-name="Group 329" transform="translate(0.135 22.693)">
          <path id="Path_313" data-name="Path 313" d="M54.295,428.622l1.953-4.594.01.024.056-5.892h-.025l-7.477,15.126h3.521l.951-2.135h5.949l-1.083-2.529Z" transform="translate(-48.811 -418.16)" fill="url(#linear-gradient)"/>
          <path id="Path_314" data-name="Path 314" d="M69.627,433.286,62.312,418.16h-.2l-.056,5.892,1.892,4.57,1.083,2.529.931,2.135Z" transform="translate(-54.612 -418.16)" fill="#cd4052"/>
        </g>
        <path id="Path_315" data-name="Path 315" d="M82.686,395.484V379.93l3.711-2.143v15.555Z" transform="translate(-63.51 -377.787)" fill="url(#linear-gradient-2)"/>
        <g id="Group_330" data-name="Group 330" transform="translate(25.504 0.567)">
          <path id="Path_316" data-name="Path 316" d="M103.985,387.871l-.8-.751L94.3,378.8h-.354v16.059h3.422v-8.485l9.719,9.075h.322v-4.373Z" transform="translate(-93.944 -378.796)" fill="#f4bb04"/>
          <path id="Path_317" data-name="Path 317" d="M115.23,379.693h-3.422v8.571l3.422,3.2Z" transform="translate(-101.767 -379.189)" fill="url(#linear-gradient-3)"/>
        </g>
        <g id="Group_331" data-name="Group 331" transform="translate(28.414 22.317)">
          <path id="Path_318" data-name="Path 318" d="M102.833,420.345v-2.854H99.122v15.555h3.712v-12.7Z" transform="translate(-99.122 -417.491)" fill="#3eadae"/>
          <path id="Path_319" data-name="Path 319" d="M106.455,427.382A6.946,6.946,0,0,0,111.008,426a4.6,4.6,0,0,0,1.679-3.744,4.419,4.419,0,0,0-.477-2.011,4.354,4.354,0,0,0-1.346-1.582,5.226,5.226,0,0,0-1.921-.9,12.69,12.69,0,0,0-2.928-.269h-.289v2.854h.5a4.252,4.252,0,0,1,2.328.494,1.743,1.743,0,0,1,.73,1.555,1.815,1.815,0,0,1-.74,1.561,3.6,3.6,0,0,1-2.145.542h-.676v2.864c.086.007.179.012.279.016S106.254,427.382,106.455,427.382Z" transform="translate(-102.013 -417.491)" fill="url(#linear-gradient-4)"/>
        </g>
        <g id="Group_332" data-name="Group 332" transform="translate(16.297 22.317)">
          <path id="Path_320" data-name="Path 320" d="M81.275,420.345v-2.854H77.563v15.555h3.712v-12.7Z" transform="translate(-77.563 -417.491)" fill="#3eadae"/>
          <path id="Path_321" data-name="Path 321" d="M84.9,427.382A6.947,6.947,0,0,0,89.45,426a4.6,4.6,0,0,0,1.679-3.744,4.42,4.42,0,0,0-.478-2.011,4.349,4.349,0,0,0-1.346-1.582,5.219,5.219,0,0,0-1.92-.9,12.69,12.69,0,0,0-2.928-.269h-.289v2.854h.5a4.254,4.254,0,0,1,2.328.494,1.744,1.744,0,0,1,.73,1.555,1.815,1.815,0,0,1-.74,1.561,3.6,3.6,0,0,1-2.145.542h-.676v2.864c.085.007.179.012.279.016S84.7,427.382,84.9,427.382Z" transform="translate(-80.455 -417.491)" fill="url(#linear-gradient-5)"/>
        </g>
        <g id="Group_333" data-name="Group 333">
          <path id="Path_322" data-name="Path 322" d="M67.16,386.13a8.343,8.343,0,0,0-14.243-5.9l2.65,2.65a4.6,4.6,0,1,1,6.5,6.5l2.65,2.65A8.317,8.317,0,0,0,67.16,386.13Z" transform="translate(-50.474 -377.787)" fill="#f4bb04"/>
          <path id="Path_323" data-name="Path 323" d="M56.913,392.631a4.6,4.6,0,0,1-3.249-7.847l-2.65-2.65a8.343,8.343,0,0,0,11.8,11.8l-2.65-2.65A4.583,4.583,0,0,1,56.913,392.631Z" transform="translate(-48.57 -379.691)" fill="url(#linear-gradient-6)"/>
        </g>
      </g>
    </g>
  </g>
</svg>
