<svg xmlns="http://www.w3.org/2000/svg" width="104" height="104" viewBox="0 0 104 104">
  <g id="Group_613" data-name="Group 613" transform="translate(-156 -908.667)">
    <rect id="Rectangle_96" data-name="Rectangle 96" width="103" height="103" rx="30" transform="translate(156.5 909.167)" fill="none" stroke="#f6f5f4" stroke-miterlimit="10" stroke-width="1"/>
    <text id="登出" transform="translate(208 993.175)" fill="#767676" font-size="16" font-family="MicrosoftJhengHeiRegular, Microsoft JhengHei"><tspan x="-16" y="0">登出</tspan></text>
    <g id="Group_546" data-name="Group 546" transform="translate(183.5 922.829)">
      <circle id="Ellipse_125" data-name="Ellipse 125" cx="13.106" cy="13.106" r="13.106" transform="translate(13.999 6.171)" fill="#e9e4d2"/>
      <g id="Group_545" data-name="Group 545" transform="translate(8.149 7.336)">
        <path id="Path_883" data-name="Path 883" d="M130.375,17.96a.583.583,0,0,1-.412-.994l2.064-2.064a.582.582,0,0,1,.824.824l-2.064,2.064a.581.581,0,0,1-.412.171Z" transform="translate(-99.346 -13.721)" fill="#3b1a16"/>
        <path id="Path_884" data-name="Path 884" d="M132.438,17.96a.581.581,0,0,1-.412-.171l-2.064-2.064a.582.582,0,0,1,.823-.824l2.064,2.064a.583.583,0,0,1-.412.994Z" transform="translate(-99.346 -13.721)" fill="#3b1a16"/>
        <path id="Path_885" data-name="Path 885" d="M128.083,130.3a.583.583,0,0,1-.412-.994l2.064-2.064a.582.582,0,1,1,.824.824l-2.064,2.064A.581.581,0,0,1,128.083,130.3Z" transform="translate(-97.636 -97.49)" fill="#3b1a16"/>
        <path id="Path_886" data-name="Path 886" d="M130.146,130.3a.581.581,0,0,1-.412-.171l-2.064-2.064a.582.582,0,1,1,.824-.824l2.064,2.064a.583.583,0,0,1-.412.994Z" transform="translate(-97.636 -97.49)" fill="#3b1a16"/>
        <circle id="Ellipse_126" data-name="Ellipse 126" cx="0.582" cy="0.582" r="0.582" transform="translate(0.582 0.582)" fill="#3b1a16"/>
        <circle id="Ellipse_127" data-name="Ellipse 127" cx="0.582" cy="0.582" r="0.582" transform="translate(9.327)" fill="#3b1a16"/>
        <circle id="Ellipse_128" data-name="Ellipse 128" cx="0.582" cy="0.582" r="0.582" transform="translate(18.07 32.061)" fill="#3b1a16"/>
        <circle id="Ellipse_129" data-name="Ellipse 129" cx="0.582" cy="0.582" r="0.582" transform="translate(0 17.488)" fill="#3b1a16"/>
        <circle id="Ellipse_130" data-name="Ellipse 130" cx="0.582" cy="0.582" r="0.582" transform="translate(31.478 23.9)" fill="#3b1a16"/>
        <circle id="Ellipse_131" data-name="Ellipse 131" cx="0.582" cy="0.582" r="0.582" transform="translate(32.061 8.744)" fill="#3b1a16"/>
        <circle id="Ellipse_132" data-name="Ellipse 132" cx="0.582" cy="0.582" r="0.582" transform="translate(18.07 1.747)" fill="#3b1a16"/>
        <path id="Path_887" data-name="Path 887" d="M22.624,31.716a.582.582,0,0,1-.412-.994l2.064-2.064a.582.582,0,1,1,.824.823l-2.064,2.064A.58.58,0,0,1,22.624,31.716Z" transform="translate(-18.996 -23.982)" fill="#3b1a16"/>
        <path id="Path_888" data-name="Path 888" d="M24.688,31.716a.581.581,0,0,1-.412-.171l-2.064-2.064a.582.582,0,0,1,.824-.823L25.1,30.721a.583.583,0,0,1-.412.994Z" transform="translate(-18.996 -23.982)" fill="#3b1a16"/>
      </g>
      <path id="Path_889" data-name="Path 889" d="M48.073,50.993l-7.986-7.985a2.217,2.217,0,0,1,0-3.135l7.55-7.55a2.217,2.217,0,0,1,3.135,0l7.986,7.985a2.217,2.217,0,0,1,0,3.135l-7.55,7.55A2.216,2.216,0,0,1,48.073,50.993Z" transform="translate(-23.809 -19.012)" fill="#ee721f"/>
      <path id="Path_890" data-name="Path 890" d="M47.934,50.52a2.779,2.779,0,0,1-1.979-.82L37.97,41.715a2.8,2.8,0,0,1,0-3.959l7.55-7.55a2.8,2.8,0,0,1,3.959,0l7.986,7.986a2.8,2.8,0,0,1,0,3.958l-7.55,7.55A2.779,2.779,0,0,1,47.934,50.52ZM47.5,30.552a1.63,1.63,0,0,0-1.155.478l-7.55,7.55a1.636,1.636,0,0,0,0,2.312l7.986,7.985a1.673,1.673,0,0,0,2.311,0l7.55-7.55a1.636,1.636,0,0,0,0-2.311L48.655,31.03A1.631,1.631,0,0,0,47.5,30.552Z" transform="translate(-22.103 -17.308)" fill="#3b1a16"/>
      <path id="Path_891" data-name="Path 891" d="M34.575,124.688l-3.707-3.707L32.9,118.95l2.709,2.709a1.411,1.411,0,0,1,0,2Z" transform="translate(-17.426 -84.1)" fill="#a48e89"/>
      <path id="Path_892" data-name="Path 892" d="M32.864,123.562a.58.58,0,0,1-.412-.171l-3.707-3.707a.582.582,0,0,1,0-.823l2.032-2.031a.583.583,0,0,1,.824,0l2.709,2.709a2,2,0,0,1,0,2.819l-1.034,1.034a.581.581,0,0,1-.412.17Zm-2.883-4.289,2.883,2.883.622-.622a.83.83,0,0,0,0-1.172l-2.3-2.3Z" transform="translate(-15.715 -82.391)" fill="#3b1a16"/>
      <path id="Path_893" data-name="Path 893" d="M13.5,105.33l-3.707-3.707,1.034-1.034a1.411,1.411,0,0,1,2,0l2.709,2.709Z" transform="translate(-1.71 -70.101)" fill="#a48e89"/>
      <path id="Path_894" data-name="Path 894" d="M11.79,104.259a.581.581,0,0,1-.412-.17l-3.707-3.707a.582.582,0,0,1,0-.824L8.7,98.524a2.041,2.041,0,0,1,2.819,0l2.709,2.709a.582.582,0,0,1,0,.823L12.2,104.088A.58.58,0,0,1,11.79,104.259ZM8.906,99.969l2.883,2.883L13,101.645l-2.3-2.3a.83.83,0,0,0-1.172,0Z" transform="translate(0 -68.447)" fill="#3b1a16"/>
      <path id="Path_895" data-name="Path 895" d="M36.237,46.655a2.841,2.841,0,0,0-1.811-.834c-1.872-.128-5.779.179-9.657,4.057l-.58.58a1.593,1.593,0,0,0,2.243,2.263c1.631-1.624,4.807-4.315,7.382-3.643Z" transform="translate(-12.101 -29.549)" fill="#fff"/>
      <path id="Path_896" data-name="Path 896" d="M23.613,52.049a2.177,2.177,0,0,1-1.541-3.715l.58-.58c4.007-4.007,8.052-4.366,10.109-4.226a3.425,3.425,0,0,1,2.182,1,.583.583,0,0,1,0,.824l-2.423,2.423a.584.584,0,0,1-.559.152c-2.373-.619-5.563,2.236-6.824,3.492a2.153,2.153,0,0,1-1.524.627Zm8.431-7.38a12.041,12.041,0,0,0-8.569,3.909l-.58.58a1.011,1.011,0,0,0,1.42,1.439c1.676-1.668,4.828-4.324,7.6-3.865L33.657,45a2.223,2.223,0,0,0-.975-.305c-.194-.013-.407-.021-.637-.021Z" transform="translate(-10.395 -27.838)" fill="#3b1a16"/>
      <path id="Path_897" data-name="Path 897" d="M40.424,52.609l-3.088-3.088a2.787,2.787,0,0,0-3.942,0L20.922,61.994,23.833,64.9l3.323-3.323A1.165,1.165,0,0,1,28.8,63.229l-3.322,3.323,2.471,2.471L40.424,56.551a2.787,2.787,0,0,0,0-3.942Z" transform="translate(-10.012 -31.702)" fill="#85afd5"/>
      <path id="Path_898" data-name="Path 898" d="M26.242,67.9a.581.581,0,0,1-.412-.171l-2.471-2.471a.583.583,0,0,1,0-.824l3.322-3.323a.582.582,0,0,0,0-.823.6.6,0,0,0-.824,0l-3.323,3.322a.582.582,0,0,1-.823,0L18.8,60.7a.582.582,0,0,1,0-.823L31.273,47.4a3.369,3.369,0,0,1,4.766,0l3.087,3.088a3.374,3.374,0,0,1,0,4.766L26.654,67.725a.581.581,0,0,1-.412.171Zm-1.647-3.053,1.647,1.647L38.3,54.43a2.209,2.209,0,0,0,0-3.118l-3.087-3.087a2.259,2.259,0,0,0-3.118,0l-12.06,12.06,2.087,2.087,2.911-2.911a1.79,1.79,0,0,1,2.471,0,1.747,1.747,0,0,1,0,2.471Z" transform="translate(-8.302 -29.992)" fill="#3b1a16"/>
      <path id="Path_899" data-name="Path 899" d="M62.135,62.087l3.706,3.706L62.135,69.5l-3.706-3.706Z" transform="translate(-37.978 -41.696)" fill="#fff"/>
      <path id="Path_900" data-name="Path 900" d="M60.422,68.389a.582.582,0,0,1-.412-.171L56.3,64.511a.582.582,0,0,1,0-.823L60.01,59.98a.583.583,0,0,1,.824,0l3.707,3.707a.582.582,0,0,1,0,.823l-3.707,3.707A.58.58,0,0,1,60.422,68.389ZM57.539,64.1l2.883,2.883L63.305,64.1l-2.883-2.883Z" transform="translate(-36.265 -39.997)" fill="#3b1a16"/>
      <path id="Path_901" data-name="Path 901" d="M89.258,35.472a5.7,5.7,0,1,0-9.689-3.424,6.168,6.168,0,0,0,5.058,5.058,5.683,5.683,0,0,0,4.631-1.634Z" transform="translate(-53.71 -14.603)" fill="#fff"/>
      <path id="Path_902" data-name="Path 902" d="M83.533,36.018a6.388,6.388,0,0,1-.674-.036,6.8,6.8,0,0,1-5.573-5.552,6.278,6.278,0,1,1,6.246,5.588Zm-.008-11.387a5.106,5.106,0,0,0-5.082,5.653,5.609,5.609,0,0,0,4.582,4.546,5.112,5.112,0,1,0,.5-10.2Zm4.028,9.139h0Z" transform="translate(-52.004 -12.901)" fill="#3b1a16"/>
      <path id="Path_903" data-name="Path 903" d="M81.383,76.729a2.841,2.841,0,0,1,.834,1.811c.129,1.872-.179,5.779-4.057,9.657l-.58.58a1.593,1.593,0,0,1-2.263-2.243c1.624-1.631,4.315-4.807,3.643-7.382Z" transform="translate(-50.229 -52.606)" fill="#fff"/>
      <path id="Path_904" data-name="Path 904" d="M74.749,88.135a2.176,2.176,0,0,1-1.549-3.7c1.256-1.262,4.111-4.453,3.492-6.825a.581.581,0,0,1,.152-.558l2.422-2.423a.6.6,0,0,1,.823,0,3.422,3.422,0,0,1,1,2.183c.141,2.056-.22,6.1-4.226,10.108l-.58.58a2.16,2.16,0,0,1-1.538.637ZM77.89,77.649c.455,2.77-2.2,5.929-3.865,7.6a1.011,1.011,0,0,0,1.438,1.421l.58-.58c3.68-3.68,4.015-7.347,3.887-9.205a2.216,2.216,0,0,0-.3-.976Z" transform="translate(-48.524 -50.915)" fill="#3b1a16"/>
      <path id="Path_905" data-name="Path 905" d="M93.774,39.759a3.72,3.72,0,1,0-6.332-2.265c.028,1.146,2.087,3.205,3.336,3.336A3.712,3.712,0,0,0,93.774,39.759Z" transform="translate(-59.599 -20.311)" fill="#b2cfd1"/>
      <path id="Path_906" data-name="Path 906" d="M89.43,39.725q-.212,0-.425-.021c-1.555-.163-3.826-2.461-3.862-3.9a4.262,4.262,0,0,1,1.242-3.422,4.3,4.3,0,1,1,3.045,7.345Zm0-7.438a3.134,3.134,0,0,0-3.122,3.445,4.55,4.55,0,0,0,2.817,2.814,3.137,3.137,0,1,0,.3-6.259Z" transform="translate(-57.883 -18.605)" fill="#3b1a16"/>
      <path id="Path_907" data-name="Path 907" d="M72.541,71.938a.581.581,0,0,1-.412-.171l-1.236-1.235a.582.582,0,0,1,.824-.824l1.236,1.236a.582.582,0,0,1-.412.994Z" transform="translate(-47.147 -47.254)" fill="#3b1a16"/>
      <path id="Path_908" data-name="Path 908" d="M67.678,76.8a.581.581,0,0,1-.412-.171l-1.235-1.235a.582.582,0,0,1,.824-.824l1.235,1.236a.582.582,0,0,1-.412.994Z" transform="translate(-43.521 -50.881)" fill="#3b1a16"/>
      <path id="Path_909" data-name="Path 909" d="M27.974,63.034a.58.58,0,0,1-.412-.171L25.5,60.8a.582.582,0,0,1,.824-.824l2.059,2.06a.583.583,0,0,1-.412.994Z" transform="translate(-13.302 -40)" fill="#3b1a16"/>
      <path id="Path_910" data-name="Path 910" d="M79.849,114.91a.581.581,0,0,1-.412-.171l-2.06-2.059a.582.582,0,1,1,.824-.824l2.06,2.059a.582.582,0,0,1-.412.994Z" transform="translate(-51.982 -78.681)" fill="#3b1a16"/>
      <path id="Path_911" data-name="Path 911" d="M95.718,45.292H93.542a.582.582,0,1,1,0-1.165h2.176a.582.582,0,1,1,0,1.165Z" transform="translate(-63.729 -28.305)" fill="#3b1a16"/>
      <path id="Path_912" data-name="Path 912" d="M99.661,53.4H98.4a.582.582,0,0,1,0-1.165h1.257a.582.582,0,1,1,0,1.165Z" transform="translate(-67.356 -34.349)" fill="#3b1a16"/>
      <path id="Path_913" data-name="Path 913" d="M102.283,92.426a.58.58,0,0,1-.412-.171l-.618-.618a2.038,2.038,0,0,1,0-2.883l1.236-1.236a.873.873,0,0,0,0-1.235,2.041,2.041,0,0,1,0-2.883l3.3-3.295a.876.876,0,0,0,0-1.236l-1.854-1.853a.582.582,0,0,1,.824-.823l1.854,1.853a2.043,2.043,0,0,1,0,2.883l-3.3,3.295a.875.875,0,0,0,0,1.236,2.041,2.041,0,0,1,0,2.883l-1.236,1.236a.875.875,0,0,0,0,1.236l.618.618a.582.582,0,0,1-.412.994Z" transform="translate(-69.463 -52.078)" fill="#3b1a16"/>
    </g>
  </g>
</svg>
