<?xml version="1.0" encoding="utf-8"?>
<!-- Generator: Adobe Illustrator 23.1.0, SVG Export Plug-In . SVG Version: 6.00 Build 0)  -->
<svg version="1.1" id="圖層_1" xmlns="http://www.w3.org/2000/svg" xmlns:xlink="http://www.w3.org/1999/xlink" x="0px" y="0px"
	 viewBox="0 0 30 30" style="enable-background:new 0 0 30 30;" xml:space="preserve">
<style type="text/css">
	.st0{fill:#83827F;}
</style>
<g id="组_718" transform="translate(0 -63.99)">
	<g id="组_707" transform="translate(4.792 63.99)">
		<g id="组_706">
			<path id="路径_1260" class="st0" d="M16.4,23.5c-0.1,0-0.1,0-0.2,0L3.8,18.6c-0.2-0.1-0.3-0.2-0.3-0.4v-5.7
				c0-0.2,0.1-0.4,0.3-0.4l12.5-4.8c0.2-0.1,0.5,0,0.6,0.3c0,0.1,0,0.1,0,0.2V23C16.9,23.2,16.7,23.4,16.4,23.5L16.4,23.5z
				 M4.5,17.9L16,22.3V8.3L4.5,12.8V17.9z"/>
		</g>
	</g>
	<g id="组_709" transform="translate(0 68.782)">
		<g id="组_708">
			<path id="路径_1261" class="st0" d="M8.8,13.9H5.4c-1.1,0-1.9-0.9-1.9-1.9V9.1c0-1.1,0.9-1.9,1.9-1.9h3.4
				c0.3,0,0.5,0.2,0.5,0.5l0,0v5.8C9.3,13.7,9,13.9,8.8,13.9C8.8,13.9,8.8,13.9,8.8,13.9z M5.4,8.1c-0.5,0-1,0.4-1,1V12
				c0,0.5,0.4,1,1,1h2.9V8.1L5.4,8.1z"/>
		</g>
	</g>
	<g id="组_711" transform="translate(2.875 74.533)">
		<g id="组_710">
			<path id="路径_1262" class="st0" d="M7.8,14.8H4.9c-0.2,0-0.4-0.2-0.5-0.4l-1-6.7c0-0.3,0.1-0.5,0.4-0.5c0,0,0,0,0,0
				c0.3,0,0.5,0.1,0.5,0.4l0.9,6.3h1.9L6.6,8.2c0-0.3,0.2-0.5,0.4-0.5c0.3,0,0.5,0.2,0.5,0.4l0.7,6.2C8.3,14.6,8.1,14.8,7.8,14.8
				C7.9,14.8,7.8,14.8,7.8,14.8L7.8,14.8z"/>
		</g>
	</g>
	<g id="组_713" transform="translate(19.167 66.865)">
		<g id="组_712">
			<path id="路径_1263" class="st0" d="M4,10c-0.3,0-0.5-0.2-0.5-0.5c0-0.2,0.1-0.3,0.2-0.4l2.9-1.9c0.2-0.1,0.5-0.1,0.7,0.1
				C7.4,7.6,7.3,7.9,7.1,8L4.3,10C4.2,10,4.1,10,4,10z"/>
		</g>
	</g>
	<g id="组_715" transform="translate(19.167 75.49)">
		<g id="组_714">
			<path id="路径_1264" class="st0" d="M6.9,10c-0.1,0-0.2,0-0.3-0.1L3.7,8C3.5,7.9,3.4,7.6,3.6,7.4S4,7.1,4.3,7.2l0,0l2.9,1.9
				c0.2,0.1,0.3,0.4,0.1,0.7C7.2,10,7,10,6.9,10L6.9,10z"/>
		</g>
	</g>
	<g id="组_717" transform="translate(19.167 72.136)">
		<g id="组_716">
			<path id="路径_1265" class="st0" d="M6.9,8.1H4c-0.3,0-0.5-0.2-0.5-0.5c0-0.3,0.2-0.5,0.5-0.5h2.9c0.3,0,0.5,0.2,0.5,0.5
				C7.3,7.9,7.1,8.1,6.9,8.1z"/>
		</g>
	</g>
</g>
</svg>
