<?xml version="1.0" encoding="utf-8"?>
<!-- Generator: Adobe Illustrator 23.1.0, SVG Export Plug-In . SVG Version: 6.00 Build 0)  -->
<svg version="1.1" id="圖層_1" xmlns="http://www.w3.org/2000/svg" xmlns:xlink="http://www.w3.org/1999/xlink" x="0px" y="0px"
	 viewBox="0 0 40 40" style="enable-background:new 0 0 40 40;" xml:space="preserve">
<style type="text/css">
	.st0{fill:#FFFFFF;}
	.st1{fill:#333333;}
</style>
<path id="路径_734" class="st0" d="M4.8,9.7h30.4v20.6H4.8V9.7z"/>
<path id="路径_735" class="st1" d="M35.2,30.9H4.8c-0.3,0-0.6-0.3-0.6-0.6V9.7c0-0.3,0.2-0.6,0.6-0.6h30.5c0.3,0,0.6,0.3,0.6,0.6
	v20.6C35.8,30.6,35.5,30.9,35.2,30.9z M5.3,29.7h29.4V10.3H5.3V29.7z"/>
<g id="组_514" transform="translate(8.643 18.667)">
	<path id="路径_736" class="st1" d="M17.6-1.9H13c-0.3,0-0.6-0.3-0.6-0.6s0.3-0.6,0.6-0.6h4.6c0.3,0,0.6,0.3,0.6,0.6
		S17.9-1.9,17.6-1.9L17.6-1.9z"/>
	<path id="路径_737" class="st1" d="M22,0.8h-9.1c-0.3,0-0.6-0.3-0.6-0.6s0.3-0.6,0.6-0.6H22c0.3,0,0.6,0.3,0.6,0.6
		C22.6,0.6,22.3,0.8,22,0.8z"/>
	<path id="路径_738" class="st1" d="M22,3.6h-9.1c-0.3,0-0.6-0.3-0.6-0.6s0.3-0.6,0.6-0.6H22c0.3,0,0.6,0.3,0.6,0.6
		S22.3,3.6,22,3.6z"/>
	<path id="路径_739" class="st1" d="M22,6.4h-9.1c-0.3,0-0.6-0.3-0.6-0.6c0-0.3,0.3-0.6,0.6-0.6H22c0.3,0,0.6,0.3,0.6,0.6
		S22.3,6.4,22,6.4z"/>
</g>
<circle id="椭圆_101" class="st0" cx="12.6" cy="17.7" r="3.5"/>
<path id="路径_747" class="st1" d="M12.6,22.1c-2.4,0-4.4-1.9-4.4-4.4c0-2.4,1.9-4.4,4.4-4.4c2.4,0,4.4,1.9,4.4,4.4
	C17,20.1,15,22.1,12.6,22.1z M12.6,15.1c-1.4,0-2.6,1.2-2.6,2.6s1.2,2.6,2.6,2.6s2.6-1.2,2.6-2.6C15.2,16.3,14,15.1,12.6,15.1z"/>
<path id="路径_748" class="st0" d="M17.9,26.1H7.4c0-2.9,2.3-5.2,5.2-5.2C15.5,20.9,17.9,23.2,17.9,26.1L17.9,26.1z"/>
<path id="路径_749" class="st1" d="M17.9,27H7.4c-0.5,0-0.9-0.4-0.9-0.9l0,0c-0.1-3.4,2.5-6.2,5.9-6.3c3.4-0.1,6.2,2.5,6.3,5.9
	c0,0.1,0,0.3,0,0.4C18.7,26.6,18.3,27,17.9,27z M8.4,25.2h8.5c-0.5-2.4-2.8-3.9-5.1-3.4C10,22.2,8.7,23.5,8.4,25.2z"/>
<circle id="椭圆_102" class="st1" cx="13.9" cy="17.2" r="0.5"/>
<path id="路径_750" class="st1" d="M13.3,18.5c0,0.2-0.3,0.9-0.7,0.9s-0.7-0.7-0.7-0.9s0.3-0.4,0.7-0.4S13.3,18.3,13.3,18.5z"/>
<circle id="椭圆_103" class="st1" cx="11.2" cy="17.2" r="0.5"/>
</svg>
