<?xml version="1.0" encoding="utf-8"?>
<!-- Generator: Adobe Illustrator 23.1.0, SVG Export Plug-In . SVG Version: 6.00 Build 0)  -->
<svg version="1.1" id="圖層_1" xmlns="http://www.w3.org/2000/svg" xmlns:xlink="http://www.w3.org/1999/xlink" x="0px" y="0px"
	 viewBox="0 0 40 40" style="enable-background:new 0 0 40 40;" xml:space="preserve">
<style type="text/css">
	.st0{fill:#FFFFFF;}
	.st1{fill:#3B1A16;}
	.st2{fill:#FCE0D3;}
	.st3{fill:#9DA645;}
	.st4{fill:#E79897;}
</style>
<g id="组_735" transform="translate(-10.929 -23.842)">
	<g id="组_513" transform="translate(10.929 23.842)">
		<path id="路径_734" class="st0" d="M4.8,9.7h30.4v20.6H4.8V9.7z"/>
		<path id="路径_735" class="st1" d="M35.2,30.9H4.8c-0.3,0-0.6-0.3-0.6-0.6V9.7c0-0.3,0.2-0.6,0.6-0.6h30.5
			c0.3,0,0.6,0.3,0.6,0.6v20.6C35.8,30.6,35.5,30.9,35.2,30.9z M5.3,29.7h29.4V10.3H5.3V29.7z"/>
	</g>
	<g id="组_514" transform="translate(8.643 18.667)">
		<path id="路径_736" class="st1" d="M28.5,21.9H24c-0.3,0-0.6-0.3-0.6-0.6c0-0.3,0.3-0.6,0.6-0.6h4.6c0.3,0,0.6,0.3,0.6,0.6
			C29.1,21.6,28.9,21.9,28.5,21.9L28.5,21.9z"/>
		<path id="路径_737" class="st1" d="M32.9,24.7h-9.1c-0.3,0-0.6-0.3-0.6-0.6c0-0.3,0.3-0.6,0.6-0.6h9.1c0.3,0,0.6,0.3,0.6,0.6
			C33.5,24.4,33.2,24.7,32.9,24.7z"/>
		<path id="路径_738" class="st1" d="M32.9,27.4h-9.1c-0.3,0-0.6-0.3-0.6-0.6c0-0.3,0.3-0.6,0.6-0.6h9.1c0.3,0,0.6,0.3,0.6,0.6
			C33.5,27.2,33.2,27.4,32.9,27.4z"/>
		<path id="路径_739" class="st1" d="M32.9,30.2h-9.1c-0.3,0-0.6-0.3-0.6-0.6c0-0.3,0.3-0.6,0.6-0.6h9.1c0.3,0,0.6,0.3,0.6,0.6
			C33.5,29.9,33.2,30.2,32.9,30.2z"/>
	</g>
	<g id="组_515" transform="translate(14.959 28.089)">
		<circle id="椭圆_101" class="st2" cx="8.6" cy="13.5" r="3.5"/>
		<path id="路径_747" class="st1" d="M8.6,17.9c-2.4,0-4.4-1.9-4.4-4.4c0-2.4,1.9-4.4,4.4-4.4c2.4,0,4.4,1.9,4.4,4.4
			C12.9,15.9,11,17.9,8.6,17.9z M8.6,10.9c-1.4,0-2.6,1.2-2.6,2.6c0,1.4,1.2,2.6,2.6,2.6c1.4,0,2.6-1.2,2.6-2.6
			C11.2,12.1,10,10.9,8.6,10.9z"/>
	</g>
	<g id="组_516" transform="translate(13.249 34.699)">
		<path id="路径_748" class="st3" d="M15.5,15.2H5.1c0-2.9,2.3-5.2,5.2-5.2C13.2,10,15.5,12.4,15.5,15.2L15.5,15.2z"/>
		<path id="路径_749" class="st1" d="M15.5,16.1H5.1c-0.5,0-0.9-0.4-0.9-0.9c0,0,0,0,0,0C4.1,11.9,6.7,9.1,10.1,9
			c3.4-0.1,6.2,2.5,6.3,5.9c0,0.1,0,0.3,0,0.4C16.4,15.7,16,16.1,15.5,16.1z M6,14.4h8.5c-0.5-2.4-2.8-3.9-5.1-3.4
			C7.7,11.3,6.4,12.7,6,14.4z"/>
	</g>
	<circle id="椭圆_102" class="st1" cx="24.8" cy="41" r="0.5"/>
	<path id="路径_750" class="st1" d="M24.2,42.3c0,0.2-0.3,0.9-0.7,0.9s-0.7-0.7-0.7-0.9s0.3-0.4,0.7-0.4S24.2,42.1,24.2,42.3z"/>
	<circle id="椭圆_103" class="st1" cx="22.2" cy="41" r="0.5"/>
	<path id="路径_751" class="st4" d="M27.5,42.3h-0.9c-0.2,0-0.5-0.2-0.5-0.4c0-0.2,0.2-0.5,0.4-0.5c0,0,0.1,0,0.1,0h0.9
		c0.2,0,0.5,0.2,0.5,0.4C28,42.1,27.8,42.3,27.5,42.3C27.5,42.3,27.5,42.3,27.5,42.3L27.5,42.3z"/>
	<path id="路径_752" class="st4" d="M20.4,42.3h-0.9c-0.2,0-0.5-0.2-0.5-0.4c0-0.2,0.2-0.5,0.4-0.5c0,0,0.1,0,0.1,0h0.9
		c0.2,0,0.5,0.2,0.5,0.4C20.9,42.1,20.8,42.3,20.4,42.3C20.5,42.3,20.5,42.3,20.4,42.3z"/>
</g>
</svg>
