<?xml version="1.0" encoding="utf-8"?>
<!-- Generator: Adobe Illustrator 23.1.0, SVG Export Plug-In . SVG Version: 6.00 Build 0)  -->
<svg version="1.1" id="圖層_1" xmlns="http://www.w3.org/2000/svg" xmlns:xlink="http://www.w3.org/1999/xlink" x="0px" y="0px"
	 viewBox="0 0 30 30" style="enable-background:new 0 0 30 30;" xml:space="preserve">
<style type="text/css">
	.st0{clip-path:url(#SVGID_2_);}
	.st1{fill:#FFFFFF;}
	.st2{fill:#767676;}
	.st3{fill:#474645;}
</style>
<g>
	<defs>
		<rect id="SVGID_1_" width="30" height="30"/>
	</defs>
	<clipPath id="SVGID_2_">
		<use xlink:href="#SVGID_1_"  style="overflow:visible;"/>
	</clipPath>
	<g id="message" class="st0">
		<g id="组_649" transform="translate(0.962 -6.022)">
			<g id="组_200" transform="translate(8.461 13.187)">
				<path id="路径_101" class="st1" d="M0,8c0,4.4,4.2,8,9.3,8c1.4,0,5.2,2.4,6.3,2c1-0.4-0.6-3.6,0.1-4.2
					c1.8-1.4,2.8-3.5,2.9-5.8c0-4.4-4.2-8-9.3-8S0,3.6,0,8z"/>
				<path id="路径_102" class="st2" d="M9.3,0.8C14,0.8,17.8,4,17.8,8c0,2-1,3.9-2.6,5.1c-0.7,0.6-0.5,1.8-0.3,2.9
					c0.1,0.4,0.2,0.8,0.2,1.2c-0.9-0.2-1.8-0.6-2.7-1c-1-0.5-2-0.9-3.1-1c-4.7,0-8.5-3.2-8.5-7.2S4.6,0.8,9.3,0.8 M9.3,0
					C4.2,0,0,3.6,0,8s4.2,8,9.3,8c1.2,0,4.5,2,6,2c0.1,0,0.2,0,0.4-0.1c1-0.4-0.6-3.6,0.1-4.2c1.8-1.4,2.8-3.5,2.9-5.8
					C18.6,3.6,14.4,0,9.3,0L9.3,0z"/>
			</g>
			<g id="组_201" transform="translate(1.038 11.022)">
				<path id="路径_103" class="st1" d="M19.9,8.5c0,4.7-4.4,8.5-9.9,8.5c-1.4,0-5.5,2.6-6.7,2.1c-1-0.4,0.7-3.8-0.1-4.5
					C1.2,13.2,0,11,0,8.5C0,3.8,4.4,0,9.9,0S19.9,3.8,19.9,8.5z"/>
				<path id="路径_104" class="st3" d="M9.9,0.8c5,0,9.1,3.5,9.1,7.7s-4.1,7.7-9.1,7.7c-1.2,0.2-2.3,0.5-3.3,1.1
					c-0.9,0.5-1.9,0.8-3,1.1c0-0.4,0.1-0.9,0.2-1.3c0.3-1.2,0.5-2.4-0.3-3c-1.7-1.3-2.7-3.4-2.8-5.5C0.8,4.3,4.9,0.8,9.9,0.8 M9.9,0
					C4.4,0,0,3.8,0,8.5c0,2.4,1.2,4.7,3.1,6.2c0.8,0.7-0.9,4.1,0.1,4.5c0.1,0,0.2,0.1,0.4,0.1c1.5,0,5-2.2,6.4-2.2
					c5.5,0,9.9-3.8,9.9-8.5S15.4,0,9.9,0L9.9,0z"/>
			</g>
			<path id="路径_105" class="st3" d="M15.9,18.1H5.4c-0.3,0-0.6-0.3-0.6-0.6c0-0.3,0.3-0.6,0.6-0.6h10.5c0.3,0,0.6,0.3,0.6,0.6
				C16.5,17.8,16.2,18.1,15.9,18.1L15.9,18.1z"/>
			<path id="路径_106" class="st3" d="M11.8,21.5H5.4c-0.3,0-0.6-0.3-0.6-0.6c0-0.3,0.3-0.6,0.6-0.6h6.5c0.3,0,0.6,0.3,0.6,0.6
				C12.5,21.2,12.2,21.5,11.8,21.5L11.8,21.5z"/>
		</g>
	</g>
</g>
</svg>
