<svg xmlns="http://www.w3.org/2000/svg" width="104" height="104" viewBox="0 0 104 104">
  <g id="Group_892" data-name="Group 892" transform="translate(-280 -537)">
    <rect id="Rectangle_80" data-name="Rectangle 80" width="103" height="103" rx="30" transform="translate(280.5 537.5)" fill="none" stroke="#f6f5f4" stroke-miterlimit="10" stroke-width="1"/>
    <text id="公告快訊" transform="translate(332 621.175)" fill="#767676" font-size="16" font-family="MicrosoftJhengHeiRegular, Microsoft JhengHei"><tspan x="-32" y="0">公告快訊</tspan></text>
    <g id="Group_523" data-name="Group 523" transform="translate(309.5 557.065)">
      <ellipse id="Ellipse_106" data-name="Ellipse 106" cx="13.605" cy="14.105" rx="13.605" ry="14.105" transform="translate(11.529 9.077)" fill="#ece8c6"/>
      <path id="Path_774" data-name="Path 774" d="M32.149,100.1l1.44,9.743h4.32L36.469,98.7Z" transform="translate(-18.293 -71.298)" fill="#b2cfd1"/>
      <path id="Path_775" data-name="Path 775" d="M36.185,108.742H31.865a.627.627,0,0,1-.62-.535L29.8,98.463a.627.627,0,0,1,.428-.688l4.32-1.392a.628.628,0,0,1,.814.516l1.44,11.135a.627.627,0,0,1-.622.707Zm-3.779-1.254h3.066l-1.252-9.68-3.1,1Z" transform="translate(-16.557 -69.574)" fill="#3b1a16"/>
      <path id="Path_776" data-name="Path 776" d="M49.232,107.506h2l-1.44-3.4h-1.44Z" transform="translate(-30.285 -75.012)" fill="#e9e4d2"/>
      <path id="Path_777" data-name="Path 777" d="M49.506,106.409h-2a.627.627,0,0,1-.607-.47l-.883-3.4a.626.626,0,0,1,.607-.784h1.44a.627.627,0,0,1,.577.382l1.44,3.4a.627.627,0,0,1-.578.871Zm-1.512-1.254h.566l-.91-2.15h-.214Z" transform="translate(-28.554 -73.299)" fill="#3b1a16"/>
      <path id="Path_778" data-name="Path 778" d="M77.147,71.659a2.821,2.821,0,0,1-2.821-2.821V56.3a2.821,2.821,0,1,1,5.642,0V68.838A2.821,2.821,0,0,1,77.147,71.659Z" transform="translate(-49.593 -37.776)" fill="#a48e89"/>
      <path id="Path_779" data-name="Path 779" d="M75.424,70.561a3.452,3.452,0,0,1-3.448-3.448V54.576a3.448,3.448,0,1,1,6.9,0V67.114A3.452,3.452,0,0,1,75.424,70.561Zm0-18.179a2.2,2.2,0,0,0-2.194,2.194V67.114a2.194,2.194,0,0,0,4.388,0V54.576A2.2,2.2,0,0,0,75.424,52.382Z" transform="translate(-47.873 -36.064)" fill="#3b1a16"/>
      <path id="Path_780" data-name="Path 780" d="M67.43,74.949a2.508,2.508,0,0,1-2.507-2.507v-9.4a2.508,2.508,0,0,1,2.507-2.508Z" transform="translate(-42.567 -42.92)" fill="#e9e4d2"/>
      <path id="Path_781" data-name="Path 781" d="M65.706,73.853a3.138,3.138,0,0,1-3.134-3.134v-9.4a3.138,3.138,0,0,1,3.134-3.134.627.627,0,0,1,.627.627V73.226A.627.627,0,0,1,65.706,73.853ZM65.08,59.542a1.884,1.884,0,0,0-1.254,1.773v9.4a1.884,1.884,0,0,0,1.254,1.773Z" transform="translate(-40.841 -41.205)" fill="#3b1a16"/>
      <path id="Path_782" data-name="Path 782" d="M27,78.241H18.534a5.329,5.329,0,1,1,0-10.657H27Z" transform="translate(-4.183 -48.072)" fill="#b2cfd1"/>
      <path id="Path_783" data-name="Path 783" d="M25.272,77.144H16.809a5.955,5.955,0,1,1,0-11.911h8.463a.627.627,0,0,1,.627.627V76.517A.627.627,0,0,1,25.272,77.144ZM16.809,66.487a4.7,4.7,0,1,0,0,9.4h7.836v-9.4Z" transform="translate(-2.459 -46.354)" fill="#3b1a16"/>
      <path id="Path_784" data-name="Path 784" d="M75.93,84.786h-1.6v-3.1h1.6a1.549,1.549,0,1,1,0,3.1Z" transform="translate(-49.548 -58.387)" fill="#fff"/>
      <path id="Path_785" data-name="Path 785" d="M74.207,83.689H72.6a.627.627,0,0,1-.627-.627v-3.1a.627.627,0,0,1,.627-.627h1.6a2.176,2.176,0,1,1,0,4.351Zm-.977-1.254h.977a.922.922,0,1,0,0-1.843H73.23Z" transform="translate(-47.826 -56.667)" fill="#3b1a16"/>
      <path id="Path_786" data-name="Path 786" d="M107.238,79.338h3.134v5.015h-3.134Z" transform="translate(-73.95 -56.68)" fill="#85afd5"/>
      <path id="Path_787" data-name="Path 787" d="M108.648,83.256h-3.134a.627.627,0,0,1-.627-.627V77.614a.627.627,0,0,1,.627-.627h3.134a.627.627,0,0,1,.627.627v5.015A.627.627,0,0,1,108.648,83.256ZM106.141,82h1.881V78.241h-1.881Z" transform="translate(-72.238 -54.96)" fill="#3b1a16"/>
      <path id="Path_788" data-name="Path 788" d="M118.992,72.442h1.254V70.875a.94.94,0,0,1,1.881,0v1.567h.441a2.067,2.067,0,0,1,2.067,2.067v.881a2.067,2.067,0,0,1-2.067,2.067h-2.416a1.1,1.1,0,0,1-1.1-1.085Z" transform="translate(-82.761 -49.75)" fill="#fff"/>
      <path id="Path_789" data-name="Path 789" d="M120.843,76.36h-2.416a1.735,1.735,0,0,1-1.728-1.7l-.059-3.93a.627.627,0,0,1,.627-.636h.627v-.941a1.567,1.567,0,0,1,3.134,0V70.1a2.7,2.7,0,0,1,2.507,2.687v.881a2.7,2.7,0,0,1-2.694,2.694ZM117.9,71.345l.049,3.294a.476.476,0,0,0,.474.467h2.416a1.442,1.442,0,0,0,1.44-1.44v-.882a1.442,1.442,0,0,0-1.44-1.44H120.4a.627.627,0,0,1-.627-.627V69.151a.313.313,0,0,0-.627,0v1.567a.627.627,0,0,1-.627.627H117.9Z" transform="translate(-81.036 -48.03)" fill="#3b1a16"/>
      <path id="Path_790" data-name="Path 790" d="M111.156,39.218h-5.642a.627.627,0,0,1-.627-.627V32.949a.627.627,0,0,1,.627-.627h5.642a.627.627,0,0,1,.627.627v5.642A.627.627,0,0,1,111.156,39.218Zm-5.015-1.254h4.388V33.576h-4.388Z" transform="translate(-72.417 -21.816)" fill="#3b1a16"/>
      <path id="Path_791" data-name="Path 791" d="M112.865,36.428a.626.626,0,0,1-.443-.184l-1.44-1.44a.627.627,0,1,1,.886-.886l1,1,3.877-3.877a.627.627,0,1,1,.886.887l-4.32,4.32a.625.625,0,0,1-.443.184Z" transform="translate(-76.752 -20.716)" fill="#9da645"/>
      <circle id="Ellipse_107" data-name="Ellipse 107" cx="4.516" cy="4.516" r="4.516" transform="translate(17.89 6.212)" fill="#ee721f"/>
      <path id="Path_792" data-name="Path 792" d="M50.755,23.158A5.143,5.143,0,1,1,55.9,18.015,5.149,5.149,0,0,1,50.755,23.158Zm0-9.032a3.889,3.889,0,1,0,3.889,3.889A3.894,3.894,0,0,0,50.755,14.126Z" transform="translate(-28.344 -7.287)" fill="#3b1a16"/>
      <path id="Path_793" data-name="Path 793" d="M19.944,75.89H16.183a.627.627,0,1,1,0-1.254h3.761a.627.627,0,0,1,0,1.254Z" transform="translate(-5.908 -53.13)" fill="#3b1a16"/>
      <path id="Path_794" data-name="Path 794" d="M19.944,94.7H16.183a.627.627,0,1,1,0-1.254h3.761a.627.627,0,0,1,0,1.254Z" transform="translate(-5.908 -67.066)" fill="#3b1a16"/>
      <path id="Path_795" data-name="Path 795" d="M15.242,85.294H11.481a.627.627,0,1,1,0-1.254h3.761a.627.627,0,1,1,0,1.254Z" transform="translate(-2.459 -60.098)" fill="#3b1a16"/>
      <path id="Path_796" data-name="Path 796" d="M63.2,24.956a.627.627,0,0,1-.627-.627V21.195a.627.627,0,0,1,1.254,0v3.134A.627.627,0,0,1,63.2,24.956Z" transform="translate(-40.809 -12.931)" fill="#3b1a16"/>
      <circle id="Ellipse_108" data-name="Ellipse 108" cx="0.627" cy="0.627" r="0.627" transform="translate(21.763 12.373)" fill="#3b1a16"/>
      <path id="Path_797" data-name="Path 797" d="M106.3,123.268l2.271.345-1.655,1.593.374,2.266-2.026-1.082-2.04,1.056.4-2.261-1.635-1.613,2.275-.316L105.3,121.2Z" transform="translate(-70.296 -87.797)" fill="#fbbb42"/>
      <g id="Group_522" data-name="Group 522" transform="translate(7.5 2.935)">
        <path id="Path_798" data-name="Path 798" d="M105.57,126.375a.627.627,0,0,1-.3-.074l-1.735-.926-1.747.9a.627.627,0,0,1-.905-.667l.345-1.937-1.4-1.382a.627.627,0,0,1,.354-1.067l1.949-.271.882-1.759a.626.626,0,0,1,.56-.346h0a.627.627,0,0,1,.56.353l.86,1.77,1.945.295a.627.627,0,0,1,.341,1.071l-1.417,1.365.321,1.941a.627.627,0,0,1-.618.729Zm-2.026-2.335a.623.623,0,0,1,.295.074l.906.483-.167-1.013a.626.626,0,0,1,.184-.554l.739-.712-1.015-.154a.627.627,0,0,1-.47-.346l-.449-.924-.46.918a.626.626,0,0,1-.474.34l-1.017.142.73.721a.628.628,0,0,1,.177.556l-.18,1.011.912-.472a.625.625,0,0,1,.288-.07Z" transform="translate(-76.073 -89.008)" fill="#3b1a16"/>
        <path id="Path_799" data-name="Path 799" d="M18.669,37.638a.627.627,0,0,1-.443-1.07l1.062-1.062a.627.627,0,0,1,.886.886l-1.062,1.062A.625.625,0,0,1,18.669,37.638Z" transform="translate(-15.231 -26.941)" fill="#3b1a16"/>
        <path id="Path_800" data-name="Path 800" d="M9.374,46.934a.627.627,0,0,1-.443-1.07L9.993,44.8a.627.627,0,1,1,.887.886L9.818,46.75A.626.626,0,0,1,9.374,46.934Z" transform="translate(-8.415 -33.831)" fill="#3b1a16"/>
        <path id="Path_801" data-name="Path 801" d="M9.972,37.173a.625.625,0,0,1-.443-.184L8.458,35.919a.627.627,0,0,1,.887-.886L10.415,36.1a.627.627,0,0,1-.443,1.07Z" transform="translate(-8.068 -26.59)" fill="#3b1a16"/>
        <path id="Path_802" data-name="Path 802" d="M19.731,46.934a.625.625,0,0,1-.443-.184l-1.062-1.062a.627.627,0,1,1,.886-.886l1.062,1.062a.627.627,0,0,1-.443,1.07Z" transform="translate(-15.231 -33.831)" fill="#3b1a16"/>
        <path id="Path_803" data-name="Path 803" d="M111.662,6.8a1.94,1.94,0,1,1,.563-.084A1.925,1.925,0,0,1,111.662,6.8Zm0-2.615a.686.686,0,0,0-.2.03.674.674,0,1,0,.2-.03Z" transform="translate(-83.469 -2.935)" fill="#3b1a16"/>
        <path id="Path_804" data-name="Path 804" d="M8.127,133.647a.627.627,0,0,1-.443-1.07l1.848-1.848a.627.627,0,0,1,.886.886L8.57,133.464A.625.625,0,0,1,8.127,133.647Z" transform="translate(-7.5 -97.584)" fill="#3b1a16"/>
        <path id="Path_805" data-name="Path 805" d="M9.975,133.647a.625.625,0,0,1-.443-.184l-1.848-1.848a.627.627,0,1,1,.887-.886l1.848,1.848a.627.627,0,0,1-.443,1.07Z" transform="translate(-7.5 -97.584)" fill="#3b1a16"/>
      </g>
    </g>
  </g>
</svg>
