<?xml version="1.0" encoding="utf-8"?>
<!-- Generator: Adobe Illustrator 23.1.0, SVG Export Plug-In . SVG Version: 6.00 Build 0)  -->
<svg version="1.1" id="圖層_1" xmlns="http://www.w3.org/2000/svg" xmlns:xlink="http://www.w3.org/1999/xlink" x="0px" y="0px"
	 viewBox="0 0 40 40" style="enable-background:new 0 0 40 40;" xml:space="preserve">
<style type="text/css">
	.st0{fill:none;stroke:#333333;stroke-width:1.1;stroke-miterlimit:10;}
	.st1{fill:#333333;}
	.st2{fill:#FFFFFF;}
	.st3{fill:#3B1A16;}
</style>
<g id="组_896" transform="translate(-1024.95 -541.95)">
	<path id="矩形_202" class="st0" d="M1032.9,548.5h24.2c1.1,0,1.9,0.9,1.9,1.9v24.2c0,1.1-0.9,1.9-1.9,1.9h-24.2
		c-1.1,0-1.9-0.9-1.9-1.9v-24.2C1030.9,549.3,1031.8,548.5,1032.9,548.5z"/>
	<rect id="矩形_203" x="1036.4" y="554" class="st1" width="7.7" height="7.7"/>
	<rect id="矩形_204" x="1038.9" y="556.5" class="st2" width="2.6" height="2.6"/>
	<rect id="矩形_205" x="1046.6" y="554" class="st1" width="7.7" height="7.7"/>
	<rect id="矩形_206" x="1049.2" y="556.5" class="st2" width="2.6" height="2.6"/>
	<rect id="矩形_207" x="1036.4" y="564.2" class="st1" width="7.7" height="7.7"/>
	<rect id="矩形_208" x="1038.9" y="566.7" class="st2" width="2.6" height="2.6"/>
	<path id="路径_1140" class="st1" d="M1053,564.2h1.3v5.1h-3.8V568h-1.3v3.8h-2.6v-7.7h3.8v1.3h2.6L1053,564.2z"/>
	<rect id="矩形_209" x="1053" y="570.6" class="st3" width="1.3" height="1.3"/>
	<rect id="矩形_210" x="1050.4" y="570.6" class="st3" width="1.3" height="1.3"/>
</g>
</svg>
