<svg xmlns="http://www.w3.org/2000/svg" width="104" height="104" viewBox="0 0 104 104">
  <g id="Group_891" data-name="Group 891" transform="translate(-156 -784.667)">
    <rect id="Rectangle_80" data-name="Rectangle 80" width="103" height="103" rx="30" transform="translate(156.5 785.167)" fill="none" stroke="#f6f5f4" stroke-miterlimit="10" stroke-width="1"/>
    <text id="QR通訊錄" transform="translate(208 869.175)" fill="#767676" font-size="16" font-family="MicrosoftJhengHeiRegular, Microsoft JhengHei"><tspan x="-35.648" y="0">QR通訊錄</tspan></text>
    <g id="Group_857" data-name="Group 857" transform="translate(345.532 795.109)">
      <g id="Group_853" data-name="Group 853" transform="translate(-154.033 13.217)">
        <circle id="Ellipse_236" data-name="Ellipse 236" cx="11.33" cy="11.33" r="11.33" transform="translate(0 0)" fill="#deeaea"/>
        <g id="Group_848" data-name="Group 848" transform="translate(5.797 4.743)">
          <path id="Path_1435" data-name="Path 1435" d="M-129.049,34.4h20.026V59.7h-20.026Z" transform="translate(129.576 -33.875)" fill="#fbbb42"/>
          <path id="Path_1436" data-name="Path 1436" d="M-110.578,58.669H-130.6a.527.527,0,0,1-.527-.527v-25.3a.527.527,0,0,1,.527-.527h20.026a.527.527,0,0,1,.527.527v25.3A.527.527,0,0,1-110.578,58.669Zm-19.5-1.054h18.972V33.374h-18.972Z" transform="translate(131.131 -32.32)" fill="#3b1a16"/>
        </g>
        <g id="Group_849" data-name="Group 849" transform="translate(5.797 4.743)">
          <path id="Path_1437" data-name="Path 1437" d="M-129.049,34.4h3.689V59.7h-3.689Z" transform="translate(129.576 -33.875)" fill="#85afd5"/>
          <path id="Path_1438" data-name="Path 1438" d="M-126.915,58.669H-130.6a.527.527,0,0,1-.527-.527v-25.3a.527.527,0,0,1,.527-.527h3.689a.527.527,0,0,1,.527.527v25.3A.527.527,0,0,1-126.915,58.669Zm-3.162-1.054h2.635V33.374h-2.635Z" transform="translate(131.131 -32.32)" fill="#3b1a16"/>
        </g>
        <path id="Path_1439" data-name="Path 1439" d="M-90.968,93.751h-6.324a.527.527,0,0,1-.527-.527.527.527,0,0,1,.527-.527h6.324a.527.527,0,0,1,.527.527A.527.527,0,0,1-90.968,93.751Z" transform="translate(112.048 -72.671)" fill="#3b1a16"/>
        <path id="Path_1440" data-name="Path 1440" d="M-90.968,104.161h-6.324a.527.527,0,0,1-.527-.527.527.527,0,0,1,.527-.527h6.324a.527.527,0,0,1,.527.527A.527.527,0,0,1-90.968,104.161Z" transform="translate(112.048 -80.446)" fill="#3b1a16"/>
        <g id="Group_850" data-name="Group 850" transform="translate(25.822 7.905)">
          <path id="Path_1441" data-name="Path 1441" d="M-49.934,46.893h2.108v5.27h-2.108Z" transform="translate(50.461 -46.366)" fill="#ee721f"/>
          <path id="Path_1442" data-name="Path 1442" d="M-49.381,51.135h-2.108a.527.527,0,0,1-.527-.527v-5.27a.527.527,0,0,1,.527-.527h2.108a.527.527,0,0,1,.527.527v5.27A.527.527,0,0,1-49.381,51.135Zm-1.581-1.054h1.054V45.865h-1.054Z" transform="translate(52.016 -44.811)" fill="#3b1a16"/>
        </g>
        <g id="Group_851" data-name="Group 851" transform="translate(25.822 15.283)">
          <path id="Path_1443" data-name="Path 1443" d="M-49.934,76.041h2.108v5.27h-2.108Z" transform="translate(50.461 -75.514)" fill="#df291f"/>
          <path id="Path_1444" data-name="Path 1444" d="M-49.381,80.283h-2.108a.527.527,0,0,1-.527-.527v-5.27a.527.527,0,0,1,.527-.527h2.108a.527.527,0,0,1,.527.527v5.27A.527.527,0,0,1-49.381,80.283Zm-1.581-1.054h1.054V75.013h-1.054Z" transform="translate(52.016 -73.959)" fill="#3b1a16"/>
        </g>
        <g id="Group_852" data-name="Group 852" transform="translate(4.743 12.121)">
          <path id="Path_1445" data-name="Path 1445" d="M-132.133,62.521h-2.635a.527.527,0,0,1-.527-.527.527.527,0,0,1,.527-.527h2.635a.527.527,0,0,1,.527.527A.527.527,0,0,1-132.133,62.521Z" transform="translate(135.295 -61.467)" fill="#3b1a16"/>
          <path id="Path_1446" data-name="Path 1446" d="M-132.133,83.341h-2.635a.527.527,0,0,1-.527-.527.527.527,0,0,1,.527-.527h2.635a.527.527,0,0,1,.527.527A.527.527,0,0,1-132.133,83.341Z" transform="translate(135.295 -77.017)" fill="#3b1a16"/>
          <path id="Path_1447" data-name="Path 1447" d="M-132.133,106.243h-2.635a.527.527,0,0,1-.527-.527.527.527,0,0,1,.527-.527h2.635a.527.527,0,0,1,.527.527A.527.527,0,0,1-132.133,106.243Z" transform="translate(135.295 -94.122)" fill="#3b1a16"/>
        </g>
      </g>
      <g id="Group_854" data-name="Group 854" transform="translate(-139.112 21.944)">
        <circle id="Ellipse_237" data-name="Ellipse 237" cx="2.398" cy="2.398" r="2.398" transform="translate(0.6 0.599)" fill="#fce0d3"/>
        <path id="Path_1448" data-name="Path 1448" d="M-92.091,54.053a3,3,0,0,1-3-3,3,3,0,0,1,3-3,3,3,0,0,1,3,3A3,3,0,0,1-92.091,54.053Zm0-4.8a1.8,1.8,0,0,0-1.8,1.8,1.8,1.8,0,0,0,1.8,1.8,1.8,1.8,0,0,0,1.8-1.8A1.8,1.8,0,0,0-92.091,49.257Z" transform="translate(95.088 -48.058)" fill="#3b1a16"/>
      </g>
      <g id="Group_855" data-name="Group 855" transform="translate(-140.312 26.739)">
        <path id="Path_1449" data-name="Path 1449" d="M-90.262,72.97h-7.194a3.6,3.6,0,0,1,3.6-3.6A3.6,3.6,0,0,1-90.262,72.97Z" transform="translate(98.056 -68.774)" fill="#9da645"/>
        <path id="Path_1450" data-name="Path 1450" d="M-92.031,71.8h-7.194a.6.6,0,0,1-.6-.6,4.2,4.2,0,0,1,4.2-4.2,4.2,4.2,0,0,1,4.2,4.2A.6.6,0,0,1-92.031,71.8Zm-6.534-1.2h5.874a3,3,0,0,0-2.937-2.4,3,3,0,0,0-2.937,2.4Z" transform="translate(99.825 -67.005)" fill="#3b1a16"/>
      </g>
      <g id="Group_856" data-name="Group 856" transform="translate(-153.953 13.093)">
        <path id="Path_1451" data-name="Path 1451" d="M-149.022,72.386A1.885,1.885,0,0,1-150.9,70.5a1.885,1.885,0,0,1,1.882-1.883,1.885,1.885,0,0,1,1.883,1.883A1.885,1.885,0,0,1-149.022,72.386Zm0-2.573a.691.691,0,0,0-.69.69.691.691,0,0,0,.69.69.691.691,0,0,0,.69-.69A.691.691,0,0,0-149.022,69.813Z" transform="translate(151.616 -54.566)" fill="#3b1a16"/>
        <path id="Path_1452" data-name="Path 1452" d="M-97.2,18.211a1.885,1.885,0,0,1-1.882-1.882A1.885,1.885,0,0,1-97.2,14.446a1.885,1.885,0,0,1,1.882,1.883A1.884,1.884,0,0,1-97.2,18.211Zm0-2.573a.691.691,0,0,0-.69.691.691.691,0,0,0,.69.69.691.691,0,0,0,.69-.69A.691.691,0,0,0-97.2,15.638Z" transform="translate(112.914 -14.104)" fill="#3b1a16"/>
        <path id="Path_1453" data-name="Path 1453" d="M-41.324,110.26a.922.922,0,0,1-.922.922.922.922,0,0,1-.922-.922.922.922,0,0,1,.922-.922A.922.922,0,0,1-41.324,110.26Z" transform="translate(71.15 -84.977)" fill="#3b1a16"/>
        <path id="Path_1454" data-name="Path 1454" d="M-29.85,42.718a.922.922,0,0,1-.922.922.922.922,0,0,1-.922-.922.922.922,0,0,1,.922-.922A.922.922,0,0,1-29.85,42.718Z" transform="translate(62.581 -34.531)" fill="#3b1a16"/>
        <path id="Path_1455" data-name="Path 1455" d="M-153.121,16.393a.593.593,0,0,1-.422-.175.6.6,0,0,1,0-.843l2.108-2.107a.6.6,0,0,1,.843,0,.6.6,0,0,1,0,.843l-2.108,2.108A.592.592,0,0,1-153.121,16.393Z" transform="translate(153.717 -13.093)" fill="#3b1a16"/>
        <path id="Path_1456" data-name="Path 1456" d="M-151.014,16.394a.593.593,0,0,1-.422-.175l-2.108-2.108a.6.6,0,0,1,0-.843.6.6,0,0,1,.843,0l2.108,2.107a.6.6,0,0,1,0,.843A.593.593,0,0,1-151.014,16.394Z" transform="translate(153.718 -13.094)" fill="#3b1a16"/>
      </g>
    </g>
  </g>
</svg>
