<?xml version="1.0" encoding="utf-8"?>
<!-- Generator: Adobe Illustrator 23.1.0, SVG Export Plug-In . SVG Version: 6.00 Build 0)  -->
<svg version="1.1" id="圖層_1" xmlns="http://www.w3.org/2000/svg" xmlns:xlink="http://www.w3.org/1999/xlink" x="0px" y="0px"
	 viewBox="0 0 40 40" style="enable-background:new 0 0 40 40;" xml:space="preserve">
<style type="text/css">
	.st0{opacity:0.1;enable-background:new    ;}
	.st1{fill:none;stroke:#3B1A16;stroke-width:1.1;stroke-miterlimit:10;}
	.st2{fill:#3B1A16;}
	.st3{fill:#FFB100;}
	.st4{fill:#FF8189;}
</style>
<rect x="6" y="6.1" class="st0" width="28" height="28.4"/>
<path id="矩形_174" class="st1" d="M7.9,6.5h24.2c1.1,0,1.9,0.9,1.9,1.9v24.2c0,1.1-0.9,1.9-1.9,1.9H7.9c-1.1,0-1.9-0.9-1.9-1.9
	V8.4C6,7.4,6.9,6.5,7.9,6.5z"/>
<rect id="矩形_175" x="11.4" y="12" class="st2" width="7.7" height="7.7"/>
<rect id="矩形_176" x="14" y="14.6" class="st3" width="2.6" height="2.6"/>
<rect id="矩形_177" x="21.6" y="12" class="st2" width="7.7" height="7.7"/>
<rect id="矩形_178" x="24.2" y="14.6" class="st4" width="2.6" height="2.6"/>
<rect id="矩形_179" x="11.4" y="22.2" class="st2" width="7.7" height="7.7"/>
<rect id="矩形_180" x="14" y="24.8" class="st4" width="2.6" height="2.6"/>
<path id="路径_1137" class="st2" d="M28,22.2h1.3v5.1h-3.8v-1.3h-1.3v3.8h-2.6v-7.7h3.8v1.3H28L28,22.2z"/>
<rect id="矩形_181" x="28" y="28.6" class="st2" width="1.3" height="1.3"/>
<rect id="矩形_182" x="25.5" y="28.6" class="st2" width="1.3" height="1.3"/>
</svg>
