<svg xmlns="http://www.w3.org/2000/svg" width="21.466" height="22.45" viewBox="0 0 21.466 22.45">
  <g id="Group_77" data-name="Group 77" transform="translate(-4652.683 2003.925)">
    <path id="Path_32" data-name="Path 32" d="M4661.022-1994.264H4654a1.322,1.322,0,0,1-1.321-1.321v-7.019a1.322,1.322,0,0,1,1.321-1.321h7.018a1.322,1.322,0,0,1,1.321,1.321v7.019A1.322,1.322,0,0,1,4661.022-1994.264Zm-7.018-8.523a.183.183,0,0,0-.183.183v7.019a.183.183,0,0,0,.183.183h7.018a.184.184,0,0,0,.184-.183v-7.019a.184.184,0,0,0-.184-.183Z" fill="#8e8e8f"/>
    <path id="Path_33" data-name="Path 33" d="M4672.823-1994.264H4665.8a1.322,1.322,0,0,1-1.32-1.321v-7.019a1.322,1.322,0,0,1,1.32-1.321h7.019a1.323,1.323,0,0,1,1.321,1.321v7.019A1.323,1.323,0,0,1,4672.823-1994.264Zm-7.019-8.523a.183.183,0,0,0-.183.183v7.019a.183.183,0,0,0,.183.183h7.019a.183.183,0,0,0,.183-.183v-7.019a.183.183,0,0,0-.183-.183Z" fill="#8e8e8f"/>
    <path id="Path_34" data-name="Path 34" d="M4661.022-1981.48H4654a1.322,1.322,0,0,1-1.321-1.321v-7.018a1.322,1.322,0,0,1,1.321-1.321h7.018a1.322,1.322,0,0,1,1.321,1.321v7.018A1.322,1.322,0,0,1,4661.022-1981.48ZM4654-1990a.183.183,0,0,0-.183.183v7.018a.184.184,0,0,0,.183.184h7.018a.185.185,0,0,0,.184-.184v-7.018a.184.184,0,0,0-.184-.183Z" fill="#8e8e8f"/>
    <path id="Path_35" data-name="Path 35" d="M4672.823-1991.145H4665.8a1.323,1.323,0,0,0-1.315,1.229s1.253-.082,1.315-.082h7.019a.18.18,0,0,1,.179.179v7.018a.18.18,0,0,1-.179.179h-4.407l.6,1.147h3.808a1.327,1.327,0,0,0,1.326-1.326v-7.018A1.327,1.327,0,0,0,4672.823-1991.145Z" fill="#8e8e8f"/>
    <path id="Path_36" data-name="Path 36" d="M4661.535-1994.52a.568.568,0,0,1-.4-.167l-4-4a.57.57,0,0,1,0-.805.568.568,0,0,1,.8,0l4,4a.566.566,0,0,1,0,.8A.566.566,0,0,1,4661.535-1994.52Z" fill="#8e8e8f"/>
  </g>
</svg>
