<svg xmlns="http://www.w3.org/2000/svg" width="21" height="20.17" viewBox="0 0 21 20.17">
  <g id="Group_176" data-name="Group 176" transform="translate(-348.13 -61)">
    <g id="Group_169" data-name="Group 169" transform="translate(348.13 61)">
      <g id="Group_160" data-name="Group 160">
        <path id="Path_74" data-name="Path 74" d="M-282.8,17.285a8.657,8.657,0,0,1-8.652-8.642A8.657,8.657,0,0,1-282.8,0a8.657,8.657,0,0,1,8.652,8.642A8.657,8.657,0,0,1-282.8,17.285Zm0-16.231a7.6,7.6,0,0,0-7.6,7.589,7.6,7.6,0,0,0,7.6,7.589,7.6,7.6,0,0,0,7.6-7.589A7.6,7.6,0,0,0-282.8,1.054Z" transform="translate(291.454)" fill="#a4a5a2"/>
        <path id="Path_75" data-name="Path 75" d="M-196.547,96.58a.593.593,0,0,1-.421-.174l-5.477-5.477a.6.6,0,0,1,0-.841.6.6,0,0,1,.841,0l5.477,5.477a.6.6,0,0,1,0,.841A.593.593,0,0,1-196.547,96.58Z" transform="translate(216.952 -76.41)" fill="#a4a5a2"/>
      </g>
      <path id="Path_76" data-name="Path 76" d="M-273.1,26.762a.6.6,0,0,1-.595-.595,7.565,7.565,0,0,1,5-7.431.6.6,0,0,1,.739.4.6.6,0,0,1-.4.738,6.281,6.281,0,0,0-4.148,6.29A.6.6,0,0,1-273.1,26.762Z" transform="translate(276.804 -15.436)" fill="#a4a5a2"/>
    </g>
  </g>
</svg>
