<svg xmlns="http://www.w3.org/2000/svg" width="104" height="104" viewBox="0 0 104 104">
  <g id="Group_630" data-name="Group 630" transform="translate(-156 -660.667)">
    <rect id="Rectangle_80" data-name="Rectangle 80" width="103" height="103" rx="30" transform="translate(156.5 661.167)" fill="none" stroke="#f6f5f4" stroke-miterlimit="10" stroke-width="1"/>
    <text id="客服中心" transform="translate(208 745.175)" fill="#767676" font-size="16" font-family="MicrosoftJhengHeiRegular, Microsoft JhengHei"><tspan x="-32" y="0">客服中心</tspan></text>
    <g id="Group_775" data-name="Group 775" transform="translate(173.7 671.921)">
      <circle id="Ellipse_207" data-name="Ellipse 207" cx="13.448" cy="13.448" r="13.448" transform="translate(23.182 15.964)" fill="#fbf8df"/>
      <g id="Group_766" data-name="Group 766" transform="translate(35.194 40.975)">
        <path id="Path_1288" data-name="Path 1288" d="M91.164,111.933h-.158a.485.485,0,0,1-.482-.489h0a.477.477,0,0,1,.472-.482h.018c5.312.039,8.478-2.222,9.66-4.357a2.48,2.48,0,0,0,.327-2.293.485.485,0,1,1,.818-.522,3.3,3.3,0,0,1-.3,3.285c-1.305,2.356-4.708,4.857-10.359,4.857Z" transform="translate(-90.525 -103.566)" fill="#c1c1c1"/>
        <path id="Path_1289" data-name="Path 1289" d="M90.987,111.932h0m10.422-8.365a.485.485,0,0,0-.409.746,2.48,2.48,0,0,1-.327,2.293c-1.172,2.117-4.293,4.357-9.524,4.357H91a.476.476,0,0,0-.472.482h0a.485.485,0,0,0,.482.489h.158c5.651,0,9.054-2.5,10.359-4.857a3.3,3.3,0,0,0,.3-3.285.485.485,0,0,0-.41-.224Z" transform="translate(-90.525 -103.567)" fill="#391915"/>
      </g>
      <g id="Group_767" data-name="Group 767" transform="translate(32.56 46.876)">
        <path id="Path_1290" data-name="Path 1290" d="M85.524,123.347l2.713.291v2.392l-2.713.291a1.5,1.5,0,0,1-1.646-1.328,1.457,1.457,0,0,1-.009-.159,1.5,1.5,0,0,1,1.5-1.5,1.537,1.537,0,0,1,.159.008Z" transform="translate(-83.385 -122.855)" fill="#9e9d9d"/>
        <path id="Path_1291" data-name="Path 1291" d="M84.348,125.8a1.98,1.98,0,0,1,0-3.96,2,2,0,0,1,.211.011l3.146.337v3.263l-3.146.337A2.046,2.046,0,0,1,84.348,125.8Zm0-2.991a1.012,1.012,0,0,0-1.011,1.011.993.993,0,0,0,.006.108,1.014,1.014,0,0,0,1.113.9l2.28-.244v-1.522l-2.281-.244A1,1,0,0,0,84.349,122.808Z" transform="translate(-82.369 -121.839)" fill="#391915"/>
      </g>
      <g id="Group_768" data-name="Group 768" transform="translate(16.455 20.052)">
        <path id="Path_1292" data-name="Path 1292" d="M63.717,55.147a14.755,14.755,0,0,1-2.131,7.666l-1.324-.8a13.3,13.3,0,1,0-22.789,0l-1.324.8a14.85,14.85,0,1,1,27.568-7.665Z" transform="translate(-33.525 -39.807)" fill="#c1c1c1"/>
        <path id="Path_1293" data-name="Path 1293" d="M34.96,62.456l-.251-.416a15.334,15.334,0,1,1,28.4-9.406l.069-.1,0,1.593a15.236,15.236,0,0,1-2.2,7.918l-.251.415-2.152-1.307.249-.413a12.816,12.816,0,1,0-21.959,0l.249.413Zm24.935-1.639.5.3a14.273,14.273,0,0,0,1.816-6.832v-.163a14.366,14.366,0,1,0-26.913,6.995l.5-.3a13.785,13.785,0,1,1,24.1,0Z" transform="translate(-32.502 -38.783)" fill="#391915"/>
      </g>
      <g id="Group_769" data-name="Group 769" transform="translate(21.621 20.065)">
        <path id="Path_1294" data-name="Path 1294" d="M69.629,43.709l-1.082,1.126a.878.878,0,0,1-1.144.1,12.5,12.5,0,0,0-14.478,0,.878.878,0,0,1-1.144-.1L50.7,43.709a14.854,14.854,0,0,1,18.931,0Z" transform="translate(-49.989 -39.824)" fill="#e95a08"/>
        <path id="Path_1295" data-name="Path 1295" d="M50.925,44.581a1.366,1.366,0,0,1-.982-.412l-1.444-1.5.4-.332a15.357,15.357,0,0,1,19.548,0l1.037.858H68.345l-.939.977a1.371,1.371,0,0,1-1.777.16,12.024,12.024,0,0,0-13.914,0A1.353,1.353,0,0,1,50.925,44.581Zm-1-1.828.713.743a.4.4,0,0,0,.512.044,13,13,0,0,1,15.041,0,.4.4,0,0,0,.516-.044l.712-.742A14.39,14.39,0,0,0,49.927,42.753Z" transform="translate(-48.499 -38.82)" fill="#391915"/>
      </g>
      <g id="Group_770" data-name="Group 770" transform="translate(40.697 35.252)">
        <path id="Path_1296" data-name="Path 1296" d="M109.567,96.041h0l3.923-8.192h0a3.118,3.118,0,0,1,1.465,4.158h0l-1.23,2.568a3.118,3.118,0,0,1-4.158,1.465Z" transform="translate(-108.921 -87.203)" fill="#e95a08"/>
        <path id="Path_1297" data-name="Path 1297" d="M109.553,95.476A3.581,3.581,0,0,1,108,95.123l-.437-.209,4.342-9.066.437.209a3.606,3.606,0,0,1,1.692,4.8l-1.23,2.569A3.607,3.607,0,0,1,109.553,95.476Zm-.676-1.058a2.636,2.636,0,0,0,3.056-1.406l1.23-2.568a2.635,2.635,0,0,0-.819-3.263Z" transform="translate(-107.566 -85.848)" fill="#391915"/>
      </g>
      <g id="Group_771" data-name="Group 771" transform="translate(39.027 33.932)">
        <path id="Path_1298" data-name="Path 1298" d="M104.548,92.8h0a1.148,1.148,0,0,1-.538-1.532l3.537-7.36a1.148,1.148,0,0,1,1.532-.538h0a1.148,1.148,0,0,1,.537,1.532l-3.537,7.36A1.148,1.148,0,0,1,104.548,92.8Z" transform="translate(-103.412 -82.776)" fill="#c74d09"/>
        <path id="Path_1299" data-name="Path 1299" d="M104.027,92.386a1.633,1.633,0,0,1-1.471-2.34l3.538-7.36a1.632,1.632,0,1,1,2.943,1.414L105.5,91.46a1.636,1.636,0,0,1-1.473.926Zm3.539-9.657a.664.664,0,0,0-.6.376l-3.538,7.36a.664.664,0,0,0,.311.885h0a.666.666,0,0,0,.886-.311l3.537-7.36a.664.664,0,0,0-.6-.951Z" transform="translate(-102.395 -81.76)" fill="#391915"/>
      </g>
      <g id="Group_772" data-name="Group 772" transform="translate(16.039 35.257)">
        <path id="Path_1300" data-name="Path 1300" d="M34.484,87.864h0l3.923,8.192h0a3.117,3.117,0,0,1-4.158-1.465h0l-1.23-2.568a3.117,3.117,0,0,1,1.465-4.158Z" transform="translate(-32.229 -87.217)" fill="#e95a08"/>
        <path id="Path_1301" data-name="Path 1301" d="M36.05,95.492A3.612,3.612,0,0,1,32.8,93.444l-1.23-2.568a3.606,3.606,0,0,1,1.693-4.8l.437-.21,4.342,9.066-.437.209A3.587,3.587,0,0,1,36.05,95.492Zm-2.787-8.3a2.638,2.638,0,0,0-.82,3.263l1.23,2.568a2.636,2.636,0,0,0,3.056,1.407Z" transform="translate(-31.216 -85.862)" fill="#391915"/>
      </g>
      <g id="Group_773" data-name="Group 773" transform="translate(17.781 33.914)">
        <path id="Path_1302" data-name="Path 1302" d="M38.761,83.32h0a1.148,1.148,0,0,1,1.532.538l3.537,7.36a1.148,1.148,0,0,1-.537,1.532h0a1.148,1.148,0,0,1-1.532-.537l-3.537-7.36A1.148,1.148,0,0,1,38.761,83.32Z" transform="translate(-37.625 -82.721)" fill="#c74d09"/>
        <path id="Path_1303" data-name="Path 1303" d="M41.78,92.332a1.637,1.637,0,0,1-1.473-.927l-3.537-7.36a1.633,1.633,0,0,1,.764-2.179h0a1.632,1.632,0,0,1,2.178.765l3.537,7.36a1.635,1.635,0,0,1-1.47,2.341ZM37.954,82.74a.664.664,0,0,0-.311.886l3.537,7.36a.664.664,0,0,0,1.2-.576L38.84,83.05a.664.664,0,0,0-.886-.311Z" transform="translate(-36.608 -81.704)" fill="#391915"/>
      </g>
      <path id="Path_1304" data-name="Path 1304" d="M62.026,77.613c.372-.578.776-1.138,1.109-1.738a1.772,1.772,0,0,1,2.767-.508c.769.616,1.572,1.189,2.36,1.78a.712.712,0,0,0,1.071-.01c.992-.837,2.1-1.52,3.08-2.378.083-.073.2-.11.286-.175.318-.23.575-.244.794-.036s.226.454.012.8c-.343.546-.689,1.09-1.032,1.635-.105.168-.2.34-.305.511-.633,1-1.262,2-1.9,2.993a1.7,1.7,0,0,1-2,.759,1.987,1.987,0,0,1-.594-.329q-1.195-.9-2.391-1.791c-.485-.363-.69-.364-1.164,0L60.81,81.627a.8.8,0,0,1-.317.183.523.523,0,0,1-.553-.2.475.475,0,0,1-.034-.583c.6-.926,1.123-1.9,1.752-2.8C61.793,78.025,61.9,77.815,62.026,77.613Z" transform="translate(-34.544 -42.845)" fill="#fbbb42"/>
      <path id="Path_1305" data-name="Path 1305" d="M21.966,32.44a.737.737,0,0,1-.523-.217l-1.252-1.252a.739.739,0,1,1,1.045-1.045l1.252,1.252a.739.739,0,0,1-.522,1.261Z" transform="translate(-7.565 -12.588)" fill="#3b1a16"/>
      <path id="Path_1306" data-name="Path 1306" d="M31.014,41.487a.738.738,0,0,1-.523-.216l-1.252-1.252a.739.739,0,1,1,1.045-1.045l1.252,1.252a.739.739,0,0,1-.523,1.261Z" transform="translate(-13.691 -18.713)" fill="#3b1a16"/>
      <path id="Path_1307" data-name="Path 1307" d="M20.253,41.926a.739.739,0,0,1-.522-1.261L20.993,39.4a.739.739,0,0,1,1.045,1.045L20.776,41.71A.736.736,0,0,1,20.253,41.926Z" transform="translate(-7.254 -19.003)" fill="#3b1a16"/>
      <path id="Path_1308" data-name="Path 1308" d="M29.761,32.44a.739.739,0,0,1-.523-1.261l1.252-1.252a.739.739,0,0,1,1.045,1.045l-1.252,1.252a.737.737,0,0,1-.523.217Z" transform="translate(-13.691 -12.588)" fill="#3b1a16"/>
      <path id="Path_1309" data-name="Path 1309" d="M126.986,131.751a.74.74,0,0,1-.523-1.264l2.623-2.624a.74.74,0,1,1,1.047,1.047l-2.623,2.624A.739.739,0,0,1,126.986,131.751Z" transform="translate(-79.516 -78.895)" fill="#3b1a16"/>
      <path id="Path_1310" data-name="Path 1310" d="M129.608,131.751a.738.738,0,0,1-.524-.217l-2.623-2.624a.74.74,0,0,1,1.047-1.047l2.623,2.624a.74.74,0,0,1-.523,1.264Z" transform="translate(-79.515 -78.895)" fill="#3b1a16"/>
      <circle id="Ellipse_208" data-name="Ellipse 208" cx="0.74" cy="0.74" r="0.74" transform="translate(9.541 11.929)" fill="#3b1a16"/>
      <circle id="Ellipse_209" data-name="Ellipse 209" cx="0.74" cy="0.74" r="0.74" transform="translate(22.127 16.606)" fill="#3b1a16"/>
      <circle id="Ellipse_210" data-name="Ellipse 210" cx="0.74" cy="0.74" r="0.74" transform="translate(31.753 51.91)" fill="#3b1a16"/>
      <circle id="Ellipse_211" data-name="Ellipse 211" cx="0.74" cy="0.74" r="0.74" transform="translate(8.8 33.4)" fill="#3b1a16"/>
      <g id="Group_774" data-name="Group 774" transform="translate(41.343 11.118)">
        <circle id="Ellipse_212" data-name="Ellipse 212" cx="5.469" cy="5.469" r="5.469" transform="translate(0.759 0.759)" fill="#e9e4d2"/>
        <path id="Path_1311" data-name="Path 1311" d="M115.8,23.575a6.228,6.228,0,1,1,6.229-6.228A6.235,6.235,0,0,1,115.8,23.575Zm0-10.939a4.71,4.71,0,1,0,4.71,4.71A4.715,4.715,0,0,0,115.8,12.636Z" transform="translate(-109.567 -11.118)" fill="#3b1a16"/>
        <path id="Path_1312" data-name="Path 1312" d="M127.287,24.129a.759.759,0,0,1-.759-.759v-3.8a.759.759,0,1,1,1.518,0v3.8A.759.759,0,0,1,127.287,24.129Z" transform="translate(-121.05 -16.329)" fill="#3b1a16"/>
        <circle id="Ellipse_213" data-name="Ellipse 213" cx="0.759" cy="0.759" r="0.759" transform="translate(5.477 8.559)" fill="#3b1a16"/>
      </g>
    </g>
  </g>
</svg>
