<svg xmlns="http://www.w3.org/2000/svg" width="104" height="104" viewBox="0 0 104 104">
  <g id="Group_614" data-name="Group 614" transform="translate(-280 -784.667)">
    <rect id="Rectangle_80" data-name="Rectangle 80" width="103" height="103" rx="30" transform="translate(280.5 785.167)" fill="none" stroke="#f6f5f4" stroke-miterlimit="10" stroke-width="1"/>
    <text id="APP設定" transform="translate(332 869.175)" fill="#767676" font-size="16" font-family="MicrosoftJhengHeiRegular, Microsoft JhengHei"><tspan x="-31.16" y="0">APP設定</tspan></text>
    <g id="Group_378" data-name="Group 378" transform="translate(303.982 791.501)">
      <ellipse id="Ellipse_36" data-name="Ellipse 36" cx="13.404" cy="12.649" rx="13.404" ry="12.649" transform="translate(11.018 20.499)" fill="#deeaea"/>
      <g id="Group_368" data-name="Group 368" transform="translate(14.135 26.47)">
        <path id="Path_426" data-name="Path 426" d="M34.931,55.709a4.981,4.981,0,1,0-6.844,4.617v2.481l1.6.9-1.6.9v2.691l1.6.9-1.6.9V70.68l2.138,2.492,1.6-1.5V60.321a4.98,4.98,0,0,0,3.1-4.612ZM29.951,53.1a1.66,1.66,0,1,1-1.66,1.66,1.66,1.66,0,0,1,1.66-1.66Z" transform="translate(-24.346 -50.105)" fill="#a48e89"/>
        <path id="Path_427" data-name="Path 427" d="M28.522,72.093h-.035a.623.623,0,0,1-.439-.216l-2.138-2.491a.625.625,0,0,1-.15-.406V67.384a.624.624,0,0,1,.319-.544l.631-.353-.631-.353a.624.624,0,0,1-.319-.544V62.9a.623.623,0,0,1,.319-.544L26.711,62l-.631-.353a.623.623,0,0,1-.319-.544V59.027a5.6,5.6,0,1,1,4.987-.006V69.975a.624.624,0,0,1-.2.456l-1.6,1.495a.624.624,0,0,1-.425.168Zm-1.514-3.346,1.564,1.823.93-.867V58.619a.623.623,0,0,1,.388-.577,4.358,4.358,0,1,0-3.271,0,.623.623,0,0,1,.39.578v2.115l1.284.719a.624.624,0,0,1,0,1.088l-1.284.718v1.96l1.284.719a.624.624,0,0,1,0,1.088l-1.284.718Zm3.117,1.227h0ZM28.248,55.342a2.284,2.284,0,1,1,2.283-2.283A2.286,2.286,0,0,1,28.248,55.342Zm0-3.32a1.037,1.037,0,1,0,1.037,1.037A1.038,1.038,0,0,0,28.248,52.022Z" transform="translate(-22.644 -48.403)" fill="#3b1a16"/>
      </g>
      <path id="Path_428" data-name="Path 428" d="M84.618,121.735H62.8a.623.623,0,0,1,0-1.247h21.82a.623.623,0,1,1,0,1.247Z" transform="translate(-39.224 -74.692)" fill="#3b1a16"/>
      <g id="Group_369" data-name="Group 369" transform="translate(24.741 39.921)">
        <path id="Path_429" data-name="Path 429" d="M70.429,99.56,67.49,102.5" transform="translate(-66.867 -98.937)" fill="#a48e89"/>
        <path id="Path_430" data-name="Path 430" d="M65.788,101.421a.623.623,0,0,1-.441-1.064l2.939-2.939a.623.623,0,0,1,.882.882l-2.939,2.939A.623.623,0,0,1,65.788,101.421Z" transform="translate(-65.165 -97.235)" fill="#3b1a16"/>
      </g>
      <g id="Group_370" data-name="Group 370" transform="translate(24.741 39.921)">
        <path id="Path_431" data-name="Path 431" d="M70.429,102.5,67.49,99.56" transform="translate(-66.867 -98.937)" fill="#a48e89"/>
        <path id="Path_432" data-name="Path 432" d="M68.727,101.421a.622.622,0,0,1-.441-.182L65.348,98.3a.623.623,0,0,1,.882-.882l2.939,2.939a.623.623,0,0,1-.441,1.064Z" transform="translate(-65.165 -97.235)" fill="#3b1a16"/>
      </g>
      <g id="Group_371" data-name="Group 371" transform="translate(30.045 39.921)">
        <path id="Path_433" data-name="Path 433" d="M91.357,99.56,88.418,102.5" transform="translate(-87.795 -98.937)" fill="#a48e89"/>
        <path id="Path_434" data-name="Path 434" d="M86.716,101.421a.623.623,0,0,1-.441-1.064l2.939-2.939a.623.623,0,0,1,.882.882l-2.939,2.939A.623.623,0,0,1,86.716,101.421Z" transform="translate(-86.093 -97.235)" fill="#3b1a16"/>
      </g>
      <g id="Group_372" data-name="Group 372" transform="translate(30.045 39.921)">
        <path id="Path_435" data-name="Path 435" d="M91.357,102.5,88.418,99.56" transform="translate(-87.795 -98.937)" fill="#a48e89"/>
        <path id="Path_436" data-name="Path 436" d="M89.655,101.421a.622.622,0,0,1-.441-.182L86.276,98.3a.623.623,0,0,1,.882-.882l2.939,2.939a.623.623,0,0,1-.441,1.064Z" transform="translate(-86.093 -97.235)" fill="#3b1a16"/>
      </g>
      <g id="Group_373" data-name="Group 373" transform="translate(35.349 39.921)">
        <path id="Path_437" data-name="Path 437" d="M112.284,99.56l-2.939,2.939" transform="translate(-108.722 -98.937)" fill="#a48e89"/>
        <path id="Path_438" data-name="Path 438" d="M107.643,101.421a.623.623,0,0,1-.441-1.064l2.939-2.939a.623.623,0,1,1,.882.882l-2.939,2.939A.622.622,0,0,1,107.643,101.421Z" transform="translate(-107.02 -97.235)" fill="#3b1a16"/>
      </g>
      <g id="Group_374" data-name="Group 374" transform="translate(35.349 39.921)">
        <path id="Path_439" data-name="Path 439" d="M112.284,102.5l-2.939-2.939" transform="translate(-108.722 -98.937)" fill="#a48e89"/>
        <path id="Path_440" data-name="Path 440" d="M110.582,101.421a.623.623,0,0,1-.441-.182L107.2,98.3a.623.623,0,1,1,.882-.882l2.939,2.939a.623.623,0,0,1-.441,1.064Z" transform="translate(-107.02 -97.235)" fill="#3b1a16"/>
      </g>
      <g id="Group_375" data-name="Group 375" transform="translate(40.585 39.921)">
        <path id="Path_441" data-name="Path 441" d="M133.212,99.56l-2.939,2.939" transform="translate(-129.65 -98.937)" fill="#a48e89"/>
        <path id="Path_442" data-name="Path 442" d="M128.571,101.421a.623.623,0,0,1-.441-1.064l2.939-2.939a.623.623,0,0,1,.882.882l-2.939,2.939A.622.622,0,0,1,128.571,101.421Z" transform="translate(-127.948 -97.235)" fill="#3b1a16"/>
      </g>
      <g id="Group_376" data-name="Group 376" transform="translate(40.585 39.921)">
        <path id="Path_443" data-name="Path 443" d="M133.212,102.5l-2.939-2.939" transform="translate(-129.65 -98.937)" fill="#a48e89"/>
        <path id="Path_444" data-name="Path 444" d="M131.51,101.421a.623.623,0,0,1-.441-.182L128.131,98.3a.623.623,0,0,1,.882-.882l2.939,2.939a.623.623,0,0,1-.441,1.064Z" transform="translate(-127.948 -97.235)" fill="#3b1a16"/>
      </g>
      <g id="Group_377" data-name="Group 377" transform="translate(28.208 24.74)">
        <path id="Path_445" data-name="Path 445" d="M87.76,38.641c-1.907,2.2-5.346,2.369-5.346,2.369.972,7.019,5.346,8.022,5.346,8.022s4.374-1,5.345-8.022c0,0-3.587-.172-5.345-2.369Z" transform="translate(-81.79 -38.018)" fill="#fbbb42"/>
        <path id="Path_446" data-name="Path 446" d="M86.057,47.954a.628.628,0,0,1-.139-.016c-.2-.045-4.8-1.184-5.824-8.544a.624.624,0,0,1,.587-.708c.031,0,3.2-.191,4.906-2.155a.624.624,0,0,1,.958.019c1.565,1.955,4.856,2.134,4.889,2.136a.624.624,0,0,1,.588.708c-1.019,7.361-5.628,8.5-5.824,8.544a.644.644,0,0,1-.139.016Zm-4.628-8.1c.943,5.306,3.928,6.593,4.629,6.825.694-.229,3.683-1.513,4.627-6.822a8.7,8.7,0,0,1-4.641-2.016,8.992,8.992,0,0,1-4.614,2.012Z" transform="translate(-80.088 -36.317)" fill="#3b1a16"/>
      </g>
      <path id="Path_447" data-name="Path 447" d="M96.158,54.776a.622.622,0,0,1-.477-.222L94.7,53.386a.623.623,0,1,1,.954-.8l.486.578,1.709-2.194a.623.623,0,1,1,.983.767l-2.183,2.8a.624.624,0,0,1-.48.24Z" transform="translate(-62.372 -22.575)" fill="#3b1a16"/>
    </g>
  </g>
</svg>
