<?xml version="1.0" encoding="utf-8"?>
<!-- Generator: Adobe Illustrator 23.1.0, SVG Export Plug-In . SVG Version: 6.00 Build 0)  -->
<svg version="1.1" id="圖層_1" xmlns="http://www.w3.org/2000/svg" xmlns:xlink="http://www.w3.org/1999/xlink" x="0px" y="0px"
	 viewBox="0 0 40 40" style="enable-background:new 0 0 40 40;" xml:space="preserve">
<style type="text/css">
	.st0{fill:#333333;}
</style>
<g id="组_368" transform="translate(14.135 26.47)">
	<path id="路径_427" class="st0" d="M-4.2,6.2L-4.2,6.2c-0.2,0-0.4-0.1-0.5-0.2l-2.1-2.5C-6.9,3.4-7,3.3-7,3.1V1.5
		C-7,1.3-6.8,1.1-6.6,1L-6,0.6l-0.6-0.4C-6.8,0.2-7,0-7-0.3V-3c0-0.2,0.1-0.4,0.3-0.5L-6-3.9l-0.6-0.4C-6.8-4.3-7-4.5-7-4.8v-2.1
		c-2.8-1.4-3.9-4.7-2.5-7.5c1.4-2.8,4.7-3.9,7.5-2.5s3.9,4.7,2.5,7.5C0-8.3-0.9-7.4-2-6.8v11C-2,4.3-2,4.5-2.2,4.6l-1.6,1.5
		C-3.9,6.2-4,6.2-4.2,6.2L-4.2,6.2z M-5.7,2.9l1.6,1.8l0.9-0.9V-7.2c0-0.3,0.2-0.5,0.4-0.6c2.2-0.9,3.3-3.4,2.4-5.7
		c-0.9-2.2-3.4-3.3-5.7-2.4c-2.2,0.9-3.3,3.4-2.4,5.7c0.4,1.1,1.3,2,2.4,2.4c0.2,0.1,0.4,0.3,0.4,0.6v2.1l1.3,0.7
		C-4.1-4.2-4-3.8-4.2-3.5c-0.1,0.1-0.1,0.2-0.2,0.2l-1.3,0.7v2l1.3,0.7C-4.1,0.3-4,0.6-4.2,0.9C-4.2,1-4.3,1.1-4.4,1.2l-1.3,0.7
		L-5.7,2.9z M-2.6,4.1L-2.6,4.1z M-4.5-10.5c-1.3,0-2.3-1-2.3-2.3c0-1.3,1-2.3,2.3-2.3c1.3,0,2.3,1,2.3,2.3c0,0,0,0,0,0
		C-2.2-11.5-3.2-10.5-4.5-10.5z M-4.5-13.8c-0.6,0-1,0.5-1,1c0,0.6,0.5,1,1,1s1-0.5,1-1l0,0C-3.4-13.4-3.9-13.8-4.5-13.8z"/>
</g>
<path id="路径_428" class="st0" d="M35.3,29.6H13.5c-0.3,0-0.6-0.3-0.6-0.6c0-0.3,0.3-0.6,0.6-0.6h21.8c0.3,0,0.6,0.3,0.6,0.6
	C35.9,29.3,35.7,29.6,35.3,29.6L35.3,29.6z"/>
<g id="组_369" transform="translate(24.741 39.921)">
	<path id="路径_429" class="st0" d="M-6.5-16.8l-2.9,2.9"/>
	<path id="路径_430" class="st0" d="M-9.5-13.3c-0.3,0-0.6-0.3-0.6-0.6c0-0.2,0.1-0.3,0.2-0.4l2.9-2.9c0.2-0.2,0.6-0.2,0.9,0
		s0.2,0.6,0,0.9L-9-13.4C-9.1-13.3-9.3-13.3-9.5-13.3z"/>
</g>
<g id="组_370" transform="translate(35.349 39.921)">
	<path id="路径_431" class="st0" d="M-17.1-13.9l-2.9-2.9"/>
	<path id="路径_432" class="st0" d="M-17.1-13.3c-0.2,0-0.3-0.1-0.4-0.2l-2.9-2.9c-0.2-0.2-0.2-0.6,0-0.9s0.6-0.2,0.9,0l2.9,2.9
		c0.2,0.2,0.2,0.6,0,0.9C-16.8-13.3-17-13.3-17.1-13.3L-17.1-13.3z"/>
</g>
<g id="组_371" transform="translate(30.045 39.921)">
	<path id="路径_433" class="st0" d="M-6.5-16.8l-2.9,2.9"/>
	<path id="路径_434" class="st0" d="M-9.5-13.3c-0.3,0-0.6-0.3-0.6-0.6c0-0.2,0.1-0.3,0.2-0.4l2.9-2.9c0.2-0.2,0.6-0.2,0.9,0
		s0.2,0.6,0,0.9L-9-13.4C-9.1-13.3-9.3-13.3-9.5-13.3z"/>
</g>
<g id="组_372" transform="translate(35.349 39.921)">
	<path id="路径_435" class="st0" d="M-11.8-13.9l-2.9-2.9"/>
	<path id="路径_436" class="st0" d="M-11.8-13.3c-0.2,0-0.3-0.1-0.4-0.2l-2.9-2.9c-0.2-0.2-0.2-0.6,0-0.9c0.2-0.2,0.6-0.2,0.9,0
		l2.9,2.9c0.2,0.2,0.2,0.6,0,0.9C-11.5-13.3-11.7-13.3-11.8-13.3L-11.8-13.3z"/>
</g>
<g id="组_373" transform="translate(35.349 39.921)">
	<path id="路径_437" class="st0" d="M-6.5-16.8l-2.9,2.9"/>
	<path id="路径_438" class="st0" d="M-9.5-13.3c-0.3,0-0.6-0.3-0.6-0.6c0-0.2,0.1-0.3,0.2-0.4l2.9-2.9c0.2-0.2,0.6-0.2,0.9,0
		s0.2,0.6,0,0.9L-9-13.4C-9.1-13.3-9.3-13.3-9.5-13.3z"/>
</g>
<g id="组_374_2_" transform="translate(35.349 39.921)">
	<path id="路径_439_2_" class="st0" d="M-6.5-13.9l-2.9-2.9"/>
	<path id="路径_440_2_" class="st0" d="M-6.5-13.3c-0.2,0-0.3-0.1-0.4-0.2l-2.9-2.9c-0.2-0.2-0.2-0.6,0-0.9s0.6-0.2,0.9,0l2.9,2.9
		c0.2,0.2,0.2,0.6,0,0.9C-6.2-13.3-6.4-13.3-6.5-13.3L-6.5-13.3z"/>
</g>
<g id="组_375" transform="translate(40.585 39.921)">
	<path id="路径_441" class="st0" d="M-6.5-16.8l-2.9,2.9"/>
	<path id="路径_442" class="st0" d="M-9.5-13.3c-0.3,0-0.6-0.3-0.6-0.6c0-0.2,0.1-0.3,0.2-0.4l2.9-2.9c0.2-0.2,0.6-0.2,0.9,0
		s0.2,0.6,0,0.9L-9-13.4C-9.1-13.3-9.3-13.3-9.5-13.3z"/>
</g>
<g id="组_376" transform="translate(35.349 39.921)">
	<path id="路径_443" class="st0" d="M-1.3-13.9l-2.9-2.9"/>
	<path id="路径_444" class="st0" d="M-1.3-13.3c-0.2,0-0.3-0.1-0.4-0.2l-2.9-2.9c-0.2-0.2-0.2-0.6,0-0.9c0.2-0.2,0.6-0.2,0.9,0
		l2.9,2.9c0.2,0.2,0.2,0.6,0,0.9C-1-13.3-1.1-13.3-1.3-13.3L-1.3-13.3z"/>
</g>
<g id="组_377" transform="translate(28.208 24.74)">
	<path id="路径_446" class="st0" d="M-4.1-5.8c0,0-0.1,0-0.1,0c-0.2,0-4.8-1.2-5.8-8.5c0-0.3,0.2-0.7,0.5-0.7c0,0,0,0,0.1,0
		c0,0,3.2-0.2,4.9-2.2c0.2-0.3,0.6-0.3,0.9-0.1c0,0,0.1,0.1,0.1,0.1c1.6,2,4.9,2.1,4.9,2.1c0.3,0,0.6,0.3,0.6,0.7c0,0,0,0,0,0.1
		C0.8-7-3.8-5.9-4-5.8C-4-5.8-4.1-5.8-4.1-5.8L-4.1-5.8z M-8.7-13.9c0.9,5.3,3.9,6.6,4.6,6.8c0.7-0.2,3.7-1.5,4.6-6.8
		c-1.7-0.2-3.3-0.9-4.6-2C-5.4-14.8-7-14.1-8.7-13.9L-8.7-13.9z"/>
</g>
<path id="路径_447" class="st0" d="M23.7,14.8c-0.2,0-0.4-0.1-0.5-0.2l-1-1.2c-0.2-0.3-0.2-0.6,0-0.9c0.3-0.2,0.6-0.2,0.9,0
	c0,0,0,0,0,0l0.5,0.6l1.7-2.2c0.2-0.3,0.6-0.3,0.9-0.1s0.3,0.6,0.1,0.9l0,0l-2.2,2.8C24.1,14.7,23.9,14.7,23.7,14.8L23.7,14.8z"/>
</svg>
