<?xml version="1.0" encoding="utf-8"?>
<!-- Generator: Adobe Illustrator 23.1.0, SVG Export Plug-In . SVG Version: 6.00 Build 0)  -->
<svg version="1.1" id="圖層_1" xmlns="http://www.w3.org/2000/svg" xmlns:xlink="http://www.w3.org/1999/xlink" x="0px" y="0px"
	 viewBox="0 0 40 40" style="enable-background:new 0 0 40 40;" xml:space="preserve">
<style type="text/css">
	.st0{fill:#A48E89;}
	.st1{fill:#3B1A16;}
	.st2{fill:#FBBB42;}
</style>
<g id="组_737" transform="translate(-14.135 -24.74)">
	<g id="组_368" transform="translate(14.135 26.47)">
		<path id="路径_426" class="st0" d="M14.6,12.9c0-2.8-2.2-5-5-5s-5,2.2-5,5c0,2,1.2,3.9,3.1,4.6V20l1.6,0.9l-1.6,0.9v2.7l1.6,0.9
			l-1.6,0.9v1.6l2.1,2.5l1.6-1.5V17.5C13.4,16.7,14.6,14.9,14.6,12.9L14.6,12.9z M9.7,10.3c0.9,0,1.7,0.7,1.7,1.7s-0.7,1.7-1.7,1.7
			S8,12.9,8,11.9l0,0C8,11,8.7,10.3,9.7,10.3z"/>
		<path id="路径_427" class="st1" d="M9.9,31L9.9,31c-0.2,0-0.4-0.1-0.5-0.2l-2.1-2.5c-0.1-0.1-0.1-0.3-0.1-0.4v-1.6
			c0-0.2,0.1-0.4,0.3-0.5l0.6-0.4L7.5,25c-0.2-0.1-0.3-0.3-0.3-0.5v-2.7c0-0.2,0.1-0.4,0.3-0.5l0.6-0.4l-0.6-0.4
			c-0.2-0.1-0.3-0.3-0.3-0.5v-2.1c-2.8-1.4-3.9-4.7-2.5-7.5C6,7.6,9.4,6.5,12.1,7.9s3.9,4.7,2.5,7.5c-0.5,1.1-1.4,2-2.5,2.5v11
			c0,0.2-0.1,0.3-0.2,0.5l-1.6,1.5C10.2,30.9,10.1,31,9.9,31L9.9,31z M8.4,27.6l1.6,1.8l0.9-0.9V17.5c0-0.3,0.2-0.5,0.4-0.6
			c2.2-0.9,3.3-3.4,2.4-5.7C12.8,9,10.3,7.9,8,8.8c-2.2,0.9-3.3,3.4-2.4,5.7c0.4,1.1,1.3,2,2.4,2.4c0.2,0.1,0.4,0.3,0.4,0.6v2.1
			l1.3,0.7c0.3,0.2,0.4,0.5,0.2,0.8c-0.1,0.1-0.1,0.2-0.2,0.2l-1.3,0.7v2l1.3,0.7c0.3,0.2,0.4,0.5,0.2,0.8c-0.1,0.1-0.1,0.2-0.2,0.2
			l-1.3,0.7L8.4,27.6z M11.5,28.9L11.5,28.9z M9.7,14.2c-1.3,0-2.3-1-2.3-2.3c0-1.3,1-2.3,2.3-2.3c1.3,0,2.3,1,2.3,2.3c0,0,0,0,0,0
			C11.9,13.2,10.9,14.2,9.7,14.2z M9.7,10.9c-0.6,0-1,0.5-1,1c0,0.6,0.5,1,1,1s1-0.5,1-1l0,0C10.7,11.4,10.2,10.9,9.7,10.9z"/>
	</g>
	<path id="路径_428" class="st1" d="M49.5,54.3H27.6c-0.3,0-0.6-0.3-0.6-0.6c0-0.3,0.3-0.6,0.6-0.6h21.8c0.3,0,0.6,0.3,0.6,0.6
		C50.1,54.1,49.8,54.3,49.5,54.3L49.5,54.3z"/>
	<g id="组_369" transform="translate(24.741 39.921)">
		<path id="路径_429" class="st0" d="M7.6,7.9l-2.9,2.9"/>
		<path id="路径_430" class="st1" d="M4.7,11.5c-0.3,0-0.6-0.3-0.6-0.6c0-0.2,0.1-0.3,0.2-0.4l2.9-2.9c0.2-0.2,0.6-0.2,0.9,0
			s0.2,0.6,0,0.9l-2.9,2.9C5,11.4,4.8,11.5,4.7,11.5z"/>
	</g>
	<g id="组_370" transform="translate(24.741 39.921)">
		<path id="路径_431" class="st0" d="M7.6,10.9L4.7,7.9"/>
		<path id="路径_432" class="st1" d="M7.6,11.5c-0.2,0-0.3-0.1-0.4-0.2L4.2,8.4C4,8.1,4,7.7,4.2,7.5s0.6-0.2,0.9,0l2.9,2.9
			c0.2,0.2,0.2,0.6,0,0.9C7.9,11.4,7.8,11.5,7.6,11.5L7.6,11.5z"/>
	</g>
	<g id="组_371" transform="translate(30.045 39.921)">
		<path id="路径_433" class="st0" d="M7.6,7.9l-2.9,2.9"/>
		<path id="路径_434" class="st1" d="M4.7,11.5c-0.3,0-0.6-0.3-0.6-0.6c0-0.2,0.1-0.3,0.2-0.4l2.9-2.9c0.2-0.2,0.6-0.2,0.9,0
			c0.2,0.2,0.2,0.6,0,0.9l-2.9,2.9C5,11.4,4.8,11.5,4.7,11.5z"/>
	</g>
	<g id="组_372" transform="translate(30.045 39.921)">
		<path id="路径_435" class="st0" d="M7.6,10.9L4.7,7.9"/>
		<path id="路径_436" class="st1" d="M7.6,11.5c-0.2,0-0.3-0.1-0.4-0.2L4.2,8.4C4,8.1,4,7.7,4.2,7.5s0.6-0.2,0.9,0l2.9,2.9
			c0.2,0.2,0.2,0.6,0,0.9C7.9,11.4,7.8,11.5,7.6,11.5L7.6,11.5z"/>
	</g>
	<g id="组_373" transform="translate(35.349 39.921)">
		<path id="路径_437" class="st0" d="M7.6,7.9l-2.9,2.9"/>
		<path id="路径_438" class="st1" d="M4.7,11.5c-0.3,0-0.6-0.3-0.6-0.6c0-0.2,0.1-0.3,0.2-0.4l2.9-2.9c0.2-0.2,0.6-0.2,0.9,0
			c0.2,0.2,0.2,0.6,0,0.9l-2.9,2.9C5,11.4,4.8,11.5,4.7,11.5z"/>
	</g>
	<g id="组_374" transform="translate(35.349 39.921)">
		<path id="路径_439" class="st0" d="M7.6,10.9L4.7,7.9"/>
		<path id="路径_440" class="st1" d="M7.6,11.5c-0.2,0-0.3-0.1-0.4-0.2L4.2,8.4C4,8.1,4,7.7,4.2,7.5s0.6-0.2,0.9,0l2.9,2.9
			c0.2,0.2,0.2,0.6,0,0.9C7.9,11.4,7.8,11.5,7.6,11.5L7.6,11.5z"/>
	</g>
	<g id="组_375" transform="translate(40.585 39.921)">
		<path id="路径_441" class="st0" d="M7.6,7.9l-2.9,2.9"/>
		<path id="路径_442" class="st1" d="M4.7,11.5c-0.3,0-0.6-0.3-0.6-0.6c0-0.2,0.1-0.3,0.2-0.4l2.9-2.9c0.2-0.2,0.6-0.2,0.9,0
			c0.2,0.2,0.2,0.6,0,0.9l-2.9,2.9C5,11.4,4.8,11.5,4.7,11.5z"/>
	</g>
	<g id="组_376" transform="translate(40.585 39.921)">
		<path id="路径_443" class="st0" d="M7.6,10.9L4.7,7.9"/>
		<path id="路径_444" class="st1" d="M7.6,11.5c-0.2,0-0.3-0.1-0.4-0.2L4.2,8.4C4,8.1,4,7.7,4.2,7.5s0.6-0.2,0.9,0l2.9,2.9
			c0.2,0.2,0.2,0.6,0,0.9C7.9,11.4,7.8,11.5,7.6,11.5L7.6,11.5z"/>
	</g>
	<g id="组_377" transform="translate(28.208 24.74)">
		<path id="路径_445" class="st2" d="M10,7.9c-1.9,2.2-5.3,2.4-5.3,2.4c1,7,5.3,8,5.3,8s4.4-1,5.3-8C15.4,10.3,11.8,10.1,10,7.9z"
			/>
		<path id="路径_446" class="st1" d="M10,18.9c0,0-0.1,0-0.1,0c-0.2,0-4.8-1.2-5.8-8.5C4,10,4.3,9.7,4.6,9.7c0,0,0,0,0.1,0
			c0,0,3.2-0.2,4.9-2.2c0.2-0.3,0.6-0.3,0.9-0.1c0,0,0.1,0.1,0.1,0.1c1.6,2,4.9,2.1,4.9,2.1c0.3,0,0.6,0.3,0.6,0.7c0,0,0,0,0,0.1
			c-1,7.4-5.6,8.5-5.8,8.5C10.1,18.9,10.1,18.9,10,18.9L10,18.9z M5.4,10.8c0.9,5.3,3.9,6.6,4.6,6.8c0.7-0.2,3.7-1.5,4.6-6.8
			c-1.7-0.2-3.3-0.9-4.6-2C8.7,9.9,7.1,10.6,5.4,10.8L5.4,10.8z"/>
	</g>
	<path id="路径_447" class="st1" d="M37.8,39.5c-0.2,0-0.4-0.1-0.5-0.2l-1-1.2c-0.2-0.3-0.2-0.6,0-0.9c0.3-0.2,0.6-0.2,0.9,0
		c0,0,0,0,0,0l0.5,0.6l1.7-2.2c0.2-0.3,0.6-0.3,0.9-0.1s0.3,0.6,0.1,0.9l0,0l-2.2,2.8C38.2,39.4,38,39.5,37.8,39.5L37.8,39.5z"/>
</g>
</svg>
