<?xml version="1.0" encoding="utf-8"?>
<!-- Generator: Adobe Illustrator 23.1.0, SVG Export Plug-In . SVG Version: 6.00 Build 0)  -->
<svg version="1.1" id="圖層_1" xmlns="http://www.w3.org/2000/svg" xmlns:xlink="http://www.w3.org/1999/xlink" x="0px" y="0px"
	 viewBox="0 0 30 30" style="enable-background:new 0 0 30 30;" xml:space="preserve">
<style type="text/css">
	.st0{clip-path:url(#SVGID_2_);}
	.st1{fill:#939491;}
</style>
<g>
	<defs>
		<rect id="SVGID_1_" width="30" height="30"/>
	</defs>
	<clipPath id="SVGID_2_">
		<use xlink:href="#SVGID_1_"  style="overflow:visible;"/>
	</clipPath>
	<g id="share" class="st0">
		<g id="组_648" transform="translate(-153 -406.881)">
			<g id="组_301" transform="translate(142.167 397.785)">
				<path id="路径_271" class="st1" d="M30.4,20.6c-2.1,0-3.8-1.7-3.8-3.8c0-2.1,1.7-3.8,3.8-3.8c2.1,0,3.8,1.7,3.8,3.8
					C34.2,18.9,32.5,20.6,30.4,20.6z M30.4,13.9c-1.6,0-2.9,1.3-2.9,2.9c0,1.6,1.3,2.9,2.9,2.9c1.6,0,2.9-1.3,2.9-2.9
					C33.3,15.2,32,13.9,30.4,13.9z"/>
				<path id="路径_272" class="st1" d="M19.6,29.2c-2.1,0-3.8-1.7-3.8-3.8c0-2.1,1.7-3.8,3.8-3.8s3.8,1.7,3.8,3.8l0,0
					C23.3,27.5,21.7,29.2,19.6,29.2z M19.6,22.5c-1.6,0-2.9,1.3-2.9,2.9c0,1.6,1.3,2.9,2.9,2.9s2.9-1.3,2.9-2.9c0,0,0,0,0,0
					C22.5,23.9,21.2,22.6,19.6,22.5z"/>
				<path id="路径_273" class="st1" d="M33,34.2c-2.1,0-3.8-1.7-3.8-3.8c0-2.1,1.7-3.8,3.8-3.8c2.1,0,3.8,1.7,3.8,3.8
					C36.7,32.5,35.1,34.2,33,34.2z M33,27.5c-1.6,0-2.9,1.3-2.9,2.9c0,1.6,1.3,2.9,2.9,2.9c1.6,0,2.9-1.3,2.9-2.9c0,0,0,0,0,0
					C35.9,28.8,34.6,27.5,33,27.5z"/>
				<path id="路径_274" class="st1" d="M21.8,23.3c-0.2,0-0.4-0.2-0.4-0.4c0-0.1,0.1-0.3,0.2-0.3l5.7-4.5c0.2-0.1,0.5-0.1,0.6,0.1
					c0.1,0.2,0.1,0.5-0.1,0.6l0,0L22,23.3C21.9,23.3,21.8,23.3,21.8,23.3z"/>
				<path id="路径_275" class="st1" d="M29.7,30.7c0,0-0.1,0-0.1,0l-7.7-2.5c-0.2-0.1-0.3-0.3-0.3-0.5c0.1-0.2,0.3-0.3,0.5-0.3
					l0,0l7.7,2.5c0.2,0.1,0.3,0.3,0.3,0.5C30,30.6,29.8,30.7,29.7,30.7L29.7,30.7z"/>
			</g>
		</g>
	</g>
</g>
</svg>
