<?xml version="1.0" encoding="utf-8"?>
<!-- Generator: Adobe Illustrator 23.1.0, SVG Export Plug-In . SVG Version: 6.00 Build 0)  -->
<svg version="1.1" id="圖層_1" xmlns="http://www.w3.org/2000/svg" xmlns:xlink="http://www.w3.org/1999/xlink" x="0px" y="0px"
	 viewBox="0 0 56 56" style="enable-background:new 0 0 56 56;" xml:space="preserve">
<style type="text/css">
	.st0{clip-path:url(#SVGID_2_);}
	.st1{fill:#D4D5D5;}
	.st2{fill:#EAC759;}
	.st3{fill:#E1C059;}
	.st4{fill:#836F75;}
</style>
<g>
	<defs>
		<rect id="SVGID_1_" width="56" height="56"/>
	</defs>
	<clipPath id="SVGID_2_">
		<use xlink:href="#SVGID_1_"  style="overflow:visible;"/>
	</clipPath>
	<g id="store_menu_comment" class="st0">
		<g id="组_703" transform="translate(-713 -244)">
			<g id="组_702" transform="translate(713 244)">
				<path id="路径_114" class="st1" d="M28,56c-7.4,0-14.6-2.9-19.8-8.2C8,47.6,8,47.2,8.2,47s0.6-0.2,0.8,0
					c10.5,10.5,27.5,10.5,38,0s10.5-27.5,0-38c-5-5-11.9-7.9-19-7.9C20.9,1.1,14,3.9,9,9C8.8,9.2,8.4,9.2,8.2,9C8,8.8,8,8.4,8.2,8.2
					c10.9-10.9,28.7-10.9,39.6,0s10.9,28.7,0,39.6C42.5,53,35.4,56,28,56L28,56z"/>
				<path id="路径_115" class="st2" d="M8.6,48c-0.2,0-0.3-0.1-0.4-0.2C-2.7,36.9-2.7,19.1,8.2,8.2c0,0,0,0,0,0C8.4,8,8.8,8,9,8.2
					C9.2,8.4,9.2,8.8,9,9C-1.5,19.5-1.5,36.5,9,47c0.2,0.2,0.2,0.6,0,0.8C8.9,47.9,8.8,48,8.6,48L8.6,48z"/>
			</g>
		</g>
		<g id="组_211" transform="translate(12 10)">
			<path id="路径_123" class="st3" d="M23.2,0.5l2,4.1c0.1,0.3,0.4,0.5,0.7,0.5l4.5,0.7c0.5,0.1,0.9,0.6,0.8,1.1
				c0,0.2-0.1,0.4-0.3,0.6l-3.2,3.2c-0.2,0.2-0.3,0.6-0.3,0.9l0.8,4.5c0.1,0.5-0.3,1-0.8,1.1c-0.2,0-0.4,0-0.6-0.1l-4-2.1
				c-0.3-0.2-0.6-0.2-0.9,0l-4,2.1c-0.5,0.3-1.1,0.1-1.3-0.4c-0.1-0.2-0.1-0.4-0.1-0.6l0.8-4.5c0.1-0.3-0.1-0.6-0.3-0.9l-3.2-3.2
				c-0.4-0.4-0.4-1,0-1.4c0.2-0.2,0.3-0.3,0.6-0.3l4.5-0.7c0.3,0,0.6-0.2,0.7-0.5l2-4.1c0.2-0.5,0.8-0.7,1.3-0.5
				C22.9,0.2,23.1,0.4,23.2,0.5z"/>
			<path id="路径_124" class="st4" d="M3.5,35.4c-0.3,0-0.6-0.2-0.7-0.6L0,23.3c-0.1-0.4,0.1-0.8,0.5-0.9l4.3-1c0.1,0,0.1,0,0.2,0
				c0.3,0,0.6,0.2,0.7,0.6c0,0.1,0.1,0.2,0.2,0.3c0.1,0,0.1,0,0.2,0c0.1,0,0.1,0,0.2,0l1-0.6c1.2-0.7,1.7-2,1.4-3.3l-0.2-0.9
				c-0.4-1.6,0.6-3.2,2.2-3.6c1.6-0.4,3.2,0.6,3.6,2.2l0.6,2.5c0,0.2,0.3,0.3,0.5,0.3l1.1-0.3c2-0.5,4,0.7,4.4,2.7c0,0,0,0,0,0
				l1.4,5.8c0.5,2-0.7,4-2.7,4.4l-7.2,1.7c-0.4,0.1-0.9,0.2-1.4,0.2l0,0c-0.6,0-1.3-0.1-1.9-0.3c-0.2-0.1-0.4,0-0.5,0.2
				c0,0.1,0,0.1,0,0.2c0,0.4-0.2,0.7-0.5,0.8l-4.3,1C3.6,35.4,3.6,35.4,3.5,35.4z M4.2,23.1C4.2,23.1,4.2,23.1,4.2,23.1L2,23.6
				c-0.2,0-0.3,0.3-0.3,0.5c0,0,0,0,0,0L4,33.4c0,0.2,0.2,0.3,0.4,0.3c0,0,0.1,0,0.1,0l2.2-0.5c0.2,0,0.3-0.3,0.3-0.5l-2.3-9.3
				C4.6,23.2,4.4,23.1,4.2,23.1z M11.4,15.3c-0.8,0-1.5,0.7-1.5,1.5c0,0.1,0,0.2,0,0.4l0.2,0.9c0.5,1.9-0.4,3.9-2.1,4.9l-1.5,0.9
				c-0.1,0.1-0.2,0.3-0.2,0.4l1.6,6.4c0,0.1,0.1,0.1,0.1,0.2c1.1,1,2.6,1.4,4,1l7.2-1.7c1.2-0.3,1.9-1.5,1.6-2.7l-1.4-5.8
				c-0.3-1.2-1.5-1.9-2.7-1.6c0,0,0,0,0,0l-2.2,0.5c-0.4,0.1-0.8-0.1-0.9-0.5c0,0,0,0,0,0l-0.9-3.6C12.6,15.7,12,15.3,11.4,15.3z"/>
		</g>
	</g>
</g>
</svg>
