<?xml version="1.0" encoding="utf-8"?>
<!-- Generator: Adobe Illustrator 23.1.0, SVG Export Plug-In . SVG Version: 6.00 Build 0)  -->
<svg version="1.1" id="圖層_1" xmlns="http://www.w3.org/2000/svg" xmlns:xlink="http://www.w3.org/1999/xlink" x="0px" y="0px"
	 viewBox="0 0 56 56" style="enable-background:new 0 0 56 56;" xml:space="preserve">
<style type="text/css">
	.st0{clip-path:url(#SVGID_2_);}
	.st1{fill:#D4D5D5;}
	.st2{fill:#EAC759;}
	.st3{fill:#6E5B61;}
</style>
<g>
	<defs>
		<rect id="SVGID_1_" width="56" height="56"/>
	</defs>
	<clipPath id="SVGID_2_">
		<use xlink:href="#SVGID_1_"  style="overflow:visible;"/>
	</clipPath>
	<g id="store_menu_about" class="st0">
		<g id="组_703" transform="translate(-713 -244)">
			<g id="组_702" transform="translate(713 244)">
				<path id="路径_114" class="st1" d="M28,56c-7.4,0-14.6-2.9-19.8-8.2C8,47.6,8,47.2,8.2,47s0.6-0.2,0.8,0
					c10.5,10.5,27.5,10.5,38,0s10.5-27.5,0-38c-5-5-11.9-7.9-19-7.9C20.9,1.1,14,3.9,9,9C8.8,9.2,8.4,9.2,8.2,9C8,8.8,8,8.4,8.2,8.2
					c10.9-10.9,28.7-10.9,39.6,0s10.9,28.7,0,39.6C42.5,53,35.4,56,28,56L28,56z"/>
				<path id="路径_115" class="st2" d="M8.6,48c-0.2,0-0.3-0.1-0.4-0.2C-2.7,36.9-2.7,19.1,8.2,8.2c0,0,0,0,0,0C8.4,8,8.8,8,9,8.2
					C9.2,8.4,9.2,8.8,9,9C-1.5,19.5-1.5,36.5,9,47c0.2,0.2,0.2,0.6,0,0.8C8.9,47.9,8.8,48,8.6,48L8.6,48z"/>
			</g>
		</g>
		<g id="组_599" transform="translate(-25.276 -23.203)">
			<path id="路径_1086" class="st2" d="M66.3,47.9h-6.1v-5.2h6.1l-2,2.3L66.3,47.9z"/>
			<g id="组_598" transform="translate(40.276 37.203)">
				<path id="路径_1087" class="st3" d="M0.5,25.1c-0.3,0-0.5-0.2-0.5-0.5V3.4C0,1.5,1.5,0,3.4,0h16.2c0.3,0,0.5,0.2,0.5,0.5v20.9
					c0,0.3-0.2,0.5-0.5,0.5S19,21.7,19,21.4v-20c0-0.2-0.2-0.4-0.4-0.4l0,0H3.4c-1.3,0-2.3,1-2.3,2.3v21.2
					C1.1,24.9,0.8,25.1,0.5,25.1C0.5,25.1,0.5,25.1,0.5,25.1z"/>
				<path id="路径_1088" class="st3" d="M3.7,28.3c-2.1,0-3.7-1.7-3.7-3.8c0-2,1.7-3.6,3.7-3.7h15.9c0.3,0,0.5,0.2,0.5,0.5
					c0,0.3-0.2,0.5-0.5,0.5H3.7c-1.5,0-2.7,1.2-2.7,2.7c0,1.5,1.2,2.7,2.7,2.7h15.9c0.3,0,0.5,0.2,0.5,0.5s-0.2,0.5-0.5,0.5H3.7z"/>
				<path id="路径_1089" class="st3" d="M3.6,25.1c-0.3,0-0.5-0.2-0.5-0.5S3.3,24,3.6,24h15.9c0.3,0,0.5,0.2,0.5,0.5
					s-0.2,0.5-0.5,0.5H3.6z"/>
				<path id="路径_1090" class="st3" d="M4.6,22c-0.3,0-0.5-0.2-0.5-0.5v-21C4.1,0.2,4.3,0,4.6,0c0.3,0,0.5,0.2,0.5,0.5
					c0,0,0,0,0,0v21C5.2,21.8,4.9,22,4.6,22z"/>
			</g>
		</g>
	</g>
</g>
</svg>
