<?xml version="1.0" encoding="utf-8"?>
<!-- Generator: Adobe Illustrator 23.1.0, SVG Export Plug-In . SVG Version: 6.00 Build 0)  -->
<svg version="1.1" id="圖層_1" xmlns="http://www.w3.org/2000/svg" xmlns:xlink="http://www.w3.org/1999/xlink" x="0px" y="0px"
	 viewBox="0 0 56 56" style="enable-background:new 0 0 56 56;" xml:space="preserve">
<style type="text/css">
	.st0{clip-path:url(#SVGID_2_);}
	.st1{fill:#D4D5D5;}
	.st2{fill:#EAC759;}
	.st3{fill:#836F75;}
</style>
<g>
	<defs>
		<rect id="SVGID_1_" width="56" height="56"/>
	</defs>
	<clipPath id="SVGID_2_">
		<use xlink:href="#SVGID_1_"  style="overflow:visible;"/>
	</clipPath>
	<g id="store_menu_order" class="st0">
		<g id="组_703" transform="translate(-713 -244)">
			<g id="组_702" transform="translate(713 244)">
				<path id="路径_114" class="st1" d="M28,56c-7.4,0-14.6-2.9-19.8-8.2C8,47.6,8,47.2,8.2,47s0.6-0.2,0.8,0
					c10.5,10.5,27.5,10.5,38,0s10.5-27.5,0-38c-5-5-11.9-7.9-19-7.9C20.9,1.1,14,3.9,9,9C8.8,9.2,8.4,9.2,8.2,9C8,8.8,8,8.4,8.2,8.2
					c10.9-10.9,28.7-10.9,39.6,0s10.9,28.7,0,39.6C42.5,53,35.4,56,28,56L28,56z"/>
				<path id="路径_115" class="st2" d="M8.6,48c-0.2,0-0.3-0.1-0.4-0.2C-2.7,36.9-2.7,19.1,8.2,8.2c0,0,0,0,0,0C8.4,8,8.8,8,9,8.2
					C9.2,8.4,9.2,8.8,9,9C-1.5,19.5-1.5,36.5,9,47c0.2,0.2,0.2,0.6,0,0.8C8.9,47.9,8.8,48,8.6,48L8.6,48z"/>
			</g>
		</g>
		<g id="组_704" transform="translate(-935.515 -213.57)">
			<path id="路径_127" class="st3" d="M971,259.9c-0.8,0-1.7-0.4-2.2-1c-0.5-0.6-0.8-1.3-0.7-2.1l0.7-15.7c0-0.2-0.1-0.3-0.2-0.4
				c-1.2-0.7-2.1-1.8-2.4-3.2c-0.3-1.7-0.2-3.5,0.3-5.2l0.6-2.1c0.4-1.2,1.4-2.1,2.5-2.5c2.1-0.7,4.4,0.4,5.2,2.5c0,0,0,0,0,0l0.6,2
				c0.5,1.7,0.6,3.4,0.3,5.2c-0.3,1.4-1.1,2.6-2.4,3.2c-0.1,0.1-0.2,0.2-0.2,0.4l0.7,15.7c0.1,0.7-0.2,1.5-0.7,2.1
				c-0.1,0.1-0.1,0.1-0.2,0.2C972.5,259.7,971.7,259.9,971,259.9L971,259.9z M971,228.8c-1.2,0-2.3,0.8-2.7,1.9l-0.6,2.1
				c-0.5,1.5-0.5,3.1-0.3,4.6c0.2,1.2,1.1,2.2,2.3,2.6c0.2,0.1,0.4,0.3,0.4,0.6l-0.7,16.4c-0.1,0.4,0.1,0.9,0.4,1.2
				c0.7,0.7,1.9,0.8,2.7,0c0,0,0,0,0,0c0.3-0.3,0.5-0.8,0.4-1.2l-0.7-16.4c0-0.3,0.1-0.5,0.4-0.6c1.2-0.4,2-1.4,2.3-2.6
				c0.3-1.5,0.2-3.1-0.3-4.6l-0.6-2.1C973.3,229.6,972.2,228.8,971,228.8L971,228.8z"/>
			<path id="路径_128" class="st3" d="M956.9,259.9c-1.6-0.1-2.8-1.4-2.8-3l0.8-16.6c0-0.1,0-0.2-0.1-0.3l-2.6-2.6
				c-0.1-0.1-0.2-0.3-0.2-0.4v-8.8c0-0.3,0.2-0.6,0.6-0.6c0.3,0,0.6,0.2,0.6,0.6c0,0,0,0,0,0v8.4c0,0.1,0,0.2,0.1,0.3l2.6,2.6
				c0.1,0.1,0.2,0.3,0.2,0.4l-0.9,17c0,0.5,0.1,0.9,0.5,1.3c0.7,0.7,1.8,0.7,2.5,0c0,0,0,0,0,0c0.3-0.3,0.5-0.8,0.5-1.3l-0.9-17
				c0-0.2,0.1-0.3,0.2-0.4l2.6-2.6c0.1-0.1,0.1-0.2,0.1-0.3v-8.4c0-0.3,0.3-0.6,0.6-0.6s0.6,0.3,0.6,0.6c0,0,0,0,0,0v8.8
				c0,0.2-0.1,0.3-0.2,0.4l-2.6,2.6c-0.1,0.1-0.1,0.2-0.1,0.3l0.8,16.6c0,0.1,0,0.2,0,0.3c-0.1,1.5-1.3,2.8-2.9,2.8
				C957,259.9,956.9,259.9,956.9,259.9z"/>
			<path id="路径_129" class="st3" d="M955.6,237.1c-0.3,0-0.6-0.3-0.6-0.6v-7.8c0-0.3,0.2-0.6,0.6-0.6c0.3,0,0.6,0.2,0.6,0.6
				c0,0,0,0,0,0v7.8C956.1,236.9,955.9,237.1,955.6,237.1z"/>
			<path id="路径_130" class="st3" d="M958.4,237.1c-0.3,0-0.6-0.3-0.6-0.6v-7.8c0-0.3,0.2-0.6,0.6-0.6c0.3,0,0.6,0.2,0.6,0.6
				c0,0,0,0,0,0v7.8C958.9,236.9,958.7,237.1,958.4,237.1z"/>
			<path id="路径_131" class="st3" d="M976.4,255.6c-0.3,0-0.6-0.3-0.6-0.6c0-0.2,0.1-0.3,0.2-0.4c6.5-6.6,7-17.1,1.1-24.2
				c-0.2-0.2-0.2-0.6,0.1-0.8l0,0c0.1-0.1,0.2-0.1,0.4-0.1c0.2,0,0.3,0.1,0.4,0.2c6.4,7.6,5.9,18.8-1.1,25.8
				C976.7,255.6,976.6,255.6,976.4,255.6z"/>
			<g id="组_214" transform="translate(956.941 223.57)">
				<path id="路径_132" class="st3" d="M0.6,2.7L0.6,2.7z"/>
				<path id="路径_133" class="st3" d="M0.6,2.7L0.6,2.7z"/>
				<path id="路径_134" class="st3" d="M0.6,2.4C0.3,2.3,0,2.1,0,1.8c0-0.2,0.2-0.5,0.4-0.5C4-0.1,7.9-0.4,11.6,0.5
					c0.3,0.1,0.5,0.4,0.4,0.7c-0.1,0.3-0.3,0.4-0.6,0.4l0,0c0,0-0.1,0-0.1,0C7.8,0.8,4.2,1.1,0.8,2.3C0.7,2.3,0.7,2.3,0.6,2.4z"/>
			</g>
			<path id="路径_135" class="st3" d="M951.5,255.6c-0.2,0-0.3-0.1-0.4-0.2c-6.6-6.6-7.5-17.1-1.9-24.7c0.1-0.2,0.3-0.3,0.5-0.3
				c0.3,0,0.6,0.3,0.6,0.6c0,0.1,0,0.3-0.1,0.4c-2.2,3.1-3.4,6.7-3.4,10.5c0,4.7,1.9,9.3,5.2,12.6c0.2,0.2,0.2,0.6,0,0.8
				C951.8,255.5,951.7,255.6,951.5,255.6L951.5,255.6z"/>
		</g>
	</g>
</g>
</svg>
