<?xml version="1.0" encoding="utf-8"?>
<!-- Generator: Adobe Illustrator 23.1.0, SVG Export Plug-In . SVG Version: 6.00 Build 0)  -->
<svg version="1.1" id="圖層_1" xmlns="http://www.w3.org/2000/svg" xmlns:xlink="http://www.w3.org/1999/xlink" x="0px" y="0px"
	 viewBox="0 0 56 56" style="enable-background:new 0 0 56 56;" xml:space="preserve">
<style type="text/css">
	.st0{clip-path:url(#SVGID_2_);}
	.st1{fill:#D4D5D5;}
	.st2{fill:#EAC759;}
	.st3{fill:#D982A7;}
	.st4{fill:#836F75;}
	.st5{fill:#474645;}
</style>
<g>
	<defs>
		<rect id="SVGID_1_" width="56" height="56"/>
	</defs>
	<clipPath id="SVGID_2_">
		<use xlink:href="#SVGID_1_"  style="overflow:visible;"/>
	</clipPath>
	<g id="store_menu_waitting" class="st0">
		<g id="组_703" transform="translate(-713 -244)">
			<g id="组_702" transform="translate(713 244)">
				<path id="路径_114" class="st1" d="M28,56c-7.4,0-14.6-2.9-19.8-8.2C8,47.6,8,47.2,8.2,47s0.6-0.2,0.8,0
					c10.5,10.5,27.5,10.5,38,0s10.5-27.5,0-38c-5-5-11.9-7.9-19-7.9C20.9,1.1,14,3.9,9,9C8.8,9.2,8.4,9.2,8.2,9C8,8.8,8,8.4,8.2,8.2
					c10.9-10.9,28.7-10.9,39.6,0s10.9,28.7,0,39.6C42.5,53,35.4,56,28,56L28,56z"/>
				<path id="路径_115" class="st2" d="M8.6,48c-0.2,0-0.3-0.1-0.4-0.2C-2.7,36.9-2.7,19.1,8.2,8.2c0,0,0,0,0,0C8.4,8,8.8,8,9,8.2
					C9.2,8.4,9.2,8.8,9,9C-1.5,19.5-1.5,36.5,9,47c0.2,0.2,0.2,0.6,0,0.8C8.9,47.9,8.8,48,8.6,48L8.6,48z"/>
			</g>
		</g>
		<g id="组_217" transform="translate(13 15)">
			<path id="路径_138" class="st3" d="M12.3,7.9H5.2C5,7.9,4.8,7.7,4.8,7.5c0,0,0,0,0,0V0.4C4.8,0.2,5,0,5.2,0c0,0,0,0,0,0h7.1
				c0.2,0,0.4,0.2,0.4,0.4c0,0,0,0,0,0v7.1C12.7,7.7,12.5,7.9,12.3,7.9z M5.6,7.1h6.3V0.8H5.6V7.1z"/>
			<path id="路径_139" class="st3" d="M8.2,5.7L8.2,5.7C8,5.7,7.9,5.6,7.9,5.5L6.5,3.9C6.4,3.7,6.4,3.5,6.6,3.3S7,3.2,7.1,3.4
				l1.1,1.3l2.4-2.4c0.2-0.2,0.4-0.2,0.6,0c0.2,0.2,0.2,0.4,0,0.6l0,0L8.4,5.6C8.4,5.6,8.3,5.7,8.2,5.7L8.2,5.7z"/>
			<path id="路径_140" class="st4" d="M16.9,8.9H0.6C0.3,8.9,0,8.7,0,8.4c0-0.3,0.3-0.6,0.6-0.6h16.4c0.3,0,0.6,0.3,0.6,0.6
				C17.5,8.7,17.3,8.9,16.9,8.9z"/>
			<path id="路径_141" class="st4" d="M2.3,26.7c-0.3,0-0.6-0.3-0.6-0.6V8.4c0-0.3,0.3-0.6,0.6-0.6c0.3,0,0.6,0.3,0.6,0.6v17.7
				C2.9,26.4,2.6,26.7,2.3,26.7z"/>
			<path id="路径_142" class="st4" d="M14.8,26.7c-0.3,0-0.6-0.3-0.6-0.6V8.4c0-0.3,0.3-0.6,0.6-0.6c0.3,0,0.6,0.3,0.6,0.6v17.7
				C15.4,26.4,15.1,26.7,14.8,26.7L14.8,26.7z"/>
			<path id="路径_143" class="st4" d="M28.5,15.9H19c-0.3,0-0.6-0.3-0.6-0.6c0-0.3,0.3-0.6,0.6-0.6h8.9c0.1-3.6,0.6-7.2,1.5-10.6
				c0.1-0.3,0.4-0.5,0.7-0.4c0.3,0.1,0.5,0.4,0.4,0.7C29.6,8,29.1,11.6,29,15.3C29.1,15.6,28.8,15.9,28.5,15.9
				C28.5,15.9,28.5,15.9,28.5,15.9z"/>
			<path id="路径_144" class="st5" d="M19,26.7c-0.3,0-0.6-0.3-0.6-0.6c0,0,0-0.1,0-0.1l1.4-10.5c0-0.3,0.3-0.5,0.6-0.5
				c0.3,0,0.5,0.3,0.5,0.6c0,0,0,0,0,0l-1.4,10.5C19.5,26.4,19.3,26.7,19,26.7z"/>
			<path id="路径_145" class="st4" d="M19,26.7c-0.3,0-0.6-0.3-0.6-0.6c0,0,0-0.1,0-0.1l1.4-10.5c0-0.3,0.3-0.5,0.6-0.5
				c0.3,0,0.5,0.3,0.5,0.6c0,0,0,0,0,0l-1.4,10.5C19.5,26.4,19.3,26.7,19,26.7z"/>
			<path id="路径_146" class="st4" d="M27.9,26.7c-0.3,0-0.5-0.2-0.6-0.5l-1.4-10.5c-0.1-0.3,0.2-0.6,0.5-0.7s0.6,0.2,0.7,0.5
				c0,0,0,0,0,0L28.5,26C28.5,26.3,28.3,26.6,27.9,26.7C27.9,26.6,27.9,26.7,27.9,26.7L27.9,26.7z"/>
		</g>
	</g>
</g>
</svg>
