<?xml version="1.0" encoding="utf-8"?>
<!-- Generator: Adobe Illustrator 23.1.0, SVG Export Plug-In . SVG Version: 6.00 Build 0)  -->
<svg version="1.1" id="圖層_1" xmlns="http://www.w3.org/2000/svg" xmlns:xlink="http://www.w3.org/1999/xlink" x="0px" y="0px"
	 viewBox="0 0 56 56" style="enable-background:new 0 0 56 56;" xml:space="preserve">
<style type="text/css">
	.st0{clip-path:url(#SVGID_2_);}
	.st1{fill:#D4D5D5;}
	.st2{fill:#EAC759;}
	.st3{fill:#836F75;}
	.st4{fill:#FFFFFF;}
	.st5{fill:#D982A7;}
</style>
<g>
	<defs>
		<rect id="SVGID_1_" width="56" height="56"/>
	</defs>
	<clipPath id="SVGID_2_">
		<use xlink:href="#SVGID_1_"  style="overflow:visible;"/>
	</clipPath>
	<g id="store_menu_opinion" class="st0">
		<g id="组_703" transform="translate(-713 -244)">
			<g id="组_702" transform="translate(713 244)">
				<path id="路径_114" class="st1" d="M28,56c-7.4,0-14.6-2.9-19.8-8.2C8,47.6,8,47.2,8.2,47s0.6-0.2,0.8,0
					c10.5,10.5,27.5,10.5,38,0s10.5-27.5,0-38c-5-5-11.9-7.9-19-7.9C20.9,1.1,14,3.9,9,9C8.8,9.2,8.4,9.2,8.2,9C8,8.8,8,8.4,8.2,8.2
					c10.9-10.9,28.7-10.9,39.6,0s10.9,28.7,0,39.6C42.5,53,35.4,56,28,56L28,56z"/>
				<path id="路径_115" class="st2" d="M8.6,48c-0.2,0-0.3-0.1-0.4-0.2C-2.7,36.9-2.7,19.1,8.2,8.2c0,0,0,0,0,0C8.4,8,8.8,8,9,8.2
					C9.2,8.4,9.2,8.8,9,9C-1.5,19.5-1.5,36.5,9,47c0.2,0.2,0.2,0.6,0,0.8C8.9,47.9,8.8,48,8.6,48L8.6,48z"/>
			</g>
		</g>
		<g id="组_701" transform="translate(-0.406 -0.168)">
			<g id="组_208" transform="translate(14.406 14.168)">
				<path id="路径_116" class="st3" d="M27.6,28.7H0.6c-0.3,0-0.6-0.3-0.6-0.6c0,0,0,0,0,0V12.3c0-0.3,0.3-0.6,0.6-0.6
					c0,0,0,0,0,0h27.1c0.3,0,0.6,0.3,0.6,0.6v0v15.8C28.2,28.4,27.9,28.7,27.6,28.7C27.6,28.7,27.6,28.7,27.6,28.7z M1.1,27.5h25.9
					V12.8H1.1L1.1,27.5z"/>
				<path id="路径_117" class="st3" d="M27.4,20H0.6C0.3,20,0,19.7,0,19.4c0-0.3,0.3-0.6,0.6-0.6c0,0,0,0,0,0h26.9
					c0.3,0,0.6,0.3,0.6,0.6C28,19.7,27.8,20,27.4,20z"/>
				<path id="路径_118" class="st3" d="M23.2,16.6H4.6C4.3,16.6,4,16.3,4,16c0-0.3,0.3-0.6,0.6-0.6h18.6c0.3,0,0.6,0.3,0.6,0.6
					C23.8,16.3,23.5,16.6,23.2,16.6C23.2,16.6,23.2,16.6,23.2,16.6z"/>
				<g id="组_207" transform="translate(6.899)">
					<path id="路径_1085" class="st4" d="M0.6,0.6h13.2V16H0.6V0.6z"/>
					<path id="路径_119" class="st3" d="M13.8,16.6H0.6C0.3,16.6,0,16.3,0,16V0.6C0,0.3,0.3,0,0.6,0h13.2c0.3,0,0.6,0.3,0.6,0.6
						c0,0,0,0,0,0V16C14.3,16.3,14.1,16.6,13.8,16.6z M1.1,15.5h12.1V1.1H1.1V15.5z"/>
				</g>
			</g>
			<path id="路径_120" class="st5" d="M28.5,24c-0.6,0-1-0.5-1-1v-4.1c0-0.6,0.5-1,1-1c0.6,0,1,0.5,1,1V23
				C29.5,23.6,29.1,24,28.5,24z"/>
			<circle id="椭圆_23" class="st5" cx="28.5" cy="26" r="1"/>
		</g>
	</g>
</g>
</svg>
