<?xml version="1.0" encoding="utf-8"?>
<!-- Generator: Adobe Illustrator 23.1.0, SVG Export Plug-In . SVG Version: 6.00 Build 0)  -->
<svg version="1.1" id="圖層_1" xmlns="http://www.w3.org/2000/svg" xmlns:xlink="http://www.w3.org/1999/xlink" x="0px" y="0px"
	 viewBox="0 0 18 18" style="enable-background:new 0 0 18 18;" xml:space="preserve">
<style type="text/css">
	.st0{clip-path:url(#SVGID_2_);}
	.st1{fill:#E37E84;}
</style>
<g>
	<defs>
		<rect id="SVGID_1_" width="18" height="18"/>
	</defs>
	<clipPath id="SVGID_2_">
		<use xlink:href="#SVGID_1_"  style="overflow:visible;"/>
	</clipPath>
	<g id="tag" class="st0">
		<g id="组_684" transform="translate(237.99 -162.109) rotate(-30)">
			<g id="组_656" transform="translate(-291.166 28.32)">
				<g id="组_655" transform="translate(0 0)">
					<path id="路径_1116" class="st1" d="M13.7,3.8c0.2,0,0.3-0.1,0.3-0.3c0,0,0,0,0,0V1.2C14,0.5,13.5,0,12.8,0L1.2,0
						C0.5,0,0,0.5,0,1.2l0,2.3c0,0.2,0.1,0.3,0.3,0.3c0,0,0,0,0,0c0.8,0,1.5,0.7,1.5,1.5c0,0.8-0.7,1.5-1.5,1.5C0.1,6.7,0,6.8,0,7
						c0,0,0,0,0,0l0,2.3c0,0.6,0.5,1.2,1.2,1.2l11.7,0c0.6,0,1.2-0.5,1.2-1.2V7c0-0.2-0.1-0.3-0.3-0.3c0,0,0,0,0,0
						c-0.8,0-1.5-0.7-1.5-1.5C12.3,4.4,12.9,3.8,13.7,3.8z M11.7,5.2c0,1,0.7,1.9,1.8,2v2.1c0,0.3-0.3,0.6-0.6,0.6l-11.7,0
						c-0.3,0-0.6-0.3-0.6-0.6l0-2.1c1-0.1,1.7-1,1.8-2c0-1-0.7-1.9-1.8-2l0-2.1c0-0.3,0.3-0.6,0.6-0.6c0,0,0,0,0,0l11.7,0
						c0.3,0,0.6,0.3,0.6,0.6v2.1C12.4,3.4,11.7,4.2,11.7,5.2z"/>
					<path id="路径_1117" class="st1" d="M3.8,1.1c-0.2,0-0.3,0.1-0.3,0.3v0.7c0,0.2,0.1,0.3,0.3,0.3c0.2,0,0.3-0.1,0.3-0.3l0-0.7
						C4.1,1.3,4,1.1,3.8,1.1z"/>
					<path id="路径_1118" class="st1" d="M3.8,3.5c-0.2,0-0.3,0.1-0.3,0.3l0,0.6c0,0.2,0.1,0.3,0.3,0.3c0.2,0,0.3-0.1,0.3-0.3
						l0-0.6C4.1,3.6,4,3.5,3.8,3.5z"/>
					<path id="路径_1119" class="st1" d="M3.8,5.8c-0.2,0-0.3,0.1-0.3,0.3l0,0.6C3.5,6.9,3.6,7,3.8,7C4,7,4.1,6.9,4.1,6.7l0-0.6
						C4.1,5.9,4,5.8,3.8,5.8C3.8,5.8,3.8,5.8,3.8,5.8z"/>
					<path id="路径_1120" class="st1" d="M3.8,8.1c-0.2,0-0.3,0.1-0.3,0.3l0,0.6c0,0.2,0.1,0.3,0.3,0.3C4,9.3,4.1,9.1,4.1,9V8.4
						C4.1,8.2,4,8.1,3.8,8.1z"/>
				</g>
			</g>
		</g>
	</g>
</g>
</svg>
