<?xml version="1.0" encoding="utf-8"?>
<!-- Generator: Adobe Illustrator 23.1.0, SVG Export Plug-In . SVG Version: 6.00 Build 0)  -->
<svg version="1.1" id="圖層_1" xmlns="http://www.w3.org/2000/svg" xmlns:xlink="http://www.w3.org/1999/xlink" x="0px" y="0px"
	 viewBox="0 0 37 37" style="enable-background:new 0 0 37 37;" xml:space="preserve">
<style type="text/css">
	.st0{opacity:0.8;enable-background:new    ;}
	.st1{fill:none;}
	.st2{fill:#FFFFFF;}
</style>
<circle id="椭圆_196" class="st0" cx="18.5" cy="18.5" r="18.5"/>
<g id="路径_1266" transform="translate(26.933 -10.023) rotate(90)">
	<path class="st1" d="M33.2,11.1c-1.1,0-2.1,0.7-2.5,1.7l-1-1.8c0.2-0.1,0.4-0.3,0.7-0.5c1-0.8,2.4-3.3,3.4-5.2l0.3-0.6
		C35,3,34.9,1.4,33.9,0.5c-0.2-0.2-0.5-0.2-0.7,0c0,0-0.1,0.1-0.1,0.1l-4.6,8.2l-4.6-8.2c-0.1-0.2-0.4-0.3-0.7-0.2
		c0,0-0.1,0-0.1,0.1c-1,0.9-1.1,2.6-0.2,4.2l0.3,0.6c1,1.9,2.4,4.4,3.4,5.2c0.2,0.2,0.4,0.3,0.7,0.5l-1,1.8
		c-0.5-1.4-2.1-2.1-3.5-1.5c-1.4,0.5-2.1,2.1-1.5,3.5c0.5,1.4,2.1,2.1,3.5,1.5c0.6-0.2,1-0.6,1.3-1.2c0,0,0,0,0,0l2-3.6
		c0.1,0,0.2,0,0.4-0.1c0.2,0,0.3,0.1,0.4,0.1l2,3.6c0,0,0,0,0,0c0.7,1.3,2.4,1.7,3.7,1c1.3-0.7,1.7-2.4,1-3.7
		C35.1,11.6,34.2,11.1,33.2,11.1L33.2,11.1z M23.8,15.2c-0.7,0-1.3-0.6-1.3-1.3s0.6-1.3,1.3-1.3s1.3,0.6,1.3,1.3l0,0
		C25.2,14.6,24.6,15.2,23.8,15.2z M33.2,15.2c-0.7,0-1.3-0.6-1.3-1.3c0-0.7,0.6-1.3,1.3-1.3s1.3,0.6,1.3,1.3
		C34.6,14.6,34,15.2,33.2,15.2L33.2,15.2z"/>
	<path class="st2" d="M33.2,16.5c1.5,0,2.7-1.2,2.7-2.7c0-1.5-1.2-2.7-2.7-2.7c-1.1,0-2.1,0.7-2.5,1.7l-1-1.8
		c0.2-0.1,0.4-0.3,0.7-0.5c1-0.8,2.4-3.3,3.4-5.2l0.3-0.6c0.9-1.7,0.8-3.3-0.2-4.2c-0.1-0.1-0.2-0.1-0.3-0.1c0,0-0.1,0-0.1,0
		c-0.2,0-0.3,0.1-0.4,0.3l-4.6,8.2l-4.6-8.2c-0.1-0.1-0.2-0.2-0.4-0.3c0,0-0.1,0-0.1,0c-0.1,0-0.2,0-0.3,0.1c-1,0.9-1.1,2.6-0.2,4.2
		l0.3,0.6c1,1.9,2.4,4.4,3.4,5.2c0.2,0.2,0.4,0.3,0.7,0.5l-1,1.8c-0.4-1-1.4-1.7-2.5-1.7c-1.5,0-2.7,1.2-2.7,2.7
		c0,1.5,1.2,2.7,2.7,2.7c1,0,1.8-0.5,2.3-1.3c0,0,0,0,0,0l2-3.6c0.1,0,0.2,0,0.4-0.1c0.2,0,0.3,0.1,0.4,0.1l2,3.6c0,0,0,0,0,0
		C31.4,16,32.2,16.5,33.2,16.5 M33.2,12.5c0.7,0,1.3,0.6,1.3,1.3c0,0.7-0.6,1.3-1.3,1.3c-0.7,0-1.3-0.6-1.3-1.3
		C31.9,13.1,32.5,12.5,33.2,12.5 M23.8,12.5c0.7,0,1.3,0.6,1.3,1.3c0,0.7-0.6,1.3-1.3,1.3c-0.7,0-1.3-0.6-1.3-1.3
		C22.5,13.1,23.1,12.5,23.8,12.5 M33.2,17.5c-1.3,0-2.4-0.7-3.1-1.7c0,0-0.1-0.1-0.1-0.1c0,0,0,0,0,0L28.5,13L27,15.6
		c0,0.1-0.1,0.1-0.1,0.2c-0.7,1.1-1.9,1.7-3.1,1.7c-2,0-3.7-1.7-3.7-3.7c0-2,1.7-3.7,3.7-3.7c0.5,0,1,0.1,1.4,0.3
		c-0.8-1.1-1.8-2.7-2.8-4.6l-0.3-0.6c-0.5-1-0.8-2-0.8-2.9c0-1,0.5-1.9,1.2-2.5c0.3-0.2,0.6-0.4,1-0.4c0.1,0,0.2,0,0.2,0
		c0.5,0.1,0.8,0.3,1.1,0.8l3.7,6.7l3.7-6.7c0.2-0.4,0.6-0.7,1.1-0.7c0.1,0,0.2,0,0.3,0c0.4,0,0.7,0.1,1,0.4c0.7,0.6,1.1,1.5,1.2,2.5
		c0,0.9-0.2,1.9-0.8,2.9l-0.3,0.6l0,0c-1,1.9-2,3.5-2.8,4.6c0.4-0.2,0.9-0.3,1.4-0.3c2,0,3.7,1.7,3.7,3.7
		C36.9,15.8,35.3,17.5,33.2,17.5z M33.2,13.5c-0.2,0-0.3,0.2-0.3,0.3c0,0.2,0.2,0.3,0.3,0.3c0.2,0,0.3-0.2,0.3-0.3
		C33.6,13.6,33.4,13.5,33.2,13.5z M23.8,13.5c-0.2,0-0.3,0.2-0.3,0.3c0,0.2,0.2,0.3,0.3,0.3c0.2,0,0.3-0.2,0.3-0.3
		C24.2,13.6,24,13.5,23.8,13.5z"/>
</g>
</svg>
