<?xml version="1.0" encoding="utf-8"?>
<!-- Generator: Adobe Illustrator 23.1.0, SVG Export Plug-In . SVG Version: 6.00 Build 0)  -->
<svg version="1.1" id="圖層_1" xmlns="http://www.w3.org/2000/svg" xmlns:xlink="http://www.w3.org/1999/xlink" x="0px" y="0px"
	 viewBox="0 0 37 37" style="enable-background:new 0 0 37 37;" xml:space="preserve">
<style type="text/css">
	.st0{clip-path:url(#SVGID_2_);}
	.st1{opacity:0.8;enable-background:new    ;}
	.st2{fill:#FFFFFF;}
</style>
<g>
	<defs>
		<rect id="SVGID_1_" width="37" height="37"/>
	</defs>
	<clipPath id="SVGID_2_">
		<use xlink:href="#SVGID_1_"  style="overflow:visible;"/>
	</clipPath>
	<g id="tag_2" class="st0">
		<g id="组_663" transform="translate(-75 -827)">
			<circle id="椭圆_59" class="st1" cx="93.5" cy="845.5" r="18.5"/>
			<g id="组_631" transform="matrix(0.966, -0.259, 0.259, 0.966, 69.001, 814.27)">
				<g id="组_630" transform="translate(4.834 28.32)">
					<g id="组_629" transform="translate(0)">
						<path id="路径_1108" class="st2" d="M20.3,5.6c0.2,0,0.4-0.2,0.4-0.4c0,0,0,0,0,0V1.7C20.8,0.8,20,0,19,0L1.7,0
							C0.8,0,0,0.8,0,1.7l0,3.5c0,0.2,0.2,0.4,0.4,0.4c0,0,0,0,0,0c1.2,0,2.2,1,2.2,2.2c0,1.2-1,2.2-2.2,2.2C0.2,9.9,0,10.1,0,10.4
							c0,0,0,0,0,0l0,3.5c0,1,0.8,1.7,1.7,1.7H19c1,0,1.7-0.8,1.7-1.7v-3.5c0-0.2-0.2-0.4-0.4-0.4c0,0,0,0,0,0c-1.2,0-2.2-1-2.2-2.2
							C18.2,6.6,19.1,5.6,20.3,5.6L20.3,5.6z M17.3,7.8c0,1.5,1.1,2.8,2.6,3v3.1c0,0.5-0.4,0.9-0.9,0.9H1.7c-0.5,0-0.9-0.4-0.9-0.9
							v-3.1C2.5,10.5,3.7,9,3.4,7.4C3.2,6,2.2,5,0.9,4.8V1.7c0-0.5,0.4-0.9,0.9-0.9H19c0.5,0,0.9,0.4,0.9,0.9v3.1
							C18.4,5,17.3,6.3,17.3,7.8z"/>
						<path id="路径_1109" class="st2" d="M5.6,1.6c-0.2,0-0.4,0.2-0.4,0.4c0,0,0,0,0,0v1c0,0.2,0.2,0.4,0.4,0.5
							c0.2,0,0.4-0.2,0.5-0.4c0,0,0,0,0,0v-1C6.1,1.8,5.9,1.6,5.6,1.6C5.6,1.6,5.6,1.6,5.6,1.6z"/>
						<path id="路径_1110" class="st2" d="M5.6,5.2c-0.2,0-0.4,0.2-0.4,0.4c0,0,0,0,0,0v0.9c0,0.2,0.2,0.4,0.5,0.4
							c0.2,0,0.4-0.2,0.4-0.4V5.6C6.1,5.4,5.9,5.2,5.6,5.2z"/>
						<path id="路径_1111" class="st2" d="M5.6,8.7c-0.2,0-0.4,0.2-0.4,0.4c0,0,0,0,0,0v0.9c0,0.2,0.2,0.4,0.4,0.5
							c0.2,0,0.4-0.2,0.5-0.4c0,0,0,0,0,0V9.1C6.1,8.8,5.9,8.7,5.6,8.7C5.6,8.7,5.6,8.7,5.6,8.7z"/>
						<path id="路径_1112" class="st2" d="M5.6,12.1c-0.2,0-0.4,0.2-0.4,0.4c0,0,0,0,0,0v0.9c0,0.2,0.2,0.4,0.5,0.4
							c0.2,0,0.4-0.2,0.4-0.4v-0.9C6.1,12.3,5.9,12.1,5.6,12.1C5.6,12.1,5.6,12.1,5.6,12.1z"/>
					</g>
				</g>
			</g>
		</g>
	</g>
</g>
</svg>
