<?xml version="1.0" encoding="utf-8"?>
<!-- Generator: Adobe Illustrator 23.1.0, SVG Export Plug-In . SVG Version: 6.00 Build 0)  -->
<svg version="1.1" id="圖層_1" xmlns="http://www.w3.org/2000/svg" xmlns:xlink="http://www.w3.org/1999/xlink" x="0px" y="0px"
	 viewBox="0 0 40 40" style="enable-background:new 0 0 40 40;" xml:space="preserve">
<style type="text/css">
	.st0{fill:#FFFFFF;}
	.st1{fill:#333333;}
</style>
<g id="组_761" transform="translate(-7.5 -11.827)">
	<path id="路径_850" class="st0" d="M38.3,43.4H16.4c-1.4,0-2.5-1.1-2.5-2.4V26.5c0-1.4,1.2-2.5,2.5-2.4h21.9
		c1.4,0,2.5,1.1,2.5,2.4V41C40.8,42.4,39.6,43.4,38.3,43.4z"/>
	<path id="路径_854" class="st0" d="M36.1,35.9h5c0.4,0,0.8-0.4,0.8-0.8v-3.3c0-0.4-0.4-0.8-0.8-0.8h-5c-0.4,0-0.8,0.4-0.8,0.8
		v3.3C35.3,35.5,35.6,35.9,36.1,35.9C36.1,35.9,36.1,35.9,36.1,35.9z"/>
	<circle id="椭圆_118" class="st0" cx="39.7" cy="22.2" r="4.7"/>
	<g id="组_533" transform="translate(36.678 17.957)">
		<path id="路径_861" class="st0" d="M3.1,5.6v0.9"/>
	</g>
	<path id="路径_863" class="st0" d="M42.3,23.6L42,23.1c-0.4-0.5-0.6-1-0.6-1.6v-0.3c0-0.9-0.6-1.6-1.5-1.7
		c-0.9-0.1-1.7,0.6-1.8,1.5c0,0.1,0,0.1,0,0.2v0.5c0,0.5-0.2,1-0.5,1.5l-0.3,0.5L42.3,23.6L42.3,23.6z"/>
	<circle id="椭圆_119" class="st0" cx="18.3" cy="38.5" r="7.7"/>
</g>
<g id="组_477" transform="translate(61.942 84.328)">
	<path id="路径_613" class="st0" d="M-56.1-75.4h28.3v22.2h-28.3V-75.4z"/>
	<path id="路径_614" class="st1" d="M-27.8-52.6h-28.3c-0.3,0-0.6-0.3-0.6-0.6v-22.2c0-0.3,0.3-0.6,0.6-0.6h28.3
		c0.3,0,0.6,0.3,0.6,0.6v22.2C-27.2-52.9-27.4-52.6-27.8-52.6z M-55.5-53.9h27.1v-20.9h-27.1L-55.5-53.9z"/>
</g>
<circle id="椭圆_71" class="st1" cx="8.3" cy="11.4" r="0.6"/>
<circle id="椭圆_72" class="st1" cx="10.2" cy="11.4" r="0.6"/>
<circle id="椭圆_73" class="st1" cx="12" cy="11.4" r="0.6"/>
<path id="路径_618" class="st1" d="M24.9,16.9h-4.3c-0.3,0-0.6-0.3-0.6-0.6c0-0.3,0.3-0.6,0.6-0.6h4.3c0.3,0,0.6,0.3,0.6,0.6
	C25.6,16.6,25.3,16.9,24.9,16.9C25,16.9,24.9,16.9,24.9,16.9L24.9,16.9z"/>
<path id="路径_619" class="st1" d="M31.1,20H20.6c-0.3,0-0.6-0.3-0.6-0.6c0-0.3,0.3-0.6,0.6-0.6h10.5c0.3,0,0.6,0.3,0.6,0.6
	C31.7,19.7,31.4,20,31.1,20L31.1,20z"/>
<path id="路径_620" class="st1" d="M31.1,23.1H20.6c-0.3,0-0.6-0.3-0.6-0.6c0-0.3,0.3-0.6,0.6-0.6h10.5c0.3,0,0.6,0.3,0.6,0.6
	C31.7,22.8,31.4,23.1,31.1,23.1L31.1,23.1z"/>
<g id="组_481" transform="translate(77.332 84.328)">
	<circle id="椭圆_75" class="st1" cx="-53.6" cy="-57.6" r="0.6"/>
	<circle id="椭圆_76" class="st1" cx="-56.1" cy="-57.6" r="0.6"/>
	<circle id="椭圆_77" class="st1" cx="-51.2" cy="-57.6" r="0.6"/>
</g>
<path id="路径_964" class="st1" d="M10.1,25.5c-0.3,0-0.5-0.1-0.7-0.2C9,25,8.8,24.5,8.9,24l0.4-2.2l-1.6-1.4
	c-0.4-0.3-0.5-0.8-0.3-1.3c0.1-0.4,0.5-0.8,1-0.8l2.2-0.3l1.1-2c0.3-0.6,1-0.8,1.6-0.5c0.2,0.1,0.4,0.3,0.5,0.5l1.1,2l2.2,0.3
	c0.5,0.1,0.8,0.4,1,0.8c0.2,0.5,0,1-0.3,1.3l-1.6,1.5l0.4,2.1c0.1,0.5-0.1,0.9-0.5,1.2c-0.4,0.3-0.8,0.3-1.2,0.1l-2.1-1.1l-2.1,1.1
	C10.4,25.4,10.3,25.5,10.1,25.5z M13.2,23.1l2,1l-0.4-2c-0.1-0.4,0.1-0.8,0.4-1.1l1.5-1.4l-2.1-0.3c-0.4-0.1-0.7-0.3-0.9-0.6l-1-1.9
	l-1,1.9c-0.2,0.3-0.5,0.6-0.9,0.6l-2.2,0.3l1.5,1.4c0.3,0.3,0.4,0.7,0.4,1.1l-0.4,2l2-1C12.5,22.9,12.9,22.9,13.2,23.1L13.2,23.1z
	 M10.6,18L10.6,18z M14.8,18L14.8,18z"/>
</svg>
