<?xml version="1.0" encoding="utf-8"?>
<!-- Generator: Adobe Illustrator 23.1.0, SVG Export Plug-In . SVG Version: 6.00 Build 0)  -->
<svg version="1.1" id="圖層_1" xmlns="http://www.w3.org/2000/svg" xmlns:xlink="http://www.w3.org/1999/xlink" x="0px" y="0px"
	 viewBox="0 0 25 25" style="enable-background:new 0 0 25 25;" xml:space="preserve">
<style type="text/css">
	.st0{clip-path:url(#SVGID_2_);}
	.st1{fill:#A6A7A7;}
</style>
<g>
	<defs>
		<rect id="SVGID_1_" width="25" height="25"/>
	</defs>
	<clipPath id="SVGID_2_">
		<use xlink:href="#SVGID_1_"  style="overflow:visible;"/>
	</clipPath>
	<g id="title_high_speed_rail" class="st0">
		<g id="组_665" transform="translate(-3.503 3)">
			<g id="组_674" transform="translate(7.503 1)">
				<g id="组_673" transform="translate(0 0)">
					<path id="路径_1134" class="st1" d="M16,17l-2-2.9c1.1-0.3,1.9-1.3,1.9-2.4l0-0.5c0.1-1.1-0.2-2.3-0.7-3.3l-0.2-0.4l0,0
						l-3-5.8l0,0l-0.3-0.5C11.4,0.5,10.6,0,9.8,0H6.3c-0.8,0-1.6,0.5-2,1.2L4.1,1.7l0,0l-3,5.8l0,0L0.9,7.9c-0.5,1-0.8,2.2-0.7,3.3
						l0,0.5c0.1,1.1,0.8,2.1,1.9,2.4l-2,2.9c-0.2,0.3-0.1,0.7,0.2,0.9C0.4,18,0.5,18,0.6,18h2.2c0.2,0,0.5-0.1,0.6-0.4l0.2-0.4h8.9
						l0.2,0.4c0.1,0.2,0.3,0.4,0.6,0.4h2.2c0.4,0,0.6-0.3,0.6-0.6C16.1,17.2,16.1,17.1,16,17L16,17z M5,1.5C5.3,1,5.8,0.7,6.3,0.7
						h3.5c0.6,0,1.1,0.3,1.3,0.8l0.1,0.2c-2,1-4.3,1-6.3,0L5,1.5z M1.7,7.9l2.9-5.5c2.2,1.1,4.8,1.1,7,0l2.9,5.5
						c0.2,0.4,0.4,0.9,0.5,1.3l-0.1,0c-4.5,1.3-9.2,1.3-13.6,0l-0.1,0C1.3,8.7,1.5,8.3,1.7,7.9z M13.9,11c0,0.3-0.3,0.6-0.6,0.6
						c-0.3,0-0.6-0.3-0.6-0.6c0-0.3,0.3-0.6,0.6-0.6l0,0C13.6,10.4,13.9,10.7,13.9,11L13.9,11z M3.5,11c0,0.3-0.3,0.6-0.6,0.6
						c-0.3,0-0.6-0.3-0.6-0.6c0-0.3,0.3-0.6,0.6-0.6C3.2,10.4,3.5,10.7,3.5,11L3.5,11z M0.9,11.7l0-0.5c0,0,0,0,0,0
						c0-0.4,0-0.9,0.1-1.3l0.1,0C1.4,10,1.6,10,1.9,10.1c-0.5,0.5-0.5,1.3,0,1.8c0.5,0.5,1.3,0.5,1.8,0c0.4-0.4,0.5-0.9,0.3-1.4
						c1.3,0.2,2.7,0.3,4,0.3c1.3,0,2.7-0.1,4-0.3c-0.3,0.7,0.1,1.4,0.7,1.7c0.7,0.3,1.4-0.1,1.7-0.7c0.2-0.5,0.1-1-0.3-1.4
						c0.3-0.1,0.6-0.2,0.9-0.2l0.1,0c0.1,0.4,0.1,0.9,0.1,1.3c0,0,0,0,0,0l0,0.5c0,1-0.9,1.8-1.9,1.8H2.9C1.8,13.5,1,12.7,0.9,11.7z
						 M11.2,14.7H4.9l0.2-0.5H11L11.2,14.7z M2.8,17.3H0.8l2.2-3.1h1.4L2.8,17.3z M4,16.6l0.6-1.2h7l0.6,1.2H4z M13.3,17.3l-1.5-3.1
						h1.4l2.2,3.1H13.3z"/>
				</g>
			</g>
			<g id="组_676" transform="translate(12.791 12.548)">
				<g id="组_675">
					<path id="路径_1135" class="st1" d="M5.6,0.3C5.5,0.1,5.3,0,5.1,0c0,0,0,0,0,0C3.6,0.4,2,0.4,0.4,0C0.2,0,0,0.1,0,0.3
						C-0.1,0.4,0,0.6,0.2,0.7c0,0,0,0,0,0c1.7,0.4,3.4,0.4,5,0C5.5,0.7,5.6,0.5,5.6,0.3C5.6,0.3,5.6,0.3,5.6,0.3z"/>
				</g>
			</g>
			<g id="组_678" transform="translate(10.976 4.853)">
				<g id="组_677">
					<path id="路径_1136" class="st1" d="M1.6,0C1.4-0.1,1.2,0,1.1,0.2c0,0,0,0,0,0L0,2.4c-0.1,0.2,0,0.4,0.1,0.5
						c0.2,0.1,0.4,0,0.5-0.1c0,0,0,0,0,0l1.1-2.2C1.8,0.3,1.8,0.1,1.6,0z"/>
				</g>
			</g>
			<g id="组_680" transform="translate(10.266 8.495)">
				<g id="组_679" transform="translate(0)">
					<path id="路径_1137" class="st1" d="M0.7,0.3C0.7,0.3,0.7,0.2,0.7,0.3c0-0.1,0-0.1-0.1-0.1c0,0,0,0,0-0.1C0.5,0,0.3,0,0.2,0
						c0,0,0,0-0.1,0c0,0-0.1,0.1-0.1,0.1c0,0,0,0,0,0.1c0,0,0,0,0,0.1c0,0,0,0,0,0.1c0,0.1,0,0.2,0.1,0.2c0,0,0,0,0.1,0
						c0.1,0.1,0.3,0.1,0.4,0c0,0,0,0,0.1,0c0,0,0,0,0-0.1c0,0,0,0,0-0.1c0,0,0,0,0-0.1C0.7,0.4,0.7,0.3,0.7,0.3L0.7,0.3z"/>
				</g>
			</g>
		</g>
	</g>
</g>
</svg>
