<?xml version="1.0" encoding="utf-8"?>
<!-- Generator: Adobe Illustrator 23.1.0, SVG Export Plug-In . SVG Version: 6.00 Build 0)  -->
<svg version="1.1" id="圖層_1" xmlns="http://www.w3.org/2000/svg" xmlns:xlink="http://www.w3.org/1999/xlink" x="0px" y="0px"
	 viewBox="0 0 20 25" style="enable-background:new 0 0 20 25;" xml:space="preserve">
<style type="text/css">
	.st0{clip-path:url(#SVGID_2_);}
	.st1{fill:#F0D870;}
	.st2{fill:#A6A7A7;}
</style>
<g>
	<defs>
		<rect id="SVGID_1_" width="20" height="25"/>
	</defs>
	<clipPath id="SVGID_2_">
		<use xlink:href="#SVGID_1_"  style="overflow:visible;"/>
	</clipPath>
	<g id="title_coupon" class="st0">
		<g id="组_664" transform="translate(-156.556 -694)">
			<circle id="椭圆_15" class="st1" cx="169.6" cy="704" r="5"/>
			<g id="组_608" transform="translate(158.556 702.116)">
				<g id="组_607" transform="translate(1.372)">
					<path id="路径_1095" class="st2" d="M4.8,8.3C4.5,8.3,4.2,8,4.2,7.7v0V0.6C4.2,0.3,4.5,0,4.8,0s0.6,0.3,0.6,0.6c0,0,0,0,0,0
						v7.1C5.4,8,5.1,8.3,4.8,8.3z"/>
					<g id="组_606" transform="translate(0 3.002)">
						<path id="路径_1096" class="st2" d="M0,0.8L0.9,0l3.9,4.2L8.7,0l0.9,0.8L4.8,6L0,0.8z"/>
					</g>
				</g>
				<path id="路径_1097" class="st2" d="M12.4,11.7H0.6c-0.3,0-0.6-0.3-0.6-0.6c0-0.3,0.3-0.6,0.6-0.6h11.8c0.3,0,0.6,0.3,0.6,0.6
					C13,11.4,12.7,11.7,12.4,11.7L12.4,11.7z"/>
			</g>
		</g>
	</g>
</g>
</svg>
