<?xml version="1.0" encoding="utf-8"?>
<!-- Generator: Adobe Illustrator 23.1.0, SVG Export Plug-In . SVG Version: 6.00 Build 0)  -->
<svg version="1.1" id="圖層_1" xmlns="http://www.w3.org/2000/svg" xmlns:xlink="http://www.w3.org/1999/xlink" x="0px" y="0px"
	 viewBox="0 0 20 25" style="enable-background:new 0 0 20 25;" xml:space="preserve">
<style type="text/css">
	.st0{clip-path:url(#SVGID_2_);}
	.st1{fill:#F0D870;}
	.st2{fill:#A6A7A7;}
</style>
<g>
	<defs>
		<rect id="SVGID_1_" width="20" height="25"/>
	</defs>
	<clipPath id="SVGID_2_">
		<use xlink:href="#SVGID_1_"  style="overflow:visible;"/>
	</clipPath>
	<g id="title_hot" class="st0">
		<g id="组_650" transform="translate(-27.261 -15.353)">
			<g id="组_662" transform="translate(31.261 18.353)">
				<path id="路径_1121" class="st1" d="M6.2,0.7l1.2,2.4c0.1,0.2,0.3,0.3,0.4,0.3l2.7,0.4c0.3,0,0.5,0.3,0.5,0.7
					c0,0.1-0.1,0.2-0.2,0.3L8.9,6.7C8.8,6.9,8.7,7.1,8.8,7.2l0.5,2.7c0.1,0.3-0.2,0.6-0.5,0.7c-0.1,0-0.3,0-0.4-0.1L6,9.3
					c-0.2-0.1-0.4-0.1-0.5,0l-2.4,1.3c-0.3,0.2-0.6,0-0.8-0.2C2.2,10.2,2.2,10,2.2,9.9l0.5-2.7c0-0.2,0-0.4-0.2-0.5L0.6,4.8
					C0.3,4.6,0.3,4.2,0.5,4c0.1-0.1,0.2-0.2,0.3-0.2l2.7-0.4c0.2,0,0.4-0.1,0.4-0.3l1.2-2.4C5.3,0.4,5.7,0.3,6,0.4
					C6.1,0.5,6.2,0.6,6.2,0.7z"/>
				<path id="路径_1122" class="st2" d="M2.8,11c-0.5,0-1-0.4-1-1c0-0.1,0-0.1,0-0.2l0.5-2.7c0-0.1,0-0.1-0.1-0.2L0.3,5.1
					c-0.4-0.4-0.4-1,0-1.4c0.1-0.2,0.3-0.3,0.6-0.3l2.7-0.4C3.6,3.1,3.6,3,3.7,3l1.2-2.4c0.2-0.5,0.8-0.7,1.3-0.4
					c0.2,0.1,0.3,0.2,0.4,0.4l0,0L7.8,3c0,0.1,0.1,0.1,0.2,0.1l2.7,0.4c0.5,0.1,0.9,0.6,0.8,1.1c0,0.2-0.1,0.4-0.3,0.6L9.2,7
					C9.2,7,9.1,7.1,9.2,7.2l0.5,2.7c0.1,0.5-0.3,1-0.8,1.1c-0.2,0-0.4,0-0.6-0.1L5.8,9.6c-0.1,0-0.1,0-0.2,0l-2.4,1.3
					C3.1,10.9,2.9,11,2.8,11z M5.7,0.7c-0.1,0-0.2,0-0.2,0.1L4.3,3.3C4.2,3.6,3.9,3.8,3.6,3.8L0.9,4.2c-0.1,0-0.2,0.1-0.2,0.2
					c0,0,0,0.1,0.1,0.1l1.9,1.9C3,6.7,3.1,7,3,7.3L2.6,10c0,0.1,0.1,0.2,0.2,0.2c0,0,0.1,0,0.1,0l2.4-1.3c0.3-0.1,0.6-0.1,0.9,0
					l2.4,1.3c0.1,0.1,0.2,0,0.3-0.1c0,0,0-0.1,0-0.1L8.4,7.3C8.4,7,8.5,6.7,8.7,6.5l1.9-1.9c0.1-0.1,0.1-0.2,0-0.3
					c0,0-0.1-0.1-0.1-0.1L7.8,3.8c-0.3,0-0.6-0.2-0.7-0.5L5.9,0.9l0,0C5.9,0.8,5.8,0.7,5.7,0.7z"/>
			</g>
			<path id="路径_1123" class="st2" d="M40.1,36.5h-6.2c-0.6,0-1.1-0.5-1.1-1.1v-0.1l0.9-2.8c0.1-0.2,0.4-1,1.1-1H39
				c0.6,0,1,0.7,1.1,1l1.1,2.8v0.1C41.2,36,40.7,36.5,40.1,36.5z M33.5,35.4c0,0.2,0.2,0.3,0.4,0.3h6.2c0.2,0,0.3-0.1,0.4-0.3
				l-1-2.6c-0.1-0.3-0.3-0.5-0.4-0.5h-4.2c-0.1,0-0.2,0.1-0.4,0.5L33.5,35.4z"/>
			<path id="路径_1124" class="st2" d="M39.2,31h-4.4v-0.5c0-0.2,0-0.3,0-0.4c0-0.2,0.1-0.3,0.3-0.4c0.6-0.3,1.1-0.6,1.7-0.9
				c0.2-0.1,0.3-0.1,0.5,0c0.6,0.3,1.1,0.6,1.6,0.9c0.2,0.1,0.3,0.3,0.3,0.4c0,0.1,0,0.3,0,0.4L39.2,31z M35.6,30.2h2.9c0,0,0,0,0,0
				c-0.5-0.2-1-0.5-1.4-0.8C36.6,29.7,36.1,30,35.6,30.2C35.6,30.2,35.6,30.2,35.6,30.2L35.6,30.2z"/>
		</g>
	</g>
</g>
</svg>
