<?xml version="1.0" encoding="utf-8"?>
<!-- Generator: Adobe Illustrator 23.1.0, SVG Export Plug-In . SVG Version: 6.00 Build 0)  -->
<svg version="1.1" id="圖層_1" xmlns="http://www.w3.org/2000/svg" xmlns:xlink="http://www.w3.org/1999/xlink" x="0px" y="0px"
	 viewBox="0 0 25 25" style="enable-background:new 0 0 25 25;" xml:space="preserve">
<style type="text/css">
	.st0{clip-path:url(#SVGID_2_);}
	.st1{fill:#A6A7A7;}
	.st2{fill:none;}
</style>
<g>
	<defs>
		<rect id="SVGID_1_" width="25" height="25"/>
	</defs>
	<clipPath id="SVGID_2_">
		<use xlink:href="#SVGID_1_"  style="overflow:visible;"/>
	</clipPath>
	<g id="title_bus" class="st0">
		<g id="组_681" transform="translate(-148.439 -1.222)">
			<path id="路径_1126" class="st1" d="M169,4.2h-10.1c-0.8,0-1.5,0.7-1.4,1.6v13c0,0,0,0,0,0c0,0,0,0.1,0,0.1v0l0,0l0.7,1.7
				c0.1,0.2,0.3,0.4,0.5,0.4h0.3v1.3c0,0.1,0,0.2,0.1,0.3h-3.9v-5.7c0-0.5-0.4-0.9-0.9-0.9v-5.4c1.4-0.2,2.4-1.4,2.2-2.8
				c-0.2-1.4-1.4-2.4-2.8-2.2s-2.4,1.4-2.2,2.8c0.1,1.1,1,2.1,2.2,2.2v5.4c-0.5,0-0.9,0.4-0.9,1v5.7h-0.9c-0.2,0-0.3,0.2-0.3,0.3
				c0,0.2,0.1,0.3,0.3,0.3h18.4c0.2,0,0.3-0.1,0.3-0.3c0-0.2-0.1-0.3-0.3-0.3c0,0,0,0,0,0h-1.3c0-0.1,0.1-0.2,0.1-0.3V21h0.3
				c0.2,0,0.5-0.1,0.5-0.4l0.7-1.7l0,0c0,0,0,0,0,0c0,0,0-0.1,0-0.1c0,0,0,0,0,0v-13C170.5,5,169.8,4.3,169,4.2z M152.1,8
				c0-1,0.9-1.9,1.9-1.9c1,0,1.9,0.9,1.9,1.9S155,9.9,154,9.9l0,0C152.9,9.9,152.1,9.1,152.1,8C152.1,8,152.1,8,152.1,8L152.1,8z
				 M154.6,22.6h-1.3v-5.7c0-0.2,0.1-0.3,0.3-0.3l0,0h0.6c0.2,0,0.3,0.1,0.3,0.3l0,0V22.6z M160.9,22.3c0,0.2-0.1,0.3-0.3,0.3l0,0
				H160c-0.2,0-0.3-0.1-0.3-0.3l0,0V21h1.3V22.3z M161.5,22.6c0-0.1,0.1-0.2,0.1-0.3V21h4.8v1.3c0,0.1,0,0.2,0.1,0.3L161.5,22.6z
				 M168.2,22.3c0,0.2-0.1,0.3-0.3,0.3l0,0h-0.6c-0.2,0-0.3-0.1-0.3-0.3l0,0V21h1.3V22.3L168.2,22.3z M169.1,20.4h-10.3l-0.6-1.3
				h11.4L169.1,20.4z M162.5,18.5v-0.6c0-0.2,0.1-0.3,0.3-0.3l0,0h2.2c0.2,0,0.3,0.1,0.3,0.3l0,0v0.6H162.5z M169.8,5.8v12.7H166
				v-0.6c0-0.5-0.4-0.9-0.9-1h-2.2c-0.5,0-0.9,0.4-0.9,1v0.6h-3.8V5.8c0-0.5,0.3-0.9,0.8-0.9H169C169.5,4.9,169.8,5.3,169.8,5.8z"/>
			<path id="路径_1127" class="st1" d="M160,15.3c-0.7,0-1.3,0.6-1.3,1.3s0.6,1.3,1.3,1.3c0.7,0,1.3-0.6,1.3-1.3l0,0
				C161.3,15.9,160.7,15.3,160,15.3z M160,17.2c-0.3,0-0.6-0.3-0.6-0.6c0-0.3,0.3-0.6,0.6-0.6c0.3,0,0.6,0.3,0.6,0.6l0,0
				C160.6,16.9,160.3,17.2,160,17.2z"/>
			<path id="路径_1128" class="st1" d="M167.9,15.3c-0.7,0-1.3,0.6-1.3,1.3s0.6,1.3,1.3,1.3c0.7,0,1.3-0.6,1.3-1.3l0,0
				C169.2,15.9,168.6,15.3,167.9,15.3z M167.9,17.2c-0.3,0-0.6-0.3-0.6-0.6c0-0.3,0.3-0.6,0.6-0.6c0.3,0,0.6,0.3,0.6,0.6l0,0
				C168.5,16.9,168.3,17.2,167.9,17.2z"/>
			<g id="组_667" transform="translate(157.94 7.144)">
				<line id="直线_27" class="st2" x1="0" y1="0.3" x2="12.3" y2="0.3"/>
				<rect id="矩形_198" x="0" y="0" class="st1" width="12.3" height="0.6"/>
			</g>
			<g id="组_668" transform="translate(157.94 13.129)">
				<line id="直线_28" class="st2" x1="0" y1="0.3" x2="12.3" y2="0.3"/>
				<rect id="矩形_199" x="0" y="0" class="st1" width="12.3" height="0.6"/>
			</g>
		</g>
	</g>
</g>
</svg>
