<?xml version="1.0" encoding="utf-8"?>
<!-- Generator: Adobe Illustrator 23.1.0, SVG Export Plug-In . SVG Version: 6.00 Build 0)  -->
<svg version="1.1" id="圖層_1" xmlns="http://www.w3.org/2000/svg" xmlns:xlink="http://www.w3.org/1999/xlink" x="0px" y="0px"
	 viewBox="0 0 25 25" style="enable-background:new 0 0 25 25;" xml:space="preserve">
<style type="text/css">
	.st0{clip-path:url(#SVGID_2_);}
	.st1{fill:#A6A7A7;}
	.st2{fill:none;}
</style>
<g>
	<defs>
		<rect id="SVGID_1_" width="25" height="25"/>
	</defs>
	<clipPath id="SVGID_2_">
		<use xlink:href="#SVGID_1_"  style="overflow:visible;"/>
	</clipPath>
	<g id="title_car1" class="st0">
		<g id="组_682" transform="translate(3 -3.629)">
			<g id="组_670" transform="translate(2 8.629)">
				<path id="路径_1132" class="st1" d="M14.5,4.3L13.7,2c-0.4-1.2-1.6-2-2.8-2H5.1C3.8,0,2.7,0.8,2.3,2L1.5,4.3
					C0.6,4.5,0,5.3,0,6.2v4.1c0,0.8,0.6,1.4,1.4,1.4h0.5v0.7c0,0.9,0.7,1.7,1.6,1.7s1.7-0.7,1.7-1.6c0,0,0-0.1,0-0.1v-0.7h5.7v0.7
					c0,0.9,0.7,1.7,1.6,1.7c0.9,0,1.7-0.7,1.7-1.6c0,0,0-0.1,0-0.1v-0.7h0.5c0.8,0,1.4-0.6,1.4-1.4V6.2C16,5.3,15.4,4.5,14.5,4.3z
					 M3.2,2.3c0.3-0.8,1.1-1.4,1.9-1.4h5.8c0.9,0,1.7,0.6,1.9,1.4l0.6,1.9h-1.3c-0.3-1.1-1.4-1.8-2.5-1.6C8.8,2.8,8.2,3.4,8,4.2H2.5
					L3.2,2.3z M11.2,4.2H9c0.3-0.6,0.9-0.9,1.5-0.6C10.8,3.7,11,3.9,11.2,4.2L11.2,4.2z M4.2,12.4c0,0.4-0.3,0.7-0.7,0.7
					s-0.7-0.3-0.7-0.7v-0.7h1.4L4.2,12.4z M13.2,12.4c0,0.4-0.3,0.7-0.7,0.7s-0.7-0.3-0.7-0.7v-0.7h1.4V12.4z M15.1,10.3
					c0,0.3-0.2,0.5-0.5,0.5H1.4c-0.3,0-0.5-0.2-0.5-0.5V9.8h14.1V10.3z M15.1,8.9H0.9V6.2c0-0.6,0.5-1.1,1.1-1.1h12
					c0.6,0,1.1,0.5,1.1,1.1V8.9z"/>
				<circle id="椭圆_66" class="st1" cx="3.3" cy="7" r="0.9"/>
				<circle id="椭圆_67" class="st1" cx="12.7" cy="7" r="0.9"/>
			</g>
			<g id="组_671" transform="translate(6.902 15.406)">
				<line id="直线_29" class="st2" x1="0.3" y1="0.3" x2="5.9" y2="0.3"/>
				<path id="路径_1133" class="st1" d="M5.9,0.5H0.3C0.1,0.5,0,0.4,0,0.3C0,0.1,0.1,0,0.3,0h5.7c0.1,0,0.3,0.1,0.3,0.3
					C6.2,0.4,6.1,0.5,5.9,0.5z"/>
			</g>
		</g>
	</g>
</g>
</svg>
