<?xml version="1.0" encoding="utf-8"?>
<!-- Generator: Adobe Illustrator 23.1.0, SVG Export Plug-In . SVG Version: 6.00 Build 0)  -->
<svg version="1.1" id="圖層_1" xmlns="http://www.w3.org/2000/svg" xmlns:xlink="http://www.w3.org/1999/xlink" x="0px" y="0px"
	 viewBox="0 0 30 30" style="enable-background:new 0 0 30 30;" xml:space="preserve">
<style type="text/css">
	.st0{clip-path:url(#SVGID_2_);}
	.st1{fill:#A4A5A2;}
</style>
<g>
	<defs>
		<rect id="SVGID_1_" width="30" height="30"/>
	</defs>
	<clipPath id="SVGID_2_">
		<use xlink:href="#SVGID_1_"  style="overflow:visible;"/>
	</clipPath>
	<g id="top_bar_bell" class="st0">
		<g id="组_175" transform="translate(5.542 5)">
			<g id="组_163">
				<g id="组_162">
					<path id="路径_77" class="st1" d="M1,17.8c-0.1,0-0.2,0-0.3-0.1l-0.1,0c-0.3-0.1-0.5-0.3-0.6-0.5c-0.1-0.4,0-0.8,0.3-1
						c0.4-0.4,0.9-0.9,1.4-1.4c0.6-0.5,0.9-1.2,0.8-1.9c0-1.2,0-2.8,0-4.4c0.2-3,2.2-5.7,5-6.7c0,0,0,0,0.1,0c0,0,0,0,0,0
						C8,0.6,9-0.1,10,0c1.1,0,2,0.7,2.2,1.7c2.8,1,4.8,3.5,5.1,6.5c0.1,0.6,0.1,1.1,0.1,1.7c0,0.2,0,0.4,0,0.6c0,0.4,0,0.9,0,1.3
						c0,0.5,0,1.1,0,1.6c0,0.5,0.3,0.9,0.6,1.2c0.3,0.3,0.6,0.6,1,0.9l0.5,0.5c0.4,0.3,0.5,0.7,0.4,1.1c-0.1,0.4-0.6,0.7-1,0.6H1.1
						C1.1,17.7,1,17.8,1,17.8z M1,16.9L1,16.9z M1.3,16.6h17.3l-0.3-0.3c-0.3-0.3-0.6-0.6-0.9-0.9c-0.6-0.5-1-1.2-1-2
						c0-0.6,0-1.1,0-1.6c0-0.4,0-0.9,0-1.3c0-0.2,0-0.4,0-0.6c0-0.5,0-1-0.1-1.5c-0.2-2.6-1.9-4.8-4.4-5.6c-0.3-0.1-0.5-0.4-0.6-0.7
						c-0.1-0.6-0.7-1-1.3-1C9.4,1,8.9,1.4,8.7,2C8.6,2.4,8.3,2.7,8,2.8C5.5,3.7,3.9,5.9,3.7,8.5c-0.1,1.6-0.1,3.1,0,4.3
						c0.1,1.1-0.4,2.1-1.2,2.8C2,15.9,1.7,16.3,1.3,16.6L1.3,16.6z"/>
				</g>
				<path id="路径_78" class="st1" d="M16.6,20.3H3.4c-0.3,0-0.6-0.2-0.6-0.4s0.3-0.4,0.6-0.4h13.3c0.3,0,0.6,0.2,0.6,0.4
					S17,20.3,16.6,20.3z"/>
			</g>
		</g>
	</g>
</g>
</svg>
