<?xml version="1.0" encoding="utf-8"?>
<!-- Generator: Adobe Illustrator 23.1.0, SVG Export Plug-In . SVG Version: 6.00 Build 0)  -->
<svg version="1.1" id="圖層_1" xmlns="http://www.w3.org/2000/svg" xmlns:xlink="http://www.w3.org/1999/xlink" x="0px" y="0px"
	 viewBox="0 0 30 30" style="enable-background:new 0 0 30 30;" xml:space="preserve">
<style type="text/css">
	.st0{clip-path:url(#SVGID_2_);}
	.st1{fill:#A4A5A2;}
</style>
<g>
	<defs>
		<rect id="SVGID_1_" width="30" height="30"/>
	</defs>
	<clipPath id="SVGID_2_">
		<use xlink:href="#SVGID_1_"  style="overflow:visible;"/>
	</clipPath>
	<g id="top_bar_search" class="st0">
		<g id="组_176" transform="translate(-343 -56)">
			<g id="组_169" transform="translate(348.13 61)">
				<g id="组_160">
					<path id="路径_74" class="st1" d="M8.7,17.3C3.9,17.3,0,13.4,0,8.6C0,3.9,3.9,0,8.7,0c4.8,0,8.6,3.9,8.7,8.6
						C17.3,13.4,13.4,17.3,8.7,17.3z M8.7,1.1c-4.2,0-7.6,3.4-7.6,7.6c0,4.2,3.4,7.6,7.6,7.6c4.2,0,7.6-3.4,7.6-7.6
						C16.2,4.4,12.8,1.1,8.7,1.1z"/>
					<path id="路径_75" class="st1" d="M20.4,20.2c-0.2,0-0.3-0.1-0.4-0.2l-5.5-5.5c-0.2-0.2-0.2-0.6,0-0.8c0.2-0.2,0.6-0.2,0.8,0
						l5.5,5.5c0.2,0.2,0.2,0.6,0,0.8C20.7,20.1,20.6,20.2,20.4,20.2z"/>
				</g>
				<path id="路径_76" class="st1" d="M3.7,11.3c-0.3,0-0.6-0.3-0.6-0.6C3,7.4,5,4.4,8.1,3.3c0.3-0.1,0.6,0.1,0.7,0.4
					C8.9,4,8.8,4.3,8.4,4.4c-2.6,0.9-4.3,3.5-4.1,6.3C4.3,11.1,4,11.3,3.7,11.3z"/>
			</g>
		</g>
	</g>
</g>
</svg>
