<?xml version="1.0" encoding="utf-8"?>
<!-- Generator: Adobe Illustrator 23.1.0, SVG Export Plug-In . SVG Version: 6.00 Build 0)  -->
<svg version="1.1" id="圖層_1" xmlns="http://www.w3.org/2000/svg" xmlns:xlink="http://www.w3.org/1999/xlink" x="0px" y="0px"
	 viewBox="0 0 50 50" style="enable-background:new 0 0 50 50;" xml:space="preserve">
<style type="text/css">
	.st0{fill:#FFFFFF;}
</style>
<g>
	<path class="st0" d="M15.5,16.7c0-1.6,1.3-3,3-3c1.6,0,3,1.3,3,3c0,1.6-1.3,3-3,3C16.8,19.7,15.5,18.4,15.5,16.7z M28.9,16.7
		c0-1.6,1.3-3,3-3s3,1.3,3,3c0,1.6-1.3,3-3,3C30.2,19.7,28.9,18.4,28.9,16.7z M35.9,28.8c-1.8,4.2-6.1,7-10.9,7c-4.9,0-9.2-2.8-11-7
		c-0.3-0.7,0-1.6,0.8-1.9c0.2-0.1,0.4-0.1,0.5-0.1c0.6,0,1.1,0.3,1.3,0.9c1.3,3.2,4.6,5.3,8.4,5.3c3.7,0,6.9-2.1,8.3-5.3
		c0.3-0.7,1.2-1.1,1.9-0.7C35.9,27.3,36.2,28.1,35.9,28.8z"/>
</g>
</svg>
