<?xml version="1.0" encoding="utf-8"?>
<!-- Generator: Adobe Illustrator 23.1.0, SVG Export Plug-In . SVG Version: 6.00 Build 0)  -->
<svg version="1.1" id="圖層_1" xmlns="http://www.w3.org/2000/svg" xmlns:xlink="http://www.w3.org/1999/xlink" x="0px" y="0px"
	 viewBox="0 0 40 40" style="enable-background:new 0 0 40 40;" xml:space="preserve">
<style type="text/css">
	.st0{fill:#FFFFFF;}
	.st1{fill:#333333;}
</style>
<g id="组_761" transform="translate(-7.5 -11.827)">
	<path id="路径_850" class="st0" d="M38.3,43.4H16.4c-1.4,0-2.5-1.1-2.5-2.4V26.5c0-1.4,1.2-2.5,2.5-2.4h21.9
		c1.4,0,2.5,1.1,2.5,2.4V41C40.8,42.4,39.6,43.4,38.3,43.4z"/>
	<path id="路径_851" class="st1" d="M38.3,44H16.4c-1.7,0-3.1-1.3-3.1-3V26.5c0-1.7,1.4-3,3.1-3h21.8c1.7,0,3.1,1.3,3.1,3V41
		C41.3,42.7,39.9,44,38.3,44z M16.4,24.7c-1.1,0-1.9,0.8-2,1.9V41c0,1.1,0.9,1.9,2,1.9h21.8c1.1,0,1.9-0.8,2-1.9V26.5
		c0-1.1-0.9-1.9-2-1.9H16.4z"/>
	<path id="路径_852" class="st1" d="M39.1,27.4h-0.6c-0.3,0-0.6-0.2-0.6-0.5s0.2-0.6,0.5-0.6c0,0,0.1,0,0.1,0h0.6
		c0.3,0,0.6,0.2,0.6,0.5S39.5,27.4,39.1,27.4C39.2,27.4,39.2,27.4,39.1,27.4z M36.8,27.4h-1.2c-0.3,0-0.6-0.2-0.6-0.5
		s0.2-0.6,0.5-0.6c0,0,0.1,0,0.1,0h1.2c0.3,0,0.6,0.2,0.6,0.5S37.2,27.4,36.8,27.4C36.9,27.4,36.9,27.4,36.8,27.4z M33.9,27.4h-1.2
		c-0.3,0-0.6-0.2-0.6-0.5s0.2-0.6,0.5-0.6c0,0,0.1,0,0.1,0h1.2c0.3,0,0.6,0.2,0.6,0.5S34.3,27.4,33.9,27.4
		C34,27.4,34,27.4,33.9,27.4z M31.1,27.4h-1.2c-0.3,0-0.6-0.2-0.6-0.5s0.2-0.6,0.5-0.6c0,0,0.1,0,0.1,0h1.2c0.3,0,0.6,0.2,0.6,0.5
		S31.5,27.4,31.1,27.4C31.1,27.4,31.1,27.4,31.1,27.4z M28.2,27.4H27c-0.3,0-0.6-0.2-0.6-0.5s0.2-0.6,0.5-0.6c0,0,0.1,0,0.1,0h1.2
		c0.3,0,0.6,0.2,0.6,0.5S28.6,27.4,28.2,27.4C28.3,27.4,28.2,27.4,28.2,27.4L28.2,27.4z M25.3,27.4h-1.2c-0.3,0-0.6-0.2-0.6-0.5
		s0.2-0.6,0.5-0.6c0,0,0.1,0,0.1,0h1.2c0.3,0,0.6,0.2,0.6,0.5S25.7,27.4,25.3,27.4C25.4,27.4,25.4,27.4,25.3,27.4z M22.4,27.4h-1.2
		c-0.3,0-0.6-0.2-0.6-0.5s0.2-0.6,0.5-0.6c0,0,0.1,0,0.1,0h1.1c0.3,0,0.6,0.2,0.6,0.5S22.8,27.4,22.4,27.4
		C22.5,27.4,22.5,27.4,22.4,27.4L22.4,27.4z M19.6,27.4h-1.1c-0.3,0-0.6-0.2-0.6-0.5s0.2-0.6,0.5-0.6c0,0,0.1,0,0.1,0h1.1
		c0.3,0,0.6,0.2,0.6,0.5S20,27.4,19.6,27.4C19.6,27.4,19.6,27.4,19.6,27.4z M16.7,27.4h-1.2c-0.3,0-0.6-0.2-0.6-0.5s0.2-0.6,0.5-0.6
		c0,0,0.1,0,0.1,0h1.2c0.3,0,0.6,0.2,0.6,0.5S17.1,27.4,16.7,27.4C16.8,27.4,16.7,27.4,16.7,27.4z"/>
	<path id="路径_853" class="st1" d="M39.1,41.2h-0.6c-0.3,0-0.6-0.2-0.6-0.5s0.2-0.6,0.5-0.6c0,0,0.1,0,0.1,0h0.6
		c0.3,0,0.6,0.2,0.6,0.5S39.5,41.2,39.1,41.2C39.2,41.2,39.2,41.2,39.1,41.2z M36.8,41.2h-1.2c-0.3,0-0.6-0.2-0.6-0.5
		s0.2-0.6,0.5-0.6c0,0,0.1,0,0.1,0h1.2c0.3,0,0.6,0.2,0.6,0.5S37.2,41.2,36.8,41.2C36.9,41.2,36.9,41.2,36.8,41.2z M33.9,41.2h-1.2
		c-0.3,0-0.6-0.2-0.6-0.5s0.2-0.6,0.5-0.6c0,0,0.1,0,0.1,0h1.2c0.3,0,0.6,0.2,0.6,0.5S34.3,41.2,33.9,41.2
		C34,41.2,34,41.2,33.9,41.2z M31.1,41.2h-1.2c-0.3,0-0.6-0.2-0.6-0.5s0.2-0.6,0.5-0.6c0,0,0.1,0,0.1,0h1.2c0.3,0,0.6,0.2,0.6,0.5
		S31.5,41.2,31.1,41.2C31.1,41.2,31.1,41.2,31.1,41.2z M28.2,41.2H27c-0.3,0-0.6-0.2-0.6-0.5s0.2-0.6,0.5-0.6c0,0,0.1,0,0.1,0h1.2
		c0.3,0,0.6,0.2,0.6,0.5S28.6,41.2,28.2,41.2C28.3,41.2,28.2,41.2,28.2,41.2L28.2,41.2z M25.3,41.2h-1.2c-0.3,0-0.6-0.2-0.6-0.5
		s0.2-0.6,0.5-0.6c0,0,0.1,0,0.1,0h1.2c0.3,0,0.6,0.2,0.6,0.5S25.7,41.2,25.3,41.2C25.4,41.2,25.4,41.2,25.3,41.2z M22.4,41.2h-1.2
		c-0.3,0-0.6-0.2-0.6-0.5s0.2-0.6,0.5-0.6c0,0,0.1,0,0.1,0h1.1c0.3,0,0.6,0.2,0.6,0.5S22.8,41.2,22.4,41.2
		C22.5,41.2,22.5,41.2,22.4,41.2L22.4,41.2z M19.6,41.2h-1.1c-0.3,0-0.6-0.2-0.6-0.5s0.2-0.6,0.5-0.6c0,0,0.1,0,0.1,0h1.1
		c0.3,0,0.6,0.2,0.6,0.5S20,41.2,19.6,41.2C19.6,41.2,19.6,41.2,19.6,41.2z M16.7,41.2h-1.2c-0.3,0-0.6-0.2-0.6-0.5s0.2-0.6,0.5-0.6
		c0,0,0.1,0,0.1,0h1.2c0.3,0,0.6,0.2,0.6,0.5S17.1,41.2,16.7,41.2C16.8,41.2,16.7,41.2,16.7,41.2z"/>
	<path id="路径_854" class="st0" d="M36.1,35.9h5c0.4,0,0.8-0.4,0.8-0.8v-3.3c0-0.4-0.4-0.8-0.8-0.8h-5c-0.4,0-0.8,0.4-0.8,0.8
		v3.3C35.3,35.5,35.6,35.9,36.1,35.9C36.1,35.9,36.1,35.9,36.1,35.9z"/>
	<path id="路径_855" class="st1" d="M41.1,36.4h-5c-0.8,0-1.4-0.6-1.4-1.4v-3.3c0-0.8,0.6-1.4,1.4-1.4h5c0.8,0,1.4,0.6,1.4,1.4
		v3.3C42.5,35.8,41.8,36.4,41.1,36.4z M36.1,31.5c-0.1,0-0.3,0.1-0.3,0.3v3.3c0,0.1,0.1,0.3,0.3,0.3h5c0.1,0,0.3-0.1,0.3-0.3v-3.3
		c0-0.1-0.1-0.3-0.3-0.3L36.1,31.5z"/>
	<circle id="椭圆_118" class="st0" cx="39.7" cy="22.2" r="4.7"/>
	<path id="路径_860" class="st1" d="M39.7,27.5c-2.9,0-5.3-2.4-5.3-5.3s2.4-5.3,5.3-5.3s5.3,2.4,5.3,5.3S42.6,27.5,39.7,27.5
		L39.7,27.5z M39.7,18c-2.3,0-4.2,1.9-4.2,4.2s1.9,4.2,4.2,4.2c2.3,0,4.2-1.9,4.2-4.2l0,0C43.9,19.9,42,18,39.7,18z"/>
	<g id="组_533" transform="translate(36.678 17.957)">
		<path id="路径_861" class="st0" d="M3.1,5.6v0.9"/>
		<path id="路径_862" class="st1" d="M3.1,7.1c-0.3,0-0.6-0.2-0.6-0.6l0,0V5.6c0-0.3,0.3-0.5,0.6-0.5c0.3,0,0.5,0.2,0.5,0.5v0.9
			C3.6,6.9,3.4,7.1,3.1,7.1z"/>
	</g>
	<path id="路径_863" class="st0" d="M42.3,23.6L42,23.1c-0.4-0.5-0.6-1-0.6-1.6v-0.3c0-0.9-0.6-1.6-1.5-1.7
		c-0.9-0.1-1.7,0.6-1.8,1.5c0,0.1,0,0.1,0,0.2v0.5c0,0.5-0.2,1-0.5,1.5l-0.3,0.5L42.3,23.6L42.3,23.6z"/>
	<path id="路径_864" class="st1" d="M42.3,24.1h-5c-0.3,0-0.6-0.2-0.6-0.6c0-0.1,0-0.2,0.1-0.3l0.3-0.5c0.2-0.3,0.4-0.7,0.4-1.1
		v-0.5c0-1.2,1-2.2,2.2-2.2c0.1,0,0.1,0,0.2,0c1.1,0.1,2,1.1,2,2.2v0.3c0,0.5,0.2,0.9,0.5,1.3l0.4,0.4c0.2,0.2,0.2,0.6-0.1,0.8
		C42.6,24.1,42.5,24.1,42.3,24.1L42.3,24.1z M38.3,23h2.9c-0.3-0.5-0.4-1-0.4-1.5v-0.3c0-0.6-0.4-1.1-1-1.1c-0.3,0-0.6,0.1-0.8,0.3
		c-0.2,0.2-0.4,0.5-0.4,0.8v0.5C38.7,22.1,38.6,22.6,38.3,23L38.3,23z"/>
	<circle id="椭圆_119" class="st0" cx="18.3" cy="38.5" r="7.7"/>
	<path id="路径_865" class="st1" d="M18.3,46.7c-4.6,0-8.3-3.7-8.3-8.3s3.7-8.3,8.3-8.3s8.3,3.7,8.3,8.3l0,0
		C26.6,43,22.8,46.7,18.3,46.7z M18.3,31.3c-4,0-7.2,3.2-7.2,7.2c0,4,3.2,7.2,7.2,7.2s7.2-3.2,7.2-7.2
		C25.4,34.5,22.2,31.3,18.3,31.3z"/>
	<path id="路径_867" class="st1" d="M18.5,42.4c-0.2,0-0.4-0.2-0.4-0.4v-0.3c-0.4,0-0.8-0.2-1.1-0.5c-0.2-0.2-0.4-0.5-0.4-0.8
		c-0.1-0.3,0.1-0.5,0.4-0.6c0.3-0.1,0.5,0.1,0.6,0.4c0,0.2,0.1,0.3,0.2,0.4c0.2,0.2,0.5,0.3,0.8,0.3c0.3,0,0.5-0.1,0.7-0.2
		c0.2-0.1,0.3-0.4,0.3-0.6c0-0.2-0.1-0.4-0.2-0.5c-0.3-0.2-0.6-0.4-0.9-0.5c-0.5-0.1-0.9-0.4-1.3-0.7c-0.3-0.3-0.4-0.7-0.4-1.1
		c0-0.4,0.1-0.9,0.5-1.2c0.3-0.3,0.6-0.4,1-0.5V35c0-0.2,0.2-0.4,0.4-0.4c0.2,0,0.4,0.2,0.4,0.4v0.4c0.4,0.1,0.7,0.3,1,0.6
		c0.2,0.2,0.3,0.5,0.4,0.8c0.1,0.3-0.1,0.5-0.4,0.6s-0.5-0.1-0.6-0.4c0-0.2-0.1-0.3-0.2-0.5c-0.2-0.2-0.4-0.3-0.7-0.3
		c-0.2,0-0.5,0.1-0.7,0.2c-0.2,0.2-0.2,0.4-0.2,0.6c0,0.2,0.1,0.4,0.2,0.5c0.3,0.2,0.6,0.3,0.9,0.4c0.4,0.1,0.7,0.3,1,0.5
		c0.2,0.1,0.4,0.4,0.5,0.6c0.1,0.3,0.2,0.5,0.2,0.8c0,0.4-0.2,0.9-0.5,1.2c-0.3,0.3-0.6,0.4-1,0.5v0.3C19,42.2,18.8,42.4,18.5,42.4
		L18.5,42.4z"/>
	<path id="路径_868" class="st1" d="M17,39.9c-0.1,0-0.2,0.1-0.2,0.2c0,0,0,0,0,0.1c0.1,0.3,0.2,0.5,0.4,0.7
		c0.3,0.3,0.6,0.4,1,0.5c0.1,0,0.2,0.1,0.2,0.2v0.3c0,0.1,0.1,0.2,0.2,0.2c0.1,0,0.2-0.1,0.2-0.2c0,0,0,0,0,0v-0.4
		c0-0.1,0.1-0.2,0.2-0.2c0.3,0,0.7-0.2,0.9-0.4c0.3-0.3,0.4-0.6,0.4-1c0-0.2,0-0.5-0.2-0.7c-0.1-0.2-0.3-0.4-0.5-0.5
		c-0.3-0.2-0.6-0.3-1-0.4c-0.4-0.1-0.7-0.3-1-0.5c-0.2-0.2-0.3-0.5-0.3-0.7c0-0.3,0.1-0.6,0.3-0.8c0.2-0.2,0.5-0.3,0.9-0.3
		c0.3,0,0.6,0.1,0.9,0.4c0.1,0.2,0.2,0.4,0.3,0.6c0,0.1,0.1,0.2,0.2,0.2c0.1,0,0.1,0,0.2-0.1c0-0.1,0.1-0.1,0-0.2
		c0-0.3-0.2-0.5-0.3-0.7c-0.2-0.3-0.5-0.4-0.9-0.5c-0.1,0-0.2-0.1-0.2-0.2V35c0-0.1-0.1-0.2-0.2-0.2c-0.1,0-0.2,0.1-0.2,0.2v0.4
		c0,0.1-0.1,0.2-0.2,0.2c-0.3,0-0.6,0.2-0.9,0.4c-0.3,0.3-0.4,0.6-0.4,1c0,0.4,0.1,0.7,0.4,1c0.3,0.3,0.8,0.5,1.2,0.6
		c0.4,0.1,0.7,0.3,1,0.5c0.2,0.2,0.3,0.4,0.3,0.7c0,0.3-0.1,0.6-0.3,0.8c-0.3,0.2-0.6,0.3-0.9,0.3c-0.4,0-0.7-0.1-1-0.3
		c-0.2-0.2-0.3-0.3-0.3-0.6C17.2,40,17.1,39.9,17,39.9L17,39.9z"/>
</g>
</svg>
