<?xml version="1.0" encoding="utf-8"?>
<!-- Generator: Adobe Illustrator 23.1.0, SVG Export Plug-In . SVG Version: 6.00 Build 0)  -->
<svg version="1.1" id="圖層_1" xmlns="http://www.w3.org/2000/svg" xmlns:xlink="http://www.w3.org/1999/xlink" x="0px" y="0px"
	 viewBox="0 0 40 40" style="enable-background:new 0 0 40 40;" xml:space="preserve">
<style type="text/css">
	.st0{fill:#AC6754;}
	.st1{fill:#3B1A16;}
	.st2{fill:#FFFFFF;}
	.st3{fill:#FBBB42;}
	.st4{fill:#4CB5BA;}
	.st5{fill:#30ACAB;}
</style>
<g id="组_761" transform="translate(-7.5 -11.827)">
	<g id="组_529" transform="translate(10.812 18.457)">
		<path id="路径_850" class="st0" d="M27.5,25H5.6c-1.4,0-2.5-1.1-2.5-2.4V8.1c0-1.4,1.2-2.5,2.5-2.4h21.9c1.4,0,2.5,1.1,2.5,2.4
			v14.4C30,23.9,28.8,25,27.5,25z"/>
		<path id="路径_851" class="st1" d="M27.4,25.5H5.6c-1.7,0-3.1-1.3-3.1-3V8.1c0-1.7,1.4-3,3.1-3h21.8c1.7,0,3.1,1.3,3.1,3v14.4
			C30.5,24.2,29.1,25.5,27.4,25.5z M5.6,6.2c-1.1,0-1.9,0.8-2,1.9v14.4c0,1.1,0.9,1.9,2,1.9h21.8c1.1,0,1.9-0.8,2-1.9V8.1
			c0-1.1-0.9-1.9-2-1.9H5.6z"/>
	</g>
	<path id="路径_852" class="st1" d="M39.1,27.4h-0.6c-0.3,0-0.6-0.2-0.6-0.5s0.2-0.6,0.5-0.6c0,0,0.1,0,0.1,0h0.6
		c0.3,0,0.6,0.2,0.6,0.5S39.5,27.4,39.1,27.4C39.2,27.4,39.2,27.4,39.1,27.4z M36.8,27.4h-1.2c-0.3,0-0.6-0.2-0.6-0.5
		s0.2-0.6,0.5-0.6c0,0,0.1,0,0.1,0h1.2c0.3,0,0.6,0.2,0.6,0.5S37.2,27.4,36.8,27.4C36.9,27.4,36.9,27.4,36.8,27.4z M33.9,27.4h-1.2
		c-0.3,0-0.6-0.2-0.6-0.5s0.2-0.6,0.5-0.6c0,0,0.1,0,0.1,0h1.2c0.3,0,0.6,0.2,0.6,0.5S34.3,27.4,33.9,27.4
		C34,27.4,34,27.4,33.9,27.4z M31.1,27.4h-1.2c-0.3,0-0.6-0.2-0.6-0.5s0.2-0.6,0.5-0.6c0,0,0.1,0,0.1,0h1.2c0.3,0,0.6,0.2,0.6,0.5
		S31.5,27.4,31.1,27.4C31.1,27.4,31.1,27.4,31.1,27.4z M28.2,27.4H27c-0.3,0-0.6-0.2-0.6-0.5s0.2-0.6,0.5-0.6c0,0,0.1,0,0.1,0h1.2
		c0.3,0,0.6,0.2,0.6,0.5S28.6,27.4,28.2,27.4C28.3,27.4,28.2,27.4,28.2,27.4L28.2,27.4z M25.3,27.4h-1.2c-0.3,0-0.6-0.2-0.6-0.5
		s0.2-0.6,0.5-0.6c0,0,0.1,0,0.1,0h1.2c0.3,0,0.6,0.2,0.6,0.5S25.7,27.4,25.3,27.4C25.4,27.4,25.4,27.4,25.3,27.4z M22.4,27.4h-1.2
		c-0.3,0-0.6-0.2-0.6-0.5s0.2-0.6,0.5-0.6c0,0,0.1,0,0.1,0h1.1c0.3,0,0.6,0.2,0.6,0.5S22.8,27.4,22.4,27.4
		C22.5,27.4,22.5,27.4,22.4,27.4L22.4,27.4z M19.6,27.4h-1.1c-0.3,0-0.6-0.2-0.6-0.5s0.2-0.6,0.5-0.6c0,0,0.1,0,0.1,0h1.1
		c0.3,0,0.6,0.2,0.6,0.5S20,27.4,19.6,27.4C19.6,27.4,19.6,27.4,19.6,27.4z M16.7,27.4h-1.2c-0.3,0-0.6-0.2-0.6-0.5s0.2-0.6,0.5-0.6
		c0,0,0.1,0,0.1,0h1.2c0.3,0,0.6,0.2,0.6,0.5S17.1,27.4,16.7,27.4C16.8,27.4,16.7,27.4,16.7,27.4z"/>
	<path id="路径_853" class="st1" d="M39.1,41.2h-0.6c-0.3,0-0.6-0.2-0.6-0.5s0.2-0.6,0.5-0.6c0,0,0.1,0,0.1,0h0.6
		c0.3,0,0.6,0.2,0.6,0.5S39.5,41.2,39.1,41.2C39.2,41.2,39.2,41.2,39.1,41.2z M36.8,41.2h-1.2c-0.3,0-0.6-0.2-0.6-0.5
		s0.2-0.6,0.5-0.6c0,0,0.1,0,0.1,0h1.2c0.3,0,0.6,0.2,0.6,0.5S37.2,41.2,36.8,41.2C36.9,41.2,36.9,41.2,36.8,41.2z M33.9,41.2h-1.2
		c-0.3,0-0.6-0.2-0.6-0.5s0.2-0.6,0.5-0.6c0,0,0.1,0,0.1,0h1.2c0.3,0,0.6,0.2,0.6,0.5S34.3,41.2,33.9,41.2
		C34,41.2,34,41.2,33.9,41.2z M31.1,41.2h-1.2c-0.3,0-0.6-0.2-0.6-0.5s0.2-0.6,0.5-0.6c0,0,0.1,0,0.1,0h1.2c0.3,0,0.6,0.2,0.6,0.5
		S31.5,41.2,31.1,41.2C31.1,41.2,31.1,41.2,31.1,41.2z M28.2,41.2H27c-0.3,0-0.6-0.2-0.6-0.5s0.2-0.6,0.5-0.6c0,0,0.1,0,0.1,0h1.2
		c0.3,0,0.6,0.2,0.6,0.5S28.6,41.2,28.2,41.2C28.3,41.2,28.2,41.2,28.2,41.2L28.2,41.2z M25.3,41.2h-1.2c-0.3,0-0.6-0.2-0.6-0.5
		s0.2-0.6,0.5-0.6c0,0,0.1,0,0.1,0h1.2c0.3,0,0.6,0.2,0.6,0.5S25.7,41.2,25.3,41.2C25.4,41.2,25.4,41.2,25.3,41.2z M22.4,41.2h-1.2
		c-0.3,0-0.6-0.2-0.6-0.5s0.2-0.6,0.5-0.6c0,0,0.1,0,0.1,0h1.1c0.3,0,0.6,0.2,0.6,0.5S22.8,41.2,22.4,41.2
		C22.5,41.2,22.5,41.2,22.4,41.2L22.4,41.2z M19.6,41.2h-1.1c-0.3,0-0.6-0.2-0.6-0.5s0.2-0.6,0.5-0.6c0,0,0.1,0,0.1,0h1.1
		c0.3,0,0.6,0.2,0.6,0.5S20,41.2,19.6,41.2C19.6,41.2,19.6,41.2,19.6,41.2z M16.7,41.2h-1.2c-0.3,0-0.6-0.2-0.6-0.5s0.2-0.6,0.5-0.6
		c0,0,0.1,0,0.1,0h1.2c0.3,0,0.6,0.2,0.6,0.5S17.1,41.2,16.7,41.2C16.8,41.2,16.7,41.2,16.7,41.2z"/>
	<g id="组_530" transform="translate(32.234 25.278)">
		<path id="路径_854" class="st0" d="M3.9,10.6h5c0.4,0,0.8-0.4,0.8-0.8V6.5c0-0.4-0.4-0.8-0.8-0.8h-5C3.4,5.6,3.1,6,3.1,6.5v3.3
			C3.1,10.3,3.4,10.6,3.9,10.6C3.9,10.6,3.9,10.6,3.9,10.6z"/>
		<path id="路径_855" class="st1" d="M8.9,11.2h-5c-0.8,0-1.4-0.6-1.4-1.4V6.5c0-0.8,0.6-1.4,1.4-1.4h5c0.8,0,1.4,0.6,1.4,1.4v3.3
			C10.2,10.6,9.6,11.2,8.9,11.2z M3.9,6.2c-0.1,0-0.3,0.1-0.3,0.3v3.3c0,0.1,0.1,0.3,0.3,0.3h5c0.1,0,0.3-0.1,0.3-0.3V6.5
			c0-0.1-0.1-0.3-0.3-0.3L3.9,6.2z"/>
	</g>
	<g id="组_532" transform="translate(31.902 11.827)">
		<circle id="椭圆_118" class="st2" cx="7.8" cy="10.4" r="4.7"/>
		<path id="路径_860" class="st1" d="M7.8,15.7c-2.9,0-5.3-2.4-5.3-5.3s2.4-5.3,5.3-5.3s5.3,2.4,5.3,5.3S10.7,15.7,7.8,15.7
			L7.8,15.7z M7.8,6.2c-2.3,0-4.2,1.9-4.2,4.2s1.9,4.2,4.2,4.2c2.3,0,4.2-1.9,4.2-4.2l0,0C12,8.1,10.1,6.2,7.8,6.2z"/>
	</g>
	<g id="组_533" transform="translate(36.678 17.957)">
		<path id="路径_861" class="st2" d="M3.1,5.6v0.9"/>
		<path id="路径_862" class="st1" d="M3.1,7.1c-0.3,0-0.6-0.2-0.6-0.6l0,0V5.6c0-0.3,0.3-0.5,0.6-0.5c0.3,0,0.5,0.2,0.5,0.5v0.9
			C3.6,6.9,3.4,7.1,3.1,7.1z"/>
	</g>
	<g id="组_534" transform="translate(34.246 13.838)">
		<path id="路径_863" class="st3" d="M8.1,9.7L7.7,9.3c-0.4-0.5-0.6-1-0.6-1.6V7.3c0-0.9-0.6-1.6-1.5-1.7C4.8,5.6,4,6.2,3.9,7.1
			c0,0.1,0,0.1,0,0.2v0.5c0,0.5-0.2,1-0.5,1.5L3.1,9.7L8.1,9.7L8.1,9.7z"/>
		<path id="路径_864" class="st1" d="M8.1,10.3h-5c-0.3,0-0.6-0.2-0.6-0.6c0-0.1,0-0.2,0.1-0.3l0.3-0.5c0.2-0.3,0.4-0.7,0.4-1.1
			V7.3c0-1.2,1-2.2,2.2-2.2c0.1,0,0.1,0,0.2,0c1.1,0.1,2,1.1,2,2.2v0.3c0,0.5,0.2,0.9,0.5,1.3l0.4,0.4c0.2,0.2,0.2,0.6-0.1,0.8
			C8.4,10.2,8.2,10.3,8.1,10.3L8.1,10.3z M4.1,9.2H7c-0.3-0.5-0.4-1-0.4-1.5V7.3c0-0.6-0.4-1.1-1-1.1C5.3,6.2,5,6.3,4.8,6.5
			C4.5,6.7,4.4,7,4.4,7.3v0.5C4.4,8.3,4.3,8.7,4.1,9.2L4.1,9.2z"/>
	</g>
	<g id="组_535" transform="translate(7.5 25.08)">
		<circle id="椭圆_119" class="st4" cx="10.8" cy="13.4" r="7.7"/>
		<path id="路径_865" class="st1" d="M10.8,21.7c-4.6,0-8.3-3.7-8.3-8.3s3.7-8.3,8.3-8.3s8.3,3.7,8.3,8.3l0,0
			C19.1,17.9,15.3,21.6,10.8,21.7z M10.8,6.2c-4,0-7.2,3.2-7.2,7.2c0,4,3.2,7.2,7.2,7.2s7.2-3.2,7.2-7.2C17.9,9.4,14.7,6.2,10.8,6.2
			z"/>
	</g>
	<path id="路径_866" class="st5" d="M18.3,45.1c-3.7,0-6.6-3-6.6-6.6s3-6.6,6.6-6.6s6.6,3,6.6,6.6C24.9,42.1,21.9,45.1,18.3,45.1z
		 M18.3,32.9c-3,0-5.5,2.5-5.5,5.5c0,3,2.5,5.5,5.5,5.5c3,0,5.5-2.5,5.5-5.5C23.8,35.4,21.3,32.9,18.3,32.9z"/>
	<path id="路径_867" class="st1" d="M18.5,42.4c-0.2,0-0.4-0.2-0.4-0.4v-0.3c-0.4,0-0.8-0.2-1.1-0.5c-0.2-0.2-0.4-0.5-0.4-0.8
		c-0.1-0.3,0.1-0.5,0.4-0.6c0.3-0.1,0.5,0.1,0.6,0.4c0,0.2,0.1,0.3,0.2,0.4c0.2,0.2,0.5,0.3,0.8,0.3c0.3,0,0.5-0.1,0.7-0.2
		c0.2-0.1,0.3-0.4,0.3-0.6c0-0.2-0.1-0.4-0.2-0.5c-0.3-0.2-0.6-0.4-0.9-0.5c-0.5-0.1-0.9-0.4-1.3-0.7c-0.3-0.3-0.4-0.7-0.4-1.1
		c0-0.4,0.1-0.9,0.5-1.2c0.3-0.3,0.6-0.4,1-0.5V35c0-0.2,0.2-0.4,0.4-0.4c0.2,0,0.4,0.2,0.4,0.4v0.4c0.4,0.1,0.7,0.3,1,0.6
		c0.2,0.2,0.3,0.5,0.4,0.8c0.1,0.3-0.1,0.5-0.4,0.6s-0.5-0.1-0.6-0.4c0-0.2-0.1-0.3-0.2-0.5c-0.2-0.2-0.4-0.3-0.7-0.3
		c-0.2,0-0.5,0.1-0.7,0.2c-0.2,0.2-0.2,0.4-0.2,0.6c0,0.2,0.1,0.4,0.2,0.5c0.3,0.2,0.6,0.3,0.9,0.4c0.4,0.1,0.7,0.3,1,0.5
		c0.2,0.1,0.4,0.4,0.5,0.6c0.1,0.3,0.2,0.5,0.2,0.8c0,0.4-0.2,0.9-0.5,1.2c-0.3,0.3-0.6,0.4-1,0.5v0.3C19,42.2,18.8,42.4,18.5,42.4
		L18.5,42.4z"/>
	<path id="路径_868" class="st1" d="M17,39.9c-0.1,0-0.2,0.1-0.2,0.2c0,0,0,0,0,0.1c0.1,0.3,0.2,0.5,0.4,0.7
		c0.3,0.3,0.6,0.4,1,0.5c0.1,0,0.2,0.1,0.2,0.2v0.3c0,0.1,0.1,0.2,0.2,0.2c0.1,0,0.2-0.1,0.2-0.2c0,0,0,0,0,0v-0.4
		c0-0.1,0.1-0.2,0.2-0.2c0.3,0,0.7-0.2,0.9-0.4c0.3-0.3,0.4-0.6,0.4-1c0-0.2,0-0.5-0.2-0.7c-0.1-0.2-0.3-0.4-0.5-0.5
		c-0.3-0.2-0.6-0.3-1-0.4c-0.4-0.1-0.7-0.3-1-0.5c-0.2-0.2-0.3-0.5-0.3-0.7c0-0.3,0.1-0.6,0.3-0.8c0.2-0.2,0.5-0.3,0.9-0.3
		c0.3,0,0.6,0.1,0.9,0.4c0.1,0.2,0.2,0.4,0.3,0.6c0,0.1,0.1,0.2,0.2,0.2c0.1,0,0.1,0,0.2-0.1c0-0.1,0.1-0.1,0-0.2
		c0-0.3-0.2-0.5-0.3-0.7c-0.2-0.3-0.5-0.4-0.9-0.5c-0.1,0-0.2-0.1-0.2-0.2V35c0-0.1-0.1-0.2-0.2-0.2c-0.1,0-0.2,0.1-0.2,0.2v0.4
		c0,0.1-0.1,0.2-0.2,0.2c-0.3,0-0.6,0.2-0.9,0.4c-0.3,0.3-0.4,0.6-0.4,1c0,0.4,0.1,0.7,0.4,1c0.3,0.3,0.8,0.5,1.2,0.6
		c0.4,0.1,0.7,0.3,1,0.5c0.2,0.2,0.3,0.4,0.3,0.7c0,0.3-0.1,0.6-0.3,0.8c-0.3,0.2-0.6,0.3-0.9,0.3c-0.4,0-0.7-0.1-1-0.3
		c-0.2-0.2-0.3-0.3-0.3-0.6C17.2,40,17.1,39.9,17,39.9L17,39.9z"/>
</g>
</svg>
