<svg xmlns="http://www.w3.org/2000/svg" width="20" height="25.512" viewBox="0 0 20 25.512">
  <g id="Group_764" data-name="Group 764" transform="translate(-21.572 -9.879)">
    <path id="Path_1071" data-name="Path 1071" d="M24.722,89.349H43.253v5.976H24.722Z" transform="translate(-2.415 -60.668)" fill="#e3e0ee"/>
    <path id="Path_1072" data-name="Path 1072" d="M36.054,19.823a5.98,5.98,0,1,0-8.964,0,6.294,6.294,0,0,0-5.518,6.238v8.588a.742.742,0,0,0,.742.742H40.83a.742.742,0,0,0,.742-.742V26.061a6.294,6.294,0,0,0-5.518-6.238Zm4.034,14.084H23.056V26.061a4.806,4.806,0,0,1,4.8-4.8h1.32a.742.742,0,0,0,.34-1.4,4.5,4.5,0,1,1,4.111,0,.742.742,0,0,0,.34,1.4h1.32a4.806,4.806,0,0,1,4.8,4.8v7.846Z" fill="#6f5b62"/>
  </g>
</svg>
