<svg xmlns="http://www.w3.org/2000/svg" width="65" height="24.864" viewBox="0 0 65 24.864">
  <path id="Path_50" data-name="Path 50" d="M9810.527,11066.757a2.822,2.822,0,0,1,2.82-2.82c.032,0,.061.009.091.01v-7.6a1.518,1.518,0,0,0-1.519-1.519h-60.962a1.519,1.519,0,0,0-1.52,1.519v20.827a1.519,1.519,0,0,0,1.52,1.519h60.962a1.518,1.518,0,0,0,1.519-1.519v-7.6c-.03,0-.059.01-.091.01A2.822,2.822,0,0,1,9810.527,11066.757Z" transform="translate(-9748.938 -11054.325)" fill="none" stroke="#d4d5d5" stroke-miterlimit="10" stroke-width="1"/>
</svg>
