<svg xmlns="http://www.w3.org/2000/svg" width="37" height="37" viewBox="0 0 37 37">
  <g id="Group_627" data-name="Group 627" transform="translate(-75 -827)">
    <circle id="Ellipse_59" data-name="Ellipse 59" cx="18.5" cy="18.5" r="18.5" transform="translate(75 827)" fill="#625f5e" opacity="0.8"/>
    <g id="Group_605" data-name="Group 605" transform="translate(51.664 799.724)">
      <path id="Path_1094" data-name="Path 1094" d="M52.138,40.478s-1.343-1.157-2.476-.512c-.872.5-6.411,3.281-8.882,4.518l-3.5-2a2.884,2.884,0,0,0,.239-2.2,4.1,4.1,0,0,0-1.953-2.426c-1.816-1.041-4-.645-4.87.884a2.886,2.886,0,0,0-.248,2.215A4.114,4.114,0,0,0,32.4,43.385a4.453,4.453,0,0,0,1.373.505h0a.044.044,0,0,1,.011,0c.037.005.078.014.119.019a10.486,10.486,0,0,1,5.069,1.815,10.477,10.477,0,0,1-5.069,1.816c-.04,0-.082.012-.119.018l-.011,0h0a4.448,4.448,0,0,0-1.373.506A4.115,4.115,0,0,0,30.449,50.5a2.889,2.889,0,0,0,.248,2.217c.872,1.526,3.054,1.924,4.87.883a4.108,4.108,0,0,0,1.953-2.429,2.886,2.886,0,0,0-.239-2.2l3.5-2c2.47,1.237,8.01,4.019,8.882,4.518,1.133.645,2.476-.51,2.476-.51l-9.184-5.25ZM35.79,41.651a1.885,1.885,0,0,1-2.537.246A2.418,2.418,0,0,1,32.1,40.509a1.2,1.2,0,0,1,.082-.919,1.883,1.883,0,0,1,2.534-.247,2.376,2.376,0,0,1,1.152,1.389A1.208,1.208,0,0,1,35.79,41.651Zm.078,9.07a2.376,2.376,0,0,1-1.152,1.39,1.879,1.879,0,0,1-2.534-.247,1.2,1.2,0,0,1-.082-.917,2.426,2.426,0,0,1,1.154-1.393,1.884,1.884,0,0,1,2.537.248A1.205,1.205,0,0,1,35.869,50.722Z" fill="#f0d870"/>
      <rect id="Rectangle_174" data-name="Rectangle 174" width="2.25" height="0.926" transform="translate(45.145 45.274)" fill="#f0d870"/>
      <rect id="Rectangle_175" data-name="Rectangle 175" width="2.248" height="0.926" transform="translate(48.519 45.274)" fill="#f0d870"/>
      <rect id="Rectangle_176" data-name="Rectangle 176" width="2.246" height="0.925" transform="translate(52.089 45.264)" fill="#f0d870"/>
    </g>
  </g>
</svg>
