<svg xmlns="http://www.w3.org/2000/svg" width="23.812" height="25.066" viewBox="0 0 23.812 25.066">
  <g id="Group_934" data-name="Group 934" transform="translate(-15.742 -13.137)">
    <path id="Path_1192" data-name="Path 1192" d="M16.529,37.236a.544.544,0,0,1-.536-.527,2.533,2.533,0,0,1,.084-.634c.018-.084.036-.167.052-.251a10.513,10.513,0,0,1,2.035-4.519,10.93,10.93,0,0,1,4.224-3.318l.193-.09a.611.611,0,0,0,.118-1.033l-.242-.187c-.163-.125-.316-.243-.459-.366a7.271,7.271,0,0,1-.783-10.338,7.151,7.151,0,0,1,4.227-2.436,8.677,8.677,0,0,1,1.58-.151,7.345,7.345,0,0,1,4.885,1.87,7.024,7.024,0,0,1,2.4,4.247A7.265,7.265,0,0,1,31.3,26.732l-.1.075-.055.042a.611.611,0,0,0,.122,1.052,12.639,12.639,0,0,1,1.917,1.042l.09.058a.861.861,0,0,1,.27.214.615.615,0,0,1,.021.647.505.505,0,0,1-.494.267.415.415,0,0,1-.29-.094A5.642,5.642,0,0,0,31.5,29.2a9.54,9.54,0,0,0-3.585-1.057c-.342-.03-.684-.045-1.016-.045a9.692,9.692,0,0,0-6.045,2.043A9.531,9.531,0,0,0,17.2,36.079c-.023.119-.042.239-.06.359s-.04.256-.066.383a.534.534,0,0,1-.5.417Z" fill="#fff" stroke="#fff" stroke-width="0.5"/>
    <path id="Path_1193" data-name="Path 1193" d="M100.162,107.657a.407.407,0,0,1-.288-.119l-2.591-2.591a.407.407,0,0,1,.576-.576l2.208,2.208,2.82-5.133a.407.407,0,0,1,.714.392l-3.081,5.609a.407.407,0,0,1-.3.207A.389.389,0,0,1,100.162,107.657Z" transform="translate(-64.639 -69.954)" fill="#d96771" stroke="#d96771" stroke-width="1"/>
  </g>
</svg>
