<svg xmlns="http://www.w3.org/2000/svg" width="24.753" height="25.638" viewBox="0 0 24.753 25.638">
  <g id="Group_911" data-name="Group 911" transform="translate(-15.742 -13.137)">
    <path id="Path_1165" data-name="Path 1165" d="M99.305,105.314a.673.673,0,0,1-.282-.133.466.466,0,0,1-.179-.367c0-.522,0-1.044,0-1.566v-.791a.606.606,0,0,0-.606-.606H96.932q-.492,0-.983,0a.538.538,0,0,1-.558-.424.488.488,0,0,1,.087-.4.423.423,0,0,1,.31-.172c.362-.024.725-.025,1.109-.025.151,0,.3,0,.453,0l.329,0h.562a.606.606,0,0,0,.606-.606v-.8c0-.491,0-.983,0-1.474a.542.542,0,0,1,.525-.556h0a.5.5,0,0,1,.521.5c0,.5,0,1,.005,1.5v.822a.606.606,0,0,0,.606.606h.25l.641,0c.369,0,.737,0,1.106,0h.272a.524.524,0,0,1,.556.411.5.5,0,0,1-.1.427.475.475,0,0,1-.364.2c-.3.005-.6.007-.893.007l-1.45,0a.606.606,0,0,0-.606.606l0,2.261a.531.531,0,0,1-.478.59l-.018,0Z" transform="translate(-63.354 -67.038)" fill="#eac759" stroke="#eac759" stroke-width="1"/>
    <path id="Path_1166" data-name="Path 1166" d="M16.524,37.037a.54.54,0,0,1-.531-.522,2.512,2.512,0,0,1,.084-.628c.018-.083.035-.166.051-.249a10.425,10.425,0,0,1,2.018-4.481,10.838,10.838,0,0,1,4.189-3.29l.191-.089a.606.606,0,0,0,.117-1.025l-.24-.186c-.161-.124-.314-.241-.455-.363a7.211,7.211,0,0,1-.777-10.251,7.091,7.091,0,0,1,4.192-2.416,8.6,8.6,0,0,1,1.567-.149,7.284,7.284,0,0,1,4.845,1.854,6.965,6.965,0,0,1,2.384,4.211,7.2,7.2,0,0,1-2.986,7.169l-.1.074-.055.041a.606.606,0,0,0,.121,1.043,12.533,12.533,0,0,1,1.9,1.033l.09.058a.854.854,0,0,1,.268.212.61.61,0,0,1,.021.642.5.5,0,0,1-.49.264.412.412,0,0,1-.288-.093,5.6,5.6,0,0,0-1.267-.825,9.461,9.461,0,0,0-3.555-1.048c-.339-.029-.678-.044-1.007-.044A9.611,9.611,0,0,0,20.815,30a9.452,9.452,0,0,0-3.625,5.885c-.023.118-.041.237-.06.356s-.04.254-.066.38a.529.529,0,0,1-.5.414Zm10.265-22.6a6,6,0,0,0-2.621.578,6.253,6.253,0,0,0-3.72,5.68.617.617,0,0,0,0,.1c.012.1.021.2.032.3a7.687,7.687,0,0,0,.106.8,6.3,6.3,0,0,0,5.832,5.041q.195.011.387.011a6.454,6.454,0,0,0,3.236-.861,6.251,6.251,0,0,0,3-6.664,6.341,6.341,0,0,0-5.942-4.981Q26.948,14.437,26.79,14.437Z" transform="translate(0)" fill="#8d8e8f" stroke="#8d8e8f" stroke-width="0.5"/>
  </g>
</svg>
