<svg xmlns="http://www.w3.org/2000/svg" width="57" height="57" viewBox="0 0 57 57">
  <g id="Group_617" data-name="Group 617" transform="translate(-2.5 -2.5)">
    <path id="Path_1113" data-name="Path 1113" d="M59.5,31A28.5,28.5,0,1,1,31,2.5,28.5,28.5,0,0,1,59.5,31Z" fill="#bfd0d8"/>
    <path id="Path_1114" data-name="Path 1114" d="M68.728,48.946a28.311,28.311,0,0,0-.574-5.684L61.4,36.548a3.029,3.029,0,0,0-3.038,3.019v3.775L52.434,37.46a16.89,16.89,0,0,0-26.379,2.446l-3.4-3.357H21.617v.84l-.941-.84H19.624v.84l-.941-.84H17.65V41a2.466,2.466,0,0,0,.758,1.775l.8.784v5.031h-.926V59.922a1.409,1.409,0,0,0,.452,1.035L34.588,76.732a28.823,28.823,0,0,0,5.622.552A28.429,28.429,0,0,0,68.728,48.946Z" transform="translate(-9.228 -17.784)" fill="#8fa5b6"/>
    <path id="Path_1115" data-name="Path 1115" d="M65.988,49.108A16.881,16.881,0,1,1,49.108,32.227,16.88,16.88,0,0,1,65.988,49.108Z" transform="translate(-18.108 -18.108)" fill="#fff"/>
    <path id="Path_1116" data-name="Path 1116" d="M91.719,49.108A16.8,16.8,0,0,1,75,65.988V32.227A16.8,16.8,0,0,1,91.719,49.108Z" transform="translate(-43.932 -18.108)" fill="#ebebed"/>
    <path id="Path_1117" data-name="Path 1117" d="M68.971,58.174a10.8,10.8,0,1,1-10.8-10.8A10.8,10.8,0,0,1,68.971,58.174Z" transform="translate(-27.174 -27.174)" fill="#bfd0d8"/>
    <path id="Path_1118" data-name="Path 1118" d="M85.8,58.174A10.8,10.8,0,0,1,75,68.971V47.377A10.8,10.8,0,0,1,85.8,58.174Z" transform="translate(-43.962 -27.174)" fill="#8fa5b6"/>
    <path id="Path_1119" data-name="Path 1119" d="M21.592,43.283v3.58a.467.467,0,0,1-.935,0v-3.58H19.612v3.58a.467.467,0,1,1-.934,0v-3.58H17.65v4.453a2.493,2.493,0,0,0,1.55,2.3v8.2h1.87v-8.2a2.493,2.493,0,0,0,1.549-2.3V43.283Z" transform="translate(-9.228 -24.718)" fill="#fff"/>
    <path id="Path_1120" data-name="Path 1120" d="M21.33,86.845h-.647a1.421,1.421,0,0,1-1.42-1.421V74.093H22.75V85.424A1.421,1.421,0,0,1,21.33,86.845Z" transform="translate(-10.21 -43.403)" fill="#49b09b"/>
    <path id="Path_1121" data-name="Path 1121" d="M124.16,43.283a3.019,3.019,0,0,0-3.019,3.019v7.377H122.5v3.207h1.66Z" transform="translate(-71.944 -24.722)" fill="#fff"/>
    <path id="Path_1122" data-name="Path 1122" d="M123.664,86.845h.647a1.421,1.421,0,0,0,1.42-1.421V74.093h-3.488V85.424A1.421,1.421,0,0,0,123.664,86.845Z" transform="translate(-72.616 -43.403)" fill="#25967c"/>
  </g>
</svg>
