<svg xmlns="http://www.w3.org/2000/svg" width="55.886" height="55.886" viewBox="0 0 55.886 55.886">
  <g id="Group_727" data-name="Group 727" transform="translate(-2.5 -2.5)">
    <path id="Path_1146" data-name="Path 1146" d="M58.386,30.443A27.943,27.943,0,1,1,30.443,2.5,27.943,27.943,0,0,1,58.386,30.443Z" transform="translate(0 0)" fill="#e7e9eb"/>
    <path id="Path_1147" data-name="Path 1147" d="M76.071,55.875,56.683,36.487,50.9,42.271l-.141-.141-9.342,9.342-5.164-5.164L31.878,50.68l5.164,5.164-3.989,3.989,3.089,3.089-1.031,1.031,3.123,3.123L37.171,68.14,48.3,79.271l.2,0A27.949,27.949,0,0,0,76.071,55.875Z" transform="translate(-18.055 -20.888)" fill="#e7dadb"/>
    <path id="Path_1148" data-name="Path 1148" d="M99.045,105.077H101.1v5.217H99.045Z" transform="translate(-59.335 -63.042)" fill="#412719"/>
    <path id="Path_1149" data-name="Path 1149" d="M45.612,105.077h2.059v5.217H45.612Z" transform="translate(-26.496 -63.042)" fill="#5d3a23"/>
    <path id="Path_1150" data-name="Path 1150" d="M40.269,91.719H67.041V97.9H40.269Z" transform="translate(-23.212 -54.832)" fill="#d69385"/>
    <path id="Path_1151" data-name="Path 1151" d="M75,91.719H88.386V97.9H75Z" transform="translate(-44.557 -54.832)" fill="#bc6c51"/>
    <path id="Path_1152" data-name="Path 1152" d="M67.041,76.524l-2.059,4.119H42.328l-2.059-4.551,2.059-3.686,11.327-2.059,11.327,2.059Z" transform="translate(-23.212 -41.697)" fill="#fcc698"/>
    <path id="Path_1153" data-name="Path 1153" d="M88.386,76.524l-2.059,4.119H75v-10.3l11.327,2.059Z" transform="translate(-44.557 -41.697)" fill="#f4a487"/>
    <path id="Path_1154" data-name="Path 1154" d="M68.265,38.817v7.208H45.612V38.817a11.327,11.327,0,1,1,22.653,0Z" transform="translate(-26.496 -15.317)" fill="#d69385"/>
    <path id="Path_1155" data-name="Path 1155" d="M86.327,46.025H75v-18.6a11.318,11.318,0,0,1,8.011,3.315,11.479,11.479,0,0,1,3.315,8.08Z" transform="translate(-44.557 -15.317)" fill="#bc6c51"/>
    <path id="Path_1156" data-name="Path 1156" d="M61.642,43.63H63.7v2.059H61.642Z" transform="translate(-36.348 -25.278)" fill="#5d3a23"/>
    <path id="Path_1157" data-name="Path 1157" d="M83.015,43.63h2.059v2.059H83.015Z" transform="translate(-49.483 -25.278)" fill="#412719"/>
    <path id="Path_1158" data-name="Path 1158" d="M61.642,54.316H63.7v2.059H61.642Z" transform="translate(-36.348 -31.845)" fill="#5d3a23"/>
    <path id="Path_1159" data-name="Path 1159" d="M83.015,54.316h2.059v2.059H83.015Z" transform="translate(-49.483 -31.845)" fill="#412719"/>
    <path id="Path_1160" data-name="Path 1160" d="M61.642,65H63.7v2.059H61.642Z" transform="translate(-36.348 -38.413)" fill="#5d3a23"/>
    <path id="Path_1161" data-name="Path 1161" d="M83.015,65h2.059v2.059H83.015Z" transform="translate(-49.483 -38.413)" fill="#412719"/>
    <path id="Path_1162" data-name="Path 1162" d="M35.651,74.075V62.748a3.089,3.089,0,0,0-3.089-3.089,3.069,3.069,0,0,0-1.029,5.989v8.426Z" transform="translate(-16.535 -35.129)" fill="#daada2"/>
    <path id="Path_1163" data-name="Path 1163" d="M107.477,59.659a3.089,3.089,0,0,0-3.089,3.089V74.075h4.119V65.648a3.069,3.069,0,0,0-1.029-5.989Z" transform="translate(-62.619 -35.129)" fill="#bc6c51"/>
  </g>
</svg>
