<svg xmlns="http://www.w3.org/2000/svg" width="57.026" height="57" viewBox="0 0 57.026 57">
  <g id="Group_913" data-name="Group 913" transform="translate(-2.5 -1.785)">
    <circle id="Ellipse_76" data-name="Ellipse 76" cx="28.5" cy="28.5" r="28.5" transform="translate(2.5 1.785)" fill="#f5d2d0"/>
    <path id="Path_1179" data-name="Path 1179" d="M75.777,42.418,62.212,29.212l-7.456,7.539-7.48,16.281L31.67,59.513,47.179,75.059c4.83-.111,11.747-.81,17.717-5.591C71.971,63.8,77.835,54.333,75.777,42.418Z" transform="translate(-16.668 -16.274)" fill="#e3a5a6"/>
    <g id="Group_930" data-name="Group 930" transform="translate(14.247 11.005)">
      <g id="Group_923" data-name="Group 923" transform="translate(0 7.908)">
        <g id="Group_922" data-name="Group 922">
          <path id="Path_1180" data-name="Path 1180" d="M49.137,69.976a20.9,20.9,0,0,1-7.788-1.483,7.318,7.318,0,0,1-1.365.821h0a7.061,7.061,0,0,1-4.591.476l-2.986-.676,1.754-1.266a5.472,5.472,0,0,0,1.909-2.7,11.239,11.239,0,0,1-3.663-7.978c0-7.027,7.541-12.744,16.731-12.744a21.507,21.507,0,0,1,4.863.55c7.06,1.637,11.868,6.538,11.868,12.195C65.868,64.194,58.326,69.976,49.137,69.976Z" transform="translate(-32.406 -44.422)" fill="#b5cfc3"/>
        </g>
      </g>
      <path id="Path_1181" data-name="Path 1181" d="M91.731,57.166c0-5.657-4.808-10.558-11.868-12.195A21.507,21.507,0,0,0,75,44.422V69.976C84.19,69.976,91.731,64.194,91.731,57.166Z" transform="translate(-58.269 -36.514)" fill="#a1c4b4"/>
      <g id="Group_929" data-name="Group 929" transform="translate(6.131 22.271)">
        <g id="Group_924" data-name="Group 924">
          <path id="Path_1182" data-name="Path 1182" d="M50.315,85.592a2.3,2.3,0,1,1,2.3-2.3A2.3,2.3,0,0,1,50.315,85.592Z" transform="translate(-48.014 -80.989)" fill="#304747"/>
        </g>
        <g id="Group_926" data-name="Group 926" transform="translate(8.299)">
          <g id="Group_925" data-name="Group 925">
            <path id="Path_1183" data-name="Path 1183" d="M71.442,85.592a2.3,2.3,0,1,1,2.3-2.3A2.3,2.3,0,0,1,71.442,85.592Z" transform="translate(-69.141 -80.989)" fill="#304747"/>
          </g>
        </g>
        <path id="Path_1184" data-name="Path 1184" d="M75,80.989h0v4.6h0a2.3,2.3,0,0,0,0-4.6Z" transform="translate(-64.396 -80.989)" fill="#202c2b"/>
        <g id="Group_928" data-name="Group 928" transform="translate(16.651)">
          <g id="Group_927" data-name="Group 927">
            <path id="Path_1185" data-name="Path 1185" d="M92.706,85.592a2.3,2.3,0,1,1,2.3-2.3A2.3,2.3,0,0,1,92.706,85.592Z" transform="translate(-90.404 -80.989)" fill="#202c2b"/>
          </g>
        </g>
      </g>
      <path id="Path_1186" data-name="Path 1186" d="M83.269,34.916l-6.7,6.686a1.022,1.022,0,0,0-.249.4l-.758,2.275a1.968,1.968,0,0,0,2.487,2.49l2.294-.762a1.022,1.022,0,0,0,.4-.248l7.046-7.046a1.024,1.024,0,0,0-.017-1.466L85.411,35a1.024,1.024,0,0,0-.57-.274l-.664-.44C83.861,34.24,83.495,34.69,83.269,34.916Z" transform="translate(-58.544 -30.356)" fill="#fdd75a"/>
      <path id="Path_1187" data-name="Path 1187" d="M102.647,24.29l-2.889,2.83.2,1.586-.03,0,3.358,3.2,3.478-3.5Z" transform="translate(-73.302 -24.29)" fill="#ffefbc"/>
      <path id="Path_1188" data-name="Path 1188" d="M100.421,37.023l-4.157-4.157,1.372-1.373,4.157,4.157Z" transform="translate(-71.181 -28.664)" fill="#202c2b"/>
    </g>
  </g>
</svg>
