<svg xmlns="http://www.w3.org/2000/svg" width="23.724" height="22.201" viewBox="0 0 23.724 22.201">
  <g id="Group_893" data-name="Group 893" transform="translate(-8.972 -10.289)">
    <path id="Path_1155" data-name="Path 1155" d="M9.428,44.55a.453.453,0,1,1,0-.905H32.246a.453.453,0,1,1,0,.905Z" transform="translate(-0.003 -26.512)" fill="#a4a5a2"/>
    <g id="Group_890" data-name="Group 890" transform="translate(14.296 10.299)">
      <path id="Path_1156" data-name="Path 1156" d="M35.375,18.078a.453.453,0,0,1-.339-.753l6.085-6.845a.478.478,0,0,1,.677,0l6.085,6.846a.453.453,0,0,1-.678.6l-5.516-6.206a.308.308,0,0,0-.46,0l-5.516,6.206A.454.454,0,0,1,35.375,18.078Z" transform="translate(-34.923 -10.338)" fill="#a4a5a2"/>
    </g>
    <g id="Group_891" data-name="Group 891" transform="translate(8.972 10.289)">
      <path id="Path_1157" data-name="Path 1157" d="M20.834,32.49a.458.458,0,0,1-.357-.172L9.069,17.867a.451.451,0,0,1-.029-.52l3.8-6.086a.454.454,0,0,1,.338-.21l7.607-.761.047,0,.061,0,6.078.76a.453.453,0,0,1,.282.151l5.325,6.086a.452.452,0,0,1,.016.579L21.189,32.318A.453.453,0,0,1,20.834,32.49ZM20.794,11.2l-7.15.715a.307.307,0,0,0-.23.143l-3.322,5.315a.308.308,0,0,0,.019.354L20.592,31a.308.308,0,0,0,.483,0L31.5,17.8a.308.308,0,0,0-.01-.394l-4.717-5.391a.308.308,0,0,0-.193-.1L20.863,11.2l-.038,0Z" transform="translate(-8.972 -10.289)" fill="#a4a5a2"/>
    </g>
    <path id="Path_1158" data-name="Path 1158" d="M41.461,59.005a.454.454,0,0,1-.418-.278l-6.084-14.45a.453.453,0,0,1,.836-.351l6.084,14.451a.454.454,0,0,1-.242.593A.467.467,0,0,1,41.461,59.005Z" transform="translate(-20.626 -26.515)" fill="#a4a5a2"/>
    <g id="Group_892" data-name="Group 892" transform="translate(20.381 17.132)">
      <path id="Path_1159" data-name="Path 1159" d="M65.031,59a.464.464,0,0,1-.178-.036.453.453,0,0,1-.24-.593L70.7,43.918a.453.453,0,1,1,.835.352L65.449,58.721A.453.453,0,0,1,65.031,59Z" transform="translate(-64.578 -43.64)" fill="#a4a5a2"/>
    </g>
    <path id="Path_1160" data-name="Path 1160" d="M29.488,20.977a.449.449,0,0,1-.437-.342l-1.522-6.086a.445.445,0,0,1,.049-.342.457.457,0,0,1,.389-.221.458.458,0,0,1,.438.344l1.521,6.085a.453.453,0,0,1-.439.562Z" transform="translate(-14.738 -2.938)" fill="#a4a5a2"/>
    <path id="Path_1161" data-name="Path 1161" d="M94.687,20.979a.453.453,0,0,1-.453-.453V14.442a.453.453,0,1,1,.906,0v6.085A.453.453,0,0,1,94.687,20.979Z" transform="translate(-67.768 -2.941)" fill="#a4a5a2"/>
  </g>
</svg>
