<svg xmlns="http://www.w3.org/2000/svg" width="37" height="37" viewBox="0 0 37 37">
  <g id="Group_632" data-name="Group 632" transform="translate(-75 -827)">
    <circle id="Ellipse_59" data-name="Ellipse 59" cx="18.5" cy="18.5" r="18.5" transform="translate(75 827)" fill="#3e3a39" opacity="0.8"/>
    <g id="Group_631" data-name="Group 631" transform="matrix(0.966, -0.259, 0.259, 0.966, 69.001, 814.27)">
      <g id="Group_630" data-name="Group 630" transform="translate(4.834 28.32)">
        <g id="Group_629" data-name="Group 629" transform="translate(0)">
          <path id="Path_1108" data-name="Path 1108" d="M25.165,33.943a.432.432,0,0,0,.433-.433V30.05a1.732,1.732,0,0,0-1.73-1.73H6.564a1.732,1.732,0,0,0-1.73,1.73v3.46a.432.432,0,0,0,.433.433,2.163,2.163,0,0,1,0,4.326.432.432,0,0,0-.433.433v3.46a1.732,1.732,0,0,0,1.73,1.73h17.3a1.732,1.732,0,0,0,1.73-1.73V38.7a.432.432,0,0,0-.433-.433,2.163,2.163,0,0,1,0-4.326Zm-3.028,2.163a3.032,3.032,0,0,0,2.6,3v3.059a.866.866,0,0,1-.865.865H6.564a.866.866,0,0,1-.865-.865V39.1a3.028,3.028,0,0,0,0-5.994V30.05a.866.866,0,0,1,.865-.865h17.3a.866.866,0,0,1,.865.865v3.059A3.033,3.033,0,0,0,22.137,36.106Z" transform="translate(-4.834 -28.32)" fill="#f0d870"/>
          <path id="Path_1109" data-name="Path 1109" d="M34.2,37.361a.432.432,0,0,0-.433.433v.973a.433.433,0,1,0,.865,0v-.973A.432.432,0,0,0,34.2,37.361Z" transform="translate(-28.573 -35.739)" fill="#f0d870"/>
          <path id="Path_1110" data-name="Path 1110" d="M34.2,57.25a.432.432,0,0,0-.433.433v.865a.433.433,0,0,0,.865,0v-.865A.433.433,0,0,0,34.2,57.25Z" transform="translate(-28.573 -52.059)" fill="#f0d870"/>
          <path id="Path_1111" data-name="Path 1111" d="M34.2,76.537a.432.432,0,0,0-.433.433v.865a.433.433,0,1,0,.865,0V76.97A.432.432,0,0,0,34.2,76.537Z" transform="translate(-28.573 -67.886)" fill="#f0d870"/>
          <path id="Path_1112" data-name="Path 1112" d="M34.2,95.824a.432.432,0,0,0-.433.433v.865a.433.433,0,0,0,.865,0v-.865A.432.432,0,0,0,34.2,95.824Z" transform="translate(-28.573 -83.712)" fill="#f0d870"/>
        </g>
      </g>
    </g>
  </g>
</svg>
