<?xml version="1.0" encoding="utf-8"?>
<!-- Generator: Adobe Illustrator 23.1.0, SVG Export Plug-In . SVG Version: 6.00 Build 0)  -->
<svg version="1.1" id="圖層_1" xmlns="http://www.w3.org/2000/svg" xmlns:xlink="http://www.w3.org/1999/xlink" x="0px" y="0px"
	 viewBox="0 0 10 38" style="enable-background:new 0 0 10 38;" xml:space="preserve">
<style type="text/css">
	.st0{fill:none;stroke:#FFFFFF;stroke-width:3;stroke-miterlimit:10;}
	.st1{fill:url(#SVGID_1_);}
</style>
<g>
	<path class="st0" d="M2.1,36.2c-0.1,0-0.1,0-0.2-0.1c-0.1-0.1-0.2-0.3-0.2-0.4V5.9c0-0.2,0.1-0.3,0.2-0.4l5.9-4.3
		c0.1-0.1,0.3-0.1,0.4,0c0.1,0.1,0.2,0.3,0.2,0.4v30.4c0,0.2-0.1,0.3-0.2,0.4l-5.9,3.6C2.2,36.2,2.1,36.2,2.1,36.2z"/>
	
		<linearGradient id="SVGID_1_" gradientUnits="userSpaceOnUse" x1="11.17" y1="1054.1656" x2="11.17" y2="1019.1482" gradientTransform="matrix(1 0 0 1 -6.17 -1018)">
		<stop  offset="0" style="stop-color:#962C3B"/>
		<stop  offset="0.38" style="stop-color:#D85564"/>
	</linearGradient>
	<path class="st1" d="M2.1,36.2c-0.1,0-0.1,0-0.2-0.1c-0.1-0.1-0.2-0.3-0.2-0.4V5.9c0-0.2,0.1-0.3,0.2-0.4l5.9-4.3
		c0.1-0.1,0.3-0.1,0.4,0c0.1,0.1,0.2,0.3,0.2,0.4v30.4c0,0.2-0.1,0.3-0.2,0.4l-5.9,3.6C2.2,36.2,2.1,36.2,2.1,36.2z"/>
</g>
</svg>
