<?xml version="1.0" encoding="utf-8"?>
<!-- Generator: Adobe Illustrator 23.1.0, SVG Export Plug-In . SVG Version: 6.00 Build 0)  -->
<svg version="1.1" id="圖層_1" xmlns="http://www.w3.org/2000/svg" xmlns:xlink="http://www.w3.org/1999/xlink" x="0px" y="0px"
	 viewBox="0 0 27 38" style="enable-background:new 0 0 27 38;" xml:space="preserve">
<style type="text/css">
	.st0{fill:none;stroke:#FFFFFF;stroke-width:3;stroke-miterlimit:10;}
	.st1{fill:url(#SVGID_1_);}
	.st2{fill:#49B8BA;}
</style>
<g>
	<path class="st0" d="M25.5,5.6c0-0.3-0.2-0.4-0.4-0.4l0,0h-5.7c-0.3,0-0.4,0.2-0.4,0.4l0,0V19l6.6,5.5L25.5,5.6z"/>
	<path class="st0" d="M2.8,4.4C2.7,4.3,2.5,4.3,2.3,4.3C2.2,4.4,2.1,4.5,2.1,4.7L2,32c0,0.1,0.1,0.2,0.1,0.3
		c0.1,0.1,0.2,0.1,0.3,0.1h5.7c0.3,0,0.4-0.2,0.4-0.4l0,0L8.6,18.6l16.2,15c0.1,0.1,0.2,0.1,0.3,0.1c0.1,0,0.1,0,0.2,0
		c0.1-0.1,0.3-0.2,0.3-0.4v-8.7L18.9,19v0.1L2.8,4.4z"/>
</g>
<g>
	
		<linearGradient id="SVGID_1_" gradientUnits="userSpaceOnUse" x1="28.3478" y1="1042.5498" x2="28.3478" y2="1023.1805" gradientTransform="matrix(1 0 0 1 -6.17 -1018)">
		<stop  offset="0" style="stop-color:#007B93"/>
		<stop  offset="0.61" style="stop-color:#49B8BA"/>
	</linearGradient>
	<path class="st1" d="M25.5,5.6c0-0.3-0.2-0.4-0.4-0.4l0,0h-5.7c-0.3,0-0.4,0.2-0.4,0.4l0,0V19l6.6,5.5L25.5,5.6z"/>
	<path class="st2" d="M18.9,19L18.9,19L2.8,4.4C2.7,4.3,2.5,4.3,2.3,4.3C2.2,4.4,2.1,4.5,2.1,4.7L2,32c0,0.1,0.1,0.2,0.1,0.3
		c0.1,0.1,0.2,0.1,0.3,0.1h5.7c0.3,0,0.4-0.2,0.4-0.4l0,0L8.6,18.6l16.2,15c0.1,0.1,0.2,0.1,0.3,0.1c0.1,0,0.1,0,0.2,0
		c0.1-0.1,0.3-0.2,0.3-0.4v-8.7L18.9,19z"/>
</g>
</svg>
