<svg xmlns="http://www.w3.org/2000/svg" width="23.333" height="23.333" viewBox="0 0 23.333 23.333">
  <g id="Group_654" data-name="Group 654" transform="translate(-446.581 -1541.031)">
    <path id="Path_1126" data-name="Path 1126" d="M455.9,1560.2a.269.269,0,0,1-.223-.12l-4.2-6.364a.268.268,0,0,1,.447-.3l4.2,6.364a.267.267,0,0,1-.223.415Z" fill="#d982a7"/>
    <path id="Path_1127" data-name="Path 1127" d="M453.3,1561.392a.267.267,0,0,1-.223-.121l-3-4.54a.268.268,0,0,1,.447-.295l3,4.54a.267.267,0,0,1-.075.371.277.277,0,0,1-.148.045Z" fill="#d982a7"/>
    <path id="Path_1128" data-name="Path 1128" d="M450.711,1562.586a.269.269,0,0,1-.224-.12l-1.793-2.716a.268.268,0,0,1,.447-.3l1.793,2.716a.268.268,0,0,1-.223.415Z" fill="#d982a7"/>
    <path id="Path_1129" data-name="Path 1129" d="M460.675,1557.212l-6.942-6.942a1.086,1.086,0,0,0-1.536,1.536h0l.01.011-5.6,12.167a.268.268,0,0,0,.132.355.264.264,0,0,0,.223,0l12.168-5.6.011.01a1.086,1.086,0,0,0,1.536-1.536Zm-13.28,6.338,5.216-11.33,6.114,6.114Zm12.9-5.18a.552.552,0,0,1-.78,0h0l-3.471-3.471-3.329-3.329-.142-.142a.552.552,0,0,1,.78-.78h0l6.942,6.942a.551.551,0,0,1,0,.779Z" fill="#6f5b62"/>
    <g id="Group_653" data-name="Group 653">
      <path id="Path_1130" data-name="Path 1130" d="M459.006,1552.74a2.052,2.052,0,0,1-.522-.089c-.305-.081-.46-.108-.56-.008a.268.268,0,0,1-.379-.379,1.036,1.036,0,0,1,1.076-.131c.306.081.461.109.561.008s.073-.255-.008-.56a.879.879,0,0,1,1.207-1.208c.306.081.461.108.561.008s.073-.255-.008-.561a.879.879,0,0,1,1.208-1.207c.3.081.46.108.561.008a.267.267,0,0,1,.378.378,1.036,1.036,0,0,1-1.076.131c-.306-.08-.461-.108-.561-.008s-.073.256.008.562a.88.88,0,0,1-1.208,1.207c-.3-.081-.46-.108-.56-.008s-.074.255.007.561a1.034,1.034,0,0,1-.131,1.076.746.746,0,0,1-.554.22Z" fill="#d982a7"/>
      <path id="Path_1131" data-name="Path 1131" d="M456.488,1549.65H454.95a.267.267,0,0,1-.267-.268v-1.994a.267.267,0,0,1,.267-.268h1.538a.268.268,0,0,1,.267.268v1.994A.268.268,0,0,1,456.488,1549.65Zm-1.27-.536h1v-1.459h-1Z" fill="#d982a7"/>
      <path id="Path_1132" data-name="Path 1132" d="M458.025,1543.56h-1.537a.268.268,0,0,1-.268-.268V1541.3a.267.267,0,0,1,.268-.267h1.537a.267.267,0,0,1,.268.267h0v1.994a.268.268,0,0,1-.268.268Zm-1.269-.535h1v-1.459h-1Z" fill="#d982a7"/>
      <path id="Path_1133" data-name="Path 1133" d="M460.36,1547.2h-1.994a.267.267,0,0,1-.267-.268V1545.4a.267.267,0,0,1,.267-.268h1.994a.268.268,0,0,1,.268.268v1.537a.268.268,0,0,1-.268.268Zm-1.726-.536h1.459v-1h-1.459Z" fill="#d982a7"/>
      <path id="Path_1134" data-name="Path 1134" d="M463.557,1556.262h-1.994a.268.268,0,0,1-.268-.267v-1.538a.268.268,0,0,1,.268-.268h1.994a.268.268,0,0,1,.268.268v1.538A.268.268,0,0,1,463.557,1556.262Zm-1.727-.535h1.459v-1H461.83Z" fill="#d982a7"/>
      <path id="Path_1135" data-name="Path 1135" d="M469.647,1554.725h-1.995a.268.268,0,0,1-.267-.268v-1.538a.268.268,0,0,1,.267-.267h1.995a.268.268,0,0,1,.267.267v1.538a.268.268,0,0,1-.267.268Zm-1.727-.536h1.459v-1H467.92Z" fill="#d982a7"/>
      <path id="Path_1136" data-name="Path 1136" d="M465.547,1552.846H464.01a.267.267,0,0,1-.268-.267v-1.994a.268.268,0,0,1,.268-.268h1.537a.268.268,0,0,1,.268.268v1.994A.267.267,0,0,1,465.547,1552.846Zm-1.27-.535h1v-1.459h-1Z" fill="#d982a7"/>
    </g>
    <path id="Path_1137" data-name="Path 1137" d="M466.288,1546.928a1.34,1.34,0,0,1,0-1.893l.126-.126a.268.268,0,1,0-.372-.385l-.006.006-.126.127a1.34,1.34,0,0,1-1.893,0l-.126-.126a.267.267,0,0,0-.378.378l.126.127a1.34,1.34,0,0,1,0,1.892l-.126.126a.268.268,0,0,0,.378.379l.126-.126a1.34,1.34,0,0,1,1.893,0l.126.126a.268.268,0,0,0,.385-.372l-.007-.007Zm-1.781-.49a1.88,1.88,0,0,0,0-.913.645.645,0,1,1,.912.912A1.89,1.89,0,0,0,464.507,1546.438Z" fill="#e3e0ee"/>
    <path id="Path_1138" data-name="Path 1138" d="M454.381,1545.333a1.337,1.337,0,0,1,0-1.892h0l.126-.126a.268.268,0,1,0-.377-.38h0l-.126.126a1.34,1.34,0,0,1-1.893,0l-.126-.126a.268.268,0,0,0-.379.378l.127.127a1.339,1.339,0,0,1,0,1.892h0l-.127.127a.268.268,0,0,0,.379.379l.126-.127a1.342,1.342,0,0,1,1.893,0l.126.127a.268.268,0,0,0,.38-.377l0,0Zm-1.78-.489a.645.645,0,1,1,.911-.913,1.833,1.833,0,0,0,0,.913A1.873,1.873,0,0,0,452.6,1544.844Z" fill="#e3e0ee"/>
    <path id="Path_1139" data-name="Path 1139" d="M467.883,1558.835a1.34,1.34,0,0,1,0-1.893l.126-.126a.268.268,0,0,0-.372-.385l-.007.007-.126.126a1.341,1.341,0,0,1-1.892,0l-.127-.126a.267.267,0,0,0-.385.371l.007.007.126.126a1.338,1.338,0,0,1,0,1.893h0l-.126.126a.268.268,0,1,0,.372.385l.006-.007.127-.126a1.339,1.339,0,0,1,1.892,0l.126.126a.268.268,0,1,0,.385-.372l-.006-.006Zm-1.78-.49a1.833,1.833,0,0,0,0-.913,1.806,1.806,0,0,0,.912,0,.646.646,0,0,1-.913.913Z" fill="#e3e0ee"/>
  </g>
</svg>
