<svg xmlns="http://www.w3.org/2000/svg" width="23.333" height="25.792" viewBox="0 0 23.333 25.792">
  <g id="Group_661" data-name="Group 661" transform="translate(-446.581 -1705.75)">
    <path id="Path_1144" data-name="Path 1144" d="M468.385,1728.975H448.111a1.188,1.188,0,0,1-1.189-1.188v2.224a1.189,1.189,0,0,0,1.189,1.189h20.274a1.188,1.188,0,0,0,1.188-1.189v-2.224A1.188,1.188,0,0,1,468.385,1728.975Z" fill="#e3e0ee"/>
    <g id="Group_660" data-name="Group 660">
      <path id="Path_1145" data-name="Path 1145" d="M456.6,1718.662h.629v-3.987h-2.568a.282.282,0,0,0-.282.282v3.423a.282.282,0,0,0,.282.282h.49l1.038,2.125a.555.555,0,0,0,1.02-.431Z" fill="#d982a7"/>
      <path id="Path_1146" data-name="Path 1146" d="M461.471,1713.122l-3.777,1.39v4.313l3.777,1.391a.283.283,0,0,0,.38-.265v-6.565A.282.282,0,0,0,461.471,1713.122Z" fill="#d982a7"/>
      <path id="Path_1147" data-name="Path 1147" d="M453.134,1716.286v.762a.4.4,0,0,0,.4.4h.388v-1.562h-.388A.4.4,0,0,0,453.134,1716.286Z" fill="#d982a7"/>
      <path id="Path_1148" data-name="Path 1148" d="M462.31,1715.434v2.469a1.211,1.211,0,0,0,1.211-1.211v-.047A1.211,1.211,0,0,0,462.31,1715.434Z" fill="#d982a7"/>
    </g>
    <path id="Path_1149" data-name="Path 1149" d="M469.787,1716.44c-.006-.006-.01-.013-.017-.019l-1.6-1.582v-3.152a1.136,1.136,0,0,0-1.134-1.134H449.456a1.136,1.136,0,0,0-1.134,1.134v3.152l-1.6,1.586-.013.017a.339.339,0,0,0-.126.264v13.306a1.522,1.522,0,0,0,.509,1.136l.017.015a1.52,1.52,0,0,0,1,.378h20.273a1.523,1.523,0,0,0,1-.373l.012-.011a1.525,1.525,0,0,0,.519-1.145v-13.306A.342.342,0,0,0,469.787,1716.44Zm-8.138,8.515,6.421-6.3,0,0h0l1.159-1.135v12.494a.834.834,0,0,1-.118.429Zm7.438-8.251-.914.9v-1.8Zm-19.631-5.468h17.583a.452.452,0,0,1,.452.451v6.58l-6.4,6.279-1.939-1.424a1.523,1.523,0,0,0-1.811,0l-1.939,1.424-6.4-6.279v-6.58a.451.451,0,0,1,.451-.451Zm-2.075,19.2a.834.834,0,0,1-.118-.429v-12.494l7.583,7.439Zm.941-12.841-.914-.9.914-.9Zm-.211,13.26a.827.827,0,0,1-.133-.012l7.578-5.566.019-.015,2.171-1.594a.842.842,0,0,1,1,0l2.171,1.595.019.013,7.578,5.568a.956.956,0,0,1-.132.011Z" fill="#6f5b62"/>
    <path id="Path_1150" data-name="Path 1150" d="M454.28,1709.991l3.375-3.321a.851.851,0,0,1,1.185,0l3.374,3.322a.341.341,0,1,0,.478-.486l-3.374-3.323a1.538,1.538,0,0,0-2.141,0L453.8,1709.5a.341.341,0,1,0,.478.487Z" fill="#6f5b62"/>
  </g>
</svg>
