<svg xmlns="http://www.w3.org/2000/svg" width="20.189" height="23.391" viewBox="0 0 20.189 23.391">
  <path id="Path_1151" data-name="Path 1151" d="M450.389,1813.315c-1.254,0-2.236-1.3-2.236-2.965v-11.34l10.174-9.086,10.015,9.431v10.995c0,1.663-.982,2.965-2.236,2.965Zm7.912-21.774a.334.334,0,0,0-.222.084l-8.711,7.78a.334.334,0,0,0-.111.249v10.7c0,1.113.585,1.861,1.132,1.861h15.717c.547,0,1.132-.748,1.132-1.861v-10.375a.333.333,0,0,0-.105-.242l-8.6-8.1A.335.335,0,0,0,458.3,1791.541Z" transform="translate(-448.153 -1789.924)" fill="#6f5b62"/>
</svg>
