<svg xmlns="http://www.w3.org/2000/svg" width="20" height="20.015" viewBox="0 0 20 20.015">
  <g id="Group_645" data-name="Group 645" transform="translate(-448.248 -1293.767)">
    <g id="Group_644" data-name="Group 644">
      <path id="Path_1114" data-name="Path 1114" d="M467.4,1313.782a9.163,9.163,0,0,0-18.309,0h-.845a10.021,10.021,0,0,1,6.726-9.071.39.39,0,0,0,.094-.69,5.621,5.621,0,1,1,6.359,0,.39.39,0,0,0,.094.69,10.023,10.023,0,0,1,6.727,9.071Zm-9.154-19.17a4.776,4.776,0,1,0,4.776,4.777A4.782,4.782,0,0,0,458.248,1294.612Z" fill="#6f5b62"/>
    </g>
  </g>
</svg>
