<svg xmlns="http://www.w3.org/2000/svg" width="20" height="24.244" viewBox="0 0 20 24.244">
  <g id="Group_650" data-name="Group 650" transform="translate(-448.248 -1374.627)">
    <path id="Path_1116" data-name="Path 1116" d="M451.355,1377.382a9.973,9.973,0,0,0-3.107,7.245v11.581a2.622,2.622,0,0,0,1.394,2.32,2.917,2.917,0,0,0,2.744,0,2.21,2.21,0,0,1,2.078,0,2.919,2.919,0,0,0,2.745,0,2.208,2.208,0,0,1,2.077,0,2.919,2.919,0,0,0,2.745,0,2.21,2.21,0,0,1,2.078,0,2.917,2.917,0,0,0,2.745,0,2.623,2.623,0,0,0,1.394-2.32v-4.93a.355.355,0,1,0-.711,0v4.93a1.914,1.914,0,0,1-1.017,1.693,2.21,2.21,0,0,1-2.078,0,2.917,2.917,0,0,0-2.744,0,2.21,2.21,0,0,1-2.078,0,2.919,2.919,0,0,0-2.745,0,2.21,2.21,0,0,1-2.078,0,2.917,2.917,0,0,0-2.744,0,2.21,2.21,0,0,1-2.078,0,1.914,1.914,0,0,1-1.017-1.693v-11.581a9.227,9.227,0,0,1,.776-3.724h0a9.262,9.262,0,0,1,2.111-3.007l1.064-.872a9.29,9.29,0,0,1,14.628,7.6v6.651a.355.355,0,0,0,.711,0v-6.651a10,10,0,0,0-15.748-8.184" fill="#6f5b62"/>
    <g id="Group_648" data-name="Group 648">
      <path id="Path_1117" data-name="Path 1117" d="M454.764,1385.321l-1.8,1.054-.136-.244,1.668-.942v.047l-1.668-.942.136-.243,1.8,1.054Z" fill="#6f5b62"/>
    </g>
    <circle id="Ellipse_149" data-name="Ellipse 149" cx="1.078" cy="1.078" r="1.078" transform="translate(461.719 1384.135)" fill="#6f5b62"/>
    <g id="Group_649" data-name="Group 649">
      <path id="Path_1118" data-name="Path 1118" d="M459.018,1387.471c.211,0,.414-.158.482-.684l.368.06c-.045.677-.338,1.045-.9,1.045a1.281,1.281,0,0,1-.865-.413.9.9,0,0,0-.631-.309c-.211,0-.414.158-.482.685l-.368-.061c.045-.676.338-1.045.895-1.045a1.278,1.278,0,0,1,.865.414A.9.9,0,0,0,459.018,1387.471Z" fill="#6f5b62"/>
    </g>
  </g>
</svg>
