<svg id="Group_170" data-name="Group 170" xmlns="http://www.w3.org/2000/svg" width="20" height="20" viewBox="0 0 20 20">
  <path id="Path_66" data-name="Path 66" d="M-730,20a10.011,10.011,0,0,1-10-10A10.011,10.011,0,0,1-730,0a10.011,10.011,0,0,1,10,10A10.012,10.012,0,0,1-730,20Zm0-18.869A8.879,8.879,0,0,0-738.869,10,8.879,8.879,0,0,0-730,18.869,8.879,8.879,0,0,0-721.132,10,8.879,8.879,0,0,0-730,1.131Z" transform="translate(740)" fill="#a4a5a2"/>
  <path id="Path_67" data-name="Path 67" d="M-699.524,48.034a.611.611,0,0,1-.433-.179.613.613,0,0,1,0-.867l6.945-6.945a.613.613,0,0,1,.867,0,.613.613,0,0,1,0,.867l-6.945,6.945A.611.611,0,0,1-699.524,48.034Z" transform="translate(706.051 -33.949)" fill="#a4a5a2"/>
  <path id="Path_68" data-name="Path 68" d="M-692.578,48.034a.611.611,0,0,1-.433-.179l-6.945-6.945a.613.613,0,0,1,0-.867.613.613,0,0,1,.867,0l6.945,6.945a.613.613,0,0,1,0,.867A.611.611,0,0,1-692.578,48.034Z" transform="translate(706.051 -33.949)" fill="#a4a5a2"/>
</svg>
