<?xml version="1.0" encoding="utf-8"?>
<!-- Generator: Adobe Illustrator 23.1.0, SVG Export Plug-In . SVG Version: 6.00 Build 0)  -->
<svg version="1.1" id="圖層_1" xmlns="http://www.w3.org/2000/svg" xmlns:xlink="http://www.w3.org/1999/xlink" x="0px" y="0px"
	 viewBox="0 0 30 30" style="enable-background:new 0 0 30 30;" xml:space="preserve">
<style type="text/css">
	.st0{clip-path:url(#SVGID_2_);}
	.st1{fill:url(#路径_1258_1_);}
	.st2{fill:#FFFFFF;}
</style>
<g>
	<defs>
		<rect id="SVGID_1_" width="30" height="30"/>
	</defs>
	<clipPath id="SVGID_2_">
		<use xlink:href="#SVGID_1_"  style="overflow:visible;"/>
	</clipPath>
	<g id="icon_Messenger" class="st0">
		<g id="组_696" transform="translate(2 3.017)">
			
				<linearGradient id="路径_1258_1_" gradientUnits="userSpaceOnUse" x1="-10.1452" y1="36.6279" x2="-10.1452" y2="37.6279" gradientTransform="matrix(25.366 0 0 -25.3449 270.025 953.6763)">
				<stop  offset="0" style="stop-color:#027DFF"/>
				<stop  offset="1" style="stop-color:#00B8FF"/>
			</linearGradient>
			<path id="路径_1258" class="st1" d="M25.4,12.4c-0.1,6.9-5.7,12.5-12.7,12.4c-1.5,0-2.9-0.2-4.3-0.7c-0.8-0.3-2.8,1.6-3.5,1.2
				c-0.7-0.4,0-3.1-0.6-3.6C1.6,19.4,0,16,0,12.4C0.1,5.5,5.8-0.1,12.7,0C19.6-0.1,25.3,5.5,25.4,12.4z"/>
			<path id="路径_1259" class="st2" d="M7.7,11.7c0.4-0.6,0.8-1.1,1.1-1.7c0.4-0.9,1.5-1.2,2.4-0.8c0.1,0.1,0.3,0.2,0.4,0.3
				c0.8,0.6,1.6,1.2,2.3,1.8c0.3,0.3,0.7,0.3,1,0.1c0,0,0,0,0.1-0.1c1-0.8,2.1-1.5,3-2.3c0.1-0.1,0.2-0.1,0.3-0.2
				c0.3-0.2,0.6-0.2,0.8,0s0.2,0.4,0,0.8c-0.3,0.5-0.7,1.1-1,1.6c-0.1,0.2-0.2,0.3-0.3,0.5c-0.6,1-1.2,2-1.9,3c-0.4,0.7-1.2,1-2,0.7
				c-0.2-0.1-0.4-0.2-0.6-0.3c-0.8-0.6-1.6-1.2-2.4-1.8c-0.5-0.4-0.7-0.4-1.2,0l-3.3,2.5c-0.1,0.1-0.2,0.1-0.3,0.2
				c-0.2,0.1-0.4,0-0.5-0.2c-0.1-0.2-0.2-0.4,0-0.6c0.6-0.9,1.1-1.9,1.7-2.8C7.4,12.1,7.5,11.9,7.7,11.7z"/>
		</g>
	</g>
</g>
</svg>
