<?xml version="1.0" encoding="utf-8"?>
<!-- Generator: Adobe Illustrator 23.1.0, SVG Export Plug-In . SVG Version: 6.00 Build 0)  -->
<svg version="1.1" id="圖層_1" xmlns="http://www.w3.org/2000/svg" xmlns:xlink="http://www.w3.org/1999/xlink" x="0px" y="0px"
	 viewBox="0 0 18 18" style="enable-background:new 0 0 18 18;" xml:space="preserve">
<style type="text/css">
	.st0{clip-path:url(#SVGID_2_);}
	.st1{fill:#2FB092;}
</style>
<g>
	<defs>
		<rect id="SVGID_1_" width="18" height="18"/>
	</defs>
	<clipPath id="SVGID_2_">
		<use xlink:href="#SVGID_1_"  style="overflow:visible;"/>
	</clipPath>
	<g id="phone" class="st0">
		<g id="组_584" transform="translate(-133.333 -1007.068)">
			<g id="组_12">
				<path id="路径_11" class="st1" d="M134.3,1012.1c0-0.2,0-0.3,0.1-0.5c0.1-0.5,0.3-0.9,0.7-1.2c0.3-0.3,0.7-0.7,1-1
					c0.5-0.6,1.5-0.7,2.1-0.1c0,0,0.1,0.1,0.1,0.1c0.6,0.6,1.2,1.2,1.8,1.8c0.6,0.5,0.6,1.4,0.1,2c0,0-0.1,0.1-0.1,0.1
					c-0.3,0.3-0.6,0.7-1,1c-0.1,0-0.1,0.1,0,0.2c0,0,0,0,0,0c0.3,0.5,0.6,1,1,1.4c0.7,0.8,1.5,1.6,2.4,2.1c0.2,0.1,0.4,0.2,0.7,0.4
					c0.1-0.1,0.2-0.2,0.3-0.3c0.3-0.3,0.5-0.5,0.8-0.8c0.5-0.6,1.4-0.6,2,0c0,0,0,0,0.1,0.1c0.6,0.6,1.2,1.2,1.8,1.8
					c0.6,0.5,0.7,1.5,0.1,2.1c0,0-0.1,0.1-0.1,0.1c-0.4,0.4-0.7,0.8-1.1,1.1c-0.4,0.4-0.8,0.6-1.3,0.6c0,0-0.1,0-0.1,0h-0.6
					c-0.1,0-0.2,0-0.3,0c-0.9-0.1-1.7-0.4-2.5-0.8c-2.6-1.3-4.7-3.2-6.2-5.7c-0.7-1-1.1-2.1-1.4-3.3c-0.1-0.3-0.1-0.6-0.1-0.9
					L134.3,1012.1z M145,1022.3c0.5,0.1,1.1-0.2,1.4-0.6c0.2-0.2,0.4-0.4,0.5-0.5c0.2-0.2,0.3-0.3,0.5-0.5c0.2-0.2,0.2-0.6,0-0.8
					c0,0,0,0,0,0c-0.6-0.6-1.3-1.3-1.9-1.9c-0.2-0.2-0.5-0.2-0.7,0c-0.1,0.1-0.1,0.1-0.2,0.2c-0.3,0.3-0.7,0.7-1,1
					c-0.2,0.2-0.5,0.3-0.8,0.1c-0.3-0.1-0.6-0.3-0.9-0.5c-0.9-0.6-1.7-1.3-2.4-2.2c-0.5-0.6-1-1.2-1.3-1.9c-0.2-0.3-0.1-0.7,0.2-0.9
					c0.4-0.3,0.7-0.7,1-1c0.2-0.2,0.3-0.6,0.1-0.8c0,0-0.1-0.1-0.1-0.1c-0.6-0.6-1.2-1.2-1.8-1.8c-0.2-0.3-0.6-0.3-0.8-0.1
					c0,0-0.1,0.1-0.1,0.1c-0.4,0.4-0.8,0.8-1.1,1.1c-0.2,0.2-0.3,0.5-0.4,0.7c-0.1,0.6,0,1.1,0.2,1.7c0.4,1.3,1,2.5,1.8,3.5
					c1.5,2.1,3.6,3.8,6.1,4.8C143.8,1022.1,144.4,1022.2,145,1022.3z"/>
				<path id="路径_12" class="st1" d="M149.4,1014.8c0,0.2-0.2,0.4-0.4,0.4c-0.2,0-0.4-0.1-0.5-0.3c-0.1-0.4-0.2-0.9-0.4-1.3
					c-0.9-2.4-2.9-4.2-5.4-4.6c-0.1,0-0.1,0-0.2,0c-0.2,0-0.4-0.3-0.3-0.5c0-0.2,0.3-0.4,0.5-0.3l0,0c3.3,0.6,5.9,3.2,6.6,6.5
					L149.4,1014.8z"/>
				<path id="路径_13" class="st1" d="M142.1,1011.2c0-0.2,0.2-0.4,0.4-0.4c0,0,0.1,0,0.1,0c2,0.4,3.6,2,4,4
					c0.1,0.2-0.1,0.5-0.3,0.5c0,0,0,0,0,0c-0.2,0-0.5-0.1-0.5-0.3c0,0,0,0,0,0c-0.2-1.3-1.1-2.5-2.3-3c-0.3-0.1-0.6-0.2-1-0.3
					C142.3,1011.6,142.1,1011.5,142.1,1011.2z"/>
			</g>
		</g>
	</g>
</g>
</svg>
