<svg xmlns="http://www.w3.org/2000/svg" width="104" height="104" viewBox="0 0 104 104">
  <g id="Group_632" data-name="Group 632" transform="translate(-156 -784.667)">
    <rect id="Rectangle_80" data-name="Rectangle 80" width="103" height="103" rx="30" transform="translate(156.5 785.167)" fill="none" stroke="#f6f5f4" stroke-miterlimit="10" stroke-width="1"/>
    <text id="隱私權條款" transform="translate(208 869.175)" fill="#767676" font-size="16" font-family="MicrosoftJhengHeiRegular, Microsoft JhengHei"><tspan x="-40" y="0">隱私權條款</tspan></text>
    <g id="Group_482" data-name="Group 482" transform="translate(128.058 734.907)">
      <circle id="Ellipse_70" data-name="Ellipse 70" cx="13.236" cy="13.236" r="13.236" transform="translate(69.329 75.093)" fill="#e5efef"/>
      <g id="Group_477" data-name="Group 477" transform="translate(61.942 84.328)">
        <path id="Path_613" data-name="Path 613" d="M68.768,184.32H97.087v22.162H68.768Z" transform="translate(-68.152 -183.704)" fill="#fff"/>
        <path id="Path_614" data-name="Path 614" d="M90.876,200.887H62.558a.616.616,0,0,1-.616-.616V178.109a.616.616,0,0,1,.616-.616H90.876a.616.616,0,0,1,.616.616v22.162A.616.616,0,0,1,90.876,200.887Zm-27.7-1.231H90.26V178.724H63.173Z" transform="translate(-61.942 -177.493)" fill="#4c241d"/>
      </g>
      <circle id="Ellipse_71" data-name="Ellipse 71" cx="0.61" cy="0.61" r="0.61" transform="translate(64.426 86.801)" fill="#f53e28"/>
      <circle id="Ellipse_72" data-name="Ellipse 72" cx="0.616" cy="0.616" r="0.616" transform="translate(66.251 86.79)" fill="#ffce56"/>
      <circle id="Ellipse_73" data-name="Ellipse 73" cx="0.61" cy="0.61" r="0.61" transform="translate(68.088 86.801)" fill="#a9ba5a"/>
      <g id="Group_478" data-name="Group 478" transform="translate(66.867 90.484)">
        <circle id="Ellipse_74" data-name="Ellipse 74" cx="2.462" cy="2.462" r="2.462" transform="translate(0.616 0.616)" fill="#9dc1e4"/>
        <path id="Path_615" data-name="Path 615" d="M119.633,251.916a3.078,3.078,0,1,1,3.078-3.078A3.082,3.082,0,0,1,119.633,251.916Zm0-4.925a1.847,1.847,0,1,0,1.847,1.847A1.849,1.849,0,0,0,119.633,246.991Z" transform="translate(-116.555 -245.76)" fill="#4c241d"/>
      </g>
      <g id="Group_479" data-name="Group 479" transform="translate(65.02 95.409)">
        <path id="Path_616" data-name="Path 616" d="M111.521,314.587H102.9v-3.078a4.309,4.309,0,1,1,8.619,0Z" transform="translate(-102.286 -306.584)" fill="#9dc1e4"/>
        <path id="Path_617" data-name="Path 617" d="M105.309,308.992H96.691a.616.616,0,0,1-.616-.616V305.3a4.925,4.925,0,1,1,9.85,0v3.078A.616.616,0,0,1,105.309,308.992Zm-8-1.231h7.387V305.3a3.694,3.694,0,0,0-7.387,0Z" transform="translate(-96.075 -300.373)" fill="#4c241d"/>
      </g>
      <path id="Path_618" data-name="Path 618" d="M230.707,260.644H226.4a.616.616,0,0,1,0-1.231h4.309a.616.616,0,1,1,0,1.231Z" transform="translate(-149.065 -167.698)" fill="#4c241d"/>
      <path id="Path_619" data-name="Path 619" d="M236.863,294.778H226.4a.616.616,0,0,1,0-1.231h10.466a.616.616,0,0,1,0,1.231Z" transform="translate(-149.065 -198.754)" fill="#4c241d"/>
      <path id="Path_620" data-name="Path 620" d="M236.863,328.911H226.4a.616.616,0,0,1,0-1.231h10.466a.616.616,0,0,1,0,1.231Z" transform="translate(-149.065 -229.809)" fill="#4c241d"/>
      <g id="Group_480" data-name="Group 480" transform="translate(85.153 80.512)">
        <path id="Path_621" data-name="Path 621" d="M331.44,142.008c-1.883,2.17-5.279,2.339-5.279,2.339.96,6.931,5.279,7.921,5.279,7.921s4.319-.99,5.279-7.921c0,0-3.542-.17-5.279-2.339Z" transform="translate(-325.545 -141.392)" fill="#ffce56"/>
        <path id="Path_622" data-name="Path 622" d="M325.228,146.674a.62.62,0,0,1-.138-.016c-.193-.044-4.744-1.169-5.751-8.437a.616.616,0,0,1,.579-.7c.031,0,3.161-.189,4.844-2.128a.623.623,0,0,1,.477-.212.615.615,0,0,1,.468.231c1.538,1.922,4.8,2.107,4.828,2.109a.616.616,0,0,1,.58.7c-1.007,7.268-5.558,8.393-5.751,8.437A.622.622,0,0,1,325.228,146.674Zm-4.57-8c.931,5.239,3.879,6.511,4.571,6.74.685-.226,3.637-1.494,4.569-6.736a8.591,8.591,0,0,1-4.583-1.99,8.882,8.882,0,0,1-4.556,1.987Z" transform="translate(-319.333 -135.182)" fill="#4c241d"/>
      </g>
      <g id="Group_481" data-name="Group 481" transform="translate(77.332 84.328)">
        <path id="Path_623" data-name="Path 623" d="M363.382,181.492a.615.615,0,0,1-.471-.22l-.969-1.153a.616.616,0,1,1,.943-.792l.48.571,1.688-2.167a.616.616,0,1,1,.971.757l-2.155,2.767a.615.615,0,0,1-.474.237Z" transform="translate(-350.146 -177.494)" fill="#4c241d"/>
        <circle id="Ellipse_75" data-name="Ellipse 75" cx="0.616" cy="0.616" r="0.616" transform="translate(2.462 17.853)" fill="#4c241d"/>
        <circle id="Ellipse_76" data-name="Ellipse 76" cx="0.616" cy="0.616" r="0.616" transform="translate(0 17.853)" fill="#4c241d"/>
        <circle id="Ellipse_77" data-name="Ellipse 77" cx="0.616" cy="0.616" r="0.616" transform="translate(4.925 17.853)" fill="#4c241d"/>
      </g>
    </g>
  </g>
</svg>
