<svg xmlns="http://www.w3.org/2000/svg" width="14.323" height="14.462" viewBox="0 0 14.323 14.462">
  <g id="Group_1360" data-name="Group 1360" transform="translate(-13.099 -18.485)">
    <path id="Path_2093" data-name="Path 2093" d="M64.838,23.742a2.628,2.628,0,1,1,2.629-2.629A2.631,2.631,0,0,1,64.838,23.742Z" transform="translate(-41.773)" fill="#8e8e8f"/>
    <path id="Path_2094" data-name="Path 2094" d="M15.727,62.723a2.628,2.628,0,1,1,2.629-2.628A2.631,2.631,0,0,1,15.727,62.723Z" transform="translate(0 -33.156)" fill="#8e8e8f"/>
    <path id="Path_2095" data-name="Path 2095" d="M76.4,85.345a2.628,2.628,0,1,1,2.629-2.628A2.631,2.631,0,0,1,76.4,85.345Z" transform="translate(-51.609 -52.398)" fill="#8e8e8f"/>
    <path id="Path_2096" data-name="Path 2096" d="M38.371,44.484a.37.37,0,0,1-.229-.662l3.885-3.047a.37.37,0,1,1,.457.583L38.6,44.405A.369.369,0,0,1,38.371,44.484Z" transform="translate(-21.181 -18.892)" fill="#8e8e8f"/>
    <path id="Path_2097" data-name="Path 2097" d="M44.629,85.481a.373.373,0,0,1-.114-.018l-5.191-1.684a.37.37,0,0,1,.229-.7l5.191,1.684a.371.371,0,0,1-.114.723Z" transform="translate(-22.088 -54.922)" fill="#8e8e8f"/>
  </g>
</svg>
