<?xml version="1.0" encoding="utf-8"?>
<!-- Generator: Adobe Illustrator 23.1.0, SVG Export Plug-In . SVG Version: 6.00 Build 0)  -->
<svg version="1.1" id="圖層_1" xmlns="http://www.w3.org/2000/svg" xmlns:xlink="http://www.w3.org/1999/xlink" x="0px" y="0px"
	 viewBox="0 0 40 40" style="enable-background:new 0 0 40 40;" xml:space="preserve">
<style type="text/css">
	.st0{fill:#FFFFFF;}
	.st1{fill:#4C241D;}
	.st2{fill:#F53E28;}
	.st3{fill:#FFCE56;}
	.st4{fill:#A9BA5A;}
	.st5{fill:#FBBB42;}
	.st6{fill:#3B1A16;}
</style>
<g id="组_761" transform="translate(-7.5 -11.827)">
	<path id="路径_850" class="st0" d="M38.3,43.4H16.4c-1.4,0-2.5-1.1-2.5-2.4V26.5c0-1.4,1.2-2.5,2.5-2.4h21.9
		c1.4,0,2.5,1.1,2.5,2.4V41C40.8,42.4,39.6,43.4,38.3,43.4z"/>
	<path id="路径_854" class="st0" d="M36.1,35.9h5c0.4,0,0.8-0.4,0.8-0.8v-3.3c0-0.4-0.4-0.8-0.8-0.8h-5c-0.4,0-0.8,0.4-0.8,0.8
		v3.3C35.3,35.5,35.6,35.9,36.1,35.9C36.1,35.9,36.1,35.9,36.1,35.9z"/>
	<circle id="椭圆_118" class="st0" cx="39.7" cy="22.2" r="4.7"/>
	<g id="组_533" transform="translate(36.678 17.957)">
		<path id="路径_861" class="st0" d="M3.1,5.6v0.9"/>
	</g>
	<path id="路径_863" class="st0" d="M42.3,23.6L42,23.1c-0.4-0.5-0.6-1-0.6-1.6v-0.3c0-0.9-0.6-1.6-1.5-1.7
		c-0.9-0.1-1.7,0.6-1.8,1.5c0,0.1,0,0.1,0,0.2v0.5c0,0.5-0.2,1-0.5,1.5l-0.3,0.5L42.3,23.6L42.3,23.6z"/>
	<circle id="椭圆_119" class="st0" cx="18.3" cy="38.5" r="7.7"/>
</g>
<g id="组_744" transform="translate(-61.942 -84.328)">
	<g id="组_477" transform="translate(61.942 84.328)">
		<path id="路径_613" class="st0" d="M5.8,8.9h28.3v22.2H5.8V8.9z"/>
		<path id="路径_614" class="st1" d="M34.2,31.7H5.8c-0.3,0-0.6-0.3-0.6-0.6V8.9c0-0.3,0.3-0.6,0.6-0.6h28.3
			c0.3,0,0.6,0.3,0.6,0.6v22.2C34.8,31.4,34.5,31.7,34.2,31.7z M6.5,30.5h27.1V9.5H6.5L6.5,30.5z"/>
	</g>
	<circle id="椭圆_71" class="st2" cx="70.3" cy="95.7" r="0.6"/>
	<circle id="椭圆_72" class="st3" cx="72.1" cy="95.7" r="0.6"/>
	<circle id="椭圆_73" class="st4" cx="73.9" cy="95.7" r="0.6"/>
	<path id="路径_618" class="st1" d="M86.9,101.2h-4.3c-0.3,0-0.6-0.3-0.6-0.6c0-0.3,0.3-0.6,0.6-0.6h4.3c0.3,0,0.6,0.3,0.6,0.6
		C87.5,100.9,87.3,101.2,86.9,101.2C86.9,101.2,86.9,101.2,86.9,101.2L86.9,101.2z"/>
	<path id="路径_619" class="st1" d="M93,104.3H82.6c-0.3,0-0.6-0.3-0.6-0.6c0-0.3,0.3-0.6,0.6-0.6H93c0.3,0,0.6,0.3,0.6,0.6
		C93.6,104.1,93.3,104.3,93,104.3L93,104.3z"/>
	<path id="路径_620" class="st1" d="M93,107.4H82.6c-0.3,0-0.6-0.3-0.6-0.6c0-0.3,0.3-0.6,0.6-0.6H93c0.3,0,0.6,0.3,0.6,0.6
		C93.6,107.1,93.3,107.4,93,107.4L93,107.4z"/>
	<g id="组_481" transform="translate(77.332 84.328)">
		<circle id="椭圆_75" class="st1" cx="8.3" cy="26.8" r="0.6"/>
		<circle id="椭圆_76" class="st1" cx="5.8" cy="26.8" r="0.6"/>
		<circle id="椭圆_77" class="st1" cx="10.8" cy="26.8" r="0.6"/>
	</g>
	<g id="组_745" transform="translate(64.031 91.294)">
		<path id="路径_963" class="st5" d="M10.8,16.7l2.2,1.1c0.3,0.1,0.6,0,0.7-0.3c0.1-0.1,0.1-0.2,0-0.4L13.4,15
			c0-0.2,0-0.4,0.2-0.5l1.6-1.5c0.2-0.2,0.3-0.6,0-0.8C15.1,12.1,15,12,14.9,12l-2.3-0.3c-0.2,0-0.3-0.1-0.4-0.3l-1.1-2.1
			C11,9,10.6,8.9,10.4,9c-0.1,0.1-0.2,0.1-0.2,0.2l-1.1,2.1c-0.1,0.2-0.2,0.3-0.4,0.3L6.4,12C6,12,5.8,12.4,5.9,12.7
			c0,0.1,0.1,0.2,0.2,0.3l1.6,1.5c0.1,0.1,0.2,0.3,0.2,0.5l-0.4,2.1c-0.1,0.3,0.1,0.6,0.4,0.7c0.1,0,0.2,0,0.4,0l2.2-1.1
			C10.5,16.6,10.7,16.6,10.8,16.7L10.8,16.7z"/>
		<path id="路径_964" class="st6" d="M8,18.5c-0.3,0-0.5-0.1-0.7-0.2C6.9,18,6.7,17.5,6.8,17l0.4-2.2l-1.6-1.4
			c-0.4-0.3-0.5-0.8-0.3-1.3c0.1-0.4,0.5-0.8,1-0.8L8.5,11l1.1-2c0.3-0.6,1-0.8,1.6-0.5c0.2,0.1,0.4,0.3,0.5,0.5l1.1,2l2.2,0.3
			c0.5,0.1,0.8,0.4,1,0.8c0.2,0.5,0,1-0.3,1.3L14,14.9l0.4,2.1c0.1,0.5-0.1,0.9-0.5,1.2c-0.4,0.3-0.8,0.3-1.2,0.1l-2.1-1.1l-2.1,1.1
			C8.3,18.5,8.2,18.5,8,18.5z M11.1,16.1l2,1l-0.4-2c-0.1-0.4,0.1-0.8,0.4-1.1l1.5-1.4l-2.1-0.3c-0.4-0.1-0.7-0.3-0.9-0.6l-1-1.9
			l-1,1.9c-0.2,0.3-0.5,0.6-0.9,0.6l-2.2,0.3L8.1,14c0.3,0.3,0.4,0.7,0.4,1.1l-0.4,2l2-1C10.4,15.9,10.8,15.9,11.1,16.1L11.1,16.1z
			 M8.5,11L8.5,11z M12.7,11L12.7,11z"/>
	</g>
</g>
</svg>
