<?xml version="1.0" encoding="utf-8"?>
<!-- Generator: Adobe Illustrator 23.1.0, SVG Export Plug-In . SVG Version: 6.00 Build 0)  -->
<svg version="1.1" id="圖層_1" xmlns="http://www.w3.org/2000/svg" xmlns:xlink="http://www.w3.org/1999/xlink" x="0px" y="0px"
	 viewBox="0 0 25 25" style="enable-background:new 0 0 25 25;" xml:space="preserve">
<style type="text/css">
	.st0{clip-path:url(#SVGID_2_);}
	.st1{fill:#A6A7A7;}
</style>
<g>
	<defs>
		<rect id="SVGID_1_" width="25" height="25"/>
	</defs>
	<clipPath id="SVGID_2_">
		<use xlink:href="#SVGID_1_"  style="overflow:visible;"/>
	</clipPath>
	<g id="title_car2" class="st0">
		<g id="_02-car" transform="translate(-1 -25.788)">
			<g id="linear_color" transform="translate(1 30.788)">
				<path id="路径_1129" class="st1" d="M22.9,5.9l-4.4-1.9l-2.7-3.3C15.5,0.2,15,0,14.5,0H3.8C3,0,2.3,0.4,1.9,1.2L0.2,4.6
					C0.1,4.9,0,5.2,0,5.5v4.6c0,0.9,0.8,1.7,1.7,1.7h0.6c0.3,1.5,1.8,2.5,3.4,2.2c1.1-0.2,2-1.1,2.2-2.2h8.9
					c0.3,1.5,1.8,2.5,3.4,2.2c1.1-0.2,2-1.1,2.2-2.2c0.9-0.1,1.6-0.8,1.6-1.7V7.5C24,6.7,23.6,6.1,22.9,5.9z M14.9,1.4l2,2.5h-4.3
					V1.1h1.9C14.6,1.1,14.8,1.2,14.9,1.4z M9.1,1.1v2.7H4.3l1.3-2.7L9.1,1.1z M2.9,1.7c0.2-0.3,0.5-0.5,0.9-0.5h0.5L3,3.8H1.9
					L2.9,1.7z M5.1,13c-0.9,0-1.7-0.8-1.7-1.7c0-0.9,0.8-1.7,1.7-1.7s1.7,0.8,1.7,1.7C6.9,12.2,6.1,13,5.1,13C5.1,13,5.1,13,5.1,13z
					 M19.6,13c-0.9,0-1.7-0.8-1.7-1.7s0.8-1.7,1.7-1.7c0.9,0,1.7,0.8,1.7,1.7C21.3,12.2,20.6,13,19.6,13C19.6,13,19.6,13,19.6,13z
					 M22.9,10.1c0,0.3-0.2,0.5-0.4,0.6c-0.3-1.5-1.8-2.5-3.4-2.2c-1.1,0.2-2,1.1-2.2,2.2H7.9C7.6,9.1,6.1,8.1,4.6,8.4
					c-1.1,0.2-2,1.1-2.2,2.2H1.7c-0.3,0-0.6-0.3-0.6-0.6V5.5c0-0.1,0-0.3,0.1-0.4L1.3,5h8.4c0.3,0,0.6-0.3,0.6-0.6V1.1h1.1v3.2
					C11.4,4.7,11.7,5,12,5c0,0,0,0,0,0h6l4.5,2l0,0c0.2,0.1,0.4,0.3,0.4,0.5L22.9,10.1z"/>
				<circle id="椭圆_64" class="st1" cx="5.4" cy="11.1" r="0.6"/>
				<circle id="椭圆_65" class="st1" cx="19.8" cy="11.1" r="0.6"/>
				<path id="路径_1130" class="st1" d="M12.8,6.1H12c-0.3,0-0.6,0.3-0.6,0.6c0,0.3,0.3,0.6,0.6,0.6l0,0h0.7
					c0.3,0,0.6-0.3,0.6-0.6C13.3,6.4,13.1,6.1,12.8,6.1z"/>
				<path id="路径_1131" class="st1" d="M5.9,6.1H4.8c-0.3,0-0.6,0.3-0.6,0.6c0,0.3,0.3,0.6,0.6,0.6h1.1c0.3,0,0.6-0.3,0.6-0.6
					C6.5,6.4,6.2,6.1,5.9,6.1z"/>
			</g>
		</g>
	</g>
</g>
</svg>
