<svg xmlns="http://www.w3.org/2000/svg" width="59.421" height="56.386" viewBox="0 0 59.421 56.386">
  <g id="Group_898" data-name="Group 898" transform="translate(564.146 -1955.15)">
    <circle id="Ellipse_252" data-name="Ellipse 252" cx="20.902" cy="20.902" r="20.902" transform="translate(-564.146 1960.012)" fill="#f7d0c6"/>
    <path id="Path_1477" data-name="Path 1477" d="M-527.616,2017.678c-7.852,0-15.7.014-23.554-.006-3.772-.01-5.273-2.508-3.486-5.784q11.856-21.723,23.725-43.439a3.708,3.708,0,0,1,3.321-2.315,3.745,3.745,0,0,1,3.311,2.334q11.852,21.725,23.734,43.433c1.781,3.261.25,5.786-3.5,5.79q-11.778.011-23.555,0Zm0-1.97q11.775,0,23.549-.005c2.263,0,2.838-.932,1.784-2.857q-11.756-21.489-23.555-42.954c-.382-.693-1.158-1.61-1.76-1.617s-1.389.906-1.769,1.6q-11.738,21.312-23.395,42.669c-1.261,2.3-.754,3.161,1.927,3.163Q-539.23,2015.715-527.62,2015.708Z" transform="translate(-4.9 -6.158)" fill="#391915"/>
    <path id="Path_1478" data-name="Path 1478" d="M-549.69,2016.567c2.25.5,2.367.744,1.393,2.711a22.117,22.117,0,0,1-1.451,2.745c-.224.326-.863.368-1.313.539-.12-.474-.422-.993-.319-1.412a13.007,13.007,0,0,1,1-2.214c-.391-.062-.677-.122-.967-.15-1.248-.118-1.5-.82-.949-1.808.821-1.48,1.679-2.947,2.642-4.335.255-.367.955-.426,1.45-.626.057.575.322,1.234.129,1.707A23.384,23.384,0,0,1-549.69,2016.567Z" transform="translate(-6.491 -31.885)" fill="#391915"/>
    <path id="Path_1479" data-name="Path 1479" d="M-449.544,1992.066c-2.438-.243-2.644-.647-1.529-2.515a38.584,38.584,0,0,1,2.135-3.483c.321-.427,1.073-.53,1.628-.78a4.512,4.512,0,0,1,.023,1.713,22.612,22.612,0,0,1-1.531,2.7c2.271.669,2.334.807,1.326,2.867a16.149,16.149,0,0,1-1.29,2.455c-.286.393-.926.528-1.406.779a5.2,5.2,0,0,1-.248-1.692A10.027,10.027,0,0,1-449.544,1992.066Z" transform="translate(-63.037 -16.898)" fill="#391915"/>
    <path id="Path_1480" data-name="Path 1480" d="M-525.089,2018.441q-11.609,0-23.219,0c-2.681,0-3.188-.861-1.927-3.163q11.687-21.34,23.395-42.669c.38-.69,1.176-1.6,1.769-1.6s1.378.924,1.76,1.617q11.82,21.453,23.555,42.954c1.053,1.925.479,2.853-1.784,2.857Q-513.315,2018.457-525.089,2018.441Zm-.044-1.929q10.046,0,20.092,0c2.153,0,2.533-.584,1.547-2.418q-10.125-18.822-20.293-37.621c-.278-.513-.9-1.194-1.332-1.172-.46.025-1.015.718-1.3,1.243q-10.065,18.574-20.074,37.177c-1.226,2.273-.931,2.79,1.6,2.792Q-535.014,2016.515-525.133,2016.512Z" transform="translate(-7.432 -8.892)" fill="#be261f"/>
    <path id="Path_1481" data-name="Path 1481" d="M-520.411,2021.987q-9.881,0-19.763,0c-2.528,0-2.822-.519-1.6-2.792q10.026-18.595,20.074-37.177c.285-.525.84-1.219,1.3-1.243.43-.023,1.055.658,1.332,1.172q10.181,18.792,20.293,37.621c.986,1.834.606,2.415-1.547,2.418Q-510.365,2022-520.411,2021.987Zm.05-38.321-19.479,36.193h38.966Z" transform="translate(-12.153 -14.367)" fill="#391915"/>
    <path id="Path_1482" data-name="Path 1482" d="M-517,1987.357l19.487,36.193h-38.966Z" transform="translate(-15.512 -18.059)" fill="#fce9b3"/>
    <path id="Path_1483" data-name="Path 1483" d="M-503.393,2022.623c1.157-2.18,3.409-6.774,4.6-8.823l.343.067c0,2.214,0,6.321,0,8.535,0,2.292,0,2.293,2.3,2.311.435,0,.871,0,1.688,0-1.343,2.492-3.513,6.562-4.59,9.135l-.372-.086c0-2.16,0-6.516,0-8.676,0-2.342,0-2.339-2.392-2.373C-502.237,2022.707-502.657,2022.666-503.393,2022.623Z" transform="translate(-34.064 -32.886)" fill="#4cb5ba"/>
    <path id="Path_1484" data-name="Path 1484" d="M-501.034,2011.557l.343.067c0,2.214,0,6.32,0,8.534,0,2.292,0,2.293,2.3,2.311l.5,0h1.185c-1.343,2.492-3.513,6.562-4.59,9.135l-.372-.086c0-2.16,0-6.516,0-8.676,0-2.342,0-2.339-2.392-2.373-.421-.006-.841-.047-1.577-.09,1.157-2.18,3.409-6.773,4.6-8.823m4.329,10.913h0m-4.331-12.67a1.758,1.758,0,0,0-1.519.874c-.785,1.35-2,3.728-3.063,5.826-.6,1.172-1.16,2.28-1.572,3.056a1.756,1.756,0,0,0,.02,1.685,1.758,1.758,0,0,0,1.429.893c.253.014.468.029.659.042.378.026.677.046,1,.05.221,0,.451.007.657.012,0,.192,0,.4,0,.606,0,1.566,0,4.287,0,6.488v2.187a1.757,1.757,0,0,0,1.36,1.711l.192.044.18.042a1.761,1.761,0,0,0,.4.046,1.758,1.758,0,0,0,1.621-1.079c1-2.4,3.034-6.231,4.487-8.927a1.746,1.746,0,0,0,.239-.886,1.756,1.756,0,0,0-1.756-1.757h-1.676c-.183,0-.376,0-.553-.007,0-.176,0-.367,0-.549,0-1.595,0-4.174,0-6.318v-2.214a1.757,1.757,0,0,0-1.42-1.725l-.345-.067a1.739,1.739,0,0,0-.335-.032Z" transform="translate(-31.821 -30.643)" fill="#3a1a16"/>
    <g id="Group_897" data-name="Group 897" transform="translate(-563.79 1955.15)">
      <path id="Path_1485" data-name="Path 1485" d="M-558.585,1961.882a3.37,3.37,0,0,1-3.366-3.366,3.37,3.37,0,0,1,3.366-3.366,3.37,3.37,0,0,1,3.366,3.366A3.37,3.37,0,0,1-558.585,1961.882Zm0-4.808a1.444,1.444,0,0,0-1.443,1.442,1.444,1.444,0,0,0,1.443,1.443,1.444,1.444,0,0,0,1.443-1.443A1.444,1.444,0,0,0-558.585,1957.074Z" transform="translate(562.559 -1955.15)" fill="#3b1a16"/>
      <circle id="Ellipse_253" data-name="Ellipse 253" cx="1.089" cy="1.089" r="1.089" transform="translate(0.962 12.855)" fill="#3b1a16"/>
      <circle id="Ellipse_254" data-name="Ellipse 254" cx="1.089" cy="1.089" r="1.089" transform="translate(56.023 36.897)" fill="#3b1a16"/>
      <circle id="Ellipse_255" data-name="Ellipse 255" cx="1.089" cy="1.089" r="1.089" transform="translate(39.428 2.277)" fill="#3b1a16"/>
      <circle id="Ellipse_256" data-name="Ellipse 256" cx="1.089" cy="1.089" r="1.089" transform="translate(0 36.897)" fill="#3b1a16"/>
      <path id="Path_1486" data-name="Path 1486" d="M-455.554,1968.626a.958.958,0,0,1-.68-.282.962.962,0,0,1,0-1.36l3.533-3.533a.961.961,0,0,1,1.36,0,.962.962,0,0,1,0,1.36l-3.533,3.533A.958.958,0,0,1-455.554,1968.626Z" transform="translate(503.44 -1959.647)" fill="#3b1a16"/>
      <path id="Path_1487" data-name="Path 1487" d="M-452.021,1968.626a.96.96,0,0,1-.68-.282l-3.533-3.533a.962.962,0,0,1,0-1.36.962.962,0,0,1,1.36,0l3.533,3.533a.962.962,0,0,1,0,1.36A.96.96,0,0,1-452.021,1968.626Z" transform="translate(503.44 -1959.647)" fill="#3b1a16"/>
    </g>
  </g>
</svg>
