<svg xmlns="http://www.w3.org/2000/svg" width="25" height="25.522" viewBox="0 0 25 25.522">
  <g id="Group_166" data-name="Group 166" transform="translate(-62 -2059)">
    <rect id="Rectangle_40" data-name="Rectangle 40" width="24" height="21.56" transform="translate(62.5 2062.462)" fill="none" stroke="#a4a5a2" stroke-linecap="round" stroke-linejoin="round" stroke-width="1"/>
    <line id="Line_10" data-name="Line 10" y2="4.698" transform="translate(68.03 2059.5)" fill="none" stroke="#a4a5a2" stroke-linecap="round" stroke-linejoin="round" stroke-width="1"/>
    <line id="Line_11" data-name="Line 11" y2="4.698" transform="translate(80.552 2059.602)" fill="none" stroke="#a4a5a2" stroke-linecap="round" stroke-linejoin="round" stroke-width="1"/>
    <line id="Line_12" data-name="Line 12" x2="24" transform="translate(62.5 2065.967)" fill="none" stroke="#a4a5a2" stroke-linecap="round" stroke-linejoin="round" stroke-width="1"/>
    <path id="Path_67" data-name="Path 67" d="M102.416,2113.588a2.337,2.337,0,0,1,2.131-1.588,2.6,2.6,0,0,1,2.324,2.646,2.885,2.885,0,0,1-.075,1,4.524,4.524,0,0,1-1.226,2.247l-3.154,3.094-3.1-3.094a4.523,4.523,0,0,1-1.226-2.247,2.885,2.885,0,0,1-.075-1,2.6,2.6,0,0,1,2.324-2.646A2.272,2.272,0,0,1,102.416,2113.588Z" transform="translate(-27.995 -41.404)" fill="#f7898a"/>
  </g>
</svg>
