<svg xmlns="http://www.w3.org/2000/svg" width="104" height="104" viewBox="0 0 104 104">
  <g id="Group_628" data-name="Group 628" transform="translate(-32 -908.667)">
    <rect id="Rectangle_80" data-name="Rectangle 80" width="103" height="103" rx="30" transform="translate(32.5 909.167)" fill="none" stroke="#f6f5f4" stroke-miterlimit="10" stroke-width="1"/>
    <text id="變更密碼" transform="translate(84 993.175)" fill="#767676" font-size="16" font-family="MicrosoftJhengHeiRegular, Microsoft JhengHei"><tspan x="-32" y="0">變更密碼</tspan></text>
    <g id="Group_544" data-name="Group 544" transform="translate(59.5 912.069)">
      <circle id="Ellipse_120" data-name="Ellipse 120" cx="12.117" cy="12.117" r="12.117" transform="translate(15.118 23.554)" fill="#fce9b3"/>
      <g id="Group_537" data-name="Group 537" transform="translate(22.771 22.278)">
        <circle id="Ellipse_121" data-name="Ellipse 121" cx="0.638" cy="0.638" r="0.638" fill="#3b1a16"/>
        <circle id="Ellipse_122" data-name="Ellipse 122" cx="0.638" cy="0.638" r="0.638" transform="translate(14.03 10.841)" fill="#3b1a16"/>
        <circle id="Ellipse_123" data-name="Ellipse 123" cx="0.638" cy="0.638" r="0.638" transform="translate(8.928 24.871)" fill="#3b1a16"/>
      </g>
      <g id="Group_538" data-name="Group 538" transform="translate(7.5 34.395)">
        <path id="Path_869" data-name="Path 869" d="M25.564,101.375H11.948a2.12,2.12,0,0,1-2.12-2.12v-11.7a2.12,2.12,0,0,1,2.12-2.12H25.564a2.12,2.12,0,0,1,2.12,2.12v11.7a2.12,2.12,0,0,1-2.12,2.12Z" transform="translate(-9.19 -84.794)" fill="#c1c1c1"/>
        <path id="Path_870" data-name="Path 870" d="M23.874,100.322H10.258A2.761,2.761,0,0,1,7.5,97.565v-11.7A2.761,2.761,0,0,1,10.258,83.1H23.874a2.761,2.761,0,0,1,2.758,2.758v11.7A2.761,2.761,0,0,1,23.874,100.322ZM10.258,84.379a1.484,1.484,0,0,0-1.482,1.482v11.7a1.484,1.484,0,0,0,1.482,1.482H23.874a1.484,1.484,0,0,0,1.482-1.482v-11.7a1.484,1.484,0,0,0-1.482-1.482Z" transform="translate(-7.5 -83.104)" fill="#3b1a16"/>
      </g>
      <g id="Group_539" data-name="Group 539" transform="translate(13.731 37.583)">
        <path id="Path_871" data-name="Path 871" d="M36.292,106H35.017l-.638-4.18a2.551,2.551,0,1,1,2.551,0Z" transform="translate(-32.466 -96.431)" fill="#553d48"/>
        <path id="Path_872" data-name="Path 872" d="M34.6,104.945H33.327a.638.638,0,0,1-.63-.541l-.595-3.9a3.188,3.188,0,1,1,3.726,0l-.595,3.9a.638.638,0,0,1-.631.541Zm-.727-1.275h.18l.555-3.638a.639.639,0,0,1,.31-.455,1.891,1.891,0,0,0,.959-1.646,1.913,1.913,0,1,0-3.826,0,1.892,1.892,0,0,0,.958,1.646.637.637,0,0,1,.31.455Z" transform="translate(-30.777 -94.742)" fill="#3b1a16"/>
      </g>
      <g id="Group_540" data-name="Group 540" transform="translate(10.051 23.386)">
        <path id="Path_873" data-name="Path 873" d="M31.892,55.014H29.341v-5.1a3.826,3.826,0,1,0-7.653,0v1.913H19.138V49.912a6.377,6.377,0,0,1,12.754,0Z" transform="translate(-18.5 -42.897)" fill="#553d48"/>
        <path id="Path_874" data-name="Path 874" d="M30.2,53.961H27.651a.638.638,0,0,1-.638-.638v-5.1a3.189,3.189,0,1,0-6.377,0v1.913a.638.638,0,0,1-.638.638H17.448a.638.638,0,0,1-.638-.638V48.222a7.015,7.015,0,1,1,14.03,0v5.1A.637.637,0,0,1,30.2,53.961Zm-1.913-1.275h1.275V48.222a5.739,5.739,0,1,0-11.479,0V49.5h1.275V48.222a4.464,4.464,0,1,1,8.928,0Z" transform="translate(-16.81 -41.207)" fill="#3b1a16"/>
      </g>
      <g id="Group_541" data-name="Group 541" transform="translate(10.051 31.55)">
        <path id="Path_875" data-name="Path 875" d="M19.138,73.793h2.551v3.189H19.138Z" transform="translate(-18.5 -73.155)" fill="#cf493f"/>
        <path id="Path_876" data-name="Path 876" d="M20,75.93H17.448a.638.638,0,0,1-.638-.638V72.1a.638.638,0,0,1,.638-.638H20a.638.638,0,0,1,.638.638v3.189A.638.638,0,0,1,20,75.93Zm-1.913-1.275h1.275V72.741H18.086Z" transform="translate(-16.81 -71.466)" fill="#3b1a16"/>
      </g>
      <g id="Group_542" data-name="Group 542" transform="translate(26.802 28.781)">
        <path id="Path_877" data-name="Path 877" d="M81.97,102.355a.637.637,0,0,1-.4-.14,8.916,8.916,0,0,1-1-.941.638.638,0,1,1,.943-.859,7.562,7.562,0,0,0,.858.8.638.638,0,0,1-.4,1.135Z" transform="translate(-80.403 -89.633)" fill="#3b1a16"/>
        <path id="Path_878" data-name="Path 878" d="M94.827,85.315l-.044,0a8.849,8.849,0,0,1-2.642-.595.638.638,0,0,1,.467-1.187,7.561,7.561,0,0,0,2.262.509.638.638,0,0,1-.043,1.274Zm2.5-.21a.638.638,0,0,1-.148-1.258,7.675,7.675,0,0,0,2.15-.875.638.638,0,0,1,.654,1.1,8.957,8.957,0,0,1-2.507,1.02.653.653,0,0,1-.149.018Zm4.263-2.55a.638.638,0,0,1-.477-1.061,7.7,7.7,0,0,0,.8-1.069,7.845,7.845,0,0,0,.468-.88.638.638,0,1,1,1.162.525A8.95,8.95,0,0,1,103,81.095a9.115,9.115,0,0,1-.926,1.245.637.637,0,0,1-.477.214Zm2.042-4.531a.723.723,0,0,1-.076,0A.638.638,0,0,1,103,77.31a7.483,7.483,0,0,0,.053-.9,7.659,7.659,0,0,0-.133-1.423.638.638,0,0,1,1.253-.237,8.93,8.93,0,0,1,.156,1.658,8.66,8.66,0,0,1-.062,1.048.638.638,0,0,1-.633.562Z" transform="translate(-88.631 -70.777)" fill="#3b1a16"/>
        <path id="Path_879" data-name="Path 879" d="M128.277,63.964a.639.639,0,0,1-.564-.338,7.511,7.511,0,0,0-.633-.992.638.638,0,0,1,1.019-.768,8.913,8.913,0,0,1,.74,1.159.638.638,0,0,1-.562.938Z" transform="translate(-114.199 -61.613)" fill="#3b1a16"/>
      </g>
      <g id="Group_543" data-name="Group 543" transform="translate(30.681 16.931)">
        <circle id="Ellipse_124" data-name="Ellipse 124" cx="4.396" cy="4.396" r="4.396" transform="translate(0.511 0.511)" fill="#85afd5"/>
        <path id="Path_880" data-name="Path 880" d="M99.468,26.745h0a4.907,4.907,0,0,1,0-9.814h0a4.907,4.907,0,0,1,0,9.814Zm0-8.792a3.885,3.885,0,0,0,0,7.77h0a3.885,3.885,0,0,0,0-7.77Zm4.4,3.886h0Z" transform="translate(-94.562 -16.931)" fill="#3b1a16"/>
      </g>
      <path id="Path_881" data-name="Path 881" d="M105.878,30.741a2.486,2.486,0,1,1,1.2-4.662.511.511,0,0,1-.493.9,1.463,1.463,0,1,0,.575,1.988.511.511,0,0,1,.894.494,2.488,2.488,0,0,1-2.181,1.284Z" transform="translate(-70.294 -6.418)" fill="#3b1a16"/>
      <path id="Path_882" data-name="Path 882" d="M112.992,26.192a.511.511,0,0,1-.171-.993l.577-.2-.338-.594a.511.511,0,1,1,.888-.505l.64,1.125a.511.511,0,0,1-.273.734l-1.151.409a.514.514,0,0,1-.171.03Z" transform="translate(-76.891 -4.868)" fill="#3b1a16"/>
    </g>
  </g>
</svg>
