<svg xmlns="http://www.w3.org/2000/svg" width="17.411" height="17.009" viewBox="0 0 17.411 17.009">
  <g id="Group_186" data-name="Group 186" transform="translate(-26.302 -6.113)">
    <g id="Group_185" data-name="Group 185" transform="translate(28.501 6.113)">
      <path id="Path_69" data-name="Path 69" d="M965.8,1211.739a.787.787,0,0,1-.7-1.138,14.106,14.106,0,0,1,11.956-8.108.787.787,0,1,1,.094,1.571,12.389,12.389,0,0,0-10.641,7.239A.787.787,0,0,1,965.8,1211.739Z" transform="translate(-965.016 -1198.88)" fill="#939491"/>
      <g id="Group_171" data-name="Group 171" transform="translate(6.57 0)">
        <path id="Path_70" data-name="Path 70" d="M983.76,1203.52l-.969-.805,3.973-4.768-5.046-3.615.735-1.023,6.145,4.4Z" transform="translate(-981.718 -1193.309)" fill="#939491"/>
      </g>
    </g>
    <path id="Path_101" data-name="Path 101" d="M976.052,1234.124H960.214a.787.787,0,0,1,0-1.573h15.838a.787.787,0,0,1,0,1.573Z" transform="translate(-933.125 -1211.001)" fill="#939491"/>
  </g>
</svg>
