<svg id="Group_100" data-name="Group 100" xmlns="http://www.w3.org/2000/svg" width="24.088" height="32.714" viewBox="0 0 24.088 32.714">
  <g id="Group_96" data-name="Group 96">
    <path id="Path_63" data-name="Path 63" d="M143.6,1076.616a12.058,12.058,0,0,0-12.044,12.044,11.75,11.75,0,0,0,1.053,4.917c3.011,6.589,8.785,13.546,10.482,15.521a.671.671,0,0,0,1.016,0c1.7-1.975,7.471-8.931,10.483-15.521a11.743,11.743,0,0,0,1.053-4.917A12.059,12.059,0,0,0,143.6,1076.616Zm0,18.3a6.256,6.256,0,1,1,6.256-6.256A6.263,6.263,0,0,1,143.6,1094.916Z" transform="translate(-131.555 -1076.616)" fill="#d96771"/>
  </g>
</svg>
