<svg xmlns="http://www.w3.org/2000/svg" width="20" height="27.304" viewBox="0 0 20 27.304">
  <g id="Group_652" data-name="Group 652" transform="translate(-448.248 -1456.071)">
    <path id="Path_1119" data-name="Path 1119" d="M458.529,1481.008h-3.836a.341.341,0,0,1,0-.681h3.836a.341.341,0,1,1,0,.681Z" fill="#e3e0ee"/>
    <path id="Path_1120" data-name="Path 1120" d="M464.753,1472.52a.341.341,0,0,0-.341.341v5.2H448.929V1457.6a.85.85,0,0,1,.848-.848h13.787a.85.85,0,0,1,.848.848v1.074a.341.341,0,1,0,.681,0V1457.6a1.531,1.531,0,0,0-1.529-1.529H449.777a1.53,1.53,0,0,0-1.529,1.529v24.246a1.53,1.53,0,0,0,1.529,1.529h13.787a1.531,1.531,0,0,0,1.53-1.529v-8.985a.341.341,0,0,0-.341-.341Zm-1.189,10.174H449.777a.85.85,0,0,1-.848-.848v-3.106h15.483v3.106a.849.849,0,0,1-.848.848Z" fill="#6f5b62"/>
    <path id="Path_1121" data-name="Path 1121" d="M467.463,1459.7H452.176a.785.785,0,0,0-.784.785v10.573a.784.784,0,0,0,.784.784h1.93v3.531a.341.341,0,0,0,.582.24l3.77-3.77h9.005a.787.787,0,0,0,.785-.785v-10.573a.787.787,0,0,0-.785-.785Zm.1,11.358a.1.1,0,0,1-.1.1h-9.145a.338.338,0,0,0-.241.1l-3.289,3.289V1471.5a.341.341,0,0,0-.341-.341h-2.271a.1.1,0,0,1-.1-.1v-10.573a.1.1,0,0,1,.1-.1h15.287a.1.1,0,0,1,.1.1Z" fill="#6f5b62"/>
    <path id="Path_1122" data-name="Path 1122" d="M458.577,1468.59a1.024,1.024,0,0,1-.393-1.97l.23-.1a.341.341,0,0,0,.211-.317v-.973a2.8,2.8,0,0,1,2.8-2.8.341.341,0,0,1,0,.682,2.119,2.119,0,0,0-2.117,2.117v.973a1.024,1.024,0,0,1-.63.946l-.232.1a.343.343,0,0,0,.132.66.34.34,0,1,1,0,.681Z" fill="#e3e0ee"/>
    <g id="Group_651" data-name="Group 651">
      <path id="Path_1123" data-name="Path 1123" d="M462.973,1468.59h-6.307a1.1,1.1,0,0,1-.422-2.112l.256-.107a.415.415,0,0,0,.256-.384v-1.079a3.064,3.064,0,0,1,6.127,0v1.079a.415.415,0,0,0,.256.385l.256.106a1.1,1.1,0,0,1-.423,2.113Zm-3.154-6.063a2.385,2.385,0,0,0-2.382,2.382v1.079a1.094,1.094,0,0,1-.676,1.013l-.256.107a.417.417,0,0,0,.161.8h6.306a.416.416,0,0,0,.16-.8l-.256-.107a1.1,1.1,0,0,1-.675-1.013v-1.08A2.384,2.384,0,0,0,459.819,1462.527Z" fill="#f09a71"/>
      <path id="Path_1124" data-name="Path 1124" d="M459.819,1470.422a1.644,1.644,0,0,1-1.5-2.31.34.34,0,1,1,.626.267l0,.008a.963.963,0,1,0,1.762,0,.34.34,0,1,1,.623-.275,1.646,1.646,0,0,1-1.5,2.31Z" fill="#f09a71"/>
      <path id="Path_1125" data-name="Path 1125" d="M459.819,1462.527a.341.341,0,0,1-.341-.341v-.811a.341.341,0,0,1,.682,0v.811A.341.341,0,0,1,459.819,1462.527Z" fill="#f09a71"/>
    </g>
  </g>
</svg>
