<svg id="Group_156" data-name="Group 156" xmlns="http://www.w3.org/2000/svg" width="16" height="16" viewBox="0 0 16 16">
  <g id="Group_149" data-name="Group 149">
    <g id="Group_148" data-name="Group 148">
      <path id="Path_51" data-name="Path 51" d="M8,0a8,8,0,1,0,8,8A8,8,0,0,0,8,0ZM8,14.857A6.857,6.857,0,1,1,14.857,8,6.857,6.857,0,0,1,8,14.857Z" fill="#a6a7a7"/>
    </g>
  </g>
  <g id="Group_151" data-name="Group 151" transform="translate(3.792 5.417)">
    <g id="Group_150" data-name="Group 150">
      <circle id="Ellipse_19" data-name="Ellipse 19" cx="1.5" cy="1.5" r="1.5" fill="#a6a7a7"/>
    </g>
  </g>
  <g id="Group_153" data-name="Group 153" transform="translate(9.208 5.417)">
    <g id="Group_152" data-name="Group 152">
      <circle id="Ellipse_20" data-name="Ellipse 20" cx="1.5" cy="1.5" r="1.5" fill="#a6a7a7"/>
    </g>
  </g>
  <g id="Group_155" data-name="Group 155" transform="translate(4.979 9.334)">
    <g id="Group_154" data-name="Group 154">
      <path id="Path_52" data-name="Path 52" d="M176.082,290.051a.75.75,0,0,0-1.05-.152l-.042.034h0a3.019,3.019,0,0,1-3.561,0,.75.75,0,0,0-.981,1.135l.042.034a4.478,4.478,0,0,0,5.439,0A.75.75,0,0,0,176.082,290.051Z" transform="translate(-170.189 -289.75)" fill="#a6a7a7"/>
    </g>
  </g>
</svg>
