<svg xmlns="http://www.w3.org/2000/svg" width="20.929" height="20.251" viewBox="0 0 20.929 20.251">
  <path id="Path_939" data-name="Path 939" d="M-115.607,30.987l2.228,4.561a1.094,1.094,0,0,0,.823.6l4.982.732a1.108,1.108,0,0,1,.606,1.884l-3.605,3.55a1.113,1.113,0,0,0-.314.978l.851,5.013a1.1,1.1,0,0,1-1.586,1.165l-4.456-2.367a1.082,1.082,0,0,0-1.018,0l-4.456,2.367a1.1,1.1,0,0,1-1.586-1.165l.851-5.013a1.113,1.113,0,0,0-.314-.978l-3.606-3.55a1.108,1.108,0,0,1,.606-1.884l4.982-.732a1.1,1.1,0,0,0,.823-.6l2.228-4.561A1.088,1.088,0,0,1-115.607,30.987Z" transform="translate(127.052 -29.871)" fill="none" stroke="#d4d5d5" stroke-width="1"/>
</svg>
